<?xml version="1.0" encoding="UTF-8" standalone="no"?>
<!DOCTYPE svg PUBLIC "-//W3C//DTD SVG 1.1//EN"
 "http://www.w3.org/Graphics/SVG/1.1/DTD/svg11.dtd">
<!-- Generated by graphviz version 2.46.0 (20210118.1747)
 -->
<!-- Pages: 1 -->
<svg width="1387pt" height="378pt"
 viewBox="0.00 0.00 1386.64 378.27" xmlns="http://www.w3.org/2000/svg" xmlns:xlink="http://www.w3.org/1999/xlink">
<g id="graph0" class="graph" transform="scale(1 1) rotate(0) translate(4 374.27)">
<polygon fill="white" stroke="transparent" points="-4,4 -4,-374.27 1382.64,-374.27 1382.64,4 -4,4"/>
<!-- A -->
<g id="node1" class="node">
<title>A</title>
<polygon fill="lightgray" stroke="black" points="29.53,-347.16 7.53,-347.16 7.53,-331.16 29.53,-331.16 29.53,-347.16"/>
<text text-anchor="middle" x="18.53" y="-337.56" font-family="Times New Roman,serif" font-size="7.00">A</text>
</g>
<!-- 1319 -->
<g id="node43" class="node">
<title>1319</title>
<ellipse fill="white" stroke="black" cx="226.53" cy="-249.42" rx="22.76" ry="22.76"/>
<text text-anchor="middle" x="226.53" y="-247.82" font-family="Times New Roman,serif" font-size="7.00">1319</text>
</g>
<!-- A&#45;&gt;1319 -->
<g id="edge13" class="edge">
<title>A&#45;&gt;1319</title>
<path fill="none" stroke="red" stroke-width="0.7" d="M29.61,-334.38C63.26,-322.85 163.79,-287.93 194.53,-272.05 196.31,-271.13 198.12,-270.12 199.92,-269.07"/>
<polygon fill="red" stroke="red" stroke-width="0.7" points="202.1,-271.83 208.71,-263.54 198.38,-265.9 202.1,-271.83"/>
</g>
<!-- 624 -->
<g id="node44" class="node">
<title>624</title>
<ellipse fill="white" stroke="black" cx="85.53" cy="-170.99" rx="19.6" ry="19.6"/>
<text text-anchor="middle" x="85.53" y="-169.39" font-family="Times New Roman,serif" font-size="7.00">624</text>
</g>
<!-- A&#45;&gt;624 -->
<g id="edge5" class="edge">
<title>A&#45;&gt;624</title>
<path fill="none" stroke="green" stroke-width="0.16" d="M15.43,-331.14C7.84,-312.79 -9.8,-262.34 8.53,-226.79 18.87,-206.74 40.32,-192.42 57.96,-183.45"/>
<polygon fill="green" stroke="green" stroke-width="0.16" points="59.75,-186.48 67.28,-179.03 56.74,-180.16 59.75,-186.48"/>
</g>
<!-- B -->
<g id="node2" class="node">
<title>B</title>
<polygon fill="lightgray" stroke="black" points="301.03,-347.16 280.03,-347.16 280.03,-331.16 301.03,-331.16 301.03,-347.16"/>
<text text-anchor="middle" x="290.53" y="-337.56" font-family="Times New Roman,serif" font-size="7.00">B</text>
</g>
<!-- &#45;3 -->
<g id="node3" class="node">
<title>&#45;3</title>
<polygon fill="lightgray" stroke="black" points="290.03,-257.42 267.03,-257.42 267.03,-241.42 290.03,-241.42 290.03,-257.42"/>
<text text-anchor="middle" x="278.53" y="-247.82" font-family="Times New Roman,serif" font-size="7.00">&#45;3</text>
</g>
<!-- 1 -->
<g id="node40" class="node">
<title>1</title>
<ellipse fill="lightblue" stroke="black" cx="226.53" cy="-170.99" rx="14.29" ry="14.29"/>
<text text-anchor="middle" x="226.53" y="-169.39" font-family="Times New Roman,serif" font-size="7.00">1</text>
</g>
<!-- &#45;3&#45;&gt;1 -->
<g id="edge1" class="edge">
<title>&#45;3&#45;&gt;1</title>
<path fill="none" stroke="green" stroke-width="0.89" d="M273.73,-241.37C266.09,-230.14 250.9,-207.82 239.81,-191.52"/>
<polygon fill="green" stroke="green" stroke-width="0.89" points="242.66,-189.49 234.14,-183.19 236.87,-193.43 242.66,-189.49"/>
</g>
<!-- &#45;4 -->
<g id="node4" class="node">
<title>&#45;4</title>
<polygon fill="lightgray" stroke="black" points="342.03,-347.16 319.03,-347.16 319.03,-331.16 342.03,-331.16 342.03,-347.16"/>
<text text-anchor="middle" x="330.53" y="-337.56" font-family="Times New Roman,serif" font-size="7.00">&#45;4</text>
</g>
<!-- &#45;5 -->
<g id="node5" class="node">
<title>&#45;5</title>
<polygon fill="lightgray" stroke="black" points="383.03,-347.16 360.03,-347.16 360.03,-331.16 383.03,-331.16 383.03,-347.16"/>
<text text-anchor="middle" x="371.53" y="-337.56" font-family="Times New Roman,serif" font-size="7.00">&#45;5</text>
</g>
<!-- &#45;6 -->
<g id="node6" class="node">
<title>&#45;6</title>
<polygon fill="lightgray" stroke="black" points="424.03,-347.16 401.03,-347.16 401.03,-331.16 424.03,-331.16 424.03,-347.16"/>
<text text-anchor="middle" x="412.53" y="-337.56" font-family="Times New Roman,serif" font-size="7.00">&#45;6</text>
</g>
<!-- &#45;7 -->
<g id="node7" class="node">
<title>&#45;7</title>
<polygon fill="lightgray" stroke="black" points="139.03,-347.16 116.03,-347.16 116.03,-331.16 139.03,-331.16 139.03,-347.16"/>
<text text-anchor="middle" x="127.53" y="-337.56" font-family="Times New Roman,serif" font-size="7.00">&#45;7</text>
</g>
<!-- &#45;7&#45;&gt;1319 -->
<g id="edge23" class="edge">
<title>&#45;7&#45;&gt;1319</title>
<path fill="none" stroke="red" stroke-width="0.31" d="M135.63,-330.98C150.02,-318.22 180.58,-291.14 202.29,-271.9"/>
<polygon fill="red" stroke="red" stroke-width="0.31" points="204.68,-274.46 209.84,-265.21 200.03,-269.22 204.68,-274.46"/>
</g>
<!-- &#45;7&#45;&gt;624 -->
<g id="edge20" class="edge">
<title>&#45;7&#45;&gt;624</title>
<path fill="none" stroke="red" stroke-width="0.3" d="M115.88,-335.2C92.4,-328.52 39.81,-309.85 18.53,-272.05 8.66,-254.52 9.91,-244.97 18.53,-226.79 26.95,-209.03 44.26,-195.11 59.18,-185.74"/>
<polygon fill="red" stroke="red" stroke-width="0.3" points="61.22,-188.6 68.06,-180.51 57.67,-182.57 61.22,-188.6"/>
</g>
<!-- &#45;8 -->
<g id="node8" class="node">
<title>&#45;8</title>
<polygon fill="lightgray" stroke="black" points="465.03,-347.16 442.03,-347.16 442.03,-331.16 465.03,-331.16 465.03,-347.16"/>
<text text-anchor="middle" x="453.53" y="-337.56" font-family="Times New Roman,serif" font-size="7.00">&#45;8</text>
</g>
<!-- &#45;9 -->
<g id="node9" class="node">
<title>&#45;9</title>
<polygon fill="lightgray" stroke="black" points="506.03,-347.16 483.03,-347.16 483.03,-331.16 506.03,-331.16 506.03,-347.16"/>
<text text-anchor="middle" x="494.53" y="-337.56" font-family="Times New Roman,serif" font-size="7.00">&#45;9</text>
</g>
<!-- &#45;10 -->
<g id="node10" class="node">
<title>&#45;10</title>
<polygon fill="lightgray" stroke="black" points="550.53,-347.16 524.53,-347.16 524.53,-331.16 550.53,-331.16 550.53,-347.16"/>
<text text-anchor="middle" x="537.53" y="-337.56" font-family="Times New Roman,serif" font-size="7.00">&#45;10</text>
</g>
<!-- 2 -->
<g id="node41" class="node">
<title>2</title>
<ellipse fill="lightblue" stroke="black" cx="559.53" cy="-249.42" rx="14.29" ry="14.29"/>
<text text-anchor="middle" x="559.53" y="-247.82" font-family="Times New Roman,serif" font-size="7.00">2</text>
</g>
<!-- &#45;10&#45;&gt;2 -->
<g id="edge17" class="edge">
<title>&#45;10&#45;&gt;2</title>
<path fill="none" stroke="red" stroke-width="0.16" d="M539.33,-330.98C542.46,-318.48 549.04,-292.22 553.85,-273.07"/>
<polygon fill="red" stroke="red" stroke-width="0.16" points="557.26,-273.85 556.3,-263.3 550.47,-272.15 557.26,-273.85"/>
</g>
<!-- &#45;11 -->
<g id="node11" class="node">
<title>&#45;11</title>
<polygon fill="lightgray" stroke="black" points="638.53,-347.16 612.53,-347.16 612.53,-331.16 638.53,-331.16 638.53,-347.16"/>
<text text-anchor="middle" x="625.53" y="-337.56" font-family="Times New Roman,serif" font-size="7.00">&#45;11</text>
</g>
<!-- &#45;12 -->
<g id="node12" class="node">
<title>&#45;12</title>
<polygon fill="lightgray" stroke="black" points="682.53,-347.16 656.53,-347.16 656.53,-331.16 682.53,-331.16 682.53,-347.16"/>
<text text-anchor="middle" x="669.53" y="-337.56" font-family="Times New Roman,serif" font-size="7.00">&#45;12</text>
</g>
<!-- &#45;13 -->
<g id="node13" class="node">
<title>&#45;13</title>
<polygon fill="lightgray" stroke="black" points="594.53,-347.16 568.53,-347.16 568.53,-331.16 594.53,-331.16 594.53,-347.16"/>
<text text-anchor="middle" x="581.53" y="-337.56" font-family="Times New Roman,serif" font-size="7.00">&#45;13</text>
</g>
<!-- &#45;13&#45;&gt;2 -->
<g id="edge2" class="edge">
<title>&#45;13&#45;&gt;2</title>
<path fill="none" stroke="red" stroke-width="0.61" d="M579.73,-330.98C576.59,-318.48 570.01,-292.22 565.21,-273.07"/>
<polygon fill="red" stroke="red" stroke-width="0.61" points="568.58,-272.15 562.75,-263.3 561.79,-273.85 568.58,-272.15"/>
</g>
<!-- &#45;14 -->
<g id="node14" class="node">
<title>&#45;14</title>
<polygon fill="lightgray" stroke="black" points="284.53,-178.99 258.53,-178.99 258.53,-162.99 284.53,-162.99 284.53,-178.99"/>
<text text-anchor="middle" x="271.53" y="-169.39" font-family="Times New Roman,serif" font-size="7.00">&#45;14</text>
</g>
<!-- 178 -->
<g id="node45" class="node">
<title>178</title>
<ellipse fill="white" stroke="black" cx="226.53" cy="-95.4" rx="19.6" ry="19.6"/>
<text text-anchor="middle" x="226.53" y="-93.8" font-family="Times New Roman,serif" font-size="7.00">178</text>
</g>
<!-- &#45;14&#45;&gt;178 -->
<g id="edge18" class="edge">
<title>&#45;14&#45;&gt;178</title>
<path fill="none" stroke="green" stroke-width="0.4" d="M267.21,-162.94C261.38,-153.4 250.69,-135.91 241.73,-121.26"/>
<polygon fill="green" stroke="green" stroke-width="0.4" points="244.63,-119.3 236.43,-112.59 238.66,-122.95 244.63,-119.3"/>
</g>
<!-- &#45;15 -->
<g id="node15" class="node">
<title>&#45;15</title>
<polygon fill="lightgray" stroke="black" points="328.53,-178.99 302.53,-178.99 302.53,-162.99 328.53,-162.99 328.53,-178.99"/>
<text text-anchor="middle" x="315.53" y="-169.39" font-family="Times New Roman,serif" font-size="7.00">&#45;15</text>
</g>
<!-- &#45;15&#45;&gt;178 -->
<g id="edge6" class="edge">
<title>&#45;15&#45;&gt;178</title>
<path fill="none" stroke="green" stroke-width="0.24" stroke-dasharray="1,5" d="M307.41,-162.99C303.27,-159.44 298.15,-155.06 293.53,-151.2 278.96,-139.02 262.46,-125.52 249.47,-114.96"/>
<polygon fill="green" stroke="green" stroke-width="0.24" points="251.47,-112.08 241.5,-108.49 247.06,-117.51 251.47,-112.08"/>
</g>
<!-- &#45;16 -->
<g id="node16" class="node">
<title>&#45;16</title>
<polygon fill="lightgray" stroke="black" points="53.53,-257.42 27.53,-257.42 27.53,-241.42 53.53,-241.42 53.53,-257.42"/>
<text text-anchor="middle" x="40.53" y="-247.82" font-family="Times New Roman,serif" font-size="7.00">&#45;16</text>
</g>
<!-- &#45;16&#45;&gt;624 -->
<g id="edge24" class="edge">
<title>&#45;16&#45;&gt;624</title>
<path fill="none" stroke="green" stroke-width="0.54" d="M44.68,-241.37C50.57,-231.36 61.66,-212.53 70.8,-197.01"/>
<polygon fill="green" stroke="green" stroke-width="0.54" points="73.84,-198.74 75.9,-188.34 67.81,-195.18 73.84,-198.74"/>
</g>
<!-- &#45;17 -->
<g id="node17" class="node">
<title>&#45;17</title>
<polygon fill="lightgray" stroke="black" points="726.53,-347.16 700.53,-347.16 700.53,-331.16 726.53,-331.16 726.53,-347.16"/>
<text text-anchor="middle" x="713.53" y="-337.56" font-family="Times New Roman,serif" font-size="7.00">&#45;17</text>
</g>
<!-- &#45;18 -->
<g id="node18" class="node">
<title>&#45;18</title>
<polygon fill="lightgray" stroke="black" points="97.53,-257.42 71.53,-257.42 71.53,-241.42 97.53,-241.42 97.53,-257.42"/>
<text text-anchor="middle" x="84.53" y="-247.82" font-family="Times New Roman,serif" font-size="7.00">&#45;18</text>
</g>
<!-- &#45;18&#45;&gt;624 -->
<g id="edge19" class="edge">
<title>&#45;18&#45;&gt;624</title>
<path fill="none" stroke="red" stroke-width="0.39" d="M84.62,-241.37C84.74,-232.21 84.95,-215.66 85.15,-201.03"/>
<polygon fill="red" stroke="red" stroke-width="0.39" points="88.65,-200.88 85.28,-190.84 81.65,-200.79 88.65,-200.88"/>
</g>
<!-- &#45;19 -->
<g id="node19" class="node">
<title>&#45;19</title>
<polygon fill="lightgray" stroke="black" points="770.53,-347.16 744.53,-347.16 744.53,-331.16 770.53,-331.16 770.53,-347.16"/>
<text text-anchor="middle" x="757.53" y="-337.56" font-family="Times New Roman,serif" font-size="7.00">&#45;19</text>
</g>
<!-- &#45;20 -->
<g id="node20" class="node">
<title>&#45;20</title>
<polygon fill="lightgray" stroke="black" points="372.53,-178.99 346.53,-178.99 346.53,-162.99 372.53,-162.99 372.53,-178.99"/>
<text text-anchor="middle" x="359.53" y="-169.39" font-family="Times New Roman,serif" font-size="7.00">&#45;20</text>
</g>
<!-- &#45;20&#45;&gt;178 -->
<g id="edge12" class="edge">
<title>&#45;20&#45;&gt;178</title>
<path fill="none" stroke="green" stroke-width="0.25" d="M352.16,-162.89C348.05,-159.14 342.73,-154.62 337.53,-151.2 310.52,-133.39 276.9,-117.58 253.78,-107.58"/>
<polygon fill="green" stroke="green" stroke-width="0.25" points="255.14,-104.35 244.57,-103.65 252.4,-110.79 255.14,-104.35"/>
</g>
<!-- &#45;21 -->
<g id="node21" class="node">
<title>&#45;21</title>
<polygon fill="lightgray" stroke="black" points="141.53,-257.42 115.53,-257.42 115.53,-241.42 141.53,-241.42 141.53,-257.42"/>
<text text-anchor="middle" x="128.53" y="-247.82" font-family="Times New Roman,serif" font-size="7.00">&#45;21</text>
</g>
<!-- &#45;21&#45;&gt;624 -->
<g id="edge11" class="edge">
<title>&#45;21&#45;&gt;624</title>
<path fill="none" stroke="green" stroke-width="0.18" d="M124.56,-241.37C119.01,-231.51 108.66,-213.11 100,-197.73"/>
<polygon fill="green" stroke="green" stroke-width="0.18" points="102.85,-195.65 94.9,-188.65 96.75,-199.08 102.85,-195.65"/>
</g>
<!-- &#45;22 -->
<g id="node22" class="node">
<title>&#45;22</title>
<polygon fill="lightgray" stroke="black" points="814.53,-347.16 788.53,-347.16 788.53,-331.16 814.53,-331.16 814.53,-347.16"/>
<text text-anchor="middle" x="801.53" y="-337.56" font-family="Times New Roman,serif" font-size="7.00">&#45;22</text>
</g>
<!-- &#45;23 -->
<g id="node23" class="node">
<title>&#45;23</title>
<polygon fill="lightgray" stroke="black" points="858.53,-347.16 832.53,-347.16 832.53,-331.16 858.53,-331.16 858.53,-347.16"/>
<text text-anchor="middle" x="845.53" y="-337.56" font-family="Times New Roman,serif" font-size="7.00">&#45;23</text>
</g>
<!-- &#45;24 -->
<g id="node24" class="node">
<title>&#45;24</title>
<polygon fill="lightgray" stroke="black" points="902.53,-347.16 876.53,-347.16 876.53,-331.16 902.53,-331.16 902.53,-347.16"/>
<text text-anchor="middle" x="889.53" y="-337.56" font-family="Times New Roman,serif" font-size="7.00">&#45;24</text>
</g>
<!-- &#45;25 -->
<g id="node25" class="node">
<title>&#45;25</title>
<polygon fill="lightgray" stroke="black" points="150.53,-178.99 124.53,-178.99 124.53,-162.99 150.53,-162.99 150.53,-178.99"/>
<text text-anchor="middle" x="137.53" y="-169.39" font-family="Times New Roman,serif" font-size="7.00">&#45;25</text>
</g>
<!-- &#45;25&#45;&gt;178 -->
<g id="edge7" class="edge">
<title>&#45;25&#45;&gt;178</title>
<path fill="none" stroke="red" stroke-width="0.26" d="M145.64,-162.99C149.78,-159.44 154.9,-155.06 159.53,-151.2 174.09,-139.02 190.6,-125.52 203.58,-114.96"/>
<polygon fill="red" stroke="red" stroke-width="0.26" points="205.99,-117.51 211.55,-108.49 201.58,-112.08 205.99,-117.51"/>
</g>
<!-- &#45;26 -->
<g id="node26" class="node">
<title>&#45;26</title>
<polygon fill="lightgray" stroke="black" points="946.53,-347.16 920.53,-347.16 920.53,-331.16 946.53,-331.16 946.53,-347.16"/>
<text text-anchor="middle" x="933.53" y="-337.56" font-family="Times New Roman,serif" font-size="7.00">&#45;26</text>
</g>
<!-- &#45;27 -->
<g id="node27" class="node">
<title>&#45;27</title>
<polygon fill="lightgray" stroke="black" points="990.53,-347.16 964.53,-347.16 964.53,-331.16 990.53,-331.16 990.53,-347.16"/>
<text text-anchor="middle" x="977.53" y="-337.56" font-family="Times New Roman,serif" font-size="7.00">&#45;27</text>
</g>
<!-- &#45;28 -->
<g id="node28" class="node">
<title>&#45;28</title>
<polygon fill="lightgray" stroke="black" points="217.53,-347.16 191.53,-347.16 191.53,-331.16 217.53,-331.16 217.53,-347.16"/>
<text text-anchor="middle" x="204.53" y="-337.56" font-family="Times New Roman,serif" font-size="7.00">&#45;28</text>
</g>
<!-- &#45;28&#45;&gt;1319 -->
<g id="edge15" class="edge">
<title>&#45;28&#45;&gt;1319</title>
<path fill="none" stroke="green" stroke-width="0.66" d="M206.33,-330.98C209.03,-320.19 214.31,-299.14 218.79,-281.27"/>
<polygon fill="green" stroke="green" stroke-width="0.66" points="222.21,-282.03 221.25,-271.48 215.42,-280.33 222.21,-282.03"/>
</g>
<!-- &#45;29 -->
<g id="node29" class="node">
<title>&#45;29</title>
<polygon fill="lightgray" stroke="black" points="1034.53,-347.16 1008.53,-347.16 1008.53,-331.16 1034.53,-331.16 1034.53,-347.16"/>
<text text-anchor="middle" x="1021.53" y="-337.56" font-family="Times New Roman,serif" font-size="7.00">&#45;29</text>
</g>
<!-- &#45;30 -->
<g id="node30" class="node">
<title>&#45;30</title>
<polygon fill="lightgray" stroke="black" points="1078.53,-347.16 1052.53,-347.16 1052.53,-331.16 1078.53,-331.16 1078.53,-347.16"/>
<text text-anchor="middle" x="1065.53" y="-337.56" font-family="Times New Roman,serif" font-size="7.00">&#45;30</text>
</g>
<!-- &#45;31 -->
<g id="node31" class="node">
<title>&#45;31</title>
<polygon fill="lightgray" stroke="black" points="1122.53,-347.16 1096.53,-347.16 1096.53,-331.16 1122.53,-331.16 1122.53,-347.16"/>
<text text-anchor="middle" x="1109.53" y="-337.56" font-family="Times New Roman,serif" font-size="7.00">&#45;31</text>
</g>
<!-- &#45;32 -->
<g id="node32" class="node">
<title>&#45;32</title>
<polygon fill="lightgray" stroke="black" points="185.53,-257.42 159.53,-257.42 159.53,-241.42 185.53,-241.42 185.53,-257.42"/>
<text text-anchor="middle" x="172.53" y="-247.82" font-family="Times New Roman,serif" font-size="7.00">&#45;32</text>
</g>
<!-- &#45;32&#45;&gt;624 -->
<g id="edge8" class="edge">
<title>&#45;32&#45;&gt;624</title>
<path fill="none" stroke="red" stroke-width="0.22" d="M165.33,-241.07C161.09,-236.82 155.59,-231.41 150.53,-226.79 136.83,-214.32 120.94,-200.91 108.3,-190.47"/>
<polygon fill="red" stroke="red" stroke-width="0.22" points="110.47,-187.72 100.52,-184.09 106.03,-193.14 110.47,-187.72"/>
</g>
<!-- &#45;33 -->
<g id="node33" class="node">
<title>&#45;33</title>
<polygon fill="lightgray" stroke="black" points="1166.53,-347.16 1140.53,-347.16 1140.53,-331.16 1166.53,-331.16 1166.53,-347.16"/>
<text text-anchor="middle" x="1153.53" y="-337.56" font-family="Times New Roman,serif" font-size="7.00">&#45;33</text>
</g>
<!-- &#45;34 -->
<g id="node34" class="node">
<title>&#45;34</title>
<polygon fill="lightgray" stroke="black" points="261.53,-347.16 235.53,-347.16 235.53,-331.16 261.53,-331.16 261.53,-347.16"/>
<text text-anchor="middle" x="248.53" y="-337.56" font-family="Times New Roman,serif" font-size="7.00">&#45;34</text>
</g>
<!-- &#45;34&#45;&gt;1319 -->
<g id="edge16" class="edge">
<title>&#45;34&#45;&gt;1319</title>
<path fill="none" stroke="red" stroke-width="0.61" d="M246.73,-330.98C244.02,-320.19 238.74,-299.14 234.26,-281.27"/>
<polygon fill="red" stroke="red" stroke-width="0.61" points="237.63,-280.33 231.81,-271.48 230.84,-282.03 237.63,-280.33"/>
</g>
<!-- &#45;35 -->
<g id="node35" class="node">
<title>&#45;35</title>
<polygon fill="lightgray" stroke="black" points="1210.53,-347.16 1184.53,-347.16 1184.53,-331.16 1210.53,-331.16 1210.53,-347.16"/>
<text text-anchor="middle" x="1197.53" y="-337.56" font-family="Times New Roman,serif" font-size="7.00">&#45;35</text>
</g>
<!-- &#45;36 -->
<g id="node36" class="node">
<title>&#45;36</title>
<polygon fill="lightgray" stroke="black" points="1254.53,-347.16 1228.53,-347.16 1228.53,-331.16 1254.53,-331.16 1254.53,-347.16"/>
<text text-anchor="middle" x="1241.53" y="-337.56" font-family="Times New Roman,serif" font-size="7.00">&#45;36</text>
</g>
<!-- &#45;37 -->
<g id="node37" class="node">
<title>&#45;37</title>
<polygon fill="lightgray" stroke="black" points="194.53,-178.99 168.53,-178.99 168.53,-162.99 194.53,-162.99 194.53,-178.99"/>
<text text-anchor="middle" x="181.53" y="-169.39" font-family="Times New Roman,serif" font-size="7.00">&#45;37</text>
</g>
<!-- &#45;37&#45;&gt;178 -->
<g id="edge22" class="edge">
<title>&#45;37&#45;&gt;178</title>
<path fill="none" stroke="green" stroke-width="0.2" d="M185.84,-162.94C191.67,-153.4 202.36,-135.91 211.33,-121.26"/>
<polygon fill="green" stroke="green" stroke-width="0.2" points="214.39,-122.95 216.62,-112.59 208.42,-119.3 214.39,-122.95"/>
</g>
<!-- &#45;38 -->
<g id="node38" class="node">
<title>&#45;38</title>
<polygon fill="lightgray" stroke="black" points="1298.53,-347.16 1272.53,-347.16 1272.53,-331.16 1298.53,-331.16 1298.53,-347.16"/>
<text text-anchor="middle" x="1285.53" y="-337.56" font-family="Times New Roman,serif" font-size="7.00">&#45;38</text>
</g>
<!-- A XOR B -->
<g id="node39" class="node">
<title>A XOR B</title>
<ellipse fill="lightblue" stroke="black" cx="1347.53" cy="-339.16" rx="31.23" ry="31.23"/>
<text text-anchor="middle" x="1347.53" y="-337.56" font-family="Times New Roman,serif" font-size="7.00">A XOR B</text>
</g>
<!-- 1&#45;&gt;178 -->
<g id="edge3" class="edge">
<title>1&#45;&gt;178</title>
<path fill="none" stroke="green" stroke-width="0.35" stroke-dasharray="1,5" d="M226.53,-156.84C226.53,-148.06 226.53,-136.18 226.53,-125.27"/>
<polygon fill="green" stroke="green" stroke-width="0.35" points="230.03,-125.25 226.53,-115.25 223.03,-125.25 230.03,-125.25"/>
</g>
<!-- 551 -->
<g id="node42" class="node">
<title>551</title>
<ellipse fill="white" stroke="black" cx="156.53" cy="-19.8" rx="19.6" ry="19.6"/>
<text text-anchor="middle" x="156.53" y="-18.2" font-family="Times New Roman,serif" font-size="7.00">551</text>
</g>
<!-- 1319&#45;&gt;1 -->
<g id="edge21" class="edge">
<title>1319&#45;&gt;1</title>
<path fill="none" stroke="green" stroke-width="0.35" d="M226.53,-226.73C226.53,-217 226.53,-205.51 226.53,-195.58"/>
<polygon fill="green" stroke="green" stroke-width="0.35" points="230.03,-195.56 226.53,-185.56 223.03,-195.56 230.03,-195.56"/>
</g>
<!-- 1319&#45;&gt;624 -->
<g id="edge14" class="edge">
<title>1319&#45;&gt;624</title>
<path fill="none" stroke="green" stroke-width="0.26" d="M208.58,-235.53C204.08,-232.51 199.2,-229.42 194.53,-226.79 160.87,-207.93 149.5,-209.08 115.53,-190.79 113.96,-189.95 112.37,-189.06 110.78,-188.14"/>
<polygon fill="green" stroke="green" stroke-width="0.26" points="112.17,-184.9 101.8,-182.74 108.56,-190.89 112.17,-184.9"/>
</g>
<!-- 624&#45;&gt;551 -->
<g id="edge4" class="edge">
<title>624&#45;&gt;551</title>
<path fill="none" stroke="red" stroke-width="0.22" d="M93.67,-152.88C105.96,-127.05 129.36,-77.89 143.88,-47.37"/>
<polygon fill="red" stroke="red" stroke-width="0.22" points="147.12,-48.71 148.26,-38.17 140.8,-45.7 147.12,-48.71"/>
</g>
<!-- 178&#45;&gt;551 -->
<g id="edge9" class="edge">
<title>178&#45;&gt;551</title>
<path fill="none" stroke="green" stroke-width="0.11" d="M213.36,-80.55C203.06,-69.73 188.56,-54.48 176.79,-42.1"/>
<polygon fill="green" stroke="green" stroke-width="0.11" points="179.3,-39.66 169.87,-34.83 174.23,-44.49 179.3,-39.66"/>
</g>
<!-- 178&#45;&gt;178 -->
<g id="edge10" class="edge">
<title>178&#45;&gt;178</title>
<path fill="none" stroke="red" stroke-width="1.01" d="M242.06,-107.78C253.21,-111.81 264.32,-107.68 264.32,-95.4 264.32,-86.95 259.07,-82.36 252.16,-81.63"/>
<polygon fill="red" stroke="red" stroke-width="1.01" points="251.49,-78.19 242.06,-83.02 252.44,-85.12 251.49,-78.19"/>
</g>
</g>
</svg>
