<?xml version="1.0" encoding="UTF-8" standalone="no"?>
<!DOCTYPE svg PUBLIC "-//W3C//DTD SVG 1.1//EN"
 "http://www.w3.org/Graphics/SVG/1.1/DTD/svg11.dtd">
<!-- Generated by graphviz version 2.46.0 (20210118.1747)
 -->
<!-- Pages: 1 -->
<svg width="1531pt" height="378pt"
 viewBox="0.00 0.00 1531.25 378.27" xmlns="http://www.w3.org/2000/svg" xmlns:xlink="http://www.w3.org/1999/xlink">
<g id="graph0" class="graph" transform="scale(1 1) rotate(0) translate(4 374.27)">
<polygon fill="white" stroke="transparent" points="-4,4 -4,-374.27 1527.25,-374.27 1527.25,4 -4,4"/>
<!-- A -->
<g id="node1" class="node">
<title>A</title>
<polygon fill="lightgray" stroke="black" points="56.14,-347.16 34.14,-347.16 34.14,-331.16 56.14,-331.16 56.14,-347.16"/>
<text text-anchor="middle" x="45.14" y="-337.56" font-family="Times New Roman,serif" font-size="7.00">A</text>
</g>
<!-- 898 -->
<g id="node42" class="node">
<title>898</title>
<ellipse fill="white" stroke="black" cx="66.14" cy="-252.25" rx="19.6" ry="19.6"/>
<text text-anchor="middle" x="66.14" y="-250.65" font-family="Times New Roman,serif" font-size="7.00">898</text>
</g>
<!-- A&#45;&gt;898 -->
<g id="edge12" class="edge">
<title>A&#45;&gt;898</title>
<path fill="none" stroke="red" stroke-width="0.29" d="M46.93,-330.92C49.62,-320.06 54.84,-298.95 59.16,-281.48"/>
<polygon fill="red" stroke="red" stroke-width="0.29" points="62.57,-282.27 61.57,-271.72 55.78,-280.59 62.57,-282.27"/>
</g>
<!-- B -->
<g id="node2" class="node">
<title>B</title>
<polygon fill="lightgray" stroke="black" points="160.64,-347.16 139.64,-347.16 139.64,-331.16 160.64,-331.16 160.64,-347.16"/>
<text text-anchor="middle" x="150.14" y="-337.56" font-family="Times New Roman,serif" font-size="7.00">B</text>
</g>
<!-- &#45;3 -->
<g id="node3" class="node">
<title>&#45;3</title>
<polygon fill="lightgray" stroke="black" points="25.64,-106.23 2.64,-106.23 2.64,-90.23 25.64,-90.23 25.64,-106.23"/>
<text text-anchor="middle" x="14.14" y="-96.63" font-family="Times New Roman,serif" font-size="7.00">&#45;3</text>
</g>
<!-- 1 -->
<g id="node40" class="node">
<title>1</title>
<ellipse fill="lightblue" stroke="black" cx="14.14" cy="-19.8" rx="14.29" ry="14.29"/>
<text text-anchor="middle" x="14.14" y="-18.2" font-family="Times New Roman,serif" font-size="7.00">1</text>
</g>
<!-- &#45;3&#45;&gt;1 -->
<g id="edge1" class="edge">
<title>&#45;3&#45;&gt;1</title>
<path fill="none" stroke="green" stroke-width="0.28" d="M14.14,-90.17C14.14,-79.84 14.14,-60.12 14.14,-44.33"/>
<polygon fill="green" stroke="green" stroke-width="0.28" points="17.64,-44.2 14.14,-34.2 10.64,-44.2 17.64,-44.2"/>
</g>
<!-- 178 -->
<g id="node45" class="node">
<title>178</title>
<ellipse fill="white" stroke="black" cx="101.14" cy="-19.8" rx="19.6" ry="19.6"/>
<text text-anchor="middle" x="101.14" y="-18.2" font-family="Times New Roman,serif" font-size="7.00">178</text>
</g>
<!-- &#45;3&#45;&gt;178 -->
<g id="edge6" class="edge">
<title>&#45;3&#45;&gt;178</title>
<path fill="none" stroke="green" stroke-width="0.46" d="M20.58,-90.22C24.65,-85.89 30.07,-80.29 35.14,-75.6 48.86,-62.9 64.99,-49.49 77.87,-39.1"/>
<polygon fill="green" stroke="green" stroke-width="0.46" points="80.19,-41.74 85.81,-32.76 75.81,-36.27 80.19,-41.74"/>
</g>
<!-- &#45;4 -->
<g id="node4" class="node">
<title>&#45;4</title>
<polygon fill="lightgray" stroke="black" points="351.64,-347.16 328.64,-347.16 328.64,-331.16 351.64,-331.16 351.64,-347.16"/>
<text text-anchor="middle" x="340.14" y="-337.56" font-family="Times New Roman,serif" font-size="7.00">&#45;4</text>
</g>
<!-- &#45;5 -->
<g id="node5" class="node">
<title>&#45;5</title>
<polygon fill="lightgray" stroke="black" points="392.64,-347.16 369.64,-347.16 369.64,-331.16 392.64,-331.16 392.64,-347.16"/>
<text text-anchor="middle" x="381.14" y="-337.56" font-family="Times New Roman,serif" font-size="7.00">&#45;5</text>
</g>
<!-- &#45;6 -->
<g id="node6" class="node">
<title>&#45;6</title>
<polygon fill="lightgray" stroke="black" points="221.64,-347.16 198.64,-347.16 198.64,-331.16 221.64,-331.16 221.64,-347.16"/>
<text text-anchor="middle" x="210.14" y="-337.56" font-family="Times New Roman,serif" font-size="7.00">&#45;6</text>
</g>
<!-- 527 -->
<g id="node44" class="node">
<title>527</title>
<ellipse fill="white" stroke="black" cx="253.14" cy="-252.25" rx="19.6" ry="19.6"/>
<text text-anchor="middle" x="253.14" y="-250.65" font-family="Times New Roman,serif" font-size="7.00">527</text>
</g>
<!-- &#45;6&#45;&gt;527 -->
<g id="edge5" class="edge">
<title>&#45;6&#45;&gt;527</title>
<path fill="none" stroke="green" stroke-width="0.13" d="M213.81,-330.92C219.5,-319.69 230.74,-297.5 239.75,-279.7"/>
<polygon fill="green" stroke="green" stroke-width="0.13" points="243.08,-280.87 244.48,-270.36 236.84,-277.7 243.08,-280.87"/>
</g>
<!-- &#45;7 -->
<g id="node7" class="node">
<title>&#45;7</title>
<polygon fill="lightgray" stroke="black" points="433.64,-347.16 410.64,-347.16 410.64,-331.16 433.64,-331.16 433.64,-347.16"/>
<text text-anchor="middle" x="422.14" y="-337.56" font-family="Times New Roman,serif" font-size="7.00">&#45;7</text>
</g>
<!-- &#45;8 -->
<g id="node8" class="node">
<title>&#45;8</title>
<polygon fill="lightgray" stroke="black" points="126.64,-260.25 103.64,-260.25 103.64,-244.25 126.64,-244.25 126.64,-260.25"/>
<text text-anchor="middle" x="115.14" y="-250.65" font-family="Times New Roman,serif" font-size="7.00">&#45;8</text>
</g>
<!-- 991 -->
<g id="node46" class="node">
<title>991</title>
<ellipse fill="white" stroke="black" cx="180.14" cy="-176.65" rx="19.6" ry="19.6"/>
<text text-anchor="middle" x="180.14" y="-175.05" font-family="Times New Roman,serif" font-size="7.00">991</text>
</g>
<!-- &#45;8&#45;&gt;991 -->
<g id="edge17" class="edge">
<title>&#45;8&#45;&gt;991</title>
<path fill="none" stroke="red" stroke-width="0.24" d="M121.37,-244.19C130.36,-234.02 147.34,-214.79 160.75,-199.61"/>
<polygon fill="red" stroke="red" stroke-width="0.24" points="163.37,-201.93 167.37,-192.11 158.13,-197.29 163.37,-201.93"/>
</g>
<!-- &#45;9 -->
<g id="node9" class="node">
<title>&#45;9</title>
<polygon fill="lightgray" stroke="black" points="474.64,-347.16 451.64,-347.16 451.64,-331.16 474.64,-331.16 474.64,-347.16"/>
<text text-anchor="middle" x="463.14" y="-337.56" font-family="Times New Roman,serif" font-size="7.00">&#45;9</text>
</g>
<!-- &#45;10 -->
<g id="node10" class="node">
<title>&#45;10</title>
<polygon fill="lightgray" stroke="black" points="519.14,-347.16 493.14,-347.16 493.14,-331.16 519.14,-331.16 519.14,-347.16"/>
<text text-anchor="middle" x="506.14" y="-337.56" font-family="Times New Roman,serif" font-size="7.00">&#45;10</text>
</g>
<!-- 2 -->
<g id="node41" class="node">
<title>2</title>
<ellipse fill="lightblue" stroke="black" cx="528.14" cy="-252.25" rx="14.29" ry="14.29"/>
<text text-anchor="middle" x="528.14" y="-250.65" font-family="Times New Roman,serif" font-size="7.00">2</text>
</g>
<!-- &#45;10&#45;&gt;2 -->
<g id="edge2" class="edge">
<title>&#45;10&#45;&gt;2</title>
<path fill="none" stroke="red" stroke-width="0.24" d="M508.02,-330.92C511.13,-318.92 517.48,-294.41 522.22,-276.12"/>
<polygon fill="red" stroke="red" stroke-width="0.24" points="525.67,-276.76 524.79,-266.21 518.89,-275.01 525.67,-276.76"/>
</g>
<!-- &#45;11 -->
<g id="node11" class="node">
<title>&#45;11</title>
<polygon fill="lightgray" stroke="black" points="607.14,-347.16 581.14,-347.16 581.14,-331.16 607.14,-331.16 607.14,-347.16"/>
<text text-anchor="middle" x="594.14" y="-337.56" font-family="Times New Roman,serif" font-size="7.00">&#45;11</text>
</g>
<!-- &#45;12 -->
<g id="node12" class="node">
<title>&#45;12</title>
<polygon fill="lightgray" stroke="black" points="266.14,-347.16 240.14,-347.16 240.14,-331.16 266.14,-331.16 266.14,-347.16"/>
<text text-anchor="middle" x="253.14" y="-337.56" font-family="Times New Roman,serif" font-size="7.00">&#45;12</text>
</g>
<!-- &#45;12&#45;&gt;527 -->
<g id="edge10" class="edge">
<title>&#45;12&#45;&gt;527</title>
<path fill="none" stroke="red" stroke-width="0.19" d="M253.14,-330.92C253.14,-320.23 253.14,-299.6 253.14,-282.3"/>
<polygon fill="red" stroke="red" stroke-width="0.19" points="256.64,-282.06 253.14,-272.06 249.64,-282.06 256.64,-282.06"/>
</g>
<!-- &#45;13 -->
<g id="node13" class="node">
<title>&#45;13</title>
<polygon fill="lightgray" stroke="black" points="563.14,-347.16 537.14,-347.16 537.14,-331.16 563.14,-331.16 563.14,-347.16"/>
<text text-anchor="middle" x="550.14" y="-337.56" font-family="Times New Roman,serif" font-size="7.00">&#45;13</text>
</g>
<!-- &#45;13&#45;&gt;2 -->
<g id="edge3" class="edge">
<title>&#45;13&#45;&gt;2</title>
<path fill="none" stroke="red" stroke-width="0.65" d="M548.27,-330.92C545.16,-318.92 538.81,-294.41 534.07,-276.12"/>
<polygon fill="red" stroke="red" stroke-width="0.65" points="537.4,-275.01 531.5,-266.21 530.62,-276.76 537.4,-275.01"/>
</g>
<!-- &#45;14 -->
<g id="node14" class="node">
<title>&#45;14</title>
<polygon fill="lightgray" stroke="black" points="651.14,-347.16 625.14,-347.16 625.14,-331.16 651.14,-331.16 651.14,-347.16"/>
<text text-anchor="middle" x="638.14" y="-337.56" font-family="Times New Roman,serif" font-size="7.00">&#45;14</text>
</g>
<!-- &#45;15 -->
<g id="node15" class="node">
<title>&#45;15</title>
<polygon fill="lightgray" stroke="black" points="171.14,-260.25 145.14,-260.25 145.14,-244.25 171.14,-244.25 171.14,-260.25"/>
<text text-anchor="middle" x="158.14" y="-250.65" font-family="Times New Roman,serif" font-size="7.00">&#45;15</text>
</g>
<!-- &#45;15&#45;&gt;991 -->
<g id="edge9" class="edge">
<title>&#45;15&#45;&gt;991</title>
<path fill="none" stroke="green" stroke-width="0.18" d="M160.25,-244.19C162.9,-235.33 167.6,-219.61 171.77,-205.66"/>
<polygon fill="green" stroke="green" stroke-width="0.18" points="175.16,-206.54 174.67,-195.95 168.45,-204.53 175.16,-206.54"/>
</g>
<!-- &#45;16 -->
<g id="node16" class="node">
<title>&#45;16</title>
<polygon fill="lightgray" stroke="black" points="695.14,-347.16 669.14,-347.16 669.14,-331.16 695.14,-331.16 695.14,-347.16"/>
<text text-anchor="middle" x="682.14" y="-337.56" font-family="Times New Roman,serif" font-size="7.00">&#45;16</text>
</g>
<!-- &#45;17 -->
<g id="node17" class="node">
<title>&#45;17</title>
<polygon fill="lightgray" stroke="black" points="739.14,-347.16 713.14,-347.16 713.14,-331.16 739.14,-331.16 739.14,-347.16"/>
<text text-anchor="middle" x="726.14" y="-337.56" font-family="Times New Roman,serif" font-size="7.00">&#45;17</text>
</g>
<!-- &#45;18 -->
<g id="node18" class="node">
<title>&#45;18</title>
<polygon fill="lightgray" stroke="black" points="783.14,-347.16 757.14,-347.16 757.14,-331.16 783.14,-331.16 783.14,-347.16"/>
<text text-anchor="middle" x="770.14" y="-337.56" font-family="Times New Roman,serif" font-size="7.00">&#45;18</text>
</g>
<!-- &#45;19 -->
<g id="node19" class="node">
<title>&#45;19</title>
<polygon fill="lightgray" stroke="black" points="310.14,-347.16 284.14,-347.16 284.14,-331.16 310.14,-331.16 310.14,-347.16"/>
<text text-anchor="middle" x="297.14" y="-337.56" font-family="Times New Roman,serif" font-size="7.00">&#45;19</text>
</g>
<!-- &#45;19&#45;&gt;527 -->
<g id="edge7" class="edge">
<title>&#45;19&#45;&gt;527</title>
<path fill="none" stroke="red" stroke-width="0.17" stroke-dasharray="1,5" d="M293.39,-330.92C287.57,-319.69 276.07,-297.5 266.85,-279.7"/>
<polygon fill="red" stroke="red" stroke-width="0.17" points="269.72,-277.63 262.01,-270.36 263.5,-280.85 269.72,-277.63"/>
</g>
<!-- &#45;20 -->
<g id="node20" class="node">
<title>&#45;20</title>
<polygon fill="lightgray" stroke="black" points="827.14,-347.16 801.14,-347.16 801.14,-331.16 827.14,-331.16 827.14,-347.16"/>
<text text-anchor="middle" x="814.14" y="-337.56" font-family="Times New Roman,serif" font-size="7.00">&#45;20</text>
</g>
<!-- &#45;21 -->
<g id="node21" class="node">
<title>&#45;21</title>
<polygon fill="lightgray" stroke="black" points="871.14,-347.16 845.14,-347.16 845.14,-331.16 871.14,-331.16 871.14,-347.16"/>
<text text-anchor="middle" x="858.14" y="-337.56" font-family="Times New Roman,serif" font-size="7.00">&#45;21</text>
</g>
<!-- &#45;22 -->
<g id="node22" class="node">
<title>&#45;22</title>
<polygon fill="lightgray" stroke="black" points="915.14,-347.16 889.14,-347.16 889.14,-331.16 915.14,-331.16 915.14,-347.16"/>
<text text-anchor="middle" x="902.14" y="-337.56" font-family="Times New Roman,serif" font-size="7.00">&#45;22</text>
</g>
<!-- &#45;23 -->
<g id="node23" class="node">
<title>&#45;23</title>
<polygon fill="lightgray" stroke="black" points="959.14,-347.16 933.14,-347.16 933.14,-331.16 959.14,-331.16 959.14,-347.16"/>
<text text-anchor="middle" x="946.14" y="-337.56" font-family="Times New Roman,serif" font-size="7.00">&#45;23</text>
</g>
<!-- &#45;24 -->
<g id="node24" class="node">
<title>&#45;24</title>
<polygon fill="lightgray" stroke="black" points="1003.14,-347.16 977.14,-347.16 977.14,-331.16 1003.14,-331.16 1003.14,-347.16"/>
<text text-anchor="middle" x="990.14" y="-337.56" font-family="Times New Roman,serif" font-size="7.00">&#45;24</text>
</g>
<!-- &#45;25 -->
<g id="node25" class="node">
<title>&#45;25</title>
<polygon fill="lightgray" stroke="black" points="100.14,-347.16 74.14,-347.16 74.14,-331.16 100.14,-331.16 100.14,-347.16"/>
<text text-anchor="middle" x="87.14" y="-337.56" font-family="Times New Roman,serif" font-size="7.00">&#45;25</text>
</g>
<!-- &#45;25&#45;&gt;898 -->
<g id="edge18" class="edge">
<title>&#45;25&#45;&gt;898</title>
<path fill="none" stroke="red" stroke-width="0.2" d="M85.35,-330.92C82.67,-320.06 77.45,-298.95 73.12,-281.48"/>
<polygon fill="red" stroke="red" stroke-width="0.2" points="76.51,-280.59 70.71,-271.72 69.71,-282.27 76.51,-280.59"/>
</g>
<!-- &#45;26 -->
<g id="node26" class="node">
<title>&#45;26</title>
<polygon fill="lightgray" stroke="black" points="1047.14,-347.16 1021.14,-347.16 1021.14,-331.16 1047.14,-331.16 1047.14,-347.16"/>
<text text-anchor="middle" x="1034.14" y="-337.56" font-family="Times New Roman,serif" font-size="7.00">&#45;26</text>
</g>
<!-- &#45;27 -->
<g id="node27" class="node">
<title>&#45;27</title>
<polygon fill="lightgray" stroke="black" points="1091.14,-347.16 1065.14,-347.16 1065.14,-331.16 1091.14,-331.16 1091.14,-347.16"/>
<text text-anchor="middle" x="1078.14" y="-337.56" font-family="Times New Roman,serif" font-size="7.00">&#45;27</text>
</g>
<!-- &#45;28 -->
<g id="node28" class="node">
<title>&#45;28</title>
<polygon fill="lightgray" stroke="black" points="1135.14,-347.16 1109.14,-347.16 1109.14,-331.16 1135.14,-331.16 1135.14,-347.16"/>
<text text-anchor="middle" x="1122.14" y="-337.56" font-family="Times New Roman,serif" font-size="7.00">&#45;28</text>
</g>
<!-- &#45;29 -->
<g id="node29" class="node">
<title>&#45;29</title>
<polygon fill="lightgray" stroke="black" points="1179.14,-347.16 1153.14,-347.16 1153.14,-331.16 1179.14,-331.16 1179.14,-347.16"/>
<text text-anchor="middle" x="1166.14" y="-337.56" font-family="Times New Roman,serif" font-size="7.00">&#45;29</text>
</g>
<!-- &#45;30 -->
<g id="node30" class="node">
<title>&#45;30</title>
<polygon fill="lightgray" stroke="black" points="215.14,-260.25 189.14,-260.25 189.14,-244.25 215.14,-244.25 215.14,-260.25"/>
<text text-anchor="middle" x="202.14" y="-250.65" font-family="Times New Roman,serif" font-size="7.00">&#45;30</text>
</g>
<!-- &#45;30&#45;&gt;991 -->
<g id="edge11" class="edge">
<title>&#45;30&#45;&gt;991</title>
<path fill="none" stroke="green" stroke-width="0.27" d="M200.03,-244.19C197.38,-235.33 192.68,-219.61 188.52,-205.66"/>
<polygon fill="green" stroke="green" stroke-width="0.27" points="191.83,-204.53 185.61,-195.95 185.12,-206.54 191.83,-204.53"/>
</g>
<!-- &#45;31 -->
<g id="node31" class="node">
<title>&#45;31</title>
<polygon fill="lightgray" stroke="black" points="1223.14,-347.16 1197.14,-347.16 1197.14,-331.16 1223.14,-331.16 1223.14,-347.16"/>
<text text-anchor="middle" x="1210.14" y="-337.56" font-family="Times New Roman,serif" font-size="7.00">&#45;31</text>
</g>
<!-- &#45;32 -->
<g id="node32" class="node">
<title>&#45;32</title>
<polygon fill="lightgray" stroke="black" points="70.14,-106.23 44.14,-106.23 44.14,-90.23 70.14,-90.23 70.14,-106.23"/>
<text text-anchor="middle" x="57.14" y="-96.63" font-family="Times New Roman,serif" font-size="7.00">&#45;32</text>
</g>
<!-- &#45;32&#45;&gt;178 -->
<g id="edge4" class="edge">
<title>&#45;32&#45;&gt;178</title>
<path fill="none" stroke="green" stroke-width="0.21" d="M61.2,-90.17C66.88,-80.32 77.47,-61.91 86.33,-46.53"/>
<polygon fill="green" stroke="green" stroke-width="0.21" points="89.6,-47.87 91.55,-37.45 83.53,-44.37 89.6,-47.87"/>
</g>
<!-- &#45;33 -->
<g id="node33" class="node">
<title>&#45;33</title>
<polygon fill="lightgray" stroke="black" points="1267.14,-347.16 1241.14,-347.16 1241.14,-331.16 1267.14,-331.16 1267.14,-347.16"/>
<text text-anchor="middle" x="1254.14" y="-337.56" font-family="Times New Roman,serif" font-size="7.00">&#45;33</text>
</g>
<!-- &#45;34 -->
<g id="node34" class="node">
<title>&#45;34</title>
<polygon fill="lightgray" stroke="black" points="1311.14,-347.16 1285.14,-347.16 1285.14,-331.16 1311.14,-331.16 1311.14,-347.16"/>
<text text-anchor="middle" x="1298.14" y="-337.56" font-family="Times New Roman,serif" font-size="7.00">&#45;34</text>
</g>
<!-- &#45;35 -->
<g id="node35" class="node">
<title>&#45;35</title>
<polygon fill="lightgray" stroke="black" points="1355.14,-347.16 1329.14,-347.16 1329.14,-331.16 1355.14,-331.16 1355.14,-347.16"/>
<text text-anchor="middle" x="1342.14" y="-337.56" font-family="Times New Roman,serif" font-size="7.00">&#45;35</text>
</g>
<!-- &#45;36 -->
<g id="node36" class="node">
<title>&#45;36</title>
<polygon fill="lightgray" stroke="black" points="1399.14,-347.16 1373.14,-347.16 1373.14,-331.16 1399.14,-331.16 1399.14,-347.16"/>
<text text-anchor="middle" x="1386.14" y="-337.56" font-family="Times New Roman,serif" font-size="7.00">&#45;36</text>
</g>
<!-- &#45;37 -->
<g id="node37" class="node">
<title>&#45;37</title>
<polygon fill="lightgray" stroke="black" points="114.14,-106.23 88.14,-106.23 88.14,-90.23 114.14,-90.23 114.14,-106.23"/>
<text text-anchor="middle" x="101.14" y="-96.63" font-family="Times New Roman,serif" font-size="7.00">&#45;37</text>
</g>
<!-- &#45;37&#45;&gt;178 -->
<g id="edge16" class="edge">
<title>&#45;37&#45;&gt;178</title>
<path fill="none" stroke="green" stroke-width="0.19" d="M101.14,-90.17C101.14,-81.01 101.14,-64.47 101.14,-49.83"/>
<polygon fill="green" stroke="green" stroke-width="0.19" points="104.64,-49.64 101.14,-39.64 97.64,-49.64 104.64,-49.64"/>
</g>
<!-- &#45;38 -->
<g id="node38" class="node">
<title>&#45;38</title>
<polygon fill="lightgray" stroke="black" points="1443.14,-347.16 1417.14,-347.16 1417.14,-331.16 1443.14,-331.16 1443.14,-347.16"/>
<text text-anchor="middle" x="1430.14" y="-337.56" font-family="Times New Roman,serif" font-size="7.00">&#45;38</text>
</g>
<!-- A XOR B -->
<g id="node39" class="node">
<title>A XOR B</title>
<ellipse fill="lightblue" stroke="black" cx="1492.14" cy="-339.16" rx="31.23" ry="31.23"/>
<text text-anchor="middle" x="1492.14" y="-337.56" font-family="Times New Roman,serif" font-size="7.00">A XOR B</text>
</g>
<!-- 1312 -->
<g id="node43" class="node">
<title>1312</title>
<ellipse fill="white" stroke="black" cx="155.14" cy="-98.23" rx="22.76" ry="22.76"/>
<text text-anchor="middle" x="155.14" y="-96.63" font-family="Times New Roman,serif" font-size="7.00">1312</text>
</g>
<!-- 1312&#45;&gt;178 -->
<g id="edge15" class="edge">
<title>1312&#45;&gt;178</title>
<path fill="none" stroke="green" stroke-width="0.18" d="M142.34,-79.11C135.11,-68.87 125.97,-55.94 118.14,-44.86"/>
<polygon fill="green" stroke="green" stroke-width="0.18" points="120.83,-42.6 112.2,-36.45 115.12,-46.64 120.83,-42.6"/>
</g>
<!-- 527&#45;&gt;991 -->
<g id="edge13" class="edge">
<title>527&#45;&gt;991</title>
<path fill="none" stroke="red" stroke-width="0.1" d="M239.41,-237.41C228.6,-226.51 213.36,-211.14 201.04,-198.72"/>
<polygon fill="red" stroke="red" stroke-width="0.1" points="203.34,-196.07 193.81,-191.43 198.37,-201 203.34,-196.07"/>
</g>
<!-- 991&#45;&gt;1312 -->
<g id="edge14" class="edge">
<title>991&#45;&gt;1312</title>
<path fill="none" stroke="red" stroke-width="0.2" d="M174.22,-157.54C171.47,-149.15 168.14,-138.96 165.03,-129.46"/>
<polygon fill="red" stroke="red" stroke-width="0.2" points="168.34,-128.32 161.91,-119.91 161.69,-130.5 168.34,-128.32"/>
</g>
<!-- 991&#45;&gt;178 -->
<g id="edge8" class="edge">
<title>991&#45;&gt;178</title>
<path fill="none" stroke="red" stroke-width="0.93" d="M186.92,-157.78C193.71,-136.74 201.3,-101.4 187.14,-75.6 174.92,-53.32 149.38,-38.8 129.28,-30.34"/>
<polygon fill="red" stroke="red" stroke-width="0.93" points="130.53,-27.07 119.94,-26.66 127.97,-33.58 130.53,-27.07"/>
</g>
</g>
</svg>
