<?xml version="1.0" encoding="UTF-8" standalone="no"?>
<!DOCTYPE svg PUBLIC "-//W3C//DTD SVG 1.1//EN"
 "http://www.w3.org/Graphics/SVG/1.1/DTD/svg11.dtd">
<!-- Generated by graphviz version 2.46.0 (20210118.1747)
 -->
<!-- Pages: 1 -->
<svg width="1676pt" height="221pt"
 viewBox="0.00 0.00 1676.11 221.42" xmlns="http://www.w3.org/2000/svg" xmlns:xlink="http://www.w3.org/1999/xlink">
<g id="graph0" class="graph" transform="scale(1 1) rotate(0) translate(4 217.42)">
<polygon fill="white" stroke="transparent" points="-4,4 -4,-217.42 1672.11,-217.42 1672.11,4 -4,4"/>
<!-- A -->
<g id="node1" class="node">
<title>A</title>
<polygon fill="lightgray" stroke="black" points="22,-190.31 0,-190.31 0,-174.31 22,-174.31 22,-190.31"/>
<text text-anchor="middle" x="11" y="-180.71" font-family="Times New Roman,serif" font-size="7.00">A</text>
</g>
<!-- B -->
<g id="node2" class="node">
<title>B</title>
<polygon fill="lightgray" stroke="black" points="61.5,-190.31 40.5,-190.31 40.5,-174.31 61.5,-174.31 61.5,-190.31"/>
<text text-anchor="middle" x="51" y="-180.71" font-family="Times New Roman,serif" font-size="7.00">B</text>
</g>
<!-- &#45;3 -->
<g id="node3" class="node">
<title>&#45;3</title>
<polygon fill="lightgray" stroke="black" points="102.5,-190.31 79.5,-190.31 79.5,-174.31 102.5,-174.31 102.5,-190.31"/>
<text text-anchor="middle" x="91" y="-180.71" font-family="Times New Roman,serif" font-size="7.00">&#45;3</text>
</g>
<!-- 1 -->
<g id="node40" class="node">
<title>1</title>
<ellipse fill="lightblue" stroke="black" cx="91" cy="-95.4" rx="14.29" ry="14.29"/>
<text text-anchor="middle" x="91" y="-93.8" font-family="Times New Roman,serif" font-size="7.00">1</text>
</g>
<!-- &#45;3&#45;&gt;1 -->
<g id="edge1" class="edge">
<title>&#45;3&#45;&gt;1</title>
<path fill="none" stroke="green" stroke-width="0.27" d="M91,-174.07C91,-162.19 91,-138.06 91,-119.83"/>
<polygon fill="green" stroke="green" stroke-width="0.27" points="94.5,-119.66 91,-109.66 87.5,-119.66 94.5,-119.66"/>
</g>
<!-- &#45;4 -->
<g id="node4" class="node">
<title>&#45;4</title>
<polygon fill="lightgray" stroke="black" points="323.5,-190.31 300.5,-190.31 300.5,-174.31 323.5,-174.31 323.5,-190.31"/>
<text text-anchor="middle" x="312" y="-180.71" font-family="Times New Roman,serif" font-size="7.00">&#45;4</text>
</g>
<!-- &#45;5 -->
<g id="node5" class="node">
<title>&#45;5</title>
<polygon fill="lightgray" stroke="black" points="364.5,-190.31 341.5,-190.31 341.5,-174.31 364.5,-174.31 364.5,-190.31"/>
<text text-anchor="middle" x="353" y="-180.71" font-family="Times New Roman,serif" font-size="7.00">&#45;5</text>
</g>
<!-- &#45;6 -->
<g id="node6" class="node">
<title>&#45;6</title>
<polygon fill="lightgray" stroke="black" points="149.5,-190.31 126.5,-190.31 126.5,-174.31 149.5,-174.31 149.5,-190.31"/>
<text text-anchor="middle" x="138" y="-180.71" font-family="Times New Roman,serif" font-size="7.00">&#45;6</text>
</g>
<!-- 527 -->
<g id="node43" class="node">
<title>527</title>
<ellipse fill="white" stroke="black" cx="187" cy="-95.4" rx="19.6" ry="19.6"/>
<text text-anchor="middle" x="187" y="-93.8" font-family="Times New Roman,serif" font-size="7.00">527</text>
</g>
<!-- &#45;6&#45;&gt;527 -->
<g id="edge3" class="edge">
<title>&#45;6&#45;&gt;527</title>
<path fill="none" stroke="green" stroke-width="0.16" stroke-dasharray="1,5" d="M142.18,-174.07C148.8,-162.59 162.02,-139.69 172.39,-121.71"/>
<polygon fill="green" stroke="green" stroke-width="0.16" points="175.54,-123.25 177.51,-112.84 169.48,-119.76 175.54,-123.25"/>
</g>
<!-- &#45;7 -->
<g id="node7" class="node">
<title>&#45;7</title>
<polygon fill="lightgray" stroke="black" points="405.5,-190.31 382.5,-190.31 382.5,-174.31 405.5,-174.31 405.5,-190.31"/>
<text text-anchor="middle" x="394" y="-180.71" font-family="Times New Roman,serif" font-size="7.00">&#45;7</text>
</g>
<!-- &#45;8 -->
<g id="node8" class="node">
<title>&#45;8</title>
<polygon fill="lightgray" stroke="black" points="446.5,-190.31 423.5,-190.31 423.5,-174.31 446.5,-174.31 446.5,-190.31"/>
<text text-anchor="middle" x="435" y="-180.71" font-family="Times New Roman,serif" font-size="7.00">&#45;8</text>
</g>
<!-- &#45;9 -->
<g id="node9" class="node">
<title>&#45;9</title>
<polygon fill="lightgray" stroke="black" points="487.5,-190.31 464.5,-190.31 464.5,-174.31 487.5,-174.31 487.5,-190.31"/>
<text text-anchor="middle" x="476" y="-180.71" font-family="Times New Roman,serif" font-size="7.00">&#45;9</text>
</g>
<!-- &#45;10 -->
<g id="node10" class="node">
<title>&#45;10</title>
<polygon fill="lightgray" stroke="black" points="532,-190.31 506,-190.31 506,-174.31 532,-174.31 532,-190.31"/>
<text text-anchor="middle" x="519" y="-180.71" font-family="Times New Roman,serif" font-size="7.00">&#45;10</text>
</g>
<!-- 2 -->
<g id="node41" class="node">
<title>2</title>
<ellipse fill="lightblue" stroke="black" cx="541" cy="-95.4" rx="14.29" ry="14.29"/>
<text text-anchor="middle" x="541" y="-93.8" font-family="Times New Roman,serif" font-size="7.00">2</text>
</g>
<!-- &#45;10&#45;&gt;2 -->
<g id="edge2" class="edge">
<title>&#45;10&#45;&gt;2</title>
<path fill="none" stroke="red" stroke-width="0.51" d="M520.88,-174.07C523.99,-162.07 530.34,-137.56 535.07,-119.27"/>
<polygon fill="red" stroke="red" stroke-width="0.51" points="538.52,-119.91 537.64,-109.35 531.75,-118.16 538.52,-119.91"/>
</g>
<!-- &#45;11 -->
<g id="node11" class="node">
<title>&#45;11</title>
<polygon fill="lightgray" stroke="black" points="576,-190.31 550,-190.31 550,-174.31 576,-174.31 576,-190.31"/>
<text text-anchor="middle" x="563" y="-180.71" font-family="Times New Roman,serif" font-size="7.00">&#45;11</text>
</g>
<!-- &#45;11&#45;&gt;2 -->
<g id="edge5" class="edge">
<title>&#45;11&#45;&gt;2</title>
<path fill="none" stroke="red" stroke-width="0.11" d="M561.12,-174.07C558.01,-162.07 551.66,-137.56 546.93,-119.27"/>
<polygon fill="red" stroke="red" stroke-width="0.11" points="550.25,-118.16 544.36,-109.35 543.48,-119.91 550.25,-118.16"/>
</g>
<!-- &#45;12 -->
<g id="node12" class="node">
<title>&#45;12</title>
<polygon fill="lightgray" stroke="black" points="620,-190.31 594,-190.31 594,-174.31 620,-174.31 620,-190.31"/>
<text text-anchor="middle" x="607" y="-180.71" font-family="Times New Roman,serif" font-size="7.00">&#45;12</text>
</g>
<!-- &#45;13 -->
<g id="node13" class="node">
<title>&#45;13</title>
<polygon fill="lightgray" stroke="black" points="664,-190.31 638,-190.31 638,-174.31 664,-174.31 664,-190.31"/>
<text text-anchor="middle" x="651" y="-180.71" font-family="Times New Roman,serif" font-size="7.00">&#45;13</text>
</g>
<!-- &#45;14 -->
<g id="node14" class="node">
<title>&#45;14</title>
<polygon fill="lightgray" stroke="black" points="708,-190.31 682,-190.31 682,-174.31 708,-174.31 708,-190.31"/>
<text text-anchor="middle" x="695" y="-180.71" font-family="Times New Roman,serif" font-size="7.00">&#45;14</text>
</g>
<!-- &#45;15 -->
<g id="node15" class="node">
<title>&#45;15</title>
<polygon fill="lightgray" stroke="black" points="752,-190.31 726,-190.31 726,-174.31 752,-174.31 752,-190.31"/>
<text text-anchor="middle" x="739" y="-180.71" font-family="Times New Roman,serif" font-size="7.00">&#45;15</text>
</g>
<!-- 178 -->
<g id="node44" class="node">
<title>178</title>
<ellipse fill="white" stroke="black" cx="805" cy="-95.4" rx="19.6" ry="19.6"/>
<text text-anchor="middle" x="805" y="-93.8" font-family="Times New Roman,serif" font-size="7.00">178</text>
</g>
<!-- &#45;15&#45;&gt;178 -->
<g id="edge7" class="edge">
<title>&#45;15&#45;&gt;178</title>
<path fill="none" stroke="red" stroke-width="0.21" d="M743.98,-174.31C748.38,-168.16 755.01,-159.01 761,-151.2 769.15,-140.56 778.4,-128.96 786.32,-119.19"/>
<polygon fill="red" stroke="red" stroke-width="0.21" points="789.27,-121.1 792.86,-111.14 783.84,-116.69 789.27,-121.1"/>
</g>
<!-- &#45;16 -->
<g id="node16" class="node">
<title>&#45;16</title>
<polygon fill="lightgray" stroke="black" points="928,-190.31 902,-190.31 902,-174.31 928,-174.31 928,-190.31"/>
<text text-anchor="middle" x="915" y="-180.71" font-family="Times New Roman,serif" font-size="7.00">&#45;16</text>
</g>
<!-- &#45;17 -->
<g id="node17" class="node">
<title>&#45;17</title>
<polygon fill="lightgray" stroke="black" points="972,-190.31 946,-190.31 946,-174.31 972,-174.31 972,-190.31"/>
<text text-anchor="middle" x="959" y="-180.71" font-family="Times New Roman,serif" font-size="7.00">&#45;17</text>
</g>
<!-- &#45;18 -->
<g id="node18" class="node">
<title>&#45;18</title>
<polygon fill="lightgray" stroke="black" points="194,-190.31 168,-190.31 168,-174.31 194,-174.31 194,-190.31"/>
<text text-anchor="middle" x="181" y="-180.71" font-family="Times New Roman,serif" font-size="7.00">&#45;18</text>
</g>
<!-- &#45;18&#45;&gt;527 -->
<g id="edge14" class="edge">
<title>&#45;18&#45;&gt;527</title>
<path fill="none" stroke="green" stroke-width="0.45" d="M181.51,-174.07C182.27,-163.37 183.72,-142.75 184.95,-125.44"/>
<polygon fill="green" stroke="green" stroke-width="0.45" points="188.46,-125.43 185.67,-115.21 181.47,-124.94 188.46,-125.43"/>
</g>
<!-- &#45;19 -->
<g id="node19" class="node">
<title>&#45;19</title>
<polygon fill="lightgray" stroke="black" points="1016,-190.31 990,-190.31 990,-174.31 1016,-174.31 1016,-190.31"/>
<text text-anchor="middle" x="1003" y="-180.71" font-family="Times New Roman,serif" font-size="7.00">&#45;19</text>
</g>
<!-- &#45;20 -->
<g id="node20" class="node">
<title>&#45;20</title>
<polygon fill="lightgray" stroke="black" points="1060,-190.31 1034,-190.31 1034,-174.31 1060,-174.31 1060,-190.31"/>
<text text-anchor="middle" x="1047" y="-180.71" font-family="Times New Roman,serif" font-size="7.00">&#45;20</text>
</g>
<!-- &#45;21 -->
<g id="node21" class="node">
<title>&#45;21</title>
<polygon fill="lightgray" stroke="black" points="1104,-190.31 1078,-190.31 1078,-174.31 1104,-174.31 1104,-190.31"/>
<text text-anchor="middle" x="1091" y="-180.71" font-family="Times New Roman,serif" font-size="7.00">&#45;21</text>
</g>
<!-- &#45;22 -->
<g id="node22" class="node">
<title>&#45;22</title>
<polygon fill="lightgray" stroke="black" points="1148,-190.31 1122,-190.31 1122,-174.31 1148,-174.31 1148,-190.31"/>
<text text-anchor="middle" x="1135" y="-180.71" font-family="Times New Roman,serif" font-size="7.00">&#45;22</text>
</g>
<!-- &#45;23 -->
<g id="node23" class="node">
<title>&#45;23</title>
<polygon fill="lightgray" stroke="black" points="1192,-190.31 1166,-190.31 1166,-174.31 1192,-174.31 1192,-190.31"/>
<text text-anchor="middle" x="1179" y="-180.71" font-family="Times New Roman,serif" font-size="7.00">&#45;23</text>
</g>
<!-- &#45;24 -->
<g id="node24" class="node">
<title>&#45;24</title>
<polygon fill="lightgray" stroke="black" points="796,-190.31 770,-190.31 770,-174.31 796,-174.31 796,-190.31"/>
<text text-anchor="middle" x="783" y="-180.71" font-family="Times New Roman,serif" font-size="7.00">&#45;24</text>
</g>
<!-- &#45;24&#45;&gt;178 -->
<g id="edge9" class="edge">
<title>&#45;24&#45;&gt;178</title>
<path fill="none" stroke="red" stroke-width="0.11" d="M784.88,-174.07C787.69,-163.21 793.16,-142.1 797.69,-124.63"/>
<polygon fill="red" stroke="red" stroke-width="0.11" points="801.09,-125.43 800.21,-114.87 794.32,-123.67 801.09,-125.43"/>
</g>
<!-- &#45;25 -->
<g id="node25" class="node">
<title>&#45;25</title>
<polygon fill="lightgray" stroke="black" points="1236,-190.31 1210,-190.31 1210,-174.31 1236,-174.31 1236,-190.31"/>
<text text-anchor="middle" x="1223" y="-180.71" font-family="Times New Roman,serif" font-size="7.00">&#45;25</text>
</g>
<!-- &#45;26 -->
<g id="node26" class="node">
<title>&#45;26</title>
<polygon fill="lightgray" stroke="black" points="1280,-190.31 1254,-190.31 1254,-174.31 1280,-174.31 1280,-190.31"/>
<text text-anchor="middle" x="1267" y="-180.71" font-family="Times New Roman,serif" font-size="7.00">&#45;26</text>
</g>
<!-- &#45;27 -->
<g id="node27" class="node">
<title>&#45;27</title>
<polygon fill="lightgray" stroke="black" points="840,-190.31 814,-190.31 814,-174.31 840,-174.31 840,-190.31"/>
<text text-anchor="middle" x="827" y="-180.71" font-family="Times New Roman,serif" font-size="7.00">&#45;27</text>
</g>
<!-- &#45;27&#45;&gt;178 -->
<g id="edge11" class="edge">
<title>&#45;27&#45;&gt;178</title>
<path fill="none" stroke="red" stroke-width="0.16" d="M825.12,-174.07C822.31,-163.21 816.84,-142.1 812.31,-124.63"/>
<polygon fill="red" stroke="red" stroke-width="0.16" points="815.68,-123.67 809.79,-114.87 808.91,-125.43 815.68,-123.67"/>
</g>
<!-- &#45;28 -->
<g id="node28" class="node">
<title>&#45;28</title>
<polygon fill="lightgray" stroke="black" points="1324,-190.31 1298,-190.31 1298,-174.31 1324,-174.31 1324,-190.31"/>
<text text-anchor="middle" x="1311" y="-180.71" font-family="Times New Roman,serif" font-size="7.00">&#45;28</text>
</g>
<!-- &#45;29 -->
<g id="node29" class="node">
<title>&#45;29</title>
<polygon fill="lightgray" stroke="black" points="149,-103.4 123,-103.4 123,-87.4 149,-87.4 149,-103.4"/>
<text text-anchor="middle" x="136" y="-93.8" font-family="Times New Roman,serif" font-size="7.00">&#45;29</text>
</g>
<!-- 974 -->
<g id="node42" class="node">
<title>974</title>
<ellipse fill="white" stroke="black" cx="136" cy="-19.8" rx="19.6" ry="19.6"/>
<text text-anchor="middle" x="136" y="-18.2" font-family="Times New Roman,serif" font-size="7.00">974</text>
</g>
<!-- &#45;29&#45;&gt;974 -->
<g id="edge6" class="edge">
<title>&#45;29&#45;&gt;974</title>
<path fill="none" stroke="green" stroke-width="0.24" stroke-dasharray="1,5" d="M136,-87.34C136,-78.68 136,-63.46 136,-49.76"/>
<polygon fill="green" stroke="green" stroke-width="0.24" points="139.5,-49.71 136,-39.71 132.5,-49.71 139.5,-49.71"/>
</g>
<!-- &#45;30 -->
<g id="node30" class="node">
<title>&#45;30</title>
<polygon fill="lightgray" stroke="black" points="1368,-190.31 1342,-190.31 1342,-174.31 1368,-174.31 1368,-190.31"/>
<text text-anchor="middle" x="1355" y="-180.71" font-family="Times New Roman,serif" font-size="7.00">&#45;30</text>
</g>
<!-- &#45;31 -->
<g id="node31" class="node">
<title>&#45;31</title>
<polygon fill="lightgray" stroke="black" points="1412,-190.31 1386,-190.31 1386,-174.31 1412,-174.31 1412,-190.31"/>
<text text-anchor="middle" x="1399" y="-180.71" font-family="Times New Roman,serif" font-size="7.00">&#45;31</text>
</g>
<!-- &#45;32 -->
<g id="node32" class="node">
<title>&#45;32</title>
<polygon fill="lightgray" stroke="black" points="1456,-190.31 1430,-190.31 1430,-174.31 1456,-174.31 1456,-190.31"/>
<text text-anchor="middle" x="1443" y="-180.71" font-family="Times New Roman,serif" font-size="7.00">&#45;32</text>
</g>
<!-- &#45;33 -->
<g id="node33" class="node">
<title>&#45;33</title>
<polygon fill="lightgray" stroke="black" points="884,-190.31 858,-190.31 858,-174.31 884,-174.31 884,-190.31"/>
<text text-anchor="middle" x="871" y="-180.71" font-family="Times New Roman,serif" font-size="7.00">&#45;33</text>
</g>
<!-- &#45;33&#45;&gt;178 -->
<g id="edge4" class="edge">
<title>&#45;33&#45;&gt;178</title>
<path fill="none" stroke="green" stroke-width="0.12" d="M866.02,-174.31C861.62,-168.16 854.99,-159.01 849,-151.2 840.85,-140.56 831.6,-128.96 823.68,-119.19"/>
<polygon fill="green" stroke="green" stroke-width="0.12" points="826.16,-116.69 817.14,-111.14 820.73,-121.1 826.16,-116.69"/>
</g>
<!-- &#45;34 -->
<g id="node34" class="node">
<title>&#45;34</title>
<polygon fill="lightgray" stroke="black" points="1500,-190.31 1474,-190.31 1474,-174.31 1500,-174.31 1500,-190.31"/>
<text text-anchor="middle" x="1487" y="-180.71" font-family="Times New Roman,serif" font-size="7.00">&#45;34</text>
</g>
<!-- &#45;35 -->
<g id="node35" class="node">
<title>&#45;35</title>
<polygon fill="lightgray" stroke="black" points="238,-190.31 212,-190.31 212,-174.31 238,-174.31 238,-190.31"/>
<text text-anchor="middle" x="225" y="-180.71" font-family="Times New Roman,serif" font-size="7.00">&#45;35</text>
</g>
<!-- &#45;35&#45;&gt;527 -->
<g id="edge10" class="edge">
<title>&#45;35&#45;&gt;527</title>
<path fill="none" stroke="green" stroke-width="0.21" d="M221.76,-174.07C216.76,-162.9 206.92,-140.91 198.98,-123.17"/>
<polygon fill="green" stroke="green" stroke-width="0.21" points="202.09,-121.54 194.81,-113.85 195.7,-124.4 202.09,-121.54"/>
</g>
<!-- &#45;36 -->
<g id="node36" class="node">
<title>&#45;36</title>
<polygon fill="lightgray" stroke="black" points="1544,-190.31 1518,-190.31 1518,-174.31 1544,-174.31 1544,-190.31"/>
<text text-anchor="middle" x="1531" y="-180.71" font-family="Times New Roman,serif" font-size="7.00">&#45;36</text>
</g>
<!-- &#45;37 -->
<g id="node37" class="node">
<title>&#45;37</title>
<polygon fill="lightgray" stroke="black" points="1588,-190.31 1562,-190.31 1562,-174.31 1588,-174.31 1588,-190.31"/>
<text text-anchor="middle" x="1575" y="-180.71" font-family="Times New Roman,serif" font-size="7.00">&#45;37</text>
</g>
<!-- &#45;38 -->
<g id="node38" class="node">
<title>&#45;38</title>
<polygon fill="lightgray" stroke="black" points="282,-190.31 256,-190.31 256,-174.31 282,-174.31 282,-190.31"/>
<text text-anchor="middle" x="269" y="-180.71" font-family="Times New Roman,serif" font-size="7.00">&#45;38</text>
</g>
<!-- &#45;38&#45;&gt;527 -->
<g id="edge13" class="edge">
<title>&#45;38&#45;&gt;527</title>
<path fill="none" stroke="red" stroke-width="0.17" d="M264.31,-174.07C260.09,-167.77 253.57,-158.52 247,-151.2 235.52,-138.39 221.38,-125.36 209.7,-115.22"/>
<polygon fill="red" stroke="red" stroke-width="0.17" points="211.95,-112.54 202.08,-108.7 207.4,-117.86 211.95,-112.54"/>
</g>
<!-- A XOR B -->
<g id="node39" class="node">
<title>A XOR B</title>
<ellipse fill="lightblue" stroke="black" cx="1637" cy="-182.31" rx="31.23" ry="31.23"/>
<text text-anchor="middle" x="1637" y="-180.71" font-family="Times New Roman,serif" font-size="7.00">A XOR B</text>
</g>
<!-- 1&#45;&gt;974 -->
<g id="edge12" class="edge">
<title>1&#45;&gt;974</title>
<path fill="none" stroke="red" stroke-width="0.12" d="M98.03,-82.9C104.08,-73.01 113.01,-58.39 120.7,-45.83"/>
<polygon fill="red" stroke="red" stroke-width="0.12" points="123.78,-47.49 126.01,-37.13 117.81,-43.84 123.78,-47.49"/>
</g>
<!-- 527&#45;&gt;974 -->
<g id="edge8" class="edge">
<title>527&#45;&gt;974</title>
<path fill="none" stroke="green" stroke-width="0.56" d="M176.18,-78.79C169.4,-69 160.52,-56.18 152.82,-45.08"/>
<polygon fill="green" stroke="green" stroke-width="0.56" points="155.55,-42.86 146.98,-36.64 149.79,-46.85 155.55,-42.86"/>
</g>
</g>
</svg>
