<?xml version="1.0" encoding="UTF-8" standalone="no"?>
<!DOCTYPE svg PUBLIC "-//W3C//DTD SVG 1.1//EN"
 "http://www.w3.org/Graphics/SVG/1.1/DTD/svg11.dtd">
<!-- Generated by graphviz version 2.46.0 (20210118.1747)
 -->
<!-- Pages: 1 -->
<svg width="1679pt" height="135pt"
 viewBox="0.00 0.00 1679.14 134.51" xmlns="http://www.w3.org/2000/svg" xmlns:xlink="http://www.w3.org/1999/xlink">
<g id="graph0" class="graph" transform="scale(1 1) rotate(0) translate(4 130.51)">
<polygon fill="white" stroke="transparent" points="-4,4 -4,-130.51 1675.14,-130.51 1675.14,4 -4,4"/>
<!-- A -->
<g id="node1" class="node">
<title>A</title>
<polygon fill="lightgray" stroke="black" points="22,-120.37 0,-120.37 0,-104.37 22,-104.37 22,-120.37"/>
<text text-anchor="middle" x="11" y="-110.77" font-family="Times New Roman,serif" font-size="7.00">A</text>
</g>
<!-- 400 -->
<g id="node42" class="node">
<title>400</title>
<ellipse fill="white" stroke="black" cx="32" cy="-31.11" rx="19.6" ry="19.6"/>
<text text-anchor="middle" x="32" y="-29.51" font-family="Times New Roman,serif" font-size="7.00">400</text>
</g>
<!-- A&#45;&gt;400 -->
<g id="edge3" class="edge">
<title>A&#45;&gt;400</title>
<path fill="none" stroke="green" stroke-width="0.14" stroke-dasharray="1,5" d="M12.86,-104.33C15.47,-94.51 20.34,-76.13 24.52,-60.36"/>
<polygon fill="green" stroke="green" stroke-width="0.14" points="27.95,-61.06 27.13,-50.5 21.18,-59.27 27.95,-61.06"/>
</g>
<!-- B -->
<g id="node2" class="node">
<title>B</title>
<polygon fill="lightgray" stroke="black" points="105.5,-120.37 84.5,-120.37 84.5,-104.37 105.5,-104.37 105.5,-120.37"/>
<text text-anchor="middle" x="95" y="-110.77" font-family="Times New Roman,serif" font-size="7.00">B</text>
</g>
<!-- &#45;3 -->
<g id="node3" class="node">
<title>&#45;3</title>
<polygon fill="lightgray" stroke="black" points="146.5,-120.37 123.5,-120.37 123.5,-104.37 146.5,-104.37 146.5,-120.37"/>
<text text-anchor="middle" x="135" y="-110.77" font-family="Times New Roman,serif" font-size="7.00">&#45;3</text>
</g>
<!-- A XOR B -->
<g id="node39" class="node">
<title>A XOR B</title>
<ellipse fill="lightblue" stroke="black" cx="135" cy="-31.11" rx="31.23" ry="31.23"/>
<text text-anchor="middle" x="135" y="-29.51" font-family="Times New Roman,serif" font-size="7.00">A XOR B</text>
</g>
<!-- &#45;3&#45;&gt;A XOR B -->
<g id="edge2" class="edge">
<title>&#45;3&#45;&gt;A XOR B</title>
<path fill="none" stroke="red" stroke-width="0.31" d="M135,-104.33C135,-96.99 135,-84.87 135,-72.63"/>
<polygon fill="red" stroke="red" stroke-width="0.31" points="138.5,-72.42 135,-62.42 131.5,-72.42 138.5,-72.42"/>
</g>
<!-- &#45;4 -->
<g id="node4" class="node">
<title>&#45;4</title>
<polygon fill="lightgray" stroke="black" points="187.5,-120.37 164.5,-120.37 164.5,-104.37 187.5,-104.37 187.5,-120.37"/>
<text text-anchor="middle" x="176" y="-110.77" font-family="Times New Roman,serif" font-size="7.00">&#45;4</text>
</g>
<!-- &#45;5 -->
<g id="node5" class="node">
<title>&#45;5</title>
<polygon fill="lightgray" stroke="black" points="228.5,-120.37 205.5,-120.37 205.5,-104.37 228.5,-104.37 228.5,-120.37"/>
<text text-anchor="middle" x="217" y="-110.77" font-family="Times New Roman,serif" font-size="7.00">&#45;5</text>
</g>
<!-- &#45;6 -->
<g id="node6" class="node">
<title>&#45;6</title>
<polygon fill="lightgray" stroke="black" points="269.5,-120.37 246.5,-120.37 246.5,-104.37 269.5,-104.37 269.5,-120.37"/>
<text text-anchor="middle" x="258" y="-110.77" font-family="Times New Roman,serif" font-size="7.00">&#45;6</text>
</g>
<!-- &#45;7 -->
<g id="node7" class="node">
<title>&#45;7</title>
<polygon fill="lightgray" stroke="black" points="310.5,-120.37 287.5,-120.37 287.5,-104.37 310.5,-104.37 310.5,-120.37"/>
<text text-anchor="middle" x="299" y="-110.77" font-family="Times New Roman,serif" font-size="7.00">&#45;7</text>
</g>
<!-- &#45;8 -->
<g id="node8" class="node">
<title>&#45;8</title>
<polygon fill="lightgray" stroke="black" points="351.5,-120.37 328.5,-120.37 328.5,-104.37 351.5,-104.37 351.5,-120.37"/>
<text text-anchor="middle" x="340" y="-110.77" font-family="Times New Roman,serif" font-size="7.00">&#45;8</text>
</g>
<!-- &#45;9 -->
<g id="node9" class="node">
<title>&#45;9</title>
<polygon fill="lightgray" stroke="black" points="392.5,-120.37 369.5,-120.37 369.5,-104.37 392.5,-104.37 392.5,-120.37"/>
<text text-anchor="middle" x="381" y="-110.77" font-family="Times New Roman,serif" font-size="7.00">&#45;9</text>
</g>
<!-- 2 -->
<g id="node41" class="node">
<title>2</title>
<ellipse fill="lightblue" stroke="black" cx="424" cy="-31.11" rx="14.29" ry="14.29"/>
<text text-anchor="middle" x="424" y="-29.51" font-family="Times New Roman,serif" font-size="7.00">2</text>
</g>
<!-- &#45;9&#45;&gt;2 -->
<g id="edge5" class="edge">
<title>&#45;9&#45;&gt;2</title>
<path fill="none" stroke="red" stroke-width="0.54" d="M384.82,-104.33C391,-92.93 403.45,-69.98 412.67,-53"/>
<polygon fill="red" stroke="red" stroke-width="0.54" points="415.95,-54.28 417.65,-43.82 409.8,-50.94 415.95,-54.28"/>
</g>
<!-- &#45;10 -->
<g id="node10" class="node">
<title>&#45;10</title>
<polygon fill="lightgray" stroke="black" points="525,-120.37 499,-120.37 499,-104.37 525,-104.37 525,-120.37"/>
<text text-anchor="middle" x="512" y="-110.77" font-family="Times New Roman,serif" font-size="7.00">&#45;10</text>
</g>
<!-- &#45;11 -->
<g id="node11" class="node">
<title>&#45;11</title>
<polygon fill="lightgray" stroke="black" points="569,-120.37 543,-120.37 543,-104.37 569,-104.37 569,-120.37"/>
<text text-anchor="middle" x="556" y="-110.77" font-family="Times New Roman,serif" font-size="7.00">&#45;11</text>
</g>
<!-- &#45;12 -->
<g id="node12" class="node">
<title>&#45;12</title>
<polygon fill="lightgray" stroke="black" points="613,-120.37 587,-120.37 587,-104.37 613,-104.37 613,-120.37"/>
<text text-anchor="middle" x="600" y="-110.77" font-family="Times New Roman,serif" font-size="7.00">&#45;12</text>
</g>
<!-- &#45;13 -->
<g id="node13" class="node">
<title>&#45;13</title>
<polygon fill="lightgray" stroke="black" points="657,-120.37 631,-120.37 631,-104.37 657,-104.37 657,-120.37"/>
<text text-anchor="middle" x="644" y="-110.77" font-family="Times New Roman,serif" font-size="7.00">&#45;13</text>
</g>
<!-- &#45;14 -->
<g id="node14" class="node">
<title>&#45;14</title>
<polygon fill="lightgray" stroke="black" points="701,-120.37 675,-120.37 675,-104.37 701,-104.37 701,-120.37"/>
<text text-anchor="middle" x="688" y="-110.77" font-family="Times New Roman,serif" font-size="7.00">&#45;14</text>
</g>
<!-- &#45;15 -->
<g id="node15" class="node">
<title>&#45;15</title>
<polygon fill="lightgray" stroke="black" points="745,-120.37 719,-120.37 719,-104.37 745,-104.37 745,-120.37"/>
<text text-anchor="middle" x="732" y="-110.77" font-family="Times New Roman,serif" font-size="7.00">&#45;15</text>
</g>
<!-- &#45;16 -->
<g id="node16" class="node">
<title>&#45;16</title>
<polygon fill="lightgray" stroke="black" points="437,-120.37 411,-120.37 411,-104.37 437,-104.37 437,-120.37"/>
<text text-anchor="middle" x="424" y="-110.77" font-family="Times New Roman,serif" font-size="7.00">&#45;16</text>
</g>
<!-- &#45;16&#45;&gt;2 -->
<g id="edge1" class="edge">
<title>&#45;16&#45;&gt;2</title>
<path fill="none" stroke="red" stroke-width="1.13" d="M424,-104.33C424,-93.52 424,-72.31 424,-55.66"/>
<polygon fill="red" stroke="red" stroke-width="1.13" points="427.5,-55.54 424,-45.54 420.5,-55.54 427.5,-55.54"/>
</g>
<!-- &#45;17 -->
<g id="node17" class="node">
<title>&#45;17</title>
<polygon fill="lightgray" stroke="black" points="789,-120.37 763,-120.37 763,-104.37 789,-104.37 789,-120.37"/>
<text text-anchor="middle" x="776" y="-110.77" font-family="Times New Roman,serif" font-size="7.00">&#45;17</text>
</g>
<!-- &#45;18 -->
<g id="node18" class="node">
<title>&#45;18</title>
<polygon fill="lightgray" stroke="black" points="833,-120.37 807,-120.37 807,-104.37 833,-104.37 833,-120.37"/>
<text text-anchor="middle" x="820" y="-110.77" font-family="Times New Roman,serif" font-size="7.00">&#45;18</text>
</g>
<!-- &#45;19 -->
<g id="node19" class="node">
<title>&#45;19</title>
<polygon fill="lightgray" stroke="black" points="877,-120.37 851,-120.37 851,-104.37 877,-104.37 877,-120.37"/>
<text text-anchor="middle" x="864" y="-110.77" font-family="Times New Roman,serif" font-size="7.00">&#45;19</text>
</g>
<!-- &#45;20 -->
<g id="node20" class="node">
<title>&#45;20</title>
<polygon fill="lightgray" stroke="black" points="921,-120.37 895,-120.37 895,-104.37 921,-104.37 921,-120.37"/>
<text text-anchor="middle" x="908" y="-110.77" font-family="Times New Roman,serif" font-size="7.00">&#45;20</text>
</g>
<!-- &#45;21 -->
<g id="node21" class="node">
<title>&#45;21</title>
<polygon fill="lightgray" stroke="black" points="965,-120.37 939,-120.37 939,-104.37 965,-104.37 965,-120.37"/>
<text text-anchor="middle" x="952" y="-110.77" font-family="Times New Roman,serif" font-size="7.00">&#45;21</text>
</g>
<!-- &#45;22 -->
<g id="node22" class="node">
<title>&#45;22</title>
<polygon fill="lightgray" stroke="black" points="1009,-120.37 983,-120.37 983,-104.37 1009,-104.37 1009,-120.37"/>
<text text-anchor="middle" x="996" y="-110.77" font-family="Times New Roman,serif" font-size="7.00">&#45;22</text>
</g>
<!-- &#45;23 -->
<g id="node23" class="node">
<title>&#45;23</title>
<polygon fill="lightgray" stroke="black" points="1053,-120.37 1027,-120.37 1027,-104.37 1053,-104.37 1053,-120.37"/>
<text text-anchor="middle" x="1040" y="-110.77" font-family="Times New Roman,serif" font-size="7.00">&#45;23</text>
</g>
<!-- &#45;24 -->
<g id="node24" class="node">
<title>&#45;24</title>
<polygon fill="lightgray" stroke="black" points="1097,-120.37 1071,-120.37 1071,-104.37 1097,-104.37 1097,-120.37"/>
<text text-anchor="middle" x="1084" y="-110.77" font-family="Times New Roman,serif" font-size="7.00">&#45;24</text>
</g>
<!-- &#45;25 -->
<g id="node25" class="node">
<title>&#45;25</title>
<polygon fill="lightgray" stroke="black" points="481,-120.37 455,-120.37 455,-104.37 481,-104.37 481,-120.37"/>
<text text-anchor="middle" x="468" y="-110.77" font-family="Times New Roman,serif" font-size="7.00">&#45;25</text>
</g>
<!-- &#45;25&#45;&gt;2 -->
<g id="edge4" class="edge">
<title>&#45;25&#45;&gt;2</title>
<path fill="none" stroke="green" stroke-width="0.16" d="M464.1,-104.33C457.77,-92.93 445.03,-69.98 435.6,-53"/>
<polygon fill="green" stroke="green" stroke-width="0.16" points="438.42,-50.87 430.5,-43.82 432.3,-54.26 438.42,-50.87"/>
</g>
<!-- &#45;26 -->
<g id="node26" class="node">
<title>&#45;26</title>
<polygon fill="lightgray" stroke="black" points="1141,-120.37 1115,-120.37 1115,-104.37 1141,-104.37 1141,-120.37"/>
<text text-anchor="middle" x="1128" y="-110.77" font-family="Times New Roman,serif" font-size="7.00">&#45;26</text>
</g>
<!-- &#45;27 -->
<g id="node27" class="node">
<title>&#45;27</title>
<polygon fill="lightgray" stroke="black" points="1185,-120.37 1159,-120.37 1159,-104.37 1185,-104.37 1185,-120.37"/>
<text text-anchor="middle" x="1172" y="-110.77" font-family="Times New Roman,serif" font-size="7.00">&#45;27</text>
</g>
<!-- &#45;28 -->
<g id="node28" class="node">
<title>&#45;28</title>
<polygon fill="lightgray" stroke="black" points="1229,-120.37 1203,-120.37 1203,-104.37 1229,-104.37 1229,-120.37"/>
<text text-anchor="middle" x="1216" y="-110.77" font-family="Times New Roman,serif" font-size="7.00">&#45;28</text>
</g>
<!-- &#45;29 -->
<g id="node29" class="node">
<title>&#45;29</title>
<polygon fill="lightgray" stroke="black" points="1273,-120.37 1247,-120.37 1247,-104.37 1273,-104.37 1273,-120.37"/>
<text text-anchor="middle" x="1260" y="-110.77" font-family="Times New Roman,serif" font-size="7.00">&#45;29</text>
</g>
<!-- &#45;30 -->
<g id="node30" class="node">
<title>&#45;30</title>
<polygon fill="lightgray" stroke="black" points="1317,-120.37 1291,-120.37 1291,-104.37 1317,-104.37 1317,-120.37"/>
<text text-anchor="middle" x="1304" y="-110.77" font-family="Times New Roman,serif" font-size="7.00">&#45;30</text>
</g>
<!-- &#45;31 -->
<g id="node31" class="node">
<title>&#45;31</title>
<polygon fill="lightgray" stroke="black" points="1361,-120.37 1335,-120.37 1335,-104.37 1361,-104.37 1361,-120.37"/>
<text text-anchor="middle" x="1348" y="-110.77" font-family="Times New Roman,serif" font-size="7.00">&#45;31</text>
</g>
<!-- &#45;32 -->
<g id="node32" class="node">
<title>&#45;32</title>
<polygon fill="lightgray" stroke="black" points="1405,-120.37 1379,-120.37 1379,-104.37 1405,-104.37 1405,-120.37"/>
<text text-anchor="middle" x="1392" y="-110.77" font-family="Times New Roman,serif" font-size="7.00">&#45;32</text>
</g>
<!-- &#45;33 -->
<g id="node33" class="node">
<title>&#45;33</title>
<polygon fill="lightgray" stroke="black" points="1449,-120.37 1423,-120.37 1423,-104.37 1449,-104.37 1449,-120.37"/>
<text text-anchor="middle" x="1436" y="-110.77" font-family="Times New Roman,serif" font-size="7.00">&#45;33</text>
</g>
<!-- &#45;34 -->
<g id="node34" class="node">
<title>&#45;34</title>
<polygon fill="lightgray" stroke="black" points="1493,-120.37 1467,-120.37 1467,-104.37 1493,-104.37 1493,-120.37"/>
<text text-anchor="middle" x="1480" y="-110.77" font-family="Times New Roman,serif" font-size="7.00">&#45;34</text>
</g>
<!-- &#45;35 -->
<g id="node35" class="node">
<title>&#45;35</title>
<polygon fill="lightgray" stroke="black" points="66,-120.37 40,-120.37 40,-104.37 66,-104.37 66,-120.37"/>
<text text-anchor="middle" x="53" y="-110.77" font-family="Times New Roman,serif" font-size="7.00">&#45;35</text>
</g>
<!-- &#45;35&#45;&gt;400 -->
<g id="edge6" class="edge">
<title>&#45;35&#45;&gt;400</title>
<path fill="none" stroke="green" stroke-width="0.34" d="M51.14,-104.33C48.53,-94.51 43.66,-76.13 39.48,-60.36"/>
<polygon fill="green" stroke="green" stroke-width="0.34" points="42.82,-59.27 36.87,-50.5 36.05,-61.06 42.82,-59.27"/>
</g>
<!-- &#45;36 -->
<g id="node36" class="node">
<title>&#45;36</title>
<polygon fill="lightgray" stroke="black" points="1537,-120.37 1511,-120.37 1511,-104.37 1537,-104.37 1537,-120.37"/>
<text text-anchor="middle" x="1524" y="-110.77" font-family="Times New Roman,serif" font-size="7.00">&#45;36</text>
</g>
<!-- &#45;37 -->
<g id="node37" class="node">
<title>&#45;37</title>
<polygon fill="lightgray" stroke="black" points="1581,-120.37 1555,-120.37 1555,-104.37 1581,-104.37 1581,-120.37"/>
<text text-anchor="middle" x="1568" y="-110.77" font-family="Times New Roman,serif" font-size="7.00">&#45;37</text>
</g>
<!-- &#45;38 -->
<g id="node38" class="node">
<title>&#45;38</title>
<polygon fill="lightgray" stroke="black" points="1625,-120.37 1599,-120.37 1599,-104.37 1625,-104.37 1625,-120.37"/>
<text text-anchor="middle" x="1612" y="-110.77" font-family="Times New Roman,serif" font-size="7.00">&#45;38</text>
</g>
<!-- 1 -->
<g id="node40" class="node">
<title>1</title>
<ellipse fill="lightblue" stroke="black" cx="1657" cy="-112.37" rx="14.29" ry="14.29"/>
<text text-anchor="middle" x="1657" y="-110.77" font-family="Times New Roman,serif" font-size="7.00">1</text>
</g>
</g>
</svg>
