<?xml version="1.0" encoding="UTF-8" standalone="no"?>
<!DOCTYPE svg PUBLIC "-//W3C//DTD SVG 1.1//EN"
 "http://www.w3.org/Graphics/SVG/1.1/DTD/svg11.dtd">
<!-- Generated by graphviz version 2.46.0 (20210118.1747)
 -->
<!-- Pages: 1 -->
<svg width="1714pt" height="135pt"
 viewBox="0.00 0.00 1714.11 134.51" xmlns="http://www.w3.org/2000/svg" xmlns:xlink="http://www.w3.org/1999/xlink">
<g id="graph0" class="graph" transform="scale(1 1) rotate(0) translate(4 130.51)">
<polygon fill="white" stroke="transparent" points="-4,4 -4,-130.51 1710.11,-130.51 1710.11,4 -4,4"/>
<!-- A -->
<g id="node1" class="node">
<title>A</title>
<polygon fill="lightgray" stroke="black" points="22,-103.4 0,-103.4 0,-87.4 22,-87.4 22,-103.4"/>
<text text-anchor="middle" x="11" y="-93.8" font-family="Times New Roman,serif" font-size="7.00">A</text>
</g>
<!-- B -->
<g id="node2" class="node">
<title>B</title>
<polygon fill="lightgray" stroke="black" points="61.5,-103.4 40.5,-103.4 40.5,-87.4 61.5,-87.4 61.5,-103.4"/>
<text text-anchor="middle" x="51" y="-93.8" font-family="Times New Roman,serif" font-size="7.00">B</text>
</g>
<!-- &#45;3 -->
<g id="node3" class="node">
<title>&#45;3</title>
<polygon fill="lightgray" stroke="black" points="143.5,-103.4 120.5,-103.4 120.5,-87.4 143.5,-87.4 143.5,-103.4"/>
<text text-anchor="middle" x="132" y="-93.8" font-family="Times New Roman,serif" font-size="7.00">&#45;3</text>
</g>
<!-- 1 -->
<g id="node40" class="node">
<title>1</title>
<ellipse fill="lightblue" stroke="black" cx="112" cy="-14.14" rx="14.29" ry="14.29"/>
<text text-anchor="middle" x="112" y="-12.54" font-family="Times New Roman,serif" font-size="7.00">1</text>
</g>
<!-- &#45;3&#45;&gt;1 -->
<g id="edge2" class="edge">
<title>&#45;3&#45;&gt;1</title>
<path fill="none" stroke="green" stroke-width="1.54" d="M130.23,-87.36C127.46,-76.42 122.02,-54.85 117.8,-38.12"/>
<polygon fill="green" stroke="green" stroke-width="1.54" points="121.08,-36.83 115.24,-27.99 114.29,-38.54 121.08,-36.83"/>
</g>
<!-- 2 -->
<g id="node41" class="node">
<title>2</title>
<ellipse fill="lightblue" stroke="black" cx="238" cy="-14.14" rx="14.29" ry="14.29"/>
<text text-anchor="middle" x="238" y="-12.54" font-family="Times New Roman,serif" font-size="7.00">2</text>
</g>
<!-- &#45;3&#45;&gt;2 -->
<g id="edge7" class="edge">
<title>&#45;3&#45;&gt;2</title>
<path fill="none" stroke="red" stroke-width="0.31" d="M135.5,-87.26C138.99,-80.69 144.85,-70.97 152,-64.28 170.86,-46.65 197.19,-32.79 215.74,-24.35"/>
<polygon fill="red" stroke="red" stroke-width="0.31" points="217.39,-27.45 225.14,-20.23 214.58,-21.04 217.39,-27.45"/>
</g>
<!-- &#45;4 -->
<g id="node4" class="node">
<title>&#45;4</title>
<polygon fill="lightgray" stroke="black" points="184.5,-103.4 161.5,-103.4 161.5,-87.4 184.5,-87.4 184.5,-103.4"/>
<text text-anchor="middle" x="173" y="-93.8" font-family="Times New Roman,serif" font-size="7.00">&#45;4</text>
</g>
<!-- &#45;4&#45;&gt;2 -->
<g id="edge6" class="edge">
<title>&#45;4&#45;&gt;2</title>
<path fill="none" stroke="red" stroke-width="0.27" d="M177.6,-87.29C181.71,-81.07 187.99,-71.88 194,-64.28 202.69,-53.31 213.11,-41.62 221.62,-32.39"/>
<polygon fill="red" stroke="red" stroke-width="0.27" points="224.26,-34.69 228.53,-25 219.15,-29.92 224.26,-34.69"/>
</g>
<!-- &#45;5 -->
<g id="node5" class="node">
<title>&#45;5</title>
<polygon fill="lightgray" stroke="black" points="102.5,-103.4 79.5,-103.4 79.5,-87.4 102.5,-87.4 102.5,-103.4"/>
<text text-anchor="middle" x="91" y="-93.8" font-family="Times New Roman,serif" font-size="7.00">&#45;5</text>
</g>
<!-- &#45;5&#45;&gt;1 -->
<g id="edge4" class="edge">
<title>&#45;5&#45;&gt;1</title>
<path fill="none" stroke="red" stroke-width="0.13" d="M92.86,-87.36C95.76,-76.42 101.48,-54.85 105.91,-38.12"/>
<polygon fill="red" stroke="red" stroke-width="0.13" points="109.42,-38.55 108.6,-27.99 102.65,-36.76 109.42,-38.55"/>
</g>
<!-- &#45;6 -->
<g id="node6" class="node">
<title>&#45;6</title>
<polygon fill="lightgray" stroke="black" points="402.5,-103.4 379.5,-103.4 379.5,-87.4 402.5,-87.4 402.5,-103.4"/>
<text text-anchor="middle" x="391" y="-93.8" font-family="Times New Roman,serif" font-size="7.00">&#45;6</text>
</g>
<!-- &#45;7 -->
<g id="node7" class="node">
<title>&#45;7</title>
<polygon fill="lightgray" stroke="black" points="443.5,-103.4 420.5,-103.4 420.5,-87.4 443.5,-87.4 443.5,-103.4"/>
<text text-anchor="middle" x="432" y="-93.8" font-family="Times New Roman,serif" font-size="7.00">&#45;7</text>
</g>
<!-- &#45;8 -->
<g id="node8" class="node">
<title>&#45;8</title>
<polygon fill="lightgray" stroke="black" points="484.5,-103.4 461.5,-103.4 461.5,-87.4 484.5,-87.4 484.5,-103.4"/>
<text text-anchor="middle" x="473" y="-93.8" font-family="Times New Roman,serif" font-size="7.00">&#45;8</text>
</g>
<!-- &#45;9 -->
<g id="node9" class="node">
<title>&#45;9</title>
<polygon fill="lightgray" stroke="black" points="525.5,-103.4 502.5,-103.4 502.5,-87.4 525.5,-87.4 525.5,-103.4"/>
<text text-anchor="middle" x="514" y="-93.8" font-family="Times New Roman,serif" font-size="7.00">&#45;9</text>
</g>
<!-- &#45;10 -->
<g id="node10" class="node">
<title>&#45;10</title>
<polygon fill="lightgray" stroke="black" points="229,-103.4 203,-103.4 203,-87.4 229,-87.4 229,-103.4"/>
<text text-anchor="middle" x="216" y="-93.8" font-family="Times New Roman,serif" font-size="7.00">&#45;10</text>
</g>
<!-- &#45;10&#45;&gt;2 -->
<g id="edge3" class="edge">
<title>&#45;10&#45;&gt;2</title>
<path fill="none" stroke="red" stroke-width="0.36" d="M217.95,-87.36C221.02,-76.32 227.09,-54.44 231.75,-37.65"/>
<polygon fill="red" stroke="red" stroke-width="0.36" points="235.13,-38.56 234.43,-27.99 228.39,-36.69 235.13,-38.56"/>
</g>
<!-- &#45;11 -->
<g id="node11" class="node">
<title>&#45;11</title>
<polygon fill="lightgray" stroke="black" points="570,-103.4 544,-103.4 544,-87.4 570,-87.4 570,-103.4"/>
<text text-anchor="middle" x="557" y="-93.8" font-family="Times New Roman,serif" font-size="7.00">&#45;11</text>
</g>
<!-- &#45;12 -->
<g id="node12" class="node">
<title>&#45;12</title>
<polygon fill="lightgray" stroke="black" points="614,-103.4 588,-103.4 588,-87.4 614,-87.4 614,-103.4"/>
<text text-anchor="middle" x="601" y="-93.8" font-family="Times New Roman,serif" font-size="7.00">&#45;12</text>
</g>
<!-- &#45;13 -->
<g id="node13" class="node">
<title>&#45;13</title>
<polygon fill="lightgray" stroke="black" points="658,-103.4 632,-103.4 632,-87.4 658,-87.4 658,-103.4"/>
<text text-anchor="middle" x="645" y="-93.8" font-family="Times New Roman,serif" font-size="7.00">&#45;13</text>
</g>
<!-- &#45;14 -->
<g id="node14" class="node">
<title>&#45;14</title>
<polygon fill="lightgray" stroke="black" points="273,-103.4 247,-103.4 247,-87.4 273,-87.4 273,-103.4"/>
<text text-anchor="middle" x="260" y="-93.8" font-family="Times New Roman,serif" font-size="7.00">&#45;14</text>
</g>
<!-- &#45;14&#45;&gt;2 -->
<g id="edge5" class="edge">
<title>&#45;14&#45;&gt;2</title>
<path fill="none" stroke="green" stroke-width="0.14" d="M258.05,-87.36C254.98,-76.32 248.91,-54.44 244.25,-37.65"/>
<polygon fill="green" stroke="green" stroke-width="0.14" points="247.61,-36.69 241.57,-27.99 240.87,-38.56 247.61,-36.69"/>
</g>
<!-- &#45;15 -->
<g id="node15" class="node">
<title>&#45;15</title>
<polygon fill="lightgray" stroke="black" points="702,-103.4 676,-103.4 676,-87.4 702,-87.4 702,-103.4"/>
<text text-anchor="middle" x="689" y="-93.8" font-family="Times New Roman,serif" font-size="7.00">&#45;15</text>
</g>
<!-- &#45;16 -->
<g id="node16" class="node">
<title>&#45;16</title>
<polygon fill="lightgray" stroke="black" points="317,-103.4 291,-103.4 291,-87.4 317,-87.4 317,-103.4"/>
<text text-anchor="middle" x="304" y="-93.8" font-family="Times New Roman,serif" font-size="7.00">&#45;16</text>
</g>
<!-- &#45;16&#45;&gt;2 -->
<g id="edge1" class="edge">
<title>&#45;16&#45;&gt;2</title>
<path fill="none" stroke="red" stroke-width="0.36" d="M299.12,-87.31C294.79,-81.11 288.19,-71.93 282,-64.28 273.19,-53.41 262.77,-41.72 254.28,-32.47"/>
<polygon fill="red" stroke="red" stroke-width="0.36" points="256.77,-30.01 247.4,-25.05 251.63,-34.76 256.77,-30.01"/>
</g>
<!-- &#45;17 -->
<g id="node17" class="node">
<title>&#45;17</title>
<polygon fill="lightgray" stroke="black" points="746,-103.4 720,-103.4 720,-87.4 746,-87.4 746,-103.4"/>
<text text-anchor="middle" x="733" y="-93.8" font-family="Times New Roman,serif" font-size="7.00">&#45;17</text>
</g>
<!-- &#45;18 -->
<g id="node18" class="node">
<title>&#45;18</title>
<polygon fill="lightgray" stroke="black" points="790,-103.4 764,-103.4 764,-87.4 790,-87.4 790,-103.4"/>
<text text-anchor="middle" x="777" y="-93.8" font-family="Times New Roman,serif" font-size="7.00">&#45;18</text>
</g>
<!-- &#45;19 -->
<g id="node19" class="node">
<title>&#45;19</title>
<polygon fill="lightgray" stroke="black" points="834,-103.4 808,-103.4 808,-87.4 834,-87.4 834,-103.4"/>
<text text-anchor="middle" x="821" y="-93.8" font-family="Times New Roman,serif" font-size="7.00">&#45;19</text>
</g>
<!-- &#45;20 -->
<g id="node20" class="node">
<title>&#45;20</title>
<polygon fill="lightgray" stroke="black" points="878,-103.4 852,-103.4 852,-87.4 878,-87.4 878,-103.4"/>
<text text-anchor="middle" x="865" y="-93.8" font-family="Times New Roman,serif" font-size="7.00">&#45;20</text>
</g>
<!-- &#45;21 -->
<g id="node21" class="node">
<title>&#45;21</title>
<polygon fill="lightgray" stroke="black" points="922,-103.4 896,-103.4 896,-87.4 922,-87.4 922,-103.4"/>
<text text-anchor="middle" x="909" y="-93.8" font-family="Times New Roman,serif" font-size="7.00">&#45;21</text>
</g>
<!-- &#45;22 -->
<g id="node22" class="node">
<title>&#45;22</title>
<polygon fill="lightgray" stroke="black" points="966,-103.4 940,-103.4 940,-87.4 966,-87.4 966,-103.4"/>
<text text-anchor="middle" x="953" y="-93.8" font-family="Times New Roman,serif" font-size="7.00">&#45;22</text>
</g>
<!-- &#45;23 -->
<g id="node23" class="node">
<title>&#45;23</title>
<polygon fill="lightgray" stroke="black" points="1010,-103.4 984,-103.4 984,-87.4 1010,-87.4 1010,-103.4"/>
<text text-anchor="middle" x="997" y="-93.8" font-family="Times New Roman,serif" font-size="7.00">&#45;23</text>
</g>
<!-- &#45;24 -->
<g id="node24" class="node">
<title>&#45;24</title>
<polygon fill="lightgray" stroke="black" points="1054,-103.4 1028,-103.4 1028,-87.4 1054,-87.4 1054,-103.4"/>
<text text-anchor="middle" x="1041" y="-93.8" font-family="Times New Roman,serif" font-size="7.00">&#45;24</text>
</g>
<!-- &#45;25 -->
<g id="node25" class="node">
<title>&#45;25</title>
<polygon fill="lightgray" stroke="black" points="1098,-103.4 1072,-103.4 1072,-87.4 1098,-87.4 1098,-103.4"/>
<text text-anchor="middle" x="1085" y="-93.8" font-family="Times New Roman,serif" font-size="7.00">&#45;25</text>
</g>
<!-- &#45;26 -->
<g id="node26" class="node">
<title>&#45;26</title>
<polygon fill="lightgray" stroke="black" points="361,-103.4 335,-103.4 335,-87.4 361,-87.4 361,-103.4"/>
<text text-anchor="middle" x="348" y="-93.8" font-family="Times New Roman,serif" font-size="7.00">&#45;26</text>
</g>
<!-- &#45;26&#45;&gt;2 -->
<g id="edge8" class="edge">
<title>&#45;26&#45;&gt;2</title>
<path fill="none" stroke="green" stroke-width="0.18" d="M344.01,-87.27C340.08,-80.7 333.56,-70.98 326,-64.28 306.23,-46.78 279.2,-32.84 260.33,-24.34"/>
<polygon fill="green" stroke="green" stroke-width="0.18" points="261.6,-21.08 251.03,-20.3 258.81,-27.5 261.6,-21.08"/>
</g>
<!-- &#45;27 -->
<g id="node27" class="node">
<title>&#45;27</title>
<polygon fill="lightgray" stroke="black" points="1142,-103.4 1116,-103.4 1116,-87.4 1142,-87.4 1142,-103.4"/>
<text text-anchor="middle" x="1129" y="-93.8" font-family="Times New Roman,serif" font-size="7.00">&#45;27</text>
</g>
<!-- &#45;28 -->
<g id="node28" class="node">
<title>&#45;28</title>
<polygon fill="lightgray" stroke="black" points="1186,-103.4 1160,-103.4 1160,-87.4 1186,-87.4 1186,-103.4"/>
<text text-anchor="middle" x="1173" y="-93.8" font-family="Times New Roman,serif" font-size="7.00">&#45;28</text>
</g>
<!-- &#45;29 -->
<g id="node29" class="node">
<title>&#45;29</title>
<polygon fill="lightgray" stroke="black" points="1230,-103.4 1204,-103.4 1204,-87.4 1230,-87.4 1230,-103.4"/>
<text text-anchor="middle" x="1217" y="-93.8" font-family="Times New Roman,serif" font-size="7.00">&#45;29</text>
</g>
<!-- &#45;30 -->
<g id="node30" class="node">
<title>&#45;30</title>
<polygon fill="lightgray" stroke="black" points="1274,-103.4 1248,-103.4 1248,-87.4 1274,-87.4 1274,-103.4"/>
<text text-anchor="middle" x="1261" y="-93.8" font-family="Times New Roman,serif" font-size="7.00">&#45;30</text>
</g>
<!-- &#45;31 -->
<g id="node31" class="node">
<title>&#45;31</title>
<polygon fill="lightgray" stroke="black" points="1318,-103.4 1292,-103.4 1292,-87.4 1318,-87.4 1318,-103.4"/>
<text text-anchor="middle" x="1305" y="-93.8" font-family="Times New Roman,serif" font-size="7.00">&#45;31</text>
</g>
<!-- &#45;32 -->
<g id="node32" class="node">
<title>&#45;32</title>
<polygon fill="lightgray" stroke="black" points="1362,-103.4 1336,-103.4 1336,-87.4 1362,-87.4 1362,-103.4"/>
<text text-anchor="middle" x="1349" y="-93.8" font-family="Times New Roman,serif" font-size="7.00">&#45;32</text>
</g>
<!-- &#45;33 -->
<g id="node33" class="node">
<title>&#45;33</title>
<polygon fill="lightgray" stroke="black" points="1406,-103.4 1380,-103.4 1380,-87.4 1406,-87.4 1406,-103.4"/>
<text text-anchor="middle" x="1393" y="-93.8" font-family="Times New Roman,serif" font-size="7.00">&#45;33</text>
</g>
<!-- &#45;34 -->
<g id="node34" class="node">
<title>&#45;34</title>
<polygon fill="lightgray" stroke="black" points="1450,-103.4 1424,-103.4 1424,-87.4 1450,-87.4 1450,-103.4"/>
<text text-anchor="middle" x="1437" y="-93.8" font-family="Times New Roman,serif" font-size="7.00">&#45;34</text>
</g>
<!-- &#45;35 -->
<g id="node35" class="node">
<title>&#45;35</title>
<polygon fill="lightgray" stroke="black" points="1494,-103.4 1468,-103.4 1468,-87.4 1494,-87.4 1494,-103.4"/>
<text text-anchor="middle" x="1481" y="-93.8" font-family="Times New Roman,serif" font-size="7.00">&#45;35</text>
</g>
<!-- &#45;36 -->
<g id="node36" class="node">
<title>&#45;36</title>
<polygon fill="lightgray" stroke="black" points="1538,-103.4 1512,-103.4 1512,-87.4 1538,-87.4 1538,-103.4"/>
<text text-anchor="middle" x="1525" y="-93.8" font-family="Times New Roman,serif" font-size="7.00">&#45;36</text>
</g>
<!-- &#45;37 -->
<g id="node37" class="node">
<title>&#45;37</title>
<polygon fill="lightgray" stroke="black" points="1582,-103.4 1556,-103.4 1556,-87.4 1582,-87.4 1582,-103.4"/>
<text text-anchor="middle" x="1569" y="-93.8" font-family="Times New Roman,serif" font-size="7.00">&#45;37</text>
</g>
<!-- &#45;38 -->
<g id="node38" class="node">
<title>&#45;38</title>
<polygon fill="lightgray" stroke="black" points="1626,-103.4 1600,-103.4 1600,-87.4 1626,-87.4 1626,-103.4"/>
<text text-anchor="middle" x="1613" y="-93.8" font-family="Times New Roman,serif" font-size="7.00">&#45;38</text>
</g>
<!-- A XOR B -->
<g id="node39" class="node">
<title>A XOR B</title>
<ellipse fill="lightblue" stroke="black" cx="1675" cy="-95.4" rx="31.23" ry="31.23"/>
<text text-anchor="middle" x="1675" y="-93.8" font-family="Times New Roman,serif" font-size="7.00">A XOR B</text>
</g>
</g>
</svg>
