<?xml version="1.0" encoding="UTF-8" standalone="no"?>
<!DOCTYPE svg PUBLIC "-//W3C//DTD SVG 1.1//EN"
 "http://www.w3.org/Graphics/SVG/1.1/DTD/svg11.dtd">
<!-- Generated by graphviz version 2.46.0 (20210118.1747)
 -->
<!-- Pages: 1 -->
<svg width="1715pt" height="135pt"
 viewBox="0.00 0.00 1715.11 134.51" xmlns="http://www.w3.org/2000/svg" xmlns:xlink="http://www.w3.org/1999/xlink">
<g id="graph0" class="graph" transform="scale(1 1) rotate(0) translate(4 130.51)">
<polygon fill="white" stroke="transparent" points="-4,4 -4,-130.51 1711.11,-130.51 1711.11,4 -4,4"/>
<!-- A -->
<g id="node1" class="node">
<title>A</title>
<polygon fill="lightgray" stroke="black" points="22,-103.4 0,-103.4 0,-87.4 22,-87.4 22,-103.4"/>
<text text-anchor="middle" x="11" y="-93.8" font-family="Times New Roman,serif" font-size="7.00">A</text>
</g>
<!-- B -->
<g id="node2" class="node">
<title>B</title>
<polygon fill="lightgray" stroke="black" points="61.5,-103.4 40.5,-103.4 40.5,-87.4 61.5,-87.4 61.5,-103.4"/>
<text text-anchor="middle" x="51" y="-93.8" font-family="Times New Roman,serif" font-size="7.00">B</text>
</g>
<!-- &#45;3 -->
<g id="node3" class="node">
<title>&#45;3</title>
<polygon fill="lightgray" stroke="black" points="102.5,-103.4 79.5,-103.4 79.5,-87.4 102.5,-87.4 102.5,-103.4"/>
<text text-anchor="middle" x="91" y="-93.8" font-family="Times New Roman,serif" font-size="7.00">&#45;3</text>
</g>
<!-- 1 -->
<g id="node40" class="node">
<title>1</title>
<ellipse fill="lightblue" stroke="black" cx="89" cy="-14.14" rx="14.29" ry="14.29"/>
<text text-anchor="middle" x="89" y="-12.54" font-family="Times New Roman,serif" font-size="7.00">1</text>
</g>
<!-- &#45;3&#45;&gt;1 -->
<g id="edge2" class="edge">
<title>&#45;3&#45;&gt;1</title>
<path fill="none" stroke="green" stroke-width="1.18" d="M90.82,-87.36C90.55,-76.55 90.01,-55.34 89.59,-38.69"/>
<polygon fill="green" stroke="green" stroke-width="1.18" points="93.09,-38.48 89.34,-28.57 86.09,-38.65 93.09,-38.48"/>
</g>
<!-- 2 -->
<g id="node41" class="node">
<title>2</title>
<ellipse fill="lightblue" stroke="black" cx="135" cy="-14.14" rx="14.29" ry="14.29"/>
<text text-anchor="middle" x="135" y="-12.54" font-family="Times New Roman,serif" font-size="7.00">2</text>
</g>
<!-- &#45;3&#45;&gt;2 -->
<g id="edge3" class="edge">
<title>&#45;3&#45;&gt;2</title>
<path fill="none" stroke="green" stroke-width="0.34" d="M94.9,-87.36C101.23,-75.96 113.97,-53.01 123.4,-36.03"/>
<polygon fill="green" stroke="green" stroke-width="0.34" points="126.7,-37.29 128.5,-26.85 120.58,-33.9 126.7,-37.29"/>
</g>
<!-- &#45;4 -->
<g id="node4" class="node">
<title>&#45;4</title>
<polygon fill="lightgray" stroke="black" points="189.5,-103.4 166.5,-103.4 166.5,-87.4 189.5,-87.4 189.5,-103.4"/>
<text text-anchor="middle" x="178" y="-93.8" font-family="Times New Roman,serif" font-size="7.00">&#45;4</text>
</g>
<!-- &#45;5 -->
<g id="node5" class="node">
<title>&#45;5</title>
<polygon fill="lightgray" stroke="black" points="230.5,-103.4 207.5,-103.4 207.5,-87.4 230.5,-87.4 230.5,-103.4"/>
<text text-anchor="middle" x="219" y="-93.8" font-family="Times New Roman,serif" font-size="7.00">&#45;5</text>
</g>
<!-- &#45;6 -->
<g id="node6" class="node">
<title>&#45;6</title>
<polygon fill="lightgray" stroke="black" points="271.5,-103.4 248.5,-103.4 248.5,-87.4 271.5,-87.4 271.5,-103.4"/>
<text text-anchor="middle" x="260" y="-93.8" font-family="Times New Roman,serif" font-size="7.00">&#45;6</text>
</g>
<!-- &#45;7 -->
<g id="node7" class="node">
<title>&#45;7</title>
<polygon fill="lightgray" stroke="black" points="312.5,-103.4 289.5,-103.4 289.5,-87.4 312.5,-87.4 312.5,-103.4"/>
<text text-anchor="middle" x="301" y="-93.8" font-family="Times New Roman,serif" font-size="7.00">&#45;7</text>
</g>
<!-- &#45;8 -->
<g id="node8" class="node">
<title>&#45;8</title>
<polygon fill="lightgray" stroke="black" points="353.5,-103.4 330.5,-103.4 330.5,-87.4 353.5,-87.4 353.5,-103.4"/>
<text text-anchor="middle" x="342" y="-93.8" font-family="Times New Roman,serif" font-size="7.00">&#45;8</text>
</g>
<!-- &#45;9 -->
<g id="node9" class="node">
<title>&#45;9</title>
<polygon fill="lightgray" stroke="black" points="394.5,-103.4 371.5,-103.4 371.5,-87.4 394.5,-87.4 394.5,-103.4"/>
<text text-anchor="middle" x="383" y="-93.8" font-family="Times New Roman,serif" font-size="7.00">&#45;9</text>
</g>
<!-- &#45;10 -->
<g id="node10" class="node">
<title>&#45;10</title>
<polygon fill="lightgray" stroke="black" points="439,-103.4 413,-103.4 413,-87.4 439,-87.4 439,-103.4"/>
<text text-anchor="middle" x="426" y="-93.8" font-family="Times New Roman,serif" font-size="7.00">&#45;10</text>
</g>
<!-- &#45;11 -->
<g id="node11" class="node">
<title>&#45;11</title>
<polygon fill="lightgray" stroke="black" points="483,-103.4 457,-103.4 457,-87.4 483,-87.4 483,-103.4"/>
<text text-anchor="middle" x="470" y="-93.8" font-family="Times New Roman,serif" font-size="7.00">&#45;11</text>
</g>
<!-- &#45;12 -->
<g id="node12" class="node">
<title>&#45;12</title>
<polygon fill="lightgray" stroke="black" points="527,-103.4 501,-103.4 501,-87.4 527,-87.4 527,-103.4"/>
<text text-anchor="middle" x="514" y="-93.8" font-family="Times New Roman,serif" font-size="7.00">&#45;12</text>
</g>
<!-- &#45;13 -->
<g id="node13" class="node">
<title>&#45;13</title>
<polygon fill="lightgray" stroke="black" points="571,-103.4 545,-103.4 545,-87.4 571,-87.4 571,-103.4"/>
<text text-anchor="middle" x="558" y="-93.8" font-family="Times New Roman,serif" font-size="7.00">&#45;13</text>
</g>
<!-- &#45;14 -->
<g id="node14" class="node">
<title>&#45;14</title>
<polygon fill="lightgray" stroke="black" points="615,-103.4 589,-103.4 589,-87.4 615,-87.4 615,-103.4"/>
<text text-anchor="middle" x="602" y="-93.8" font-family="Times New Roman,serif" font-size="7.00">&#45;14</text>
</g>
<!-- &#45;15 -->
<g id="node15" class="node">
<title>&#45;15</title>
<polygon fill="lightgray" stroke="black" points="659,-103.4 633,-103.4 633,-87.4 659,-87.4 659,-103.4"/>
<text text-anchor="middle" x="646" y="-93.8" font-family="Times New Roman,serif" font-size="7.00">&#45;15</text>
</g>
<!-- &#45;16 -->
<g id="node16" class="node">
<title>&#45;16</title>
<polygon fill="lightgray" stroke="black" points="148,-103.4 122,-103.4 122,-87.4 148,-87.4 148,-103.4"/>
<text text-anchor="middle" x="135" y="-93.8" font-family="Times New Roman,serif" font-size="7.00">&#45;16</text>
</g>
<!-- &#45;16&#45;&gt;2 -->
<g id="edge1" class="edge">
<title>&#45;16&#45;&gt;2</title>
<path fill="none" stroke="red" stroke-width="0.59" d="M135,-87.36C135,-76.55 135,-55.34 135,-38.69"/>
<polygon fill="red" stroke="red" stroke-width="0.59" points="138.5,-38.57 135,-28.57 131.5,-38.57 138.5,-38.57"/>
</g>
<!-- &#45;17 -->
<g id="node17" class="node">
<title>&#45;17</title>
<polygon fill="lightgray" stroke="black" points="703,-103.4 677,-103.4 677,-87.4 703,-87.4 703,-103.4"/>
<text text-anchor="middle" x="690" y="-93.8" font-family="Times New Roman,serif" font-size="7.00">&#45;17</text>
</g>
<!-- &#45;18 -->
<g id="node18" class="node">
<title>&#45;18</title>
<polygon fill="lightgray" stroke="black" points="747,-103.4 721,-103.4 721,-87.4 747,-87.4 747,-103.4"/>
<text text-anchor="middle" x="734" y="-93.8" font-family="Times New Roman,serif" font-size="7.00">&#45;18</text>
</g>
<!-- &#45;19 -->
<g id="node19" class="node">
<title>&#45;19</title>
<polygon fill="lightgray" stroke="black" points="791,-103.4 765,-103.4 765,-87.4 791,-87.4 791,-103.4"/>
<text text-anchor="middle" x="778" y="-93.8" font-family="Times New Roman,serif" font-size="7.00">&#45;19</text>
</g>
<!-- &#45;20 -->
<g id="node20" class="node">
<title>&#45;20</title>
<polygon fill="lightgray" stroke="black" points="835,-103.4 809,-103.4 809,-87.4 835,-87.4 835,-103.4"/>
<text text-anchor="middle" x="822" y="-93.8" font-family="Times New Roman,serif" font-size="7.00">&#45;20</text>
</g>
<!-- &#45;21 -->
<g id="node21" class="node">
<title>&#45;21</title>
<polygon fill="lightgray" stroke="black" points="879,-103.4 853,-103.4 853,-87.4 879,-87.4 879,-103.4"/>
<text text-anchor="middle" x="866" y="-93.8" font-family="Times New Roman,serif" font-size="7.00">&#45;21</text>
</g>
<!-- &#45;22 -->
<g id="node22" class="node">
<title>&#45;22</title>
<polygon fill="lightgray" stroke="black" points="923,-103.4 897,-103.4 897,-87.4 923,-87.4 923,-103.4"/>
<text text-anchor="middle" x="910" y="-93.8" font-family="Times New Roman,serif" font-size="7.00">&#45;22</text>
</g>
<!-- &#45;23 -->
<g id="node23" class="node">
<title>&#45;23</title>
<polygon fill="lightgray" stroke="black" points="967,-103.4 941,-103.4 941,-87.4 967,-87.4 967,-103.4"/>
<text text-anchor="middle" x="954" y="-93.8" font-family="Times New Roman,serif" font-size="7.00">&#45;23</text>
</g>
<!-- &#45;24 -->
<g id="node24" class="node">
<title>&#45;24</title>
<polygon fill="lightgray" stroke="black" points="1011,-103.4 985,-103.4 985,-87.4 1011,-87.4 1011,-103.4"/>
<text text-anchor="middle" x="998" y="-93.8" font-family="Times New Roman,serif" font-size="7.00">&#45;24</text>
</g>
<!-- &#45;25 -->
<g id="node25" class="node">
<title>&#45;25</title>
<polygon fill="lightgray" stroke="black" points="1055,-103.4 1029,-103.4 1029,-87.4 1055,-87.4 1055,-103.4"/>
<text text-anchor="middle" x="1042" y="-93.8" font-family="Times New Roman,serif" font-size="7.00">&#45;25</text>
</g>
<!-- &#45;26 -->
<g id="node26" class="node">
<title>&#45;26</title>
<polygon fill="lightgray" stroke="black" points="1099,-103.4 1073,-103.4 1073,-87.4 1099,-87.4 1099,-103.4"/>
<text text-anchor="middle" x="1086" y="-93.8" font-family="Times New Roman,serif" font-size="7.00">&#45;26</text>
</g>
<!-- &#45;27 -->
<g id="node27" class="node">
<title>&#45;27</title>
<polygon fill="lightgray" stroke="black" points="1143,-103.4 1117,-103.4 1117,-87.4 1143,-87.4 1143,-103.4"/>
<text text-anchor="middle" x="1130" y="-93.8" font-family="Times New Roman,serif" font-size="7.00">&#45;27</text>
</g>
<!-- &#45;28 -->
<g id="node28" class="node">
<title>&#45;28</title>
<polygon fill="lightgray" stroke="black" points="1187,-103.4 1161,-103.4 1161,-87.4 1187,-87.4 1187,-103.4"/>
<text text-anchor="middle" x="1174" y="-93.8" font-family="Times New Roman,serif" font-size="7.00">&#45;28</text>
</g>
<!-- &#45;29 -->
<g id="node29" class="node">
<title>&#45;29</title>
<polygon fill="lightgray" stroke="black" points="1231,-103.4 1205,-103.4 1205,-87.4 1231,-87.4 1231,-103.4"/>
<text text-anchor="middle" x="1218" y="-93.8" font-family="Times New Roman,serif" font-size="7.00">&#45;29</text>
</g>
<!-- &#45;30 -->
<g id="node30" class="node">
<title>&#45;30</title>
<polygon fill="lightgray" stroke="black" points="1275,-103.4 1249,-103.4 1249,-87.4 1275,-87.4 1275,-103.4"/>
<text text-anchor="middle" x="1262" y="-93.8" font-family="Times New Roman,serif" font-size="7.00">&#45;30</text>
</g>
<!-- &#45;31 -->
<g id="node31" class="node">
<title>&#45;31</title>
<polygon fill="lightgray" stroke="black" points="1319,-103.4 1293,-103.4 1293,-87.4 1319,-87.4 1319,-103.4"/>
<text text-anchor="middle" x="1306" y="-93.8" font-family="Times New Roman,serif" font-size="7.00">&#45;31</text>
</g>
<!-- &#45;32 -->
<g id="node32" class="node">
<title>&#45;32</title>
<polygon fill="lightgray" stroke="black" points="1363,-103.4 1337,-103.4 1337,-87.4 1363,-87.4 1363,-103.4"/>
<text text-anchor="middle" x="1350" y="-93.8" font-family="Times New Roman,serif" font-size="7.00">&#45;32</text>
</g>
<!-- &#45;33 -->
<g id="node33" class="node">
<title>&#45;33</title>
<polygon fill="lightgray" stroke="black" points="1407,-103.4 1381,-103.4 1381,-87.4 1407,-87.4 1407,-103.4"/>
<text text-anchor="middle" x="1394" y="-93.8" font-family="Times New Roman,serif" font-size="7.00">&#45;33</text>
</g>
<!-- &#45;34 -->
<g id="node34" class="node">
<title>&#45;34</title>
<polygon fill="lightgray" stroke="black" points="1451,-103.4 1425,-103.4 1425,-87.4 1451,-87.4 1451,-103.4"/>
<text text-anchor="middle" x="1438" y="-93.8" font-family="Times New Roman,serif" font-size="7.00">&#45;34</text>
</g>
<!-- &#45;35 -->
<g id="node35" class="node">
<title>&#45;35</title>
<polygon fill="lightgray" stroke="black" points="1495,-103.4 1469,-103.4 1469,-87.4 1495,-87.4 1495,-103.4"/>
<text text-anchor="middle" x="1482" y="-93.8" font-family="Times New Roman,serif" font-size="7.00">&#45;35</text>
</g>
<!-- &#45;36 -->
<g id="node36" class="node">
<title>&#45;36</title>
<polygon fill="lightgray" stroke="black" points="1539,-103.4 1513,-103.4 1513,-87.4 1539,-87.4 1539,-103.4"/>
<text text-anchor="middle" x="1526" y="-93.8" font-family="Times New Roman,serif" font-size="7.00">&#45;36</text>
</g>
<!-- &#45;37 -->
<g id="node37" class="node">
<title>&#45;37</title>
<polygon fill="lightgray" stroke="black" points="1583,-103.4 1557,-103.4 1557,-87.4 1583,-87.4 1583,-103.4"/>
<text text-anchor="middle" x="1570" y="-93.8" font-family="Times New Roman,serif" font-size="7.00">&#45;37</text>
</g>
<!-- &#45;38 -->
<g id="node38" class="node">
<title>&#45;38</title>
<polygon fill="lightgray" stroke="black" points="1627,-103.4 1601,-103.4 1601,-87.4 1627,-87.4 1627,-103.4"/>
<text text-anchor="middle" x="1614" y="-93.8" font-family="Times New Roman,serif" font-size="7.00">&#45;38</text>
</g>
<!-- A XOR B -->
<g id="node39" class="node">
<title>A XOR B</title>
<ellipse fill="lightblue" stroke="black" cx="1676" cy="-95.4" rx="31.23" ry="31.23"/>
<text text-anchor="middle" x="1676" y="-93.8" font-family="Times New Roman,serif" font-size="7.00">A XOR B</text>
</g>
</g>
</svg>
