<?xml version="1.0" encoding="UTF-8" standalone="no"?>
<!DOCTYPE svg PUBLIC "-//W3C//DTD SVG 1.1//EN"
 "http://www.w3.org/Graphics/SVG/1.1/DTD/svg11.dtd">
<!-- Generated by graphviz version 2.46.0 (20210118.1747)
 -->
<!-- Pages: 1 -->
<svg width="1626pt" height="286pt"
 viewBox="0.00 0.00 1626.11 285.71" xmlns="http://www.w3.org/2000/svg" xmlns:xlink="http://www.w3.org/1999/xlink">
<g id="graph0" class="graph" transform="scale(1 1) rotate(0) translate(4 281.71)">
<polygon fill="white" stroke="transparent" points="-4,4 -4,-281.71 1622.11,-281.71 1622.11,4 -4,4"/>
<!-- A -->
<g id="node1" class="node">
<title>A</title>
<polygon fill="lightgray" stroke="black" points="22,-254.59 0,-254.59 0,-238.59 22,-238.59 22,-254.59"/>
<text text-anchor="middle" x="11" y="-244.99" font-family="Times New Roman,serif" font-size="7.00">A</text>
</g>
<!-- B -->
<g id="node2" class="node">
<title>B</title>
<polygon fill="lightgray" stroke="black" points="61.5,-254.59 40.5,-254.59 40.5,-238.59 61.5,-238.59 61.5,-254.59"/>
<text text-anchor="middle" x="51" y="-244.99" font-family="Times New Roman,serif" font-size="7.00">B</text>
</g>
<!-- &#45;3 -->
<g id="node3" class="node">
<title>&#45;3</title>
<polygon fill="lightgray" stroke="black" points="102.5,-254.59 79.5,-254.59 79.5,-238.59 102.5,-238.59 102.5,-254.59"/>
<text text-anchor="middle" x="91" y="-244.99" font-family="Times New Roman,serif" font-size="7.00">&#45;3</text>
</g>
<!-- 1 -->
<g id="node40" class="node">
<title>1</title>
<ellipse fill="lightblue" stroke="black" cx="112" cy="-165.34" rx="14.29" ry="14.29"/>
<text text-anchor="middle" x="112" y="-163.74" font-family="Times New Roman,serif" font-size="7.00">1</text>
</g>
<!-- &#45;3&#45;&gt;1 -->
<g id="edge1" class="edge">
<title>&#45;3&#45;&gt;1</title>
<path fill="none" stroke="green" stroke-width="1.76" d="M92.86,-238.56C95.76,-227.62 101.48,-206.05 105.91,-189.32"/>
<polygon fill="green" stroke="green" stroke-width="1.76" points="109.42,-189.74 108.6,-179.18 102.65,-187.95 109.42,-189.74"/>
</g>
<!-- &#45;4 -->
<g id="node4" class="node">
<title>&#45;4</title>
<polygon fill="lightgray" stroke="black" points="184.5,-254.59 161.5,-254.59 161.5,-238.59 184.5,-238.59 184.5,-254.59"/>
<text text-anchor="middle" x="173" y="-244.99" font-family="Times New Roman,serif" font-size="7.00">&#45;4</text>
</g>
<!-- &#45;5 -->
<g id="node5" class="node">
<title>&#45;5</title>
<polygon fill="lightgray" stroke="black" points="143.5,-254.59 120.5,-254.59 120.5,-238.59 143.5,-238.59 143.5,-254.59"/>
<text text-anchor="middle" x="132" y="-244.99" font-family="Times New Roman,serif" font-size="7.00">&#45;5</text>
</g>
<!-- &#45;5&#45;&gt;1 -->
<g id="edge4" class="edge">
<title>&#45;5&#45;&gt;1</title>
<path fill="none" stroke="green" stroke-width="0.18" d="M130.23,-238.56C127.46,-227.62 122.02,-206.05 117.8,-189.32"/>
<polygon fill="green" stroke="green" stroke-width="0.18" points="121.08,-188.02 115.24,-179.18 114.29,-189.73 121.08,-188.02"/>
</g>
<!-- &#45;6 -->
<g id="node6" class="node">
<title>&#45;6</title>
<polygon fill="lightgray" stroke="black" points="225.5,-254.59 202.5,-254.59 202.5,-238.59 225.5,-238.59 225.5,-254.59"/>
<text text-anchor="middle" x="214" y="-244.99" font-family="Times New Roman,serif" font-size="7.00">&#45;6</text>
</g>
<!-- &#45;7 -->
<g id="node7" class="node">
<title>&#45;7</title>
<polygon fill="lightgray" stroke="black" points="266.5,-254.59 243.5,-254.59 243.5,-238.59 266.5,-238.59 266.5,-254.59"/>
<text text-anchor="middle" x="255" y="-244.99" font-family="Times New Roman,serif" font-size="7.00">&#45;7</text>
</g>
<!-- 2 -->
<g id="node41" class="node">
<title>2</title>
<ellipse fill="lightblue" stroke="black" cx="276" cy="-165.34" rx="14.29" ry="14.29"/>
<text text-anchor="middle" x="276" y="-163.74" font-family="Times New Roman,serif" font-size="7.00">2</text>
</g>
<!-- &#45;7&#45;&gt;2 -->
<g id="edge6" class="edge">
<title>&#45;7&#45;&gt;2</title>
<path fill="none" stroke="green" stroke-width="0.2" d="M256.86,-238.56C259.76,-227.62 265.48,-206.05 269.91,-189.32"/>
<polygon fill="green" stroke="green" stroke-width="0.2" points="273.42,-189.74 272.6,-179.18 266.65,-187.95 273.42,-189.74"/>
</g>
<!-- &#45;8 -->
<g id="node8" class="node">
<title>&#45;8</title>
<polygon fill="lightgray" stroke="black" points="352.5,-254.59 329.5,-254.59 329.5,-238.59 352.5,-238.59 352.5,-254.59"/>
<text text-anchor="middle" x="341" y="-244.99" font-family="Times New Roman,serif" font-size="7.00">&#45;8</text>
</g>
<!-- &#45;9 -->
<g id="node9" class="node">
<title>&#45;9</title>
<polygon fill="lightgray" stroke="black" points="393.5,-254.59 370.5,-254.59 370.5,-238.59 393.5,-238.59 393.5,-254.59"/>
<text text-anchor="middle" x="382" y="-244.99" font-family="Times New Roman,serif" font-size="7.00">&#45;9</text>
</g>
<!-- &#45;10 -->
<g id="node10" class="node">
<title>&#45;10</title>
<polygon fill="lightgray" stroke="black" points="311,-254.59 285,-254.59 285,-238.59 311,-238.59 311,-254.59"/>
<text text-anchor="middle" x="298" y="-244.99" font-family="Times New Roman,serif" font-size="7.00">&#45;10</text>
</g>
<!-- &#45;10&#45;&gt;2 -->
<g id="edge2" class="edge">
<title>&#45;10&#45;&gt;2</title>
<path fill="none" stroke="red" stroke-width="0.63" d="M296.05,-238.56C292.98,-227.52 286.91,-205.64 282.25,-188.84"/>
<polygon fill="red" stroke="red" stroke-width="0.63" points="285.61,-187.88 279.57,-179.18 278.87,-189.75 285.61,-187.88"/>
</g>
<!-- &#45;11 -->
<g id="node11" class="node">
<title>&#45;11</title>
<polygon fill="lightgray" stroke="black" points="438,-254.59 412,-254.59 412,-238.59 438,-238.59 438,-254.59"/>
<text text-anchor="middle" x="425" y="-244.99" font-family="Times New Roman,serif" font-size="7.00">&#45;11</text>
</g>
<!-- &#45;12 -->
<g id="node12" class="node">
<title>&#45;12</title>
<polygon fill="lightgray" stroke="black" points="482,-254.59 456,-254.59 456,-238.59 482,-238.59 482,-254.59"/>
<text text-anchor="middle" x="469" y="-244.99" font-family="Times New Roman,serif" font-size="7.00">&#45;12</text>
</g>
<!-- &#45;13 -->
<g id="node13" class="node">
<title>&#45;13</title>
<polygon fill="lightgray" stroke="black" points="526,-254.59 500,-254.59 500,-238.59 526,-238.59 526,-254.59"/>
<text text-anchor="middle" x="513" y="-244.99" font-family="Times New Roman,serif" font-size="7.00">&#45;13</text>
</g>
<!-- &#45;14 -->
<g id="node14" class="node">
<title>&#45;14</title>
<polygon fill="lightgray" stroke="black" points="570,-254.59 544,-254.59 544,-238.59 570,-238.59 570,-254.59"/>
<text text-anchor="middle" x="557" y="-244.99" font-family="Times New Roman,serif" font-size="7.00">&#45;14</text>
</g>
<!-- &#45;15 -->
<g id="node15" class="node">
<title>&#45;15</title>
<polygon fill="lightgray" stroke="black" points="614,-254.59 588,-254.59 588,-238.59 614,-238.59 614,-254.59"/>
<text text-anchor="middle" x="601" y="-244.99" font-family="Times New Roman,serif" font-size="7.00">&#45;15</text>
</g>
<!-- &#45;16 -->
<g id="node16" class="node">
<title>&#45;16</title>
<polygon fill="lightgray" stroke="black" points="658,-254.59 632,-254.59 632,-238.59 658,-238.59 658,-254.59"/>
<text text-anchor="middle" x="645" y="-244.99" font-family="Times New Roman,serif" font-size="7.00">&#45;16</text>
</g>
<!-- &#45;17 -->
<g id="node17" class="node">
<title>&#45;17</title>
<polygon fill="lightgray" stroke="black" points="702,-254.59 676,-254.59 676,-238.59 702,-238.59 702,-254.59"/>
<text text-anchor="middle" x="689" y="-244.99" font-family="Times New Roman,serif" font-size="7.00">&#45;17</text>
</g>
<!-- &#45;18 -->
<g id="node18" class="node">
<title>&#45;18</title>
<polygon fill="lightgray" stroke="black" points="354,-103.4 328,-103.4 328,-87.4 354,-87.4 354,-103.4"/>
<text text-anchor="middle" x="341" y="-93.8" font-family="Times New Roman,serif" font-size="7.00">&#45;18</text>
</g>
<!-- 178 -->
<g id="node43" class="node">
<title>178</title>
<ellipse fill="white" stroke="black" cx="320" cy="-19.8" rx="19.6" ry="19.6"/>
<text text-anchor="middle" x="320" y="-18.2" font-family="Times New Roman,serif" font-size="7.00">178</text>
</g>
<!-- &#45;18&#45;&gt;178 -->
<g id="edge9" class="edge">
<title>&#45;18&#45;&gt;178</title>
<path fill="none" stroke="red" stroke-width="0.25" d="M338.99,-87.34C336.46,-78.48 331.97,-62.75 327.99,-48.81"/>
<polygon fill="red" stroke="red" stroke-width="0.25" points="331.33,-47.76 325.22,-39.1 324.6,-49.68 331.33,-47.76"/>
</g>
<!-- &#45;19 -->
<g id="node19" class="node">
<title>&#45;19</title>
<polygon fill="lightgray" stroke="black" points="746,-254.59 720,-254.59 720,-238.59 746,-238.59 746,-254.59"/>
<text text-anchor="middle" x="733" y="-244.99" font-family="Times New Roman,serif" font-size="7.00">&#45;19</text>
</g>
<!-- &#45;20 -->
<g id="node20" class="node">
<title>&#45;20</title>
<polygon fill="lightgray" stroke="black" points="790,-254.59 764,-254.59 764,-238.59 790,-238.59 790,-254.59"/>
<text text-anchor="middle" x="777" y="-244.99" font-family="Times New Roman,serif" font-size="7.00">&#45;20</text>
</g>
<!-- &#45;21 -->
<g id="node21" class="node">
<title>&#45;21</title>
<polygon fill="lightgray" stroke="black" points="834,-254.59 808,-254.59 808,-238.59 834,-238.59 834,-254.59"/>
<text text-anchor="middle" x="821" y="-244.99" font-family="Times New Roman,serif" font-size="7.00">&#45;21</text>
</g>
<!-- &#45;22 -->
<g id="node22" class="node">
<title>&#45;22</title>
<polygon fill="lightgray" stroke="black" points="878,-254.59 852,-254.59 852,-238.59 878,-238.59 878,-254.59"/>
<text text-anchor="middle" x="865" y="-244.99" font-family="Times New Roman,serif" font-size="7.00">&#45;22</text>
</g>
<!-- &#45;23 -->
<g id="node23" class="node">
<title>&#45;23</title>
<polygon fill="lightgray" stroke="black" points="922,-254.59 896,-254.59 896,-238.59 922,-238.59 922,-254.59"/>
<text text-anchor="middle" x="909" y="-244.99" font-family="Times New Roman,serif" font-size="7.00">&#45;23</text>
</g>
<!-- &#45;24 -->
<g id="node24" class="node">
<title>&#45;24</title>
<polygon fill="lightgray" stroke="black" points="966,-254.59 940,-254.59 940,-238.59 966,-238.59 966,-254.59"/>
<text text-anchor="middle" x="953" y="-244.99" font-family="Times New Roman,serif" font-size="7.00">&#45;24</text>
</g>
<!-- &#45;25 -->
<g id="node25" class="node">
<title>&#45;25</title>
<polygon fill="lightgray" stroke="black" points="1010,-254.59 984,-254.59 984,-238.59 1010,-238.59 1010,-254.59"/>
<text text-anchor="middle" x="997" y="-244.99" font-family="Times New Roman,serif" font-size="7.00">&#45;25</text>
</g>
<!-- &#45;26 -->
<g id="node26" class="node">
<title>&#45;26</title>
<polygon fill="lightgray" stroke="black" points="1054,-254.59 1028,-254.59 1028,-238.59 1054,-238.59 1054,-254.59"/>
<text text-anchor="middle" x="1041" y="-244.99" font-family="Times New Roman,serif" font-size="7.00">&#45;26</text>
</g>
<!-- &#45;27 -->
<g id="node27" class="node">
<title>&#45;27</title>
<polygon fill="lightgray" stroke="black" points="1098,-254.59 1072,-254.59 1072,-238.59 1098,-238.59 1098,-254.59"/>
<text text-anchor="middle" x="1085" y="-244.99" font-family="Times New Roman,serif" font-size="7.00">&#45;27</text>
</g>
<!-- &#45;28 -->
<g id="node28" class="node">
<title>&#45;28</title>
<polygon fill="lightgray" stroke="black" points="1142,-254.59 1116,-254.59 1116,-238.59 1142,-238.59 1142,-254.59"/>
<text text-anchor="middle" x="1129" y="-244.99" font-family="Times New Roman,serif" font-size="7.00">&#45;28</text>
</g>
<!-- &#45;29 -->
<g id="node29" class="node">
<title>&#45;29</title>
<polygon fill="lightgray" stroke="black" points="1186,-254.59 1160,-254.59 1160,-238.59 1186,-238.59 1186,-254.59"/>
<text text-anchor="middle" x="1173" y="-244.99" font-family="Times New Roman,serif" font-size="7.00">&#45;29</text>
</g>
<!-- &#45;30 -->
<g id="node30" class="node">
<title>&#45;30</title>
<polygon fill="lightgray" stroke="black" points="1230,-254.59 1204,-254.59 1204,-238.59 1230,-238.59 1230,-254.59"/>
<text text-anchor="middle" x="1217" y="-244.99" font-family="Times New Roman,serif" font-size="7.00">&#45;30</text>
</g>
<!-- &#45;31 -->
<g id="node31" class="node">
<title>&#45;31</title>
<polygon fill="lightgray" stroke="black" points="1274,-254.59 1248,-254.59 1248,-238.59 1274,-238.59 1274,-254.59"/>
<text text-anchor="middle" x="1261" y="-244.99" font-family="Times New Roman,serif" font-size="7.00">&#45;31</text>
</g>
<!-- &#45;32 -->
<g id="node32" class="node">
<title>&#45;32</title>
<polygon fill="lightgray" stroke="black" points="398,-103.4 372,-103.4 372,-87.4 398,-87.4 398,-103.4"/>
<text text-anchor="middle" x="385" y="-93.8" font-family="Times New Roman,serif" font-size="7.00">&#45;32</text>
</g>
<!-- &#45;32&#45;&gt;178 -->
<g id="edge3" class="edge">
<title>&#45;32&#45;&gt;178</title>
<path fill="none" stroke="red" stroke-width="0.23" d="M378.77,-87.34C369.78,-77.17 352.8,-57.94 339.4,-42.76"/>
<polygon fill="red" stroke="red" stroke-width="0.23" points="342.01,-40.44 332.77,-35.26 336.77,-45.07 342.01,-40.44"/>
</g>
<!-- &#45;33 -->
<g id="node33" class="node">
<title>&#45;33</title>
<polygon fill="lightgray" stroke="black" points="1318,-254.59 1292,-254.59 1292,-238.59 1318,-238.59 1318,-254.59"/>
<text text-anchor="middle" x="1305" y="-244.99" font-family="Times New Roman,serif" font-size="7.00">&#45;33</text>
</g>
<!-- &#45;34 -->
<g id="node34" class="node">
<title>&#45;34</title>
<polygon fill="lightgray" stroke="black" points="1362,-254.59 1336,-254.59 1336,-238.59 1362,-238.59 1362,-254.59"/>
<text text-anchor="middle" x="1349" y="-244.99" font-family="Times New Roman,serif" font-size="7.00">&#45;34</text>
</g>
<!-- &#45;35 -->
<g id="node35" class="node">
<title>&#45;35</title>
<polygon fill="lightgray" stroke="black" points="1406,-254.59 1380,-254.59 1380,-238.59 1406,-238.59 1406,-254.59"/>
<text text-anchor="middle" x="1393" y="-244.99" font-family="Times New Roman,serif" font-size="7.00">&#45;35</text>
</g>
<!-- &#45;36 -->
<g id="node36" class="node">
<title>&#45;36</title>
<polygon fill="lightgray" stroke="black" points="1450,-254.59 1424,-254.59 1424,-238.59 1450,-238.59 1450,-254.59"/>
<text text-anchor="middle" x="1437" y="-244.99" font-family="Times New Roman,serif" font-size="7.00">&#45;36</text>
</g>
<!-- &#45;37 -->
<g id="node37" class="node">
<title>&#45;37</title>
<polygon fill="lightgray" stroke="black" points="1494,-254.59 1468,-254.59 1468,-238.59 1494,-238.59 1494,-254.59"/>
<text text-anchor="middle" x="1481" y="-244.99" font-family="Times New Roman,serif" font-size="7.00">&#45;37</text>
</g>
<!-- &#45;38 -->
<g id="node38" class="node">
<title>&#45;38</title>
<polygon fill="lightgray" stroke="black" points="1538,-254.59 1512,-254.59 1512,-238.59 1538,-238.59 1538,-254.59"/>
<text text-anchor="middle" x="1525" y="-244.99" font-family="Times New Roman,serif" font-size="7.00">&#45;38</text>
</g>
<!-- A XOR B -->
<g id="node39" class="node">
<title>A XOR B</title>
<ellipse fill="lightblue" stroke="black" cx="1587" cy="-246.59" rx="31.23" ry="31.23"/>
<text text-anchor="middle" x="1587" y="-244.99" font-family="Times New Roman,serif" font-size="7.00">A XOR B</text>
</g>
<!-- 970 -->
<g id="node42" class="node">
<title>970</title>
<ellipse fill="white" stroke="black" cx="252" cy="-95.4" rx="19.6" ry="19.6"/>
<text text-anchor="middle" x="252" y="-93.8" font-family="Times New Roman,serif" font-size="7.00">970</text>
</g>
<!-- 2&#45;&gt;970 -->
<g id="edge7" class="edge">
<title>2&#45;&gt;970</title>
<path fill="none" stroke="green" stroke-width="0.16" d="M271.6,-151.88C268.85,-144.09 265.19,-133.73 261.78,-124.08"/>
<polygon fill="green" stroke="green" stroke-width="0.16" points="264.99,-122.67 258.36,-114.41 258.39,-125.01 264.99,-122.67"/>
</g>
<!-- 2&#45;&gt;178 -->
<g id="edge5" class="edge">
<title>2&#45;&gt;178</title>
<path fill="none" stroke="green" stroke-width="0.55" stroke-dasharray="1,5" d="M279.9,-151.6C286.93,-128.67 301.87,-79.94 311.4,-48.86"/>
<polygon fill="green" stroke="green" stroke-width="0.55" points="314.82,-49.65 314.4,-39.06 308.12,-47.6 314.82,-49.65"/>
</g>
<!-- 970&#45;&gt;178 -->
<g id="edge8" class="edge">
<title>970&#45;&gt;178</title>
<path fill="none" stroke="green" stroke-width="0.47" d="M265.11,-80.21C274.99,-69.52 288.71,-54.67 299.96,-42.49"/>
<polygon fill="green" stroke="green" stroke-width="0.47" points="302.71,-44.67 306.93,-34.95 297.57,-39.92 302.71,-44.67"/>
</g>
</g>
</svg>
