<?xml version="1.0" encoding="UTF-8" standalone="no"?>
<!DOCTYPE svg PUBLIC "-//W3C//DTD SVG 1.1//EN"
 "http://www.w3.org/Graphics/SVG/1.1/DTD/svg11.dtd">
<!-- Generated by graphviz version 2.46.0 (20210118.1747)
 -->
<!-- Pages: 1 -->
<svg width="1679pt" height="135pt"
 viewBox="0.00 0.00 1679.14 134.51" xmlns="http://www.w3.org/2000/svg" xmlns:xlink="http://www.w3.org/1999/xlink">
<g id="graph0" class="graph" transform="scale(1 1) rotate(0) translate(4 130.51)">
<polygon fill="white" stroke="transparent" points="-4,4 -4,-130.51 1675.14,-130.51 1675.14,4 -4,4"/>
<!-- A -->
<g id="node1" class="node">
<title>A</title>
<polygon fill="lightgray" stroke="black" points="22,-120.37 0,-120.37 0,-104.37 22,-104.37 22,-120.37"/>
<text text-anchor="middle" x="11" y="-110.77" font-family="Times New Roman,serif" font-size="7.00">A</text>
</g>
<!-- 400 -->
<g id="node42" class="node">
<title>400</title>
<ellipse fill="white" stroke="black" cx="97" cy="-31.11" rx="19.6" ry="19.6"/>
<text text-anchor="middle" x="97" y="-29.51" font-family="Times New Roman,serif" font-size="7.00">400</text>
</g>
<!-- A&#45;&gt;400 -->
<g id="edge3" class="edge">
<title>A&#45;&gt;400</title>
<path fill="none" stroke="red" stroke-width="0.63" d="M18.63,-104.33C31.22,-92.73 56.79,-69.17 75.3,-52.11"/>
<polygon fill="red" stroke="red" stroke-width="0.63" points="77.77,-54.6 82.75,-45.25 73.02,-49.45 77.77,-54.6"/>
</g>
<!-- B -->
<g id="node2" class="node">
<title>B</title>
<polygon fill="lightgray" stroke="black" points="237.5,-120.37 216.5,-120.37 216.5,-104.37 237.5,-104.37 237.5,-120.37"/>
<text text-anchor="middle" x="227" y="-110.77" font-family="Times New Roman,serif" font-size="7.00">B</text>
</g>
<!-- &#45;3 -->
<g id="node3" class="node">
<title>&#45;3</title>
<polygon fill="lightgray" stroke="black" points="278.5,-120.37 255.5,-120.37 255.5,-104.37 278.5,-104.37 278.5,-120.37"/>
<text text-anchor="middle" x="267" y="-110.77" font-family="Times New Roman,serif" font-size="7.00">&#45;3</text>
</g>
<!-- A XOR B -->
<g id="node39" class="node">
<title>A XOR B</title>
<ellipse fill="lightblue" stroke="black" cx="267" cy="-31.11" rx="31.23" ry="31.23"/>
<text text-anchor="middle" x="267" y="-29.51" font-family="Times New Roman,serif" font-size="7.00">A XOR B</text>
</g>
<!-- &#45;3&#45;&gt;A XOR B -->
<g id="edge2" class="edge">
<title>&#45;3&#45;&gt;A XOR B</title>
<path fill="none" stroke="red" stroke-width="0.53" d="M267,-104.33C267,-96.99 267,-84.87 267,-72.63"/>
<polygon fill="red" stroke="red" stroke-width="0.53" points="270.5,-72.42 267,-62.42 263.5,-72.42 270.5,-72.42"/>
</g>
<!-- &#45;4 -->
<g id="node4" class="node">
<title>&#45;4</title>
<polygon fill="lightgray" stroke="black" points="319.5,-120.37 296.5,-120.37 296.5,-104.37 319.5,-104.37 319.5,-120.37"/>
<text text-anchor="middle" x="308" y="-110.77" font-family="Times New Roman,serif" font-size="7.00">&#45;4</text>
</g>
<!-- &#45;5 -->
<g id="node5" class="node">
<title>&#45;5</title>
<polygon fill="lightgray" stroke="black" points="360.5,-120.37 337.5,-120.37 337.5,-104.37 360.5,-104.37 360.5,-120.37"/>
<text text-anchor="middle" x="349" y="-110.77" font-family="Times New Roman,serif" font-size="7.00">&#45;5</text>
</g>
<!-- &#45;6 -->
<g id="node6" class="node">
<title>&#45;6</title>
<polygon fill="lightgray" stroke="black" points="401.5,-120.37 378.5,-120.37 378.5,-104.37 401.5,-104.37 401.5,-120.37"/>
<text text-anchor="middle" x="390" y="-110.77" font-family="Times New Roman,serif" font-size="7.00">&#45;6</text>
</g>
<!-- &#45;7 -->
<g id="node7" class="node">
<title>&#45;7</title>
<polygon fill="lightgray" stroke="black" points="442.5,-120.37 419.5,-120.37 419.5,-104.37 442.5,-104.37 442.5,-120.37"/>
<text text-anchor="middle" x="431" y="-110.77" font-family="Times New Roman,serif" font-size="7.00">&#45;7</text>
</g>
<!-- &#45;8 -->
<g id="node8" class="node">
<title>&#45;8</title>
<polygon fill="lightgray" stroke="black" points="483.5,-120.37 460.5,-120.37 460.5,-104.37 483.5,-104.37 483.5,-120.37"/>
<text text-anchor="middle" x="472" y="-110.77" font-family="Times New Roman,serif" font-size="7.00">&#45;8</text>
</g>
<!-- &#45;9 -->
<g id="node9" class="node">
<title>&#45;9</title>
<polygon fill="lightgray" stroke="black" points="524.5,-120.37 501.5,-120.37 501.5,-104.37 524.5,-104.37 524.5,-120.37"/>
<text text-anchor="middle" x="513" y="-110.77" font-family="Times New Roman,serif" font-size="7.00">&#45;9</text>
</g>
<!-- 2 -->
<g id="node41" class="node">
<title>2</title>
<ellipse fill="lightblue" stroke="black" cx="534" cy="-31.11" rx="14.29" ry="14.29"/>
<text text-anchor="middle" x="534" y="-29.51" font-family="Times New Roman,serif" font-size="7.00">2</text>
</g>
<!-- &#45;9&#45;&gt;2 -->
<g id="edge6" class="edge">
<title>&#45;9&#45;&gt;2</title>
<path fill="none" stroke="green" stroke-width="0.14" d="M514.86,-104.33C517.76,-93.4 523.48,-71.82 527.91,-55.09"/>
<polygon fill="green" stroke="green" stroke-width="0.14" points="531.42,-55.52 530.6,-44.96 524.65,-53.73 531.42,-55.52"/>
</g>
<!-- &#45;10 -->
<g id="node10" class="node">
<title>&#45;10</title>
<polygon fill="lightgray" stroke="black" points="613,-120.37 587,-120.37 587,-104.37 613,-104.37 613,-120.37"/>
<text text-anchor="middle" x="600" y="-110.77" font-family="Times New Roman,serif" font-size="7.00">&#45;10</text>
</g>
<!-- &#45;11 -->
<g id="node11" class="node">
<title>&#45;11</title>
<polygon fill="lightgray" stroke="black" points="657,-120.37 631,-120.37 631,-104.37 657,-104.37 657,-120.37"/>
<text text-anchor="middle" x="644" y="-110.77" font-family="Times New Roman,serif" font-size="7.00">&#45;11</text>
</g>
<!-- &#45;12 -->
<g id="node12" class="node">
<title>&#45;12</title>
<polygon fill="lightgray" stroke="black" points="701,-120.37 675,-120.37 675,-104.37 701,-104.37 701,-120.37"/>
<text text-anchor="middle" x="688" y="-110.77" font-family="Times New Roman,serif" font-size="7.00">&#45;12</text>
</g>
<!-- &#45;13 -->
<g id="node13" class="node">
<title>&#45;13</title>
<polygon fill="lightgray" stroke="black" points="745,-120.37 719,-120.37 719,-104.37 745,-104.37 745,-120.37"/>
<text text-anchor="middle" x="732" y="-110.77" font-family="Times New Roman,serif" font-size="7.00">&#45;13</text>
</g>
<!-- &#45;14 -->
<g id="node14" class="node">
<title>&#45;14</title>
<polygon fill="lightgray" stroke="black" points="66,-120.37 40,-120.37 40,-104.37 66,-104.37 66,-120.37"/>
<text text-anchor="middle" x="53" y="-110.77" font-family="Times New Roman,serif" font-size="7.00">&#45;14</text>
</g>
<!-- &#45;14&#45;&gt;400 -->
<g id="edge5" class="edge">
<title>&#45;14&#45;&gt;400</title>
<path fill="none" stroke="green" stroke-width="0.55" d="M56.9,-104.33C62.64,-94.01 73.63,-74.22 82.65,-57.96"/>
<polygon fill="green" stroke="green" stroke-width="0.55" points="85.89,-59.33 87.68,-48.89 79.77,-55.94 85.89,-59.33"/>
</g>
<!-- &#45;15 -->
<g id="node15" class="node">
<title>&#45;15</title>
<polygon fill="lightgray" stroke="black" points="110,-120.37 84,-120.37 84,-104.37 110,-104.37 110,-120.37"/>
<text text-anchor="middle" x="97" y="-110.77" font-family="Times New Roman,serif" font-size="7.00">&#45;15</text>
</g>
<!-- &#45;15&#45;&gt;400 -->
<g id="edge4" class="edge">
<title>&#45;15&#45;&gt;400</title>
<path fill="none" stroke="red" stroke-width="0.37" d="M97,-104.33C97,-94.73 97,-76.93 97,-61.41"/>
<polygon fill="red" stroke="red" stroke-width="0.37" points="100.5,-61.15 97,-51.15 93.5,-61.15 100.5,-61.15"/>
</g>
<!-- &#45;16 -->
<g id="node16" class="node">
<title>&#45;16</title>
<polygon fill="lightgray" stroke="black" points="569,-120.37 543,-120.37 543,-104.37 569,-104.37 569,-120.37"/>
<text text-anchor="middle" x="556" y="-110.77" font-family="Times New Roman,serif" font-size="7.00">&#45;16</text>
</g>
<!-- &#45;16&#45;&gt;2 -->
<g id="edge1" class="edge">
<title>&#45;16&#45;&gt;2</title>
<path fill="none" stroke="red" stroke-width="1.39" d="M554.05,-104.33C550.98,-93.29 544.91,-71.41 540.25,-54.62"/>
<polygon fill="red" stroke="red" stroke-width="1.39" points="543.61,-53.66 537.57,-44.96 536.87,-55.53 543.61,-53.66"/>
</g>
<!-- &#45;17 -->
<g id="node17" class="node">
<title>&#45;17</title>
<polygon fill="lightgray" stroke="black" points="789,-120.37 763,-120.37 763,-104.37 789,-104.37 789,-120.37"/>
<text text-anchor="middle" x="776" y="-110.77" font-family="Times New Roman,serif" font-size="7.00">&#45;17</text>
</g>
<!-- &#45;18 -->
<g id="node18" class="node">
<title>&#45;18</title>
<polygon fill="lightgray" stroke="black" points="833,-120.37 807,-120.37 807,-104.37 833,-104.37 833,-120.37"/>
<text text-anchor="middle" x="820" y="-110.77" font-family="Times New Roman,serif" font-size="7.00">&#45;18</text>
</g>
<!-- &#45;19 -->
<g id="node19" class="node">
<title>&#45;19</title>
<polygon fill="lightgray" stroke="black" points="877,-120.37 851,-120.37 851,-104.37 877,-104.37 877,-120.37"/>
<text text-anchor="middle" x="864" y="-110.77" font-family="Times New Roman,serif" font-size="7.00">&#45;19</text>
</g>
<!-- &#45;20 -->
<g id="node20" class="node">
<title>&#45;20</title>
<polygon fill="lightgray" stroke="black" points="921,-120.37 895,-120.37 895,-104.37 921,-104.37 921,-120.37"/>
<text text-anchor="middle" x="908" y="-110.77" font-family="Times New Roman,serif" font-size="7.00">&#45;20</text>
</g>
<!-- &#45;21 -->
<g id="node21" class="node">
<title>&#45;21</title>
<polygon fill="lightgray" stroke="black" points="965,-120.37 939,-120.37 939,-104.37 965,-104.37 965,-120.37"/>
<text text-anchor="middle" x="952" y="-110.77" font-family="Times New Roman,serif" font-size="7.00">&#45;21</text>
</g>
<!-- &#45;22 -->
<g id="node22" class="node">
<title>&#45;22</title>
<polygon fill="lightgray" stroke="black" points="1009,-120.37 983,-120.37 983,-104.37 1009,-104.37 1009,-120.37"/>
<text text-anchor="middle" x="996" y="-110.77" font-family="Times New Roman,serif" font-size="7.00">&#45;22</text>
</g>
<!-- &#45;23 -->
<g id="node23" class="node">
<title>&#45;23</title>
<polygon fill="lightgray" stroke="black" points="1053,-120.37 1027,-120.37 1027,-104.37 1053,-104.37 1053,-120.37"/>
<text text-anchor="middle" x="1040" y="-110.77" font-family="Times New Roman,serif" font-size="7.00">&#45;23</text>
</g>
<!-- &#45;24 -->
<g id="node24" class="node">
<title>&#45;24</title>
<polygon fill="lightgray" stroke="black" points="154,-120.37 128,-120.37 128,-104.37 154,-104.37 154,-120.37"/>
<text text-anchor="middle" x="141" y="-110.77" font-family="Times New Roman,serif" font-size="7.00">&#45;24</text>
</g>
<!-- &#45;24&#45;&gt;400 -->
<g id="edge7" class="edge">
<title>&#45;24&#45;&gt;400</title>
<path fill="none" stroke="red" stroke-width="0.41" d="M137.1,-104.33C131.36,-94.01 120.37,-74.22 111.35,-57.96"/>
<polygon fill="red" stroke="red" stroke-width="0.41" points="114.23,-55.94 106.32,-48.89 108.11,-59.33 114.23,-55.94"/>
</g>
<!-- &#45;25 -->
<g id="node25" class="node">
<title>&#45;25</title>
<polygon fill="lightgray" stroke="black" points="1097,-120.37 1071,-120.37 1071,-104.37 1097,-104.37 1097,-120.37"/>
<text text-anchor="middle" x="1084" y="-110.77" font-family="Times New Roman,serif" font-size="7.00">&#45;25</text>
</g>
<!-- &#45;26 -->
<g id="node26" class="node">
<title>&#45;26</title>
<polygon fill="lightgray" stroke="black" points="1141,-120.37 1115,-120.37 1115,-104.37 1141,-104.37 1141,-120.37"/>
<text text-anchor="middle" x="1128" y="-110.77" font-family="Times New Roman,serif" font-size="7.00">&#45;26</text>
</g>
<!-- &#45;27 -->
<g id="node27" class="node">
<title>&#45;27</title>
<polygon fill="lightgray" stroke="black" points="1185,-120.37 1159,-120.37 1159,-104.37 1185,-104.37 1185,-120.37"/>
<text text-anchor="middle" x="1172" y="-110.77" font-family="Times New Roman,serif" font-size="7.00">&#45;27</text>
</g>
<!-- &#45;28 -->
<g id="node28" class="node">
<title>&#45;28</title>
<polygon fill="lightgray" stroke="black" points="198,-120.37 172,-120.37 172,-104.37 198,-104.37 198,-120.37"/>
<text text-anchor="middle" x="185" y="-110.77" font-family="Times New Roman,serif" font-size="7.00">&#45;28</text>
</g>
<!-- &#45;28&#45;&gt;400 -->
<g id="edge8" class="edge">
<title>&#45;28&#45;&gt;400</title>
<path fill="none" stroke="red" stroke-width="0.31" d="M177.19,-104.33C164.23,-92.67 137.85,-68.9 118.88,-51.82"/>
<polygon fill="red" stroke="red" stroke-width="0.31" points="121.03,-49.05 111.26,-44.96 116.35,-54.25 121.03,-49.05"/>
</g>
<!-- &#45;29 -->
<g id="node29" class="node">
<title>&#45;29</title>
<polygon fill="lightgray" stroke="black" points="1229,-120.37 1203,-120.37 1203,-104.37 1229,-104.37 1229,-120.37"/>
<text text-anchor="middle" x="1216" y="-110.77" font-family="Times New Roman,serif" font-size="7.00">&#45;29</text>
</g>
<!-- &#45;30 -->
<g id="node30" class="node">
<title>&#45;30</title>
<polygon fill="lightgray" stroke="black" points="1273,-120.37 1247,-120.37 1247,-104.37 1273,-104.37 1273,-120.37"/>
<text text-anchor="middle" x="1260" y="-110.77" font-family="Times New Roman,serif" font-size="7.00">&#45;30</text>
</g>
<!-- &#45;31 -->
<g id="node31" class="node">
<title>&#45;31</title>
<polygon fill="lightgray" stroke="black" points="1317,-120.37 1291,-120.37 1291,-104.37 1317,-104.37 1317,-120.37"/>
<text text-anchor="middle" x="1304" y="-110.77" font-family="Times New Roman,serif" font-size="7.00">&#45;31</text>
</g>
<!-- &#45;32 -->
<g id="node32" class="node">
<title>&#45;32</title>
<polygon fill="lightgray" stroke="black" points="1361,-120.37 1335,-120.37 1335,-104.37 1361,-104.37 1361,-120.37"/>
<text text-anchor="middle" x="1348" y="-110.77" font-family="Times New Roman,serif" font-size="7.00">&#45;32</text>
</g>
<!-- &#45;33 -->
<g id="node33" class="node">
<title>&#45;33</title>
<polygon fill="lightgray" stroke="black" points="1405,-120.37 1379,-120.37 1379,-104.37 1405,-104.37 1405,-120.37"/>
<text text-anchor="middle" x="1392" y="-110.77" font-family="Times New Roman,serif" font-size="7.00">&#45;33</text>
</g>
<!-- &#45;34 -->
<g id="node34" class="node">
<title>&#45;34</title>
<polygon fill="lightgray" stroke="black" points="1449,-120.37 1423,-120.37 1423,-104.37 1449,-104.37 1449,-120.37"/>
<text text-anchor="middle" x="1436" y="-110.77" font-family="Times New Roman,serif" font-size="7.00">&#45;34</text>
</g>
<!-- &#45;35 -->
<g id="node35" class="node">
<title>&#45;35</title>
<polygon fill="lightgray" stroke="black" points="1493,-120.37 1467,-120.37 1467,-104.37 1493,-104.37 1493,-120.37"/>
<text text-anchor="middle" x="1480" y="-110.77" font-family="Times New Roman,serif" font-size="7.00">&#45;35</text>
</g>
<!-- &#45;36 -->
<g id="node36" class="node">
<title>&#45;36</title>
<polygon fill="lightgray" stroke="black" points="1537,-120.37 1511,-120.37 1511,-104.37 1537,-104.37 1537,-120.37"/>
<text text-anchor="middle" x="1524" y="-110.77" font-family="Times New Roman,serif" font-size="7.00">&#45;36</text>
</g>
<!-- &#45;37 -->
<g id="node37" class="node">
<title>&#45;37</title>
<polygon fill="lightgray" stroke="black" points="1581,-120.37 1555,-120.37 1555,-104.37 1581,-104.37 1581,-120.37"/>
<text text-anchor="middle" x="1568" y="-110.77" font-family="Times New Roman,serif" font-size="7.00">&#45;37</text>
</g>
<!-- &#45;38 -->
<g id="node38" class="node">
<title>&#45;38</title>
<polygon fill="lightgray" stroke="black" points="1625,-120.37 1599,-120.37 1599,-104.37 1625,-104.37 1625,-120.37"/>
<text text-anchor="middle" x="1612" y="-110.77" font-family="Times New Roman,serif" font-size="7.00">&#45;38</text>
</g>
<!-- 1 -->
<g id="node40" class="node">
<title>1</title>
<ellipse fill="lightblue" stroke="black" cx="1657" cy="-112.37" rx="14.29" ry="14.29"/>
<text text-anchor="middle" x="1657" y="-110.77" font-family="Times New Roman,serif" font-size="7.00">1</text>
</g>
</g>
</svg>
