<?xml version="1.0" encoding="UTF-8" standalone="no"?>
<!DOCTYPE svg PUBLIC "-//W3C//DTD SVG 1.1//EN"
 "http://www.w3.org/Graphics/SVG/1.1/DTD/svg11.dtd">
<!-- Generated by graphviz version 2.46.0 (20210118.1747)
 -->
<!-- Pages: 1 -->
<svg width="1721pt" height="146pt"
 viewBox="0.00 0.00 1721.11 145.82" xmlns="http://www.w3.org/2000/svg" xmlns:xlink="http://www.w3.org/1999/xlink">
<g id="graph0" class="graph" transform="scale(1 1) rotate(0) translate(4 141.82)">
<polygon fill="white" stroke="transparent" points="-4,4 -4,-141.82 1717.11,-141.82 1717.11,4 -4,4"/>
<!-- A -->
<g id="node1" class="node">
<title>A</title>
<polygon fill="lightgray" stroke="black" points="22,-114.71 0,-114.71 0,-98.71 22,-98.71 22,-114.71"/>
<text text-anchor="middle" x="11" y="-105.11" font-family="Times New Roman,serif" font-size="7.00">A</text>
</g>
<!-- B -->
<g id="node2" class="node">
<title>B</title>
<polygon fill="lightgray" stroke="black" points="61.5,-114.71 40.5,-114.71 40.5,-98.71 61.5,-98.71 61.5,-114.71"/>
<text text-anchor="middle" x="51" y="-105.11" font-family="Times New Roman,serif" font-size="7.00">B</text>
</g>
<!-- &#45;3 -->
<g id="node3" class="node">
<title>&#45;3</title>
<polygon fill="lightgray" stroke="black" points="102.5,-114.71 79.5,-114.71 79.5,-98.71 102.5,-98.71 102.5,-114.71"/>
<text text-anchor="middle" x="91" y="-105.11" font-family="Times New Roman,serif" font-size="7.00">&#45;3</text>
</g>
<!-- 1 -->
<g id="node40" class="node">
<title>1</title>
<ellipse fill="lightblue" stroke="black" cx="91" cy="-19.8" rx="14.29" ry="14.29"/>
<text text-anchor="middle" x="91" y="-18.2" font-family="Times New Roman,serif" font-size="7.00">1</text>
</g>
<!-- &#45;3&#45;&gt;1 -->
<g id="edge1" class="edge">
<title>&#45;3&#45;&gt;1</title>
<path fill="none" stroke="green" stroke-width="2.86" d="M91,-98.47C91,-86.59 91,-62.46 91,-44.23"/>
<polygon fill="green" stroke="green" stroke-width="2.86" points="94.5,-44.06 91,-34.06 87.5,-44.06 94.5,-44.06"/>
</g>
<!-- &#45;4 -->
<g id="node4" class="node">
<title>&#45;4</title>
<polygon fill="lightgray" stroke="black" points="143.5,-114.71 120.5,-114.71 120.5,-98.71 143.5,-98.71 143.5,-114.71"/>
<text text-anchor="middle" x="132" y="-105.11" font-family="Times New Roman,serif" font-size="7.00">&#45;4</text>
</g>
<!-- &#45;5 -->
<g id="node5" class="node">
<title>&#45;5</title>
<polygon fill="lightgray" stroke="black" points="184.5,-114.71 161.5,-114.71 161.5,-98.71 184.5,-98.71 184.5,-114.71"/>
<text text-anchor="middle" x="173" y="-105.11" font-family="Times New Roman,serif" font-size="7.00">&#45;5</text>
</g>
<!-- &#45;6 -->
<g id="node6" class="node">
<title>&#45;6</title>
<polygon fill="lightgray" stroke="black" points="225.5,-114.71 202.5,-114.71 202.5,-98.71 225.5,-98.71 225.5,-114.71"/>
<text text-anchor="middle" x="214" y="-105.11" font-family="Times New Roman,serif" font-size="7.00">&#45;6</text>
</g>
<!-- 178 -->
<g id="node44" class="node">
<title>178</title>
<ellipse fill="white" stroke="black" cx="342" cy="-19.8" rx="19.6" ry="19.6"/>
<text text-anchor="middle" x="342" y="-18.2" font-family="Times New Roman,serif" font-size="7.00">178</text>
</g>
<!-- &#45;6&#45;&gt;178 -->
<g id="edge5" class="edge">
<title>&#45;6&#45;&gt;178</title>
<path fill="none" stroke="red" stroke-width="0.6" d="M217.42,-98.49C220.86,-91.86 226.69,-82.11 234,-75.6 257.54,-54.66 290.52,-39.46 313.82,-30.45"/>
<polygon fill="red" stroke="red" stroke-width="0.6" points="315.32,-33.63 323.47,-26.86 312.88,-27.07 315.32,-33.63"/>
</g>
<!-- &#45;7 -->
<g id="node7" class="node">
<title>&#45;7</title>
<polygon fill="lightgray" stroke="black" points="623.5,-114.71 600.5,-114.71 600.5,-98.71 623.5,-98.71 623.5,-114.71"/>
<text text-anchor="middle" x="612" y="-105.11" font-family="Times New Roman,serif" font-size="7.00">&#45;7</text>
</g>
<!-- &#45;8 -->
<g id="node8" class="node">
<title>&#45;8</title>
<polygon fill="lightgray" stroke="black" points="266.5,-114.71 243.5,-114.71 243.5,-98.71 266.5,-98.71 266.5,-114.71"/>
<text text-anchor="middle" x="255" y="-105.11" font-family="Times New Roman,serif" font-size="7.00">&#45;8</text>
</g>
<!-- &#45;8&#45;&gt;178 -->
<g id="edge6" class="edge">
<title>&#45;8&#45;&gt;178</title>
<path fill="none" stroke="red" stroke-width="0.53" d="M259.34,-98.37C263.27,-92.01 269.44,-82.73 276,-75.6 288.73,-61.75 304.97,-48.22 318.15,-38.07"/>
<polygon fill="red" stroke="red" stroke-width="0.53" points="320.43,-40.74 326.31,-31.92 316.22,-35.15 320.43,-40.74"/>
</g>
<!-- &#45;9 -->
<g id="node9" class="node">
<title>&#45;9</title>
<polygon fill="lightgray" stroke="black" points="664.5,-114.71 641.5,-114.71 641.5,-98.71 664.5,-98.71 664.5,-114.71"/>
<text text-anchor="middle" x="653" y="-105.11" font-family="Times New Roman,serif" font-size="7.00">&#45;9</text>
</g>
<!-- &#45;10 -->
<g id="node10" class="node">
<title>&#45;10</title>
<polygon fill="lightgray" stroke="black" points="709,-114.71 683,-114.71 683,-98.71 709,-98.71 709,-114.71"/>
<text text-anchor="middle" x="696" y="-105.11" font-family="Times New Roman,serif" font-size="7.00">&#45;10</text>
</g>
<!-- &#45;11 -->
<g id="node11" class="node">
<title>&#45;11</title>
<polygon fill="lightgray" stroke="black" points="753,-114.71 727,-114.71 727,-98.71 753,-98.71 753,-114.71"/>
<text text-anchor="middle" x="740" y="-105.11" font-family="Times New Roman,serif" font-size="7.00">&#45;11</text>
</g>
<!-- &#45;12 -->
<g id="node12" class="node">
<title>&#45;12</title>
<polygon fill="lightgray" stroke="black" points="797,-114.71 771,-114.71 771,-98.71 797,-98.71 797,-114.71"/>
<text text-anchor="middle" x="784" y="-105.11" font-family="Times New Roman,serif" font-size="7.00">&#45;12</text>
</g>
<!-- &#45;13 -->
<g id="node13" class="node">
<title>&#45;13</title>
<polygon fill="lightgray" stroke="black" points="841,-114.71 815,-114.71 815,-98.71 841,-98.71 841,-114.71"/>
<text text-anchor="middle" x="828" y="-105.11" font-family="Times New Roman,serif" font-size="7.00">&#45;13</text>
</g>
<!-- 2 -->
<g id="node41" class="node">
<title>2</title>
<ellipse fill="lightblue" stroke="black" cx="828" cy="-19.8" rx="14.29" ry="14.29"/>
<text text-anchor="middle" x="828" y="-18.2" font-family="Times New Roman,serif" font-size="7.00">2</text>
</g>
<!-- &#45;13&#45;&gt;2 -->
<g id="edge2" class="edge">
<title>&#45;13&#45;&gt;2</title>
<path fill="none" stroke="red" stroke-width="1.09" d="M828,-98.47C828,-86.59 828,-62.46 828,-44.23"/>
<polygon fill="red" stroke="red" stroke-width="1.09" points="831.5,-44.06 828,-34.06 824.5,-44.06 831.5,-44.06"/>
</g>
<!-- &#45;14 -->
<g id="node14" class="node">
<title>&#45;14</title>
<polygon fill="lightgray" stroke="black" points="885,-114.71 859,-114.71 859,-98.71 885,-98.71 885,-114.71"/>
<text text-anchor="middle" x="872" y="-105.11" font-family="Times New Roman,serif" font-size="7.00">&#45;14</text>
</g>
<!-- &#45;15 -->
<g id="node15" class="node">
<title>&#45;15</title>
<polygon fill="lightgray" stroke="black" points="929,-114.71 903,-114.71 903,-98.71 929,-98.71 929,-114.71"/>
<text text-anchor="middle" x="916" y="-105.11" font-family="Times New Roman,serif" font-size="7.00">&#45;15</text>
</g>
<!-- &#45;16 -->
<g id="node16" class="node">
<title>&#45;16</title>
<polygon fill="lightgray" stroke="black" points="973,-114.71 947,-114.71 947,-98.71 973,-98.71 973,-114.71"/>
<text text-anchor="middle" x="960" y="-105.11" font-family="Times New Roman,serif" font-size="7.00">&#45;16</text>
</g>
<!-- &#45;17 -->
<g id="node17" class="node">
<title>&#45;17</title>
<polygon fill="lightgray" stroke="black" points="582,-114.71 556,-114.71 556,-98.71 582,-98.71 582,-114.71"/>
<text text-anchor="middle" x="569" y="-105.11" font-family="Times New Roman,serif" font-size="7.00">&#45;17</text>
</g>
<!-- 974 -->
<g id="node42" class="node">
<title>974</title>
<ellipse fill="white" stroke="black" cx="572" cy="-19.8" rx="19.6" ry="19.6"/>
<text text-anchor="middle" x="572" y="-18.2" font-family="Times New Roman,serif" font-size="7.00">974</text>
</g>
<!-- &#45;17&#45;&gt;974 -->
<g id="edge8" class="edge">
<title>&#45;17&#45;&gt;974</title>
<path fill="none" stroke="green" stroke-width="0.15" d="M569.26,-98.47C569.63,-87.78 570.36,-67.15 570.97,-49.84"/>
<polygon fill="green" stroke="green" stroke-width="0.15" points="574.48,-49.73 571.34,-39.61 567.48,-49.48 574.48,-49.73"/>
</g>
<!-- 527 -->
<g id="node43" class="node">
<title>527</title>
<ellipse fill="white" stroke="black" cx="514" cy="-19.8" rx="19.6" ry="19.6"/>
<text text-anchor="middle" x="514" y="-18.2" font-family="Times New Roman,serif" font-size="7.00">527</text>
</g>
<!-- &#45;17&#45;&gt;527 -->
<g id="edge12" class="edge">
<title>&#45;17&#45;&gt;527</title>
<path fill="none" stroke="green" stroke-width="0.14" d="M564.31,-98.47C556.83,-86.93 541.86,-63.82 530.19,-45.79"/>
<polygon fill="green" stroke="green" stroke-width="0.14" points="532.81,-43.41 524.44,-36.92 526.94,-47.21 532.81,-43.41"/>
</g>
<!-- &#45;18 -->
<g id="node18" class="node">
<title>&#45;18</title>
<polygon fill="lightgray" stroke="black" points="1017,-114.71 991,-114.71 991,-98.71 1017,-98.71 1017,-114.71"/>
<text text-anchor="middle" x="1004" y="-105.11" font-family="Times New Roman,serif" font-size="7.00">&#45;18</text>
</g>
<!-- &#45;19 -->
<g id="node19" class="node">
<title>&#45;19</title>
<polygon fill="lightgray" stroke="black" points="1061,-114.71 1035,-114.71 1035,-98.71 1061,-98.71 1061,-114.71"/>
<text text-anchor="middle" x="1048" y="-105.11" font-family="Times New Roman,serif" font-size="7.00">&#45;19</text>
</g>
<!-- &#45;20 -->
<g id="node20" class="node">
<title>&#45;20</title>
<polygon fill="lightgray" stroke="black" points="1105,-114.71 1079,-114.71 1079,-98.71 1105,-98.71 1105,-114.71"/>
<text text-anchor="middle" x="1092" y="-105.11" font-family="Times New Roman,serif" font-size="7.00">&#45;20</text>
</g>
<!-- &#45;21 -->
<g id="node21" class="node">
<title>&#45;21</title>
<polygon fill="lightgray" stroke="black" points="311,-114.71 285,-114.71 285,-98.71 311,-98.71 311,-114.71"/>
<text text-anchor="middle" x="298" y="-105.11" font-family="Times New Roman,serif" font-size="7.00">&#45;21</text>
</g>
<!-- &#45;21&#45;&gt;178 -->
<g id="edge11" class="edge">
<title>&#45;21&#45;&gt;178</title>
<path fill="none" stroke="green" stroke-width="0.53" d="M301.75,-98.47C307.57,-87.24 319.07,-65.04 328.29,-47.25"/>
<polygon fill="green" stroke="green" stroke-width="0.53" points="331.64,-48.4 333.13,-37.91 325.42,-45.18 331.64,-48.4"/>
</g>
<!-- &#45;22 -->
<g id="node22" class="node">
<title>&#45;22</title>
<polygon fill="lightgray" stroke="black" points="1149,-114.71 1123,-114.71 1123,-98.71 1149,-98.71 1149,-114.71"/>
<text text-anchor="middle" x="1136" y="-105.11" font-family="Times New Roman,serif" font-size="7.00">&#45;22</text>
</g>
<!-- &#45;23 -->
<g id="node23" class="node">
<title>&#45;23</title>
<polygon fill="lightgray" stroke="black" points="1193,-114.71 1167,-114.71 1167,-98.71 1193,-98.71 1193,-114.71"/>
<text text-anchor="middle" x="1180" y="-105.11" font-family="Times New Roman,serif" font-size="7.00">&#45;23</text>
</g>
<!-- &#45;24 -->
<g id="node24" class="node">
<title>&#45;24</title>
<polygon fill="lightgray" stroke="black" points="1237,-114.71 1211,-114.71 1211,-98.71 1237,-98.71 1237,-114.71"/>
<text text-anchor="middle" x="1224" y="-105.11" font-family="Times New Roman,serif" font-size="7.00">&#45;24</text>
</g>
<!-- &#45;25 -->
<g id="node25" class="node">
<title>&#45;25</title>
<polygon fill="lightgray" stroke="black" points="355,-114.71 329,-114.71 329,-98.71 355,-98.71 355,-114.71"/>
<text text-anchor="middle" x="342" y="-105.11" font-family="Times New Roman,serif" font-size="7.00">&#45;25</text>
</g>
<!-- &#45;25&#45;&gt;178 -->
<g id="edge4" class="edge">
<title>&#45;25&#45;&gt;178</title>
<path fill="none" stroke="green" stroke-width="0.28" d="M342,-98.47C342,-87.78 342,-67.15 342,-49.84"/>
<polygon fill="green" stroke="green" stroke-width="0.28" points="345.5,-49.61 342,-39.61 338.5,-49.61 345.5,-49.61"/>
</g>
<!-- &#45;26 -->
<g id="node26" class="node">
<title>&#45;26</title>
<polygon fill="lightgray" stroke="black" points="1281,-114.71 1255,-114.71 1255,-98.71 1281,-98.71 1281,-114.71"/>
<text text-anchor="middle" x="1268" y="-105.11" font-family="Times New Roman,serif" font-size="7.00">&#45;26</text>
</g>
<!-- &#45;27 -->
<g id="node27" class="node">
<title>&#45;27</title>
<polygon fill="lightgray" stroke="black" points="1325,-114.71 1299,-114.71 1299,-98.71 1325,-98.71 1325,-114.71"/>
<text text-anchor="middle" x="1312" y="-105.11" font-family="Times New Roman,serif" font-size="7.00">&#45;27</text>
</g>
<!-- &#45;28 -->
<g id="node28" class="node">
<title>&#45;28</title>
<polygon fill="lightgray" stroke="black" points="1369,-114.71 1343,-114.71 1343,-98.71 1369,-98.71 1369,-114.71"/>
<text text-anchor="middle" x="1356" y="-105.11" font-family="Times New Roman,serif" font-size="7.00">&#45;28</text>
</g>
<!-- &#45;29 -->
<g id="node29" class="node">
<title>&#45;29</title>
<polygon fill="lightgray" stroke="black" points="399,-114.71 373,-114.71 373,-98.71 399,-98.71 399,-114.71"/>
<text text-anchor="middle" x="386" y="-105.11" font-family="Times New Roman,serif" font-size="7.00">&#45;29</text>
</g>
<!-- &#45;29&#45;&gt;178 -->
<g id="edge10" class="edge">
<title>&#45;29&#45;&gt;178</title>
<path fill="none" stroke="red" stroke-width="0.1" d="M382.25,-98.47C376.43,-87.24 364.93,-65.04 355.71,-47.25"/>
<polygon fill="red" stroke="red" stroke-width="0.1" points="358.58,-45.18 350.87,-37.91 352.36,-48.4 358.58,-45.18"/>
</g>
<!-- &#45;30 -->
<g id="node30" class="node">
<title>&#45;30</title>
<polygon fill="lightgray" stroke="black" points="1413,-114.71 1387,-114.71 1387,-98.71 1413,-98.71 1413,-114.71"/>
<text text-anchor="middle" x="1400" y="-105.11" font-family="Times New Roman,serif" font-size="7.00">&#45;30</text>
</g>
<!-- &#45;31 -->
<g id="node31" class="node">
<title>&#45;31</title>
<polygon fill="lightgray" stroke="black" points="1457,-114.71 1431,-114.71 1431,-98.71 1457,-98.71 1457,-114.71"/>
<text text-anchor="middle" x="1444" y="-105.11" font-family="Times New Roman,serif" font-size="7.00">&#45;31</text>
</g>
<!-- &#45;32 -->
<g id="node32" class="node">
<title>&#45;32</title>
<polygon fill="lightgray" stroke="black" points="443,-114.71 417,-114.71 417,-98.71 443,-98.71 443,-114.71"/>
<text text-anchor="middle" x="430" y="-105.11" font-family="Times New Roman,serif" font-size="7.00">&#45;32</text>
</g>
<!-- &#45;32&#45;&gt;178 -->
<g id="edge3" class="edge">
<title>&#45;32&#45;&gt;178</title>
<path fill="none" stroke="red" stroke-width="0.38" stroke-dasharray="1,5" d="M425.39,-98.39C421.23,-92.04 414.74,-82.77 408,-75.6 395.11,-61.89 378.87,-48.37 365.73,-38.18"/>
<polygon fill="red" stroke="red" stroke-width="0.38" points="367.68,-35.27 357.6,-32.01 363.45,-40.84 367.68,-35.27"/>
</g>
<!-- &#45;33 -->
<g id="node33" class="node">
<title>&#45;33</title>
<polygon fill="lightgray" stroke="black" points="1501,-114.71 1475,-114.71 1475,-98.71 1501,-98.71 1501,-114.71"/>
<text text-anchor="middle" x="1488" y="-105.11" font-family="Times New Roman,serif" font-size="7.00">&#45;33</text>
</g>
<!-- &#45;34 -->
<g id="node34" class="node">
<title>&#45;34</title>
<polygon fill="lightgray" stroke="black" points="1545,-114.71 1519,-114.71 1519,-98.71 1545,-98.71 1545,-114.71"/>
<text text-anchor="middle" x="1532" y="-105.11" font-family="Times New Roman,serif" font-size="7.00">&#45;34</text>
</g>
<!-- &#45;35 -->
<g id="node35" class="node">
<title>&#45;35</title>
<polygon fill="lightgray" stroke="black" points="1589,-114.71 1563,-114.71 1563,-98.71 1589,-98.71 1589,-114.71"/>
<text text-anchor="middle" x="1576" y="-105.11" font-family="Times New Roman,serif" font-size="7.00">&#45;35</text>
</g>
<!-- &#45;36 -->
<g id="node36" class="node">
<title>&#45;36</title>
<polygon fill="lightgray" stroke="black" points="487,-114.71 461,-114.71 461,-98.71 487,-98.71 487,-114.71"/>
<text text-anchor="middle" x="474" y="-105.11" font-family="Times New Roman,serif" font-size="7.00">&#45;36</text>
</g>
<!-- &#45;36&#45;&gt;527 -->
<g id="edge13" class="edge">
<title>&#45;36&#45;&gt;527</title>
<path fill="none" stroke="green" stroke-width="0.35" d="M477.41,-98.47C482.7,-87.24 493.16,-65.04 501.54,-47.25"/>
<polygon fill="green" stroke="green" stroke-width="0.35" points="504.84,-48.45 505.94,-37.91 498.51,-45.47 504.84,-48.45"/>
</g>
<!-- &#45;36&#45;&gt;178 -->
<g id="edge9" class="edge">
<title>&#45;36&#45;&gt;178</title>
<path fill="none" stroke="green" stroke-width="0.25" d="M470.09,-98.5C466.2,-91.87 459.72,-82.11 452,-75.6 427.46,-54.89 393.76,-39.59 370.15,-30.5"/>
<polygon fill="green" stroke="green" stroke-width="0.25" points="371.29,-27.19 360.7,-26.98 368.85,-33.75 371.29,-27.19"/>
</g>
<!-- &#45;37 -->
<g id="node37" class="node">
<title>&#45;37</title>
<polygon fill="lightgray" stroke="black" points="1633,-114.71 1607,-114.71 1607,-98.71 1633,-98.71 1633,-114.71"/>
<text text-anchor="middle" x="1620" y="-105.11" font-family="Times New Roman,serif" font-size="7.00">&#45;37</text>
</g>
<!-- &#45;38 -->
<g id="node38" class="node">
<title>&#45;38</title>
<polygon fill="lightgray" stroke="black" points="531,-114.71 505,-114.71 505,-98.71 531,-98.71 531,-114.71"/>
<text text-anchor="middle" x="518" y="-105.11" font-family="Times New Roman,serif" font-size="7.00">&#45;38</text>
</g>
<!-- &#45;38&#45;&gt;527 -->
<g id="edge7" class="edge">
<title>&#45;38&#45;&gt;527</title>
<path fill="none" stroke="green" stroke-width="0.36" d="M517.66,-98.47C517.16,-87.78 516.18,-67.15 515.37,-49.84"/>
<polygon fill="green" stroke="green" stroke-width="0.36" points="518.85,-49.44 514.89,-39.61 511.86,-49.77 518.85,-49.44"/>
</g>
<!-- A XOR B -->
<g id="node39" class="node">
<title>A XOR B</title>
<ellipse fill="lightblue" stroke="black" cx="1682" cy="-106.71" rx="31.23" ry="31.23"/>
<text text-anchor="middle" x="1682" y="-105.11" font-family="Times New Roman,serif" font-size="7.00">A XOR B</text>
</g>
</g>
</svg>
