<?xml version="1.0" encoding="UTF-8" standalone="no"?>
<!DOCTYPE svg PUBLIC "-//W3C//DTD SVG 1.1//EN"
 "http://www.w3.org/Graphics/SVG/1.1/DTD/svg11.dtd">
<!-- Generated by graphviz version 2.46.0 (20210118.1747)
 -->
<!-- Pages: 1 -->
<svg width="1625pt" height="286pt"
 viewBox="0.00 0.00 1625.11 285.71" xmlns="http://www.w3.org/2000/svg" xmlns:xlink="http://www.w3.org/1999/xlink">
<g id="graph0" class="graph" transform="scale(1 1) rotate(0) translate(4 281.71)">
<polygon fill="white" stroke="transparent" points="-4,4 -4,-281.71 1621.11,-281.71 1621.11,4 -4,4"/>
<!-- A -->
<g id="node1" class="node">
<title>A</title>
<polygon fill="lightgray" stroke="black" points="22,-254.59 0,-254.59 0,-238.59 22,-238.59 22,-254.59"/>
<text text-anchor="middle" x="11" y="-244.99" font-family="Times New Roman,serif" font-size="7.00">A</text>
</g>
<!-- B -->
<g id="node2" class="node">
<title>B</title>
<polygon fill="lightgray" stroke="black" points="61.5,-254.59 40.5,-254.59 40.5,-238.59 61.5,-238.59 61.5,-254.59"/>
<text text-anchor="middle" x="51" y="-244.99" font-family="Times New Roman,serif" font-size="7.00">B</text>
</g>
<!-- &#45;3 -->
<g id="node3" class="node">
<title>&#45;3</title>
<polygon fill="lightgray" stroke="black" points="102.5,-254.59 79.5,-254.59 79.5,-238.59 102.5,-238.59 102.5,-254.59"/>
<text text-anchor="middle" x="91" y="-244.99" font-family="Times New Roman,serif" font-size="7.00">&#45;3</text>
</g>
<!-- 1 -->
<g id="node40" class="node">
<title>1</title>
<ellipse fill="lightblue" stroke="black" cx="112" cy="-159.68" rx="14.29" ry="14.29"/>
<text text-anchor="middle" x="112" y="-158.08" font-family="Times New Roman,serif" font-size="7.00">1</text>
</g>
<!-- &#45;3&#45;&gt;1 -->
<g id="edge1" class="edge">
<title>&#45;3&#45;&gt;1</title>
<path fill="none" stroke="green" stroke-width="0.66" d="M92.79,-238.35C95.76,-226.35 101.82,-201.84 106.34,-183.55"/>
<polygon fill="green" stroke="green" stroke-width="0.66" points="109.79,-184.19 108.8,-173.64 103,-182.51 109.79,-184.19"/>
</g>
<!-- &#45;4 -->
<g id="node4" class="node">
<title>&#45;4</title>
<polygon fill="lightgray" stroke="black" points="143.5,-254.59 120.5,-254.59 120.5,-238.59 143.5,-238.59 143.5,-254.59"/>
<text text-anchor="middle" x="132" y="-244.99" font-family="Times New Roman,serif" font-size="7.00">&#45;4</text>
</g>
<!-- &#45;4&#45;&gt;1 -->
<g id="edge9" class="edge">
<title>&#45;4&#45;&gt;1</title>
<path fill="none" stroke="green" stroke-width="0.11" d="M130.29,-238.35C127.47,-226.35 121.7,-201.84 117.39,-183.55"/>
<polygon fill="green" stroke="green" stroke-width="0.11" points="120.75,-182.57 115.05,-173.64 113.94,-184.17 120.75,-182.57"/>
</g>
<!-- &#45;5 -->
<g id="node5" class="node">
<title>&#45;5</title>
<polygon fill="lightgray" stroke="black" points="184.5,-254.59 161.5,-254.59 161.5,-238.59 184.5,-238.59 184.5,-254.59"/>
<text text-anchor="middle" x="173" y="-244.99" font-family="Times New Roman,serif" font-size="7.00">&#45;5</text>
</g>
<!-- &#45;6 -->
<g id="node6" class="node">
<title>&#45;6</title>
<polygon fill="lightgray" stroke="black" points="225.5,-254.59 202.5,-254.59 202.5,-238.59 225.5,-238.59 225.5,-254.59"/>
<text text-anchor="middle" x="214" y="-244.99" font-family="Times New Roman,serif" font-size="7.00">&#45;6</text>
</g>
<!-- &#45;7 -->
<g id="node7" class="node">
<title>&#45;7</title>
<polygon fill="lightgray" stroke="black" points="266.5,-254.59 243.5,-254.59 243.5,-238.59 266.5,-238.59 266.5,-254.59"/>
<text text-anchor="middle" x="255" y="-244.99" font-family="Times New Roman,serif" font-size="7.00">&#45;7</text>
</g>
<!-- &#45;8 -->
<g id="node8" class="node">
<title>&#45;8</title>
<polygon fill="lightgray" stroke="black" points="307.5,-254.59 284.5,-254.59 284.5,-238.59 307.5,-238.59 307.5,-254.59"/>
<text text-anchor="middle" x="296" y="-244.99" font-family="Times New Roman,serif" font-size="7.00">&#45;8</text>
</g>
<!-- &#45;9 -->
<g id="node9" class="node">
<title>&#45;9</title>
<polygon fill="lightgray" stroke="black" points="348.5,-254.59 325.5,-254.59 325.5,-238.59 348.5,-238.59 348.5,-254.59"/>
<text text-anchor="middle" x="337" y="-244.99" font-family="Times New Roman,serif" font-size="7.00">&#45;9</text>
</g>
<!-- &#45;10 -->
<g id="node10" class="node">
<title>&#45;10</title>
<polygon fill="lightgray" stroke="black" points="298,-167.68 272,-167.68 272,-151.68 298,-151.68 298,-167.68"/>
<text text-anchor="middle" x="285" y="-158.08" font-family="Times New Roman,serif" font-size="7.00">&#45;10</text>
</g>
<!-- 2 -->
<g id="node41" class="node">
<title>2</title>
<ellipse fill="lightblue" stroke="black" cx="336" cy="-14.14" rx="14.29" ry="14.29"/>
<text text-anchor="middle" x="336" y="-12.54" font-family="Times New Roman,serif" font-size="7.00">2</text>
</g>
<!-- &#45;10&#45;&gt;2 -->
<g id="edge2" class="edge">
<title>&#45;10&#45;&gt;2</title>
<path fill="none" stroke="red" stroke-width="0.17" d="M282.73,-151.41C278.03,-135.02 268.74,-94.28 282,-64.28 288.85,-48.8 303.25,-36.09 315.46,-27.48"/>
<polygon fill="red" stroke="red" stroke-width="0.17" points="317.41,-30.39 323.82,-21.96 313.55,-24.55 317.41,-30.39"/>
</g>
<!-- 527 -->
<g id="node42" class="node">
<title>527</title>
<ellipse fill="white" stroke="black" cx="311" cy="-84.08" rx="19.6" ry="19.6"/>
<text text-anchor="middle" x="311" y="-82.48" font-family="Times New Roman,serif" font-size="7.00">527</text>
</g>
<!-- &#45;10&#45;&gt;527 -->
<g id="edge6" class="edge">
<title>&#45;10&#45;&gt;527</title>
<path fill="none" stroke="green" stroke-width="0.31" d="M287.49,-151.62C290.64,-142.71 296.25,-126.83 301.2,-112.82"/>
<polygon fill="green" stroke="green" stroke-width="0.31" points="304.61,-113.67 304.64,-103.08 298.01,-111.34 304.61,-113.67"/>
</g>
<!-- &#45;11 -->
<g id="node11" class="node">
<title>&#45;11</title>
<polygon fill="lightgray" stroke="black" points="437,-254.59 411,-254.59 411,-238.59 437,-238.59 437,-254.59"/>
<text text-anchor="middle" x="424" y="-244.99" font-family="Times New Roman,serif" font-size="7.00">&#45;11</text>
</g>
<!-- &#45;12 -->
<g id="node12" class="node">
<title>&#45;12</title>
<polygon fill="lightgray" stroke="black" points="481,-254.59 455,-254.59 455,-238.59 481,-238.59 481,-254.59"/>
<text text-anchor="middle" x="468" y="-244.99" font-family="Times New Roman,serif" font-size="7.00">&#45;12</text>
</g>
<!-- &#45;13 -->
<g id="node13" class="node">
<title>&#45;13</title>
<polygon fill="lightgray" stroke="black" points="375,-92.08 349,-92.08 349,-76.08 375,-76.08 375,-92.08"/>
<text text-anchor="middle" x="362" y="-82.48" font-family="Times New Roman,serif" font-size="7.00">&#45;13</text>
</g>
<!-- &#45;13&#45;&gt;2 -->
<g id="edge4" class="edge">
<title>&#45;13&#45;&gt;2</title>
<path fill="none" stroke="red" stroke-width="0.19" d="M359.32,-76.07C355.84,-66.99 349.62,-50.75 344.48,-37.31"/>
<polygon fill="red" stroke="red" stroke-width="0.19" points="347.67,-35.84 340.83,-27.75 341.13,-38.34 347.67,-35.84"/>
</g>
<!-- &#45;14 -->
<g id="node14" class="node">
<title>&#45;14</title>
<polygon fill="lightgray" stroke="black" points="525,-254.59 499,-254.59 499,-238.59 525,-238.59 525,-254.59"/>
<text text-anchor="middle" x="512" y="-244.99" font-family="Times New Roman,serif" font-size="7.00">&#45;14</text>
</g>
<!-- &#45;15 -->
<g id="node15" class="node">
<title>&#45;15</title>
<polygon fill="lightgray" stroke="black" points="569,-254.59 543,-254.59 543,-238.59 569,-238.59 569,-254.59"/>
<text text-anchor="middle" x="556" y="-244.99" font-family="Times New Roman,serif" font-size="7.00">&#45;15</text>
</g>
<!-- &#45;16 -->
<g id="node16" class="node">
<title>&#45;16</title>
<polygon fill="lightgray" stroke="black" points="613,-254.59 587,-254.59 587,-238.59 613,-238.59 613,-254.59"/>
<text text-anchor="middle" x="600" y="-244.99" font-family="Times New Roman,serif" font-size="7.00">&#45;16</text>
</g>
<!-- &#45;17 -->
<g id="node17" class="node">
<title>&#45;17</title>
<polygon fill="lightgray" stroke="black" points="657,-254.59 631,-254.59 631,-238.59 657,-238.59 657,-254.59"/>
<text text-anchor="middle" x="644" y="-244.99" font-family="Times New Roman,serif" font-size="7.00">&#45;17</text>
</g>
<!-- &#45;18 -->
<g id="node18" class="node">
<title>&#45;18</title>
<polygon fill="lightgray" stroke="black" points="701,-254.59 675,-254.59 675,-238.59 701,-238.59 701,-254.59"/>
<text text-anchor="middle" x="688" y="-244.99" font-family="Times New Roman,serif" font-size="7.00">&#45;18</text>
</g>
<!-- &#45;19 -->
<g id="node19" class="node">
<title>&#45;19</title>
<polygon fill="lightgray" stroke="black" points="745,-254.59 719,-254.59 719,-238.59 745,-238.59 745,-254.59"/>
<text text-anchor="middle" x="732" y="-244.99" font-family="Times New Roman,serif" font-size="7.00">&#45;19</text>
</g>
<!-- &#45;20 -->
<g id="node20" class="node">
<title>&#45;20</title>
<polygon fill="lightgray" stroke="black" points="789,-254.59 763,-254.59 763,-238.59 789,-238.59 789,-254.59"/>
<text text-anchor="middle" x="776" y="-244.99" font-family="Times New Roman,serif" font-size="7.00">&#45;20</text>
</g>
<!-- &#45;21 -->
<g id="node21" class="node">
<title>&#45;21</title>
<polygon fill="lightgray" stroke="black" points="833,-254.59 807,-254.59 807,-238.59 833,-238.59 833,-254.59"/>
<text text-anchor="middle" x="820" y="-244.99" font-family="Times New Roman,serif" font-size="7.00">&#45;21</text>
</g>
<!-- &#45;22 -->
<g id="node22" class="node">
<title>&#45;22</title>
<polygon fill="lightgray" stroke="black" points="877,-254.59 851,-254.59 851,-238.59 877,-238.59 877,-254.59"/>
<text text-anchor="middle" x="864" y="-244.99" font-family="Times New Roman,serif" font-size="7.00">&#45;22</text>
</g>
<!-- &#45;23 -->
<g id="node23" class="node">
<title>&#45;23</title>
<polygon fill="lightgray" stroke="black" points="921,-254.59 895,-254.59 895,-238.59 921,-238.59 921,-254.59"/>
<text text-anchor="middle" x="908" y="-244.99" font-family="Times New Roman,serif" font-size="7.00">&#45;23</text>
</g>
<!-- &#45;24 -->
<g id="node24" class="node">
<title>&#45;24</title>
<polygon fill="lightgray" stroke="black" points="965,-254.59 939,-254.59 939,-238.59 965,-238.59 965,-254.59"/>
<text text-anchor="middle" x="952" y="-244.99" font-family="Times New Roman,serif" font-size="7.00">&#45;24</text>
</g>
<!-- &#45;25 -->
<g id="node25" class="node">
<title>&#45;25</title>
<polygon fill="lightgray" stroke="black" points="1009,-254.59 983,-254.59 983,-238.59 1009,-238.59 1009,-254.59"/>
<text text-anchor="middle" x="996" y="-244.99" font-family="Times New Roman,serif" font-size="7.00">&#45;25</text>
</g>
<!-- &#45;26 -->
<g id="node26" class="node">
<title>&#45;26</title>
<polygon fill="lightgray" stroke="black" points="1053,-254.59 1027,-254.59 1027,-238.59 1053,-238.59 1053,-254.59"/>
<text text-anchor="middle" x="1040" y="-244.99" font-family="Times New Roman,serif" font-size="7.00">&#45;26</text>
</g>
<!-- &#45;27 -->
<g id="node27" class="node">
<title>&#45;27</title>
<polygon fill="lightgray" stroke="black" points="1097,-254.59 1071,-254.59 1071,-238.59 1097,-238.59 1097,-254.59"/>
<text text-anchor="middle" x="1084" y="-244.99" font-family="Times New Roman,serif" font-size="7.00">&#45;27</text>
</g>
<!-- &#45;28 -->
<g id="node28" class="node">
<title>&#45;28</title>
<polygon fill="lightgray" stroke="black" points="1141,-254.59 1115,-254.59 1115,-238.59 1141,-238.59 1141,-254.59"/>
<text text-anchor="middle" x="1128" y="-244.99" font-family="Times New Roman,serif" font-size="7.00">&#45;28</text>
</g>
<!-- &#45;29 -->
<g id="node29" class="node">
<title>&#45;29</title>
<polygon fill="lightgray" stroke="black" points="1185,-254.59 1159,-254.59 1159,-238.59 1185,-238.59 1185,-254.59"/>
<text text-anchor="middle" x="1172" y="-244.99" font-family="Times New Roman,serif" font-size="7.00">&#45;29</text>
</g>
<!-- &#45;30 -->
<g id="node30" class="node">
<title>&#45;30</title>
<polygon fill="lightgray" stroke="black" points="1229,-254.59 1203,-254.59 1203,-238.59 1229,-238.59 1229,-254.59"/>
<text text-anchor="middle" x="1216" y="-244.99" font-family="Times New Roman,serif" font-size="7.00">&#45;30</text>
</g>
<!-- &#45;31 -->
<g id="node31" class="node">
<title>&#45;31</title>
<polygon fill="lightgray" stroke="black" points="1273,-254.59 1247,-254.59 1247,-238.59 1273,-238.59 1273,-254.59"/>
<text text-anchor="middle" x="1260" y="-244.99" font-family="Times New Roman,serif" font-size="7.00">&#45;31</text>
</g>
<!-- &#45;32 -->
<g id="node32" class="node">
<title>&#45;32</title>
<polygon fill="lightgray" stroke="black" points="393,-254.59 367,-254.59 367,-238.59 393,-238.59 393,-254.59"/>
<text text-anchor="middle" x="380" y="-244.99" font-family="Times New Roman,serif" font-size="7.00">&#45;32</text>
</g>
<!-- 178 -->
<g id="node43" class="node">
<title>178</title>
<ellipse fill="white" stroke="black" cx="380" cy="-159.68" rx="19.6" ry="19.6"/>
<text text-anchor="middle" x="380" y="-158.08" font-family="Times New Roman,serif" font-size="7.00">178</text>
</g>
<!-- &#45;32&#45;&gt;178 -->
<g id="edge5" class="edge">
<title>&#45;32&#45;&gt;178</title>
<path fill="none" stroke="red" stroke-width="0.44" d="M380,-238.35C380,-227.66 380,-207.04 380,-189.73"/>
<polygon fill="red" stroke="red" stroke-width="0.44" points="383.5,-189.5 380,-179.5 376.5,-189.5 383.5,-189.5"/>
</g>
<!-- &#45;33 -->
<g id="node33" class="node">
<title>&#45;33</title>
<polygon fill="lightgray" stroke="black" points="1317,-254.59 1291,-254.59 1291,-238.59 1317,-238.59 1317,-254.59"/>
<text text-anchor="middle" x="1304" y="-244.99" font-family="Times New Roman,serif" font-size="7.00">&#45;33</text>
</g>
<!-- &#45;34 -->
<g id="node34" class="node">
<title>&#45;34</title>
<polygon fill="lightgray" stroke="black" points="1361,-254.59 1335,-254.59 1335,-238.59 1361,-238.59 1361,-254.59"/>
<text text-anchor="middle" x="1348" y="-244.99" font-family="Times New Roman,serif" font-size="7.00">&#45;34</text>
</g>
<!-- &#45;35 -->
<g id="node35" class="node">
<title>&#45;35</title>
<polygon fill="lightgray" stroke="black" points="1405,-254.59 1379,-254.59 1379,-238.59 1405,-238.59 1405,-254.59"/>
<text text-anchor="middle" x="1392" y="-244.99" font-family="Times New Roman,serif" font-size="7.00">&#45;35</text>
</g>
<!-- &#45;36 -->
<g id="node36" class="node">
<title>&#45;36</title>
<polygon fill="lightgray" stroke="black" points="1449,-254.59 1423,-254.59 1423,-238.59 1449,-238.59 1449,-254.59"/>
<text text-anchor="middle" x="1436" y="-244.99" font-family="Times New Roman,serif" font-size="7.00">&#45;36</text>
</g>
<!-- &#45;37 -->
<g id="node37" class="node">
<title>&#45;37</title>
<polygon fill="lightgray" stroke="black" points="1493,-254.59 1467,-254.59 1467,-238.59 1493,-238.59 1493,-254.59"/>
<text text-anchor="middle" x="1480" y="-244.99" font-family="Times New Roman,serif" font-size="7.00">&#45;37</text>
</g>
<!-- &#45;38 -->
<g id="node38" class="node">
<title>&#45;38</title>
<polygon fill="lightgray" stroke="black" points="1537,-254.59 1511,-254.59 1511,-238.59 1537,-238.59 1537,-254.59"/>
<text text-anchor="middle" x="1524" y="-244.99" font-family="Times New Roman,serif" font-size="7.00">&#45;38</text>
</g>
<!-- A XOR B -->
<g id="node39" class="node">
<title>A XOR B</title>
<ellipse fill="lightblue" stroke="black" cx="1586" cy="-246.59" rx="31.23" ry="31.23"/>
<text text-anchor="middle" x="1586" y="-244.99" font-family="Times New Roman,serif" font-size="7.00">A XOR B</text>
</g>
<!-- 527&#45;&gt;2 -->
<g id="edge7" class="edge">
<title>527&#45;&gt;2</title>
<path fill="none" stroke="red" stroke-width="0.28" d="M317.57,-65.23C320.72,-56.66 324.53,-46.31 327.87,-37.25"/>
<polygon fill="red" stroke="red" stroke-width="0.28" points="331.2,-38.32 331.37,-27.73 324.63,-35.9 331.2,-38.32"/>
</g>
<!-- 178&#45;&gt;2 -->
<g id="edge3" class="edge">
<title>178&#45;&gt;2</title>
<path fill="none" stroke="green" stroke-width="0.73" d="M385.11,-140.52C389.65,-120.93 394.15,-89.2 384,-64.28 378.25,-50.17 366.27,-37.89 355.72,-29.15"/>
<polygon fill="green" stroke="green" stroke-width="0.73" points="357.76,-26.29 347.71,-22.92 353.46,-31.82 357.76,-26.29"/>
</g>
<!-- 178&#45;&gt;527 -->
<g id="edge8" class="edge">
<title>178&#45;&gt;527</title>
<path fill="none" stroke="green" stroke-width="0.68" d="M366.7,-144.49C356.67,-133.8 342.75,-118.95 331.34,-106.78"/>
<polygon fill="green" stroke="green" stroke-width="0.68" points="333.66,-104.13 324.26,-99.23 328.55,-108.92 333.66,-104.13"/>
</g>
</g>
</svg>
