<?xml version="1.0" encoding="UTF-8" standalone="no"?>
<!DOCTYPE svg PUBLIC "-//W3C//DTD SVG 1.1//EN"
 "http://www.w3.org/Graphics/SVG/1.1/DTD/svg11.dtd">
<!-- Generated by graphviz version 2.46.0 (20210118.1747)
 -->
<!-- Pages: 1 -->
<svg width="1635pt" height="210pt"
 viewBox="0.00 0.00 1635.00 210.11" xmlns="http://www.w3.org/2000/svg" xmlns:xlink="http://www.w3.org/1999/xlink">
<g id="graph0" class="graph" transform="scale(1 1) rotate(0) translate(4 206.11)">
<polygon fill="white" stroke="transparent" points="-4,4 -4,-206.11 1631,-206.11 1631,4 -4,4"/>
<!-- A -->
<g id="node1" class="node">
<title>A</title>
<polygon fill="lightgray" stroke="black" points="22,-195.97 0,-195.97 0,-179.97 22,-179.97 22,-195.97"/>
<text text-anchor="middle" x="11" y="-186.37" font-family="Times New Roman,serif" font-size="7.00">A</text>
</g>
<!-- B -->
<g id="node2" class="node">
<title>B</title>
<polygon fill="lightgray" stroke="black" points="61.5,-195.97 40.5,-195.97 40.5,-179.97 61.5,-179.97 61.5,-195.97"/>
<text text-anchor="middle" x="51" y="-186.37" font-family="Times New Roman,serif" font-size="7.00">B</text>
</g>
<!-- &#45;3 -->
<g id="node3" class="node">
<title>&#45;3</title>
<polygon fill="lightgray" stroke="black" points="102.5,-195.97 79.5,-195.97 79.5,-179.97 102.5,-179.97 102.5,-195.97"/>
<text text-anchor="middle" x="91" y="-186.37" font-family="Times New Roman,serif" font-size="7.00">&#45;3</text>
</g>
<!-- A XOR B -->
<g id="node39" class="node">
<title>A XOR B</title>
<ellipse fill="lightblue" stroke="black" cx="91" cy="-106.71" rx="31.23" ry="31.23"/>
<text text-anchor="middle" x="91" y="-105.11" font-family="Times New Roman,serif" font-size="7.00">A XOR B</text>
</g>
<!-- &#45;3&#45;&gt;A XOR B -->
<g id="edge7" class="edge">
<title>&#45;3&#45;&gt;A XOR B</title>
<path fill="none" stroke="red" stroke-width="0.41" d="M91,-179.93C91,-172.59 91,-160.47 91,-148.23"/>
<polygon fill="red" stroke="red" stroke-width="0.41" points="94.5,-148.02 91,-138.02 87.5,-148.02 94.5,-148.02"/>
</g>
<!-- &#45;4 -->
<g id="node4" class="node">
<title>&#45;4</title>
<polygon fill="lightgray" stroke="black" points="143.5,-195.97 120.5,-195.97 120.5,-179.97 143.5,-179.97 143.5,-195.97"/>
<text text-anchor="middle" x="132" y="-186.37" font-family="Times New Roman,serif" font-size="7.00">&#45;4</text>
</g>
<!-- &#45;5 -->
<g id="node5" class="node">
<title>&#45;5</title>
<polygon fill="lightgray" stroke="black" points="184.5,-195.97 161.5,-195.97 161.5,-179.97 184.5,-179.97 184.5,-195.97"/>
<text text-anchor="middle" x="173" y="-186.37" font-family="Times New Roman,serif" font-size="7.00">&#45;5</text>
</g>
<!-- &#45;6 -->
<g id="node6" class="node">
<title>&#45;6</title>
<polygon fill="lightgray" stroke="black" points="225.5,-195.97 202.5,-195.97 202.5,-179.97 225.5,-179.97 225.5,-195.97"/>
<text text-anchor="middle" x="214" y="-186.37" font-family="Times New Roman,serif" font-size="7.00">&#45;6</text>
</g>
<!-- &#45;7 -->
<g id="node7" class="node">
<title>&#45;7</title>
<polygon fill="lightgray" stroke="black" points="266.5,-195.97 243.5,-195.97 243.5,-179.97 266.5,-179.97 266.5,-195.97"/>
<text text-anchor="middle" x="255" y="-186.37" font-family="Times New Roman,serif" font-size="7.00">&#45;7</text>
</g>
<!-- &#45;8 -->
<g id="node8" class="node">
<title>&#45;8</title>
<polygon fill="lightgray" stroke="black" points="307.5,-195.97 284.5,-195.97 284.5,-179.97 307.5,-179.97 307.5,-195.97"/>
<text text-anchor="middle" x="296" y="-186.37" font-family="Times New Roman,serif" font-size="7.00">&#45;8</text>
</g>
<!-- &#45;9 -->
<g id="node9" class="node">
<title>&#45;9</title>
<polygon fill="lightgray" stroke="black" points="348.5,-195.97 325.5,-195.97 325.5,-179.97 348.5,-179.97 348.5,-195.97"/>
<text text-anchor="middle" x="337" y="-186.37" font-family="Times New Roman,serif" font-size="7.00">&#45;9</text>
</g>
<!-- &#45;10 -->
<g id="node10" class="node">
<title>&#45;10</title>
<polygon fill="lightgray" stroke="black" points="393,-195.97 367,-195.97 367,-179.97 393,-179.97 393,-195.97"/>
<text text-anchor="middle" x="380" y="-186.37" font-family="Times New Roman,serif" font-size="7.00">&#45;10</text>
</g>
<!-- 2 -->
<g id="node41" class="node">
<title>2</title>
<ellipse fill="lightblue" stroke="black" cx="402" cy="-106.71" rx="14.29" ry="14.29"/>
<text text-anchor="middle" x="402" y="-105.11" font-family="Times New Roman,serif" font-size="7.00">2</text>
</g>
<!-- &#45;10&#45;&gt;2 -->
<g id="edge5" class="edge">
<title>&#45;10&#45;&gt;2</title>
<path fill="none" stroke="red" stroke-width="0.41" d="M381.95,-179.93C385.02,-168.89 391.09,-147.01 395.75,-130.21"/>
<polygon fill="red" stroke="red" stroke-width="0.41" points="399.13,-131.13 398.43,-120.55 392.39,-129.25 399.13,-131.13"/>
</g>
<!-- &#45;11 -->
<g id="node11" class="node">
<title>&#45;11</title>
<polygon fill="lightgray" stroke="black" points="518,-114.71 492,-114.71 492,-98.71 518,-98.71 518,-114.71"/>
<text text-anchor="middle" x="505" y="-105.11" font-family="Times New Roman,serif" font-size="7.00">&#45;11</text>
</g>
<!-- 551 -->
<g id="node42" class="node">
<title>551</title>
<ellipse fill="white" stroke="black" cx="530" cy="-19.8" rx="19.6" ry="19.6"/>
<text text-anchor="middle" x="530" y="-18.2" font-family="Times New Roman,serif" font-size="7.00">551</text>
</g>
<!-- &#45;11&#45;&gt;551 -->
<g id="edge9" class="edge">
<title>&#45;11&#45;&gt;551</title>
<path fill="none" stroke="green" stroke-width="0.51" d="M507.13,-98.47C510.35,-87.54 516.62,-66.24 521.78,-48.71"/>
<polygon fill="green" stroke="green" stroke-width="0.51" points="525.2,-49.51 524.66,-38.93 518.48,-47.53 525.2,-49.51"/>
</g>
<!-- &#45;12 -->
<g id="node12" class="node">
<title>&#45;12</title>
<polygon fill="lightgray" stroke="black" points="703,-195.97 677,-195.97 677,-179.97 703,-179.97 703,-195.97"/>
<text text-anchor="middle" x="690" y="-186.37" font-family="Times New Roman,serif" font-size="7.00">&#45;12</text>
</g>
<!-- &#45;13 -->
<g id="node13" class="node">
<title>&#45;13</title>
<polygon fill="lightgray" stroke="black" points="437,-195.97 411,-195.97 411,-179.97 437,-179.97 437,-195.97"/>
<text text-anchor="middle" x="424" y="-186.37" font-family="Times New Roman,serif" font-size="7.00">&#45;13</text>
</g>
<!-- &#45;13&#45;&gt;2 -->
<g id="edge1" class="edge">
<title>&#45;13&#45;&gt;2</title>
<path fill="none" stroke="red" stroke-width="1.06" d="M422.05,-179.93C418.98,-168.89 412.91,-147.01 408.25,-130.21"/>
<polygon fill="red" stroke="red" stroke-width="1.06" points="411.61,-129.25 405.57,-120.55 404.87,-131.13 411.61,-129.25"/>
</g>
<!-- &#45;14 -->
<g id="node14" class="node">
<title>&#45;14</title>
<polygon fill="lightgray" stroke="black" points="481,-195.97 455,-195.97 455,-179.97 481,-179.97 481,-195.97"/>
<text text-anchor="middle" x="468" y="-186.37" font-family="Times New Roman,serif" font-size="7.00">&#45;14</text>
</g>
<!-- 178 -->
<g id="node43" class="node">
<title>178</title>
<ellipse fill="white" stroke="black" cx="556" cy="-106.71" rx="19.6" ry="19.6"/>
<text text-anchor="middle" x="556" y="-105.11" font-family="Times New Roman,serif" font-size="7.00">178</text>
</g>
<!-- &#45;14&#45;&gt;178 -->
<g id="edge10" class="edge">
<title>&#45;14&#45;&gt;178</title>
<path fill="none" stroke="green" stroke-width="0.3" d="M477.06,-179.93C488.86,-170.65 510.02,-153.62 527,-137.82 529.96,-135.07 533.01,-132.08 535.97,-129.1"/>
<polygon fill="green" stroke="green" stroke-width="0.3" points="538.58,-131.43 543.03,-121.82 533.55,-126.56 538.58,-131.43"/>
</g>
<!-- &#45;15 -->
<g id="node15" class="node">
<title>&#45;15</title>
<polygon fill="lightgray" stroke="black" points="525,-195.97 499,-195.97 499,-179.97 525,-179.97 525,-195.97"/>
<text text-anchor="middle" x="512" y="-186.37" font-family="Times New Roman,serif" font-size="7.00">&#45;15</text>
</g>
<!-- &#45;15&#45;&gt;178 -->
<g id="edge3" class="edge">
<title>&#45;15&#45;&gt;178</title>
<path fill="none" stroke="red" stroke-width="0.2" stroke-dasharray="1,5" d="M515.9,-179.93C521.64,-169.61 532.63,-149.81 541.65,-133.56"/>
<polygon fill="red" stroke="red" stroke-width="0.2" points="544.89,-134.93 546.68,-124.49 538.77,-131.53 544.89,-134.93"/>
</g>
<!-- &#45;16 -->
<g id="node16" class="node">
<title>&#45;16</title>
<polygon fill="lightgray" stroke="black" points="747,-195.97 721,-195.97 721,-179.97 747,-179.97 747,-195.97"/>
<text text-anchor="middle" x="734" y="-186.37" font-family="Times New Roman,serif" font-size="7.00">&#45;16</text>
</g>
<!-- &#45;17 -->
<g id="node17" class="node">
<title>&#45;17</title>
<polygon fill="lightgray" stroke="black" points="791,-195.97 765,-195.97 765,-179.97 791,-179.97 791,-195.97"/>
<text text-anchor="middle" x="778" y="-186.37" font-family="Times New Roman,serif" font-size="7.00">&#45;17</text>
</g>
<!-- &#45;18 -->
<g id="node18" class="node">
<title>&#45;18</title>
<polygon fill="lightgray" stroke="black" points="835,-195.97 809,-195.97 809,-179.97 835,-179.97 835,-195.97"/>
<text text-anchor="middle" x="822" y="-186.37" font-family="Times New Roman,serif" font-size="7.00">&#45;18</text>
</g>
<!-- &#45;19 -->
<g id="node19" class="node">
<title>&#45;19</title>
<polygon fill="lightgray" stroke="black" points="879,-195.97 853,-195.97 853,-179.97 879,-179.97 879,-195.97"/>
<text text-anchor="middle" x="866" y="-186.37" font-family="Times New Roman,serif" font-size="7.00">&#45;19</text>
</g>
<!-- &#45;20 -->
<g id="node20" class="node">
<title>&#45;20</title>
<polygon fill="lightgray" stroke="black" points="923,-195.97 897,-195.97 897,-179.97 923,-179.97 923,-195.97"/>
<text text-anchor="middle" x="910" y="-186.37" font-family="Times New Roman,serif" font-size="7.00">&#45;20</text>
</g>
<!-- &#45;21 -->
<g id="node21" class="node">
<title>&#45;21</title>
<polygon fill="lightgray" stroke="black" points="967,-195.97 941,-195.97 941,-179.97 967,-179.97 967,-195.97"/>
<text text-anchor="middle" x="954" y="-186.37" font-family="Times New Roman,serif" font-size="7.00">&#45;21</text>
</g>
<!-- &#45;22 -->
<g id="node22" class="node">
<title>&#45;22</title>
<polygon fill="lightgray" stroke="black" points="1011,-195.97 985,-195.97 985,-179.97 1011,-179.97 1011,-195.97"/>
<text text-anchor="middle" x="998" y="-186.37" font-family="Times New Roman,serif" font-size="7.00">&#45;22</text>
</g>
<!-- &#45;23 -->
<g id="node23" class="node">
<title>&#45;23</title>
<polygon fill="lightgray" stroke="black" points="1055,-195.97 1029,-195.97 1029,-179.97 1055,-179.97 1055,-195.97"/>
<text text-anchor="middle" x="1042" y="-186.37" font-family="Times New Roman,serif" font-size="7.00">&#45;23</text>
</g>
<!-- &#45;24 -->
<g id="node24" class="node">
<title>&#45;24</title>
<polygon fill="lightgray" stroke="black" points="1099,-195.97 1073,-195.97 1073,-179.97 1099,-179.97 1099,-195.97"/>
<text text-anchor="middle" x="1086" y="-186.37" font-family="Times New Roman,serif" font-size="7.00">&#45;24</text>
</g>
<!-- &#45;25 -->
<g id="node25" class="node">
<title>&#45;25</title>
<polygon fill="lightgray" stroke="black" points="569,-195.97 543,-195.97 543,-179.97 569,-179.97 569,-195.97"/>
<text text-anchor="middle" x="556" y="-186.37" font-family="Times New Roman,serif" font-size="7.00">&#45;25</text>
</g>
<!-- &#45;25&#45;&gt;178 -->
<g id="edge4" class="edge">
<title>&#45;25&#45;&gt;178</title>
<path fill="none" stroke="green" stroke-width="0.55" stroke-dasharray="1,5" d="M556,-179.93C556,-170.33 556,-152.53 556,-137.01"/>
<polygon fill="green" stroke="green" stroke-width="0.55" points="559.5,-136.75 556,-126.75 552.5,-136.75 559.5,-136.75"/>
</g>
<!-- &#45;26 -->
<g id="node26" class="node">
<title>&#45;26</title>
<polygon fill="lightgray" stroke="black" points="1143,-195.97 1117,-195.97 1117,-179.97 1143,-179.97 1143,-195.97"/>
<text text-anchor="middle" x="1130" y="-186.37" font-family="Times New Roman,serif" font-size="7.00">&#45;26</text>
</g>
<!-- &#45;27 -->
<g id="node27" class="node">
<title>&#45;27</title>
<polygon fill="lightgray" stroke="black" points="1187,-195.97 1161,-195.97 1161,-179.97 1187,-179.97 1187,-195.97"/>
<text text-anchor="middle" x="1174" y="-186.37" font-family="Times New Roman,serif" font-size="7.00">&#45;27</text>
</g>
<!-- &#45;28 -->
<g id="node28" class="node">
<title>&#45;28</title>
<polygon fill="lightgray" stroke="black" points="1231,-195.97 1205,-195.97 1205,-179.97 1231,-179.97 1231,-195.97"/>
<text text-anchor="middle" x="1218" y="-186.37" font-family="Times New Roman,serif" font-size="7.00">&#45;28</text>
</g>
<!-- &#45;29 -->
<g id="node29" class="node">
<title>&#45;29</title>
<polygon fill="lightgray" stroke="black" points="1275,-195.97 1249,-195.97 1249,-179.97 1275,-179.97 1275,-195.97"/>
<text text-anchor="middle" x="1262" y="-186.37" font-family="Times New Roman,serif" font-size="7.00">&#45;29</text>
</g>
<!-- &#45;30 -->
<g id="node30" class="node">
<title>&#45;30</title>
<polygon fill="lightgray" stroke="black" points="1319,-195.97 1293,-195.97 1293,-179.97 1319,-179.97 1319,-195.97"/>
<text text-anchor="middle" x="1306" y="-186.37" font-family="Times New Roman,serif" font-size="7.00">&#45;30</text>
</g>
<!-- &#45;31 -->
<g id="node31" class="node">
<title>&#45;31</title>
<polygon fill="lightgray" stroke="black" points="1363,-195.97 1337,-195.97 1337,-179.97 1363,-179.97 1363,-195.97"/>
<text text-anchor="middle" x="1350" y="-186.37" font-family="Times New Roman,serif" font-size="7.00">&#45;31</text>
</g>
<!-- &#45;32 -->
<g id="node32" class="node">
<title>&#45;32</title>
<polygon fill="lightgray" stroke="black" points="1407,-195.97 1381,-195.97 1381,-179.97 1407,-179.97 1407,-195.97"/>
<text text-anchor="middle" x="1394" y="-186.37" font-family="Times New Roman,serif" font-size="7.00">&#45;32</text>
</g>
<!-- &#45;33 -->
<g id="node33" class="node">
<title>&#45;33</title>
<polygon fill="lightgray" stroke="black" points="1451,-195.97 1425,-195.97 1425,-179.97 1451,-179.97 1451,-195.97"/>
<text text-anchor="middle" x="1438" y="-186.37" font-family="Times New Roman,serif" font-size="7.00">&#45;33</text>
</g>
<!-- &#45;34 -->
<g id="node34" class="node">
<title>&#45;34</title>
<polygon fill="lightgray" stroke="black" points="1495,-195.97 1469,-195.97 1469,-179.97 1495,-179.97 1495,-195.97"/>
<text text-anchor="middle" x="1482" y="-186.37" font-family="Times New Roman,serif" font-size="7.00">&#45;34</text>
</g>
<!-- &#45;35 -->
<g id="node35" class="node">
<title>&#45;35</title>
<polygon fill="lightgray" stroke="black" points="613,-195.97 587,-195.97 587,-179.97 613,-179.97 613,-195.97"/>
<text text-anchor="middle" x="600" y="-186.37" font-family="Times New Roman,serif" font-size="7.00">&#45;35</text>
</g>
<!-- &#45;35&#45;&gt;178 -->
<g id="edge8" class="edge">
<title>&#45;35&#45;&gt;178</title>
<path fill="none" stroke="green" stroke-width="0.4" d="M596.1,-179.93C590.36,-169.61 579.37,-149.81 570.35,-133.56"/>
<polygon fill="green" stroke="green" stroke-width="0.4" points="573.23,-131.53 565.32,-124.49 567.11,-134.93 573.23,-131.53"/>
</g>
<!-- &#45;36 -->
<g id="node36" class="node">
<title>&#45;36</title>
<polygon fill="lightgray" stroke="black" points="1539,-195.97 1513,-195.97 1513,-179.97 1539,-179.97 1539,-195.97"/>
<text text-anchor="middle" x="1526" y="-186.37" font-family="Times New Roman,serif" font-size="7.00">&#45;36</text>
</g>
<!-- &#45;37 -->
<g id="node37" class="node">
<title>&#45;37</title>
<polygon fill="lightgray" stroke="black" points="1583,-195.97 1557,-195.97 1557,-179.97 1583,-179.97 1583,-195.97"/>
<text text-anchor="middle" x="1570" y="-186.37" font-family="Times New Roman,serif" font-size="7.00">&#45;37</text>
</g>
<!-- &#45;38 -->
<g id="node38" class="node">
<title>&#45;38</title>
<polygon fill="lightgray" stroke="black" points="1627,-195.97 1601,-195.97 1601,-179.97 1627,-179.97 1627,-195.97"/>
<text text-anchor="middle" x="1614" y="-186.37" font-family="Times New Roman,serif" font-size="7.00">&#45;38</text>
</g>
<!-- 1 -->
<g id="node40" class="node">
<title>1</title>
<ellipse fill="lightblue" stroke="black" cx="645" cy="-187.97" rx="14.29" ry="14.29"/>
<text text-anchor="middle" x="645" y="-186.37" font-family="Times New Roman,serif" font-size="7.00">1</text>
</g>
<!-- 1&#45;&gt;178 -->
<g id="edge2" class="edge">
<title>1&#45;&gt;178</title>
<path fill="none" stroke="green" stroke-width="0.22" stroke-dasharray="1,5" d="M634.79,-177.87C621.09,-165.67 596.39,-143.68 578.28,-127.56"/>
<polygon fill="green" stroke="green" stroke-width="0.22" points="580.29,-124.65 570.49,-120.62 575.63,-129.88 580.29,-124.65"/>
</g>
<!-- 178&#45;&gt;551 -->
<g id="edge6" class="edge">
<title>178&#45;&gt;551</title>
<path fill="none" stroke="red" stroke-width="0.3" d="M550.36,-87.29C546.89,-75.97 542.39,-61.26 538.5,-48.55"/>
<polygon fill="red" stroke="red" stroke-width="0.3" points="541.82,-47.43 535.54,-38.9 535.12,-49.48 541.82,-47.43"/>
</g>
</g>
</svg>
