<?xml version="1.0" encoding="UTF-8" standalone="no"?>
<!DOCTYPE svg PUBLIC "-//W3C//DTD SVG 1.1//EN"
 "http://www.w3.org/Graphics/SVG/1.1/DTD/svg11.dtd">
<!-- Generated by graphviz version 2.46.0 (20210118.1747)
 -->
<!-- Pages: 1 -->
<svg width="1713pt" height="135pt"
 viewBox="0.00 0.00 1713.11 134.51" xmlns="http://www.w3.org/2000/svg" xmlns:xlink="http://www.w3.org/1999/xlink">
<g id="graph0" class="graph" transform="scale(1 1) rotate(0) translate(4 130.51)">
<polygon fill="white" stroke="transparent" points="-4,4 -4,-130.51 1709.11,-130.51 1709.11,4 -4,4"/>
<!-- A -->
<g id="node1" class="node">
<title>A</title>
<polygon fill="lightgray" stroke="black" points="22,-103.4 0,-103.4 0,-87.4 22,-87.4 22,-103.4"/>
<text text-anchor="middle" x="11" y="-93.8" font-family="Times New Roman,serif" font-size="7.00">A</text>
</g>
<!-- B -->
<g id="node2" class="node">
<title>B</title>
<polygon fill="lightgray" stroke="black" points="61.5,-103.4 40.5,-103.4 40.5,-87.4 61.5,-87.4 61.5,-103.4"/>
<text text-anchor="middle" x="51" y="-93.8" font-family="Times New Roman,serif" font-size="7.00">B</text>
</g>
<!-- &#45;3 -->
<g id="node3" class="node">
<title>&#45;3</title>
<polygon fill="lightgray" stroke="black" points="102.5,-103.4 79.5,-103.4 79.5,-87.4 102.5,-87.4 102.5,-103.4"/>
<text text-anchor="middle" x="91" y="-93.8" font-family="Times New Roman,serif" font-size="7.00">&#45;3</text>
</g>
<!-- 1 -->
<g id="node40" class="node">
<title>1</title>
<ellipse fill="lightblue" stroke="black" cx="91" cy="-14.14" rx="14.29" ry="14.29"/>
<text text-anchor="middle" x="91" y="-12.54" font-family="Times New Roman,serif" font-size="7.00">1</text>
</g>
<!-- &#45;3&#45;&gt;1 -->
<g id="edge2" class="edge">
<title>&#45;3&#45;&gt;1</title>
<path fill="none" stroke="green" stroke-width="0.23" d="M91,-87.36C91,-76.55 91,-55.34 91,-38.69"/>
<polygon fill="green" stroke="green" stroke-width="0.23" points="94.5,-38.57 91,-28.57 87.5,-38.57 94.5,-38.57"/>
</g>
<!-- &#45;4 -->
<g id="node4" class="node">
<title>&#45;4</title>
<polygon fill="lightgray" stroke="black" points="143.5,-103.4 120.5,-103.4 120.5,-87.4 143.5,-87.4 143.5,-103.4"/>
<text text-anchor="middle" x="132" y="-93.8" font-family="Times New Roman,serif" font-size="7.00">&#45;4</text>
</g>
<!-- &#45;5 -->
<g id="node5" class="node">
<title>&#45;5</title>
<polygon fill="lightgray" stroke="black" points="184.5,-103.4 161.5,-103.4 161.5,-87.4 184.5,-87.4 184.5,-103.4"/>
<text text-anchor="middle" x="173" y="-93.8" font-family="Times New Roman,serif" font-size="7.00">&#45;5</text>
</g>
<!-- &#45;6 -->
<g id="node6" class="node">
<title>&#45;6</title>
<polygon fill="lightgray" stroke="black" points="225.5,-103.4 202.5,-103.4 202.5,-87.4 225.5,-87.4 225.5,-103.4"/>
<text text-anchor="middle" x="214" y="-93.8" font-family="Times New Roman,serif" font-size="7.00">&#45;6</text>
</g>
<!-- &#45;7 -->
<g id="node7" class="node">
<title>&#45;7</title>
<polygon fill="lightgray" stroke="black" points="266.5,-103.4 243.5,-103.4 243.5,-87.4 266.5,-87.4 266.5,-103.4"/>
<text text-anchor="middle" x="255" y="-93.8" font-family="Times New Roman,serif" font-size="7.00">&#45;7</text>
</g>
<!-- &#45;8 -->
<g id="node8" class="node">
<title>&#45;8</title>
<polygon fill="lightgray" stroke="black" points="307.5,-103.4 284.5,-103.4 284.5,-87.4 307.5,-87.4 307.5,-103.4"/>
<text text-anchor="middle" x="296" y="-93.8" font-family="Times New Roman,serif" font-size="7.00">&#45;8</text>
</g>
<!-- &#45;9 -->
<g id="node9" class="node">
<title>&#45;9</title>
<polygon fill="lightgray" stroke="black" points="348.5,-103.4 325.5,-103.4 325.5,-87.4 348.5,-87.4 348.5,-103.4"/>
<text text-anchor="middle" x="337" y="-93.8" font-family="Times New Roman,serif" font-size="7.00">&#45;9</text>
</g>
<!-- &#45;10 -->
<g id="node10" class="node">
<title>&#45;10</title>
<polygon fill="lightgray" stroke="black" points="393,-103.4 367,-103.4 367,-87.4 393,-87.4 393,-103.4"/>
<text text-anchor="middle" x="380" y="-93.8" font-family="Times New Roman,serif" font-size="7.00">&#45;10</text>
</g>
<!-- &#45;11 -->
<g id="node11" class="node">
<title>&#45;11</title>
<polygon fill="lightgray" stroke="black" points="437,-103.4 411,-103.4 411,-87.4 437,-87.4 437,-103.4"/>
<text text-anchor="middle" x="424" y="-93.8" font-family="Times New Roman,serif" font-size="7.00">&#45;11</text>
</g>
<!-- &#45;12 -->
<g id="node12" class="node">
<title>&#45;12</title>
<polygon fill="lightgray" stroke="black" points="481,-103.4 455,-103.4 455,-87.4 481,-87.4 481,-103.4"/>
<text text-anchor="middle" x="468" y="-93.8" font-family="Times New Roman,serif" font-size="7.00">&#45;12</text>
</g>
<!-- &#45;13 -->
<g id="node13" class="node">
<title>&#45;13</title>
<polygon fill="lightgray" stroke="black" points="525,-103.4 499,-103.4 499,-87.4 525,-87.4 525,-103.4"/>
<text text-anchor="middle" x="512" y="-93.8" font-family="Times New Roman,serif" font-size="7.00">&#45;13</text>
</g>
<!-- &#45;14 -->
<g id="node14" class="node">
<title>&#45;14</title>
<polygon fill="lightgray" stroke="black" points="569,-103.4 543,-103.4 543,-87.4 569,-87.4 569,-103.4"/>
<text text-anchor="middle" x="556" y="-93.8" font-family="Times New Roman,serif" font-size="7.00">&#45;14</text>
</g>
<!-- &#45;15 -->
<g id="node15" class="node">
<title>&#45;15</title>
<polygon fill="lightgray" stroke="black" points="613,-103.4 587,-103.4 587,-87.4 613,-87.4 613,-103.4"/>
<text text-anchor="middle" x="600" y="-93.8" font-family="Times New Roman,serif" font-size="7.00">&#45;15</text>
</g>
<!-- &#45;16 -->
<g id="node16" class="node">
<title>&#45;16</title>
<polygon fill="lightgray" stroke="black" points="657,-103.4 631,-103.4 631,-87.4 657,-87.4 657,-103.4"/>
<text text-anchor="middle" x="644" y="-93.8" font-family="Times New Roman,serif" font-size="7.00">&#45;16</text>
</g>
<!-- 2 -->
<g id="node41" class="node">
<title>2</title>
<ellipse fill="lightblue" stroke="black" cx="644" cy="-14.14" rx="14.29" ry="14.29"/>
<text text-anchor="middle" x="644" y="-12.54" font-family="Times New Roman,serif" font-size="7.00">2</text>
</g>
<!-- &#45;16&#45;&gt;2 -->
<g id="edge1" class="edge">
<title>&#45;16&#45;&gt;2</title>
<path fill="none" stroke="red" stroke-width="0.98" d="M644,-87.36C644,-76.55 644,-55.34 644,-38.69"/>
<polygon fill="red" stroke="red" stroke-width="0.98" points="647.5,-38.57 644,-28.57 640.5,-38.57 647.5,-38.57"/>
</g>
<!-- &#45;17 -->
<g id="node17" class="node">
<title>&#45;17</title>
<polygon fill="lightgray" stroke="black" points="701,-103.4 675,-103.4 675,-87.4 701,-87.4 701,-103.4"/>
<text text-anchor="middle" x="688" y="-93.8" font-family="Times New Roman,serif" font-size="7.00">&#45;17</text>
</g>
<!-- &#45;18 -->
<g id="node18" class="node">
<title>&#45;18</title>
<polygon fill="lightgray" stroke="black" points="745,-103.4 719,-103.4 719,-87.4 745,-87.4 745,-103.4"/>
<text text-anchor="middle" x="732" y="-93.8" font-family="Times New Roman,serif" font-size="7.00">&#45;18</text>
</g>
<!-- &#45;19 -->
<g id="node19" class="node">
<title>&#45;19</title>
<polygon fill="lightgray" stroke="black" points="789,-103.4 763,-103.4 763,-87.4 789,-87.4 789,-103.4"/>
<text text-anchor="middle" x="776" y="-93.8" font-family="Times New Roman,serif" font-size="7.00">&#45;19</text>
</g>
<!-- &#45;20 -->
<g id="node20" class="node">
<title>&#45;20</title>
<polygon fill="lightgray" stroke="black" points="833,-103.4 807,-103.4 807,-87.4 833,-87.4 833,-103.4"/>
<text text-anchor="middle" x="820" y="-93.8" font-family="Times New Roman,serif" font-size="7.00">&#45;20</text>
</g>
<!-- &#45;21 -->
<g id="node21" class="node">
<title>&#45;21</title>
<polygon fill="lightgray" stroke="black" points="877,-103.4 851,-103.4 851,-87.4 877,-87.4 877,-103.4"/>
<text text-anchor="middle" x="864" y="-93.8" font-family="Times New Roman,serif" font-size="7.00">&#45;21</text>
</g>
<!-- &#45;22 -->
<g id="node22" class="node">
<title>&#45;22</title>
<polygon fill="lightgray" stroke="black" points="921,-103.4 895,-103.4 895,-87.4 921,-87.4 921,-103.4"/>
<text text-anchor="middle" x="908" y="-93.8" font-family="Times New Roman,serif" font-size="7.00">&#45;22</text>
</g>
<!-- &#45;23 -->
<g id="node23" class="node">
<title>&#45;23</title>
<polygon fill="lightgray" stroke="black" points="965,-103.4 939,-103.4 939,-87.4 965,-87.4 965,-103.4"/>
<text text-anchor="middle" x="952" y="-93.8" font-family="Times New Roman,serif" font-size="7.00">&#45;23</text>
</g>
<!-- &#45;24 -->
<g id="node24" class="node">
<title>&#45;24</title>
<polygon fill="lightgray" stroke="black" points="1009,-103.4 983,-103.4 983,-87.4 1009,-87.4 1009,-103.4"/>
<text text-anchor="middle" x="996" y="-93.8" font-family="Times New Roman,serif" font-size="7.00">&#45;24</text>
</g>
<!-- &#45;25 -->
<g id="node25" class="node">
<title>&#45;25</title>
<polygon fill="lightgray" stroke="black" points="1053,-103.4 1027,-103.4 1027,-87.4 1053,-87.4 1053,-103.4"/>
<text text-anchor="middle" x="1040" y="-93.8" font-family="Times New Roman,serif" font-size="7.00">&#45;25</text>
</g>
<!-- &#45;26 -->
<g id="node26" class="node">
<title>&#45;26</title>
<polygon fill="lightgray" stroke="black" points="1097,-103.4 1071,-103.4 1071,-87.4 1097,-87.4 1097,-103.4"/>
<text text-anchor="middle" x="1084" y="-93.8" font-family="Times New Roman,serif" font-size="7.00">&#45;26</text>
</g>
<!-- &#45;27 -->
<g id="node27" class="node">
<title>&#45;27</title>
<polygon fill="lightgray" stroke="black" points="1141,-103.4 1115,-103.4 1115,-87.4 1141,-87.4 1141,-103.4"/>
<text text-anchor="middle" x="1128" y="-93.8" font-family="Times New Roman,serif" font-size="7.00">&#45;27</text>
</g>
<!-- &#45;28 -->
<g id="node28" class="node">
<title>&#45;28</title>
<polygon fill="lightgray" stroke="black" points="1185,-103.4 1159,-103.4 1159,-87.4 1185,-87.4 1185,-103.4"/>
<text text-anchor="middle" x="1172" y="-93.8" font-family="Times New Roman,serif" font-size="7.00">&#45;28</text>
</g>
<!-- &#45;29 -->
<g id="node29" class="node">
<title>&#45;29</title>
<polygon fill="lightgray" stroke="black" points="1229,-103.4 1203,-103.4 1203,-87.4 1229,-87.4 1229,-103.4"/>
<text text-anchor="middle" x="1216" y="-93.8" font-family="Times New Roman,serif" font-size="7.00">&#45;29</text>
</g>
<!-- &#45;30 -->
<g id="node30" class="node">
<title>&#45;30</title>
<polygon fill="lightgray" stroke="black" points="1273,-103.4 1247,-103.4 1247,-87.4 1273,-87.4 1273,-103.4"/>
<text text-anchor="middle" x="1260" y="-93.8" font-family="Times New Roman,serif" font-size="7.00">&#45;30</text>
</g>
<!-- &#45;31 -->
<g id="node31" class="node">
<title>&#45;31</title>
<polygon fill="lightgray" stroke="black" points="1317,-103.4 1291,-103.4 1291,-87.4 1317,-87.4 1317,-103.4"/>
<text text-anchor="middle" x="1304" y="-93.8" font-family="Times New Roman,serif" font-size="7.00">&#45;31</text>
</g>
<!-- &#45;32 -->
<g id="node32" class="node">
<title>&#45;32</title>
<polygon fill="lightgray" stroke="black" points="1361,-103.4 1335,-103.4 1335,-87.4 1361,-87.4 1361,-103.4"/>
<text text-anchor="middle" x="1348" y="-93.8" font-family="Times New Roman,serif" font-size="7.00">&#45;32</text>
</g>
<!-- &#45;33 -->
<g id="node33" class="node">
<title>&#45;33</title>
<polygon fill="lightgray" stroke="black" points="1405,-103.4 1379,-103.4 1379,-87.4 1405,-87.4 1405,-103.4"/>
<text text-anchor="middle" x="1392" y="-93.8" font-family="Times New Roman,serif" font-size="7.00">&#45;33</text>
</g>
<!-- &#45;34 -->
<g id="node34" class="node">
<title>&#45;34</title>
<polygon fill="lightgray" stroke="black" points="1449,-103.4 1423,-103.4 1423,-87.4 1449,-87.4 1449,-103.4"/>
<text text-anchor="middle" x="1436" y="-93.8" font-family="Times New Roman,serif" font-size="7.00">&#45;34</text>
</g>
<!-- &#45;35 -->
<g id="node35" class="node">
<title>&#45;35</title>
<polygon fill="lightgray" stroke="black" points="1493,-103.4 1467,-103.4 1467,-87.4 1493,-87.4 1493,-103.4"/>
<text text-anchor="middle" x="1480" y="-93.8" font-family="Times New Roman,serif" font-size="7.00">&#45;35</text>
</g>
<!-- &#45;36 -->
<g id="node36" class="node">
<title>&#45;36</title>
<polygon fill="lightgray" stroke="black" points="1537,-103.4 1511,-103.4 1511,-87.4 1537,-87.4 1537,-103.4"/>
<text text-anchor="middle" x="1524" y="-93.8" font-family="Times New Roman,serif" font-size="7.00">&#45;36</text>
</g>
<!-- &#45;37 -->
<g id="node37" class="node">
<title>&#45;37</title>
<polygon fill="lightgray" stroke="black" points="1581,-103.4 1555,-103.4 1555,-87.4 1581,-87.4 1581,-103.4"/>
<text text-anchor="middle" x="1568" y="-93.8" font-family="Times New Roman,serif" font-size="7.00">&#45;37</text>
</g>
<!-- &#45;38 -->
<g id="node38" class="node">
<title>&#45;38</title>
<polygon fill="lightgray" stroke="black" points="1625,-103.4 1599,-103.4 1599,-87.4 1625,-87.4 1625,-103.4"/>
<text text-anchor="middle" x="1612" y="-93.8" font-family="Times New Roman,serif" font-size="7.00">&#45;38</text>
</g>
<!-- A XOR B -->
<g id="node39" class="node">
<title>A XOR B</title>
<ellipse fill="lightblue" stroke="black" cx="1674" cy="-95.4" rx="31.23" ry="31.23"/>
<text text-anchor="middle" x="1674" y="-93.8" font-family="Times New Roman,serif" font-size="7.00">A XOR B</text>
</g>
</g>
</svg>
