<?xml version="1.0" encoding="UTF-8" standalone="no"?>
<!DOCTYPE svg PUBLIC "-//W3C//DTD SVG 1.1//EN"
 "http://www.w3.org/Graphics/SVG/1.1/DTD/svg11.dtd">
<!-- Generated by graphviz version 2.46.0 (20210118.1747)
 -->
<!-- Pages: 1 -->
<svg width="1704pt" height="297pt"
 viewBox="0.00 0.00 1703.61 297.02" xmlns="http://www.w3.org/2000/svg" xmlns:xlink="http://www.w3.org/1999/xlink">
<g id="graph0" class="graph" transform="scale(1 1) rotate(0) translate(4 293.02)">
<polygon fill="white" stroke="transparent" points="-4,4 -4,-293.02 1699.61,-293.02 1699.61,4 -4,4"/>
<!-- A -->
<g id="node1" class="node">
<title>A</title>
<polygon fill="lightgray" stroke="black" points="61.5,-265.91 39.5,-265.91 39.5,-249.91 61.5,-249.91 61.5,-265.91"/>
<text text-anchor="middle" x="50.5" y="-256.31" font-family="Times New Roman,serif" font-size="7.00">A</text>
</g>
<!-- B -->
<g id="node2" class="node">
<title>B</title>
<polygon fill="lightgray" stroke="black" points="21,-103.4 0,-103.4 0,-87.4 21,-87.4 21,-103.4"/>
<text text-anchor="middle" x="10.5" y="-93.8" font-family="Times New Roman,serif" font-size="7.00">B</text>
</g>
<!-- 527 -->
<g id="node43" class="node">
<title>527</title>
<ellipse fill="white" stroke="black" cx="90.5" cy="-19.8" rx="19.6" ry="19.6"/>
<text text-anchor="middle" x="90.5" y="-18.2" font-family="Times New Roman,serif" font-size="7.00">527</text>
</g>
<!-- B&#45;&gt;527 -->
<g id="edge14" class="edge">
<title>B&#45;&gt;527</title>
<path fill="none" stroke="green" stroke-width="0.37" d="M17.46,-87.35C21.02,-83.79 25.45,-79.42 29.5,-75.6 42.21,-63.62 56.75,-50.53 68.44,-40.16"/>
<polygon fill="green" stroke="green" stroke-width="0.37" points="70.85,-42.7 76.03,-33.45 66.22,-37.45 70.85,-42.7"/>
</g>
<!-- &#45;3 -->
<g id="node3" class="node">
<title>&#45;3</title>
<polygon fill="lightgray" stroke="black" points="310,-265.91 287,-265.91 287,-249.91 310,-249.91 310,-265.91"/>
<text text-anchor="middle" x="298.5" y="-256.31" font-family="Times New Roman,serif" font-size="7.00">&#45;3</text>
</g>
<!-- 1 -->
<g id="node40" class="node">
<title>1</title>
<ellipse fill="lightblue" stroke="black" cx="272.5" cy="-170.99" rx="14.29" ry="14.29"/>
<text text-anchor="middle" x="272.5" y="-169.39" font-family="Times New Roman,serif" font-size="7.00">1</text>
</g>
<!-- &#45;3&#45;&gt;1 -->
<g id="edge1" class="edge">
<title>&#45;3&#45;&gt;1</title>
<path fill="none" stroke="green" stroke-width="1.66" d="M296.28,-249.67C292.57,-237.54 284.95,-212.65 279.33,-194.3"/>
<polygon fill="green" stroke="green" stroke-width="1.66" points="282.65,-193.19 276.37,-184.65 275.96,-195.24 282.65,-193.19"/>
</g>
<!-- 898 -->
<g id="node42" class="node">
<title>898</title>
<ellipse fill="white" stroke="black" cx="324.5" cy="-170.99" rx="19.6" ry="19.6"/>
<text text-anchor="middle" x="324.5" y="-169.39" font-family="Times New Roman,serif" font-size="7.00">898</text>
</g>
<!-- &#45;3&#45;&gt;898 -->
<g id="edge8" class="edge">
<title>&#45;3&#45;&gt;898</title>
<path fill="none" stroke="green" stroke-width="0.57" d="M300.72,-249.67C304.06,-238.74 310.59,-217.44 315.95,-199.9"/>
<polygon fill="green" stroke="green" stroke-width="0.57" points="319.37,-200.71 318.95,-190.12 312.67,-198.66 319.37,-200.71"/>
</g>
<!-- &#45;4 -->
<g id="node4" class="node">
<title>&#45;4</title>
<polygon fill="lightgray" stroke="black" points="351,-265.91 328,-265.91 328,-249.91 351,-249.91 351,-265.91"/>
<text text-anchor="middle" x="339.5" y="-256.31" font-family="Times New Roman,serif" font-size="7.00">&#45;4</text>
</g>
<!-- &#45;5 -->
<g id="node5" class="node">
<title>&#45;5</title>
<polygon fill="lightgray" stroke="black" points="392,-265.91 369,-265.91 369,-249.91 392,-249.91 392,-265.91"/>
<text text-anchor="middle" x="380.5" y="-256.31" font-family="Times New Roman,serif" font-size="7.00">&#45;5</text>
</g>
<!-- &#45;6 -->
<g id="node6" class="node">
<title>&#45;6</title>
<polygon fill="lightgray" stroke="black" points="62,-103.4 39,-103.4 39,-87.4 62,-87.4 62,-103.4"/>
<text text-anchor="middle" x="50.5" y="-93.8" font-family="Times New Roman,serif" font-size="7.00">&#45;6</text>
</g>
<!-- &#45;6&#45;&gt;527 -->
<g id="edge6" class="edge">
<title>&#45;6&#45;&gt;527</title>
<path fill="none" stroke="red" stroke-width="0.34" d="M54.34,-87.34C59.4,-78.01 68.61,-61.07 76.47,-46.62"/>
<polygon fill="red" stroke="red" stroke-width="0.34" points="79.67,-48.05 81.37,-37.59 73.52,-44.7 79.67,-48.05"/>
</g>
<!-- &#45;7 -->
<g id="node7" class="node">
<title>&#45;7</title>
<polygon fill="lightgray" stroke="black" points="433,-265.91 410,-265.91 410,-249.91 433,-249.91 433,-265.91"/>
<text text-anchor="middle" x="421.5" y="-256.31" font-family="Times New Roman,serif" font-size="7.00">&#45;7</text>
</g>
<!-- &#45;8 -->
<g id="node8" class="node">
<title>&#45;8</title>
<polygon fill="lightgray" stroke="black" points="474,-265.91 451,-265.91 451,-249.91 474,-249.91 474,-265.91"/>
<text text-anchor="middle" x="462.5" y="-256.31" font-family="Times New Roman,serif" font-size="7.00">&#45;8</text>
</g>
<!-- &#45;9 -->
<g id="node9" class="node">
<title>&#45;9</title>
<polygon fill="lightgray" stroke="black" points="515,-265.91 492,-265.91 492,-249.91 515,-249.91 515,-265.91"/>
<text text-anchor="middle" x="503.5" y="-256.31" font-family="Times New Roman,serif" font-size="7.00">&#45;9</text>
</g>
<!-- &#45;10 -->
<g id="node10" class="node">
<title>&#45;10</title>
<polygon fill="lightgray" stroke="black" points="559.5,-265.91 533.5,-265.91 533.5,-249.91 559.5,-249.91 559.5,-265.91"/>
<text text-anchor="middle" x="546.5" y="-256.31" font-family="Times New Roman,serif" font-size="7.00">&#45;10</text>
</g>
<!-- 2 -->
<g id="node41" class="node">
<title>2</title>
<ellipse fill="lightblue" stroke="black" cx="568.5" cy="-170.99" rx="14.29" ry="14.29"/>
<text text-anchor="middle" x="568.5" y="-169.39" font-family="Times New Roman,serif" font-size="7.00">2</text>
</g>
<!-- &#45;10&#45;&gt;2 -->
<g id="edge2" class="edge">
<title>&#45;10&#45;&gt;2</title>
<path fill="none" stroke="red" stroke-width="0.97" d="M548.38,-249.67C551.49,-237.66 557.84,-213.16 562.57,-194.86"/>
<polygon fill="red" stroke="red" stroke-width="0.97" points="566.02,-195.51 565.14,-184.95 559.25,-193.75 566.02,-195.51"/>
</g>
<!-- &#45;11 -->
<g id="node11" class="node">
<title>&#45;11</title>
<polygon fill="lightgray" stroke="black" points="647.5,-265.91 621.5,-265.91 621.5,-249.91 647.5,-249.91 647.5,-265.91"/>
<text text-anchor="middle" x="634.5" y="-256.31" font-family="Times New Roman,serif" font-size="7.00">&#45;11</text>
</g>
<!-- &#45;12 -->
<g id="node12" class="node">
<title>&#45;12</title>
<polygon fill="lightgray" stroke="black" points="691.5,-265.91 665.5,-265.91 665.5,-249.91 691.5,-249.91 691.5,-265.91"/>
<text text-anchor="middle" x="678.5" y="-256.31" font-family="Times New Roman,serif" font-size="7.00">&#45;12</text>
</g>
<!-- &#45;13 -->
<g id="node13" class="node">
<title>&#45;13</title>
<polygon fill="lightgray" stroke="black" points="603.5,-265.91 577.5,-265.91 577.5,-249.91 603.5,-249.91 603.5,-265.91"/>
<text text-anchor="middle" x="590.5" y="-256.31" font-family="Times New Roman,serif" font-size="7.00">&#45;13</text>
</g>
<!-- &#45;13&#45;&gt;2 -->
<g id="edge3" class="edge">
<title>&#45;13&#45;&gt;2</title>
<path fill="none" stroke="red" stroke-width="0.32" d="M588.62,-249.67C585.51,-237.66 579.16,-213.16 574.43,-194.86"/>
<polygon fill="red" stroke="red" stroke-width="0.32" points="577.75,-193.75 571.86,-184.95 570.98,-195.51 577.75,-193.75"/>
</g>
<!-- &#45;14 -->
<g id="node14" class="node">
<title>&#45;14</title>
<polygon fill="lightgray" stroke="black" points="735.5,-265.91 709.5,-265.91 709.5,-249.91 735.5,-249.91 735.5,-265.91"/>
<text text-anchor="middle" x="722.5" y="-256.31" font-family="Times New Roman,serif" font-size="7.00">&#45;14</text>
</g>
<!-- &#45;15 -->
<g id="node15" class="node">
<title>&#45;15</title>
<polygon fill="lightgray" stroke="black" points="105.5,-265.91 79.5,-265.91 79.5,-249.91 105.5,-249.91 105.5,-265.91"/>
<text text-anchor="middle" x="92.5" y="-256.31" font-family="Times New Roman,serif" font-size="7.00">&#45;15</text>
</g>
<!-- &#45;15&#45;&gt;527 -->
<g id="edge13" class="edge">
<title>&#45;15&#45;&gt;527</title>
<path fill="none" stroke="green" stroke-width="0.23" d="M92.44,-249.84C92.19,-220.13 91.21,-104.37 90.74,-49.7"/>
<polygon fill="green" stroke="green" stroke-width="0.23" points="94.24,-49.59 90.66,-39.62 87.24,-49.65 94.24,-49.59"/>
</g>
<!-- 991 -->
<g id="node45" class="node">
<title>991</title>
<ellipse fill="white" stroke="black" cx="138.5" cy="-170.99" rx="19.6" ry="19.6"/>
<text text-anchor="middle" x="138.5" y="-169.39" font-family="Times New Roman,serif" font-size="7.00">991</text>
</g>
<!-- &#45;15&#45;&gt;991 -->
<g id="edge11" class="edge">
<title>&#45;15&#45;&gt;991</title>
<path fill="none" stroke="red" stroke-width="0.21" d="M96.42,-249.67C102.6,-238.26 114.9,-215.56 124.61,-197.63"/>
<polygon fill="red" stroke="red" stroke-width="0.21" points="127.72,-199.23 129.41,-188.77 121.57,-195.9 127.72,-199.23"/>
</g>
<!-- &#45;16 -->
<g id="node16" class="node">
<title>&#45;16</title>
<polygon fill="lightgray" stroke="black" points="779.5,-265.91 753.5,-265.91 753.5,-249.91 779.5,-249.91 779.5,-265.91"/>
<text text-anchor="middle" x="766.5" y="-256.31" font-family="Times New Roman,serif" font-size="7.00">&#45;16</text>
</g>
<!-- &#45;17 -->
<g id="node17" class="node">
<title>&#45;17</title>
<polygon fill="lightgray" stroke="black" points="823.5,-265.91 797.5,-265.91 797.5,-249.91 823.5,-249.91 823.5,-265.91"/>
<text text-anchor="middle" x="810.5" y="-256.31" font-family="Times New Roman,serif" font-size="7.00">&#45;17</text>
</g>
<!-- &#45;18 -->
<g id="node18" class="node">
<title>&#45;18</title>
<polygon fill="lightgray" stroke="black" points="867.5,-265.91 841.5,-265.91 841.5,-249.91 867.5,-249.91 867.5,-265.91"/>
<text text-anchor="middle" x="854.5" y="-256.31" font-family="Times New Roman,serif" font-size="7.00">&#45;18</text>
</g>
<!-- &#45;19 -->
<g id="node19" class="node">
<title>&#45;19</title>
<polygon fill="lightgray" stroke="black" points="202.5,-103.4 176.5,-103.4 176.5,-87.4 202.5,-87.4 202.5,-103.4"/>
<text text-anchor="middle" x="189.5" y="-93.8" font-family="Times New Roman,serif" font-size="7.00">&#45;19</text>
</g>
<!-- &#45;19&#45;&gt;527 -->
<g id="edge7" class="edge">
<title>&#45;19&#45;&gt;527</title>
<path fill="none" stroke="red" stroke-width="0.28" d="M181.49,-87.26C177.38,-83.67 172.25,-79.31 167.5,-75.6 150.42,-62.26 130.47,-48.1 115.15,-37.52"/>
<polygon fill="red" stroke="red" stroke-width="0.28" points="116.95,-34.51 106.73,-31.73 112.99,-40.28 116.95,-34.51"/>
</g>
<!-- &#45;20 -->
<g id="node20" class="node">
<title>&#45;20</title>
<polygon fill="lightgray" stroke="black" points="911.5,-265.91 885.5,-265.91 885.5,-249.91 911.5,-249.91 911.5,-265.91"/>
<text text-anchor="middle" x="898.5" y="-256.31" font-family="Times New Roman,serif" font-size="7.00">&#45;20</text>
</g>
<!-- &#45;21 -->
<g id="node21" class="node">
<title>&#45;21</title>
<polygon fill="lightgray" stroke="black" points="955.5,-265.91 929.5,-265.91 929.5,-249.91 955.5,-249.91 955.5,-265.91"/>
<text text-anchor="middle" x="942.5" y="-256.31" font-family="Times New Roman,serif" font-size="7.00">&#45;21</text>
</g>
<!-- &#45;22 -->
<g id="node22" class="node">
<title>&#45;22</title>
<polygon fill="lightgray" stroke="black" points="999.5,-265.91 973.5,-265.91 973.5,-249.91 999.5,-249.91 999.5,-265.91"/>
<text text-anchor="middle" x="986.5" y="-256.31" font-family="Times New Roman,serif" font-size="7.00">&#45;22</text>
</g>
<!-- &#45;23 -->
<g id="node23" class="node">
<title>&#45;23</title>
<polygon fill="lightgray" stroke="black" points="1043.5,-265.91 1017.5,-265.91 1017.5,-249.91 1043.5,-249.91 1043.5,-265.91"/>
<text text-anchor="middle" x="1030.5" y="-256.31" font-family="Times New Roman,serif" font-size="7.00">&#45;23</text>
</g>
<!-- &#45;24 -->
<g id="node24" class="node">
<title>&#45;24</title>
<polygon fill="lightgray" stroke="black" points="1087.5,-265.91 1061.5,-265.91 1061.5,-249.91 1087.5,-249.91 1087.5,-265.91"/>
<text text-anchor="middle" x="1074.5" y="-256.31" font-family="Times New Roman,serif" font-size="7.00">&#45;24</text>
</g>
<!-- &#45;25 -->
<g id="node25" class="node">
<title>&#45;25</title>
<polygon fill="lightgray" stroke="black" points="1131.5,-265.91 1105.5,-265.91 1105.5,-249.91 1131.5,-249.91 1131.5,-265.91"/>
<text text-anchor="middle" x="1118.5" y="-256.31" font-family="Times New Roman,serif" font-size="7.00">&#45;25</text>
</g>
<!-- &#45;26 -->
<g id="node26" class="node">
<title>&#45;26</title>
<polygon fill="lightgray" stroke="black" points="1175.5,-265.91 1149.5,-265.91 1149.5,-249.91 1175.5,-249.91 1175.5,-265.91"/>
<text text-anchor="middle" x="1162.5" y="-256.31" font-family="Times New Roman,serif" font-size="7.00">&#45;26</text>
</g>
<!-- &#45;27 -->
<g id="node27" class="node">
<title>&#45;27</title>
<polygon fill="lightgray" stroke="black" points="1219.5,-265.91 1193.5,-265.91 1193.5,-249.91 1219.5,-249.91 1219.5,-265.91"/>
<text text-anchor="middle" x="1206.5" y="-256.31" font-family="Times New Roman,serif" font-size="7.00">&#45;27</text>
</g>
<!-- &#45;28 -->
<g id="node28" class="node">
<title>&#45;28</title>
<polygon fill="lightgray" stroke="black" points="1263.5,-265.91 1237.5,-265.91 1237.5,-249.91 1263.5,-249.91 1263.5,-265.91"/>
<text text-anchor="middle" x="1250.5" y="-256.31" font-family="Times New Roman,serif" font-size="7.00">&#45;28</text>
</g>
<!-- &#45;29 -->
<g id="node29" class="node">
<title>&#45;29</title>
<polygon fill="lightgray" stroke="black" points="1307.5,-265.91 1281.5,-265.91 1281.5,-249.91 1307.5,-249.91 1307.5,-265.91"/>
<text text-anchor="middle" x="1294.5" y="-256.31" font-family="Times New Roman,serif" font-size="7.00">&#45;29</text>
</g>
<!-- &#45;30 -->
<g id="node30" class="node">
<title>&#45;30</title>
<polygon fill="lightgray" stroke="black" points="1351.5,-265.91 1325.5,-265.91 1325.5,-249.91 1351.5,-249.91 1351.5,-265.91"/>
<text text-anchor="middle" x="1338.5" y="-256.31" font-family="Times New Roman,serif" font-size="7.00">&#45;30</text>
</g>
<!-- &#45;31 -->
<g id="node31" class="node">
<title>&#45;31</title>
<polygon fill="lightgray" stroke="black" points="1395.5,-265.91 1369.5,-265.91 1369.5,-249.91 1395.5,-249.91 1395.5,-265.91"/>
<text text-anchor="middle" x="1382.5" y="-256.31" font-family="Times New Roman,serif" font-size="7.00">&#45;31</text>
</g>
<!-- &#45;32 -->
<g id="node32" class="node">
<title>&#45;32</title>
<polygon fill="lightgray" stroke="black" points="175.5,-265.91 149.5,-265.91 149.5,-249.91 175.5,-249.91 175.5,-265.91"/>
<text text-anchor="middle" x="162.5" y="-256.31" font-family="Times New Roman,serif" font-size="7.00">&#45;32</text>
</g>
<!-- 178 -->
<g id="node44" class="node">
<title>178</title>
<ellipse fill="white" stroke="black" cx="138.5" cy="-95.4" rx="19.6" ry="19.6"/>
<text text-anchor="middle" x="138.5" y="-93.8" font-family="Times New Roman,serif" font-size="7.00">178</text>
</g>
<!-- &#45;32&#45;&gt;178 -->
<g id="edge4" class="edge">
<title>&#45;32&#45;&gt;178</title>
<path fill="none" stroke="green" stroke-width="0.18" d="M164.21,-249.84C168.08,-232.66 176.49,-187.39 167.5,-151.2 164.92,-140.81 159.97,-130.22 154.88,-121.16"/>
<polygon fill="green" stroke="green" stroke-width="0.18" points="157.74,-119.13 149.61,-112.33 151.73,-122.71 157.74,-119.13"/>
</g>
<!-- &#45;32&#45;&gt;991 -->
<g id="edge9" class="edge">
<title>&#45;32&#45;&gt;991</title>
<path fill="none" stroke="red" stroke-width="0.19" d="M160.45,-249.67C157.36,-238.74 151.34,-217.44 146.39,-199.9"/>
<polygon fill="red" stroke="red" stroke-width="0.19" points="149.71,-198.79 143.62,-190.12 142.98,-200.7 149.71,-198.79"/>
</g>
<!-- &#45;33 -->
<g id="node33" class="node">
<title>&#45;33</title>
<polygon fill="lightgray" stroke="black" points="1439.5,-265.91 1413.5,-265.91 1413.5,-249.91 1439.5,-249.91 1439.5,-265.91"/>
<text text-anchor="middle" x="1426.5" y="-256.31" font-family="Times New Roman,serif" font-size="7.00">&#45;33</text>
</g>
<!-- &#45;34 -->
<g id="node34" class="node">
<title>&#45;34</title>
<polygon fill="lightgray" stroke="black" points="1483.5,-265.91 1457.5,-265.91 1457.5,-249.91 1483.5,-249.91 1483.5,-265.91"/>
<text text-anchor="middle" x="1470.5" y="-256.31" font-family="Times New Roman,serif" font-size="7.00">&#45;34</text>
</g>
<!-- &#45;35 -->
<g id="node35" class="node">
<title>&#45;35</title>
<polygon fill="lightgray" stroke="black" points="240.5,-178.99 214.5,-178.99 214.5,-162.99 240.5,-162.99 240.5,-178.99"/>
<text text-anchor="middle" x="227.5" y="-169.39" font-family="Times New Roman,serif" font-size="7.00">&#45;35</text>
</g>
<!-- &#45;35&#45;&gt;178 -->
<g id="edge12" class="edge">
<title>&#45;35&#45;&gt;178</title>
<path fill="none" stroke="red" stroke-width="0.2" d="M218.97,-162.94C205.78,-152.03 180,-130.71 161.16,-115.14"/>
<polygon fill="red" stroke="red" stroke-width="0.2" points="163.26,-112.33 153.32,-108.65 158.79,-117.72 163.26,-112.33"/>
</g>
<!-- &#45;36 -->
<g id="node36" class="node">
<title>&#45;36</title>
<polygon fill="lightgray" stroke="black" points="1527.5,-265.91 1501.5,-265.91 1501.5,-249.91 1527.5,-249.91 1527.5,-265.91"/>
<text text-anchor="middle" x="1514.5" y="-256.31" font-family="Times New Roman,serif" font-size="7.00">&#45;36</text>
</g>
<!-- &#45;37 -->
<g id="node37" class="node">
<title>&#45;37</title>
<polygon fill="lightgray" stroke="black" points="1571.5,-265.91 1545.5,-265.91 1545.5,-249.91 1571.5,-249.91 1571.5,-265.91"/>
<text text-anchor="middle" x="1558.5" y="-256.31" font-family="Times New Roman,serif" font-size="7.00">&#45;37</text>
</g>
<!-- &#45;38 -->
<g id="node38" class="node">
<title>&#45;38</title>
<polygon fill="lightgray" stroke="black" points="1615.5,-265.91 1589.5,-265.91 1589.5,-249.91 1615.5,-249.91 1615.5,-265.91"/>
<text text-anchor="middle" x="1602.5" y="-256.31" font-family="Times New Roman,serif" font-size="7.00">&#45;38</text>
</g>
<!-- A XOR B -->
<g id="node39" class="node">
<title>A XOR B</title>
<ellipse fill="lightblue" stroke="black" cx="1664.5" cy="-257.91" rx="31.23" ry="31.23"/>
<text text-anchor="middle" x="1664.5" y="-256.31" font-family="Times New Roman,serif" font-size="7.00">A XOR B</text>
</g>
<!-- 178&#45;&gt;527 -->
<g id="edge5" class="edge">
<title>178&#45;&gt;527</title>
<path fill="none" stroke="red" stroke-width="0.4" d="M128.08,-78.43C121.79,-68.78 113.65,-56.29 106.55,-45.41"/>
<polygon fill="red" stroke="red" stroke-width="0.4" points="109.29,-43.2 100.89,-36.74 103.43,-47.03 109.29,-43.2"/>
</g>
<!-- 991&#45;&gt;178 -->
<g id="edge10" class="edge">
<title>991&#45;&gt;178</title>
<path fill="none" stroke="green" stroke-width="0.32" d="M138.5,-151.04C138.5,-143.23 138.5,-134 138.5,-125.37"/>
<polygon fill="green" stroke="green" stroke-width="0.32" points="142,-125.29 138.5,-115.29 135,-125.29 142,-125.29"/>
</g>
</g>
</svg>
