<?xml version="1.0" encoding="UTF-8" standalone="no"?>
<!DOCTYPE svg PUBLIC "-//W3C//DTD SVG 1.1//EN"
 "http://www.w3.org/Graphics/SVG/1.1/DTD/svg11.dtd">
<!-- Generated by graphviz version 2.46.0 (20210118.1747)
 -->
<!-- Pages: 1 -->
<svg width="1391pt" height="286pt"
 viewBox="0.00 0.00 1391.00 285.71" xmlns="http://www.w3.org/2000/svg" xmlns:xlink="http://www.w3.org/1999/xlink">
<g id="graph0" class="graph" transform="scale(1 1) rotate(0) translate(4 281.71)">
<polygon fill="white" stroke="transparent" points="-4,4 -4,-281.71 1387,-281.71 1387,4 -4,4"/>
<!-- A -->
<g id="node1" class="node">
<title>A</title>
<polygon fill="lightgray" stroke="black" points="22,-265.91 0,-265.91 0,-249.91 22,-249.91 22,-265.91"/>
<text text-anchor="middle" x="11" y="-256.31" font-family="Times New Roman,serif" font-size="7.00">A</text>
</g>
<!-- B -->
<g id="node2" class="node">
<title>B</title>
<polygon fill="lightgray" stroke="black" points="61.5,-265.91 40.5,-265.91 40.5,-249.91 61.5,-249.91 61.5,-265.91"/>
<text text-anchor="middle" x="51" y="-256.31" font-family="Times New Roman,serif" font-size="7.00">B</text>
</g>
<!-- &#45;3 -->
<g id="node3" class="node">
<title>&#45;3</title>
<polygon fill="lightgray" stroke="black" points="102.5,-265.91 79.5,-265.91 79.5,-249.91 102.5,-249.91 102.5,-265.91"/>
<text text-anchor="middle" x="91" y="-256.31" font-family="Times New Roman,serif" font-size="7.00">&#45;3</text>
</g>
<!-- 1 -->
<g id="node40" class="node">
<title>1</title>
<ellipse fill="lightblue" stroke="black" cx="115" cy="-170.99" rx="14.29" ry="14.29"/>
<text text-anchor="middle" x="115" y="-169.39" font-family="Times New Roman,serif" font-size="7.00">1</text>
</g>
<!-- &#45;3&#45;&gt;1 -->
<g id="edge1" class="edge">
<title>&#45;3&#45;&gt;1</title>
<path fill="none" stroke="green" stroke-width="2.72" d="M93.05,-249.67C96.45,-237.61 103.43,-212.93 108.61,-194.61"/>
<polygon fill="green" stroke="green" stroke-width="2.72" points="111.99,-195.53 111.34,-184.95 105.25,-193.62 111.99,-195.53"/>
</g>
<!-- &#45;4 -->
<g id="node4" class="node">
<title>&#45;4</title>
<polygon fill="lightgray" stroke="black" points="240.5,-92.08 217.5,-92.08 217.5,-76.08 240.5,-76.08 240.5,-92.08"/>
<text text-anchor="middle" x="229" y="-82.48" font-family="Times New Roman,serif" font-size="7.00">&#45;4</text>
</g>
<!-- 2 -->
<g id="node41" class="node">
<title>2</title>
<ellipse fill="lightblue" stroke="black" cx="313" cy="-14.14" rx="14.29" ry="14.29"/>
<text text-anchor="middle" x="313" y="-12.54" font-family="Times New Roman,serif" font-size="7.00">2</text>
</g>
<!-- &#45;4&#45;&gt;2 -->
<g id="edge7" class="edge">
<title>&#45;4&#45;&gt;2</title>
<path fill="none" stroke="green" stroke-width="0.73" d="M236.67,-75.99C240.6,-72.42 245.49,-68.05 250,-64.28 264.53,-52.14 281.47,-38.98 294.13,-29.33"/>
<polygon fill="green" stroke="green" stroke-width="0.73" points="296.27,-32.1 302.12,-23.27 292.04,-26.52 296.27,-32.1"/>
</g>
<!-- &#45;5 -->
<g id="node5" class="node">
<title>&#45;5</title>
<polygon fill="lightgray" stroke="black" points="200.5,-265.91 177.5,-265.91 177.5,-249.91 200.5,-249.91 200.5,-265.91"/>
<text text-anchor="middle" x="189" y="-256.31" font-family="Times New Roman,serif" font-size="7.00">&#45;5</text>
</g>
<!-- &#45;6 -->
<g id="node6" class="node">
<title>&#45;6</title>
<polygon fill="lightgray" stroke="black" points="281.5,-92.08 258.5,-92.08 258.5,-76.08 281.5,-76.08 281.5,-92.08"/>
<text text-anchor="middle" x="270" y="-82.48" font-family="Times New Roman,serif" font-size="7.00">&#45;6</text>
</g>
<!-- &#45;6&#45;&gt;2 -->
<g id="edge11" class="edge">
<title>&#45;6&#45;&gt;2</title>
<path fill="none" stroke="red" stroke-width="0.5" stroke-dasharray="1,5" d="M274.44,-76.07C280.44,-66.59 291.38,-49.31 300.08,-35.56"/>
<polygon fill="red" stroke="red" stroke-width="0.5" points="303.26,-37.07 305.65,-26.75 297.35,-33.33 303.26,-37.07"/>
</g>
<!-- &#45;7 -->
<g id="node7" class="node">
<title>&#45;7</title>
<polygon fill="lightgray" stroke="black" points="241.5,-265.91 218.5,-265.91 218.5,-249.91 241.5,-249.91 241.5,-265.91"/>
<text text-anchor="middle" x="230" y="-256.31" font-family="Times New Roman,serif" font-size="7.00">&#45;7</text>
</g>
<!-- &#45;8 -->
<g id="node8" class="node">
<title>&#45;8</title>
<polygon fill="lightgray" stroke="black" points="170.5,-178.99 147.5,-178.99 147.5,-162.99 170.5,-162.99 170.5,-178.99"/>
<text text-anchor="middle" x="159" y="-169.39" font-family="Times New Roman,serif" font-size="7.00">&#45;8</text>
</g>
<!-- 178 -->
<g id="node43" class="node">
<title>178</title>
<ellipse fill="white" stroke="black" cx="180" cy="-84.08" rx="19.6" ry="19.6"/>
<text text-anchor="middle" x="180" y="-82.48" font-family="Times New Roman,serif" font-size="7.00">178</text>
</g>
<!-- &#45;8&#45;&gt;178 -->
<g id="edge4" class="edge">
<title>&#45;8&#45;&gt;178</title>
<path fill="none" stroke="red" stroke-width="0.65" d="M160.79,-162.76C163.48,-151.89 168.7,-130.79 173.02,-113.32"/>
<polygon fill="red" stroke="red" stroke-width="0.65" points="176.43,-114.1 175.43,-103.55 169.63,-112.42 176.43,-114.1"/>
</g>
<!-- &#45;9 -->
<g id="node9" class="node">
<title>&#45;9</title>
<polygon fill="lightgray" stroke="black" points="282.5,-265.91 259.5,-265.91 259.5,-249.91 282.5,-249.91 282.5,-265.91"/>
<text text-anchor="middle" x="271" y="-256.31" font-family="Times New Roman,serif" font-size="7.00">&#45;9</text>
</g>
<!-- &#45;10 -->
<g id="node10" class="node">
<title>&#45;10</title>
<polygon fill="lightgray" stroke="black" points="327,-265.91 301,-265.91 301,-249.91 327,-249.91 327,-265.91"/>
<text text-anchor="middle" x="314" y="-256.31" font-family="Times New Roman,serif" font-size="7.00">&#45;10</text>
</g>
<!-- &#45;11 -->
<g id="node11" class="node">
<title>&#45;11</title>
<polygon fill="lightgray" stroke="black" points="371,-265.91 345,-265.91 345,-249.91 371,-249.91 371,-265.91"/>
<text text-anchor="middle" x="358" y="-256.31" font-family="Times New Roman,serif" font-size="7.00">&#45;11</text>
</g>
<!-- &#45;12 -->
<g id="node12" class="node">
<title>&#45;12</title>
<polygon fill="lightgray" stroke="black" points="415,-265.91 389,-265.91 389,-249.91 415,-249.91 415,-265.91"/>
<text text-anchor="middle" x="402" y="-256.31" font-family="Times New Roman,serif" font-size="7.00">&#45;12</text>
</g>
<!-- &#45;13 -->
<g id="node13" class="node">
<title>&#45;13</title>
<polygon fill="lightgray" stroke="black" points="326,-92.08 300,-92.08 300,-76.08 326,-76.08 326,-92.08"/>
<text text-anchor="middle" x="313" y="-82.48" font-family="Times New Roman,serif" font-size="7.00">&#45;13</text>
</g>
<!-- &#45;13&#45;&gt;2 -->
<g id="edge3" class="edge">
<title>&#45;13&#45;&gt;2</title>
<path fill="none" stroke="red" stroke-width="0.5" d="M313,-76.07C313,-67.33 313,-51.94 313,-38.82"/>
<polygon fill="red" stroke="red" stroke-width="0.5" points="316.5,-38.52 313,-28.52 309.5,-38.52 316.5,-38.52"/>
</g>
<!-- &#45;14 -->
<g id="node14" class="node">
<title>&#45;14</title>
<polygon fill="lightgray" stroke="black" points="459,-265.91 433,-265.91 433,-249.91 459,-249.91 459,-265.91"/>
<text text-anchor="middle" x="446" y="-256.31" font-family="Times New Roman,serif" font-size="7.00">&#45;14</text>
</g>
<!-- &#45;15 -->
<g id="node15" class="node">
<title>&#45;15</title>
<polygon fill="lightgray" stroke="black" points="503,-265.91 477,-265.91 477,-249.91 503,-249.91 503,-265.91"/>
<text text-anchor="middle" x="490" y="-256.31" font-family="Times New Roman,serif" font-size="7.00">&#45;15</text>
</g>
<!-- &#45;16 -->
<g id="node16" class="node">
<title>&#45;16</title>
<polygon fill="lightgray" stroke="black" points="547,-265.91 521,-265.91 521,-249.91 547,-249.91 547,-265.91"/>
<text text-anchor="middle" x="534" y="-256.31" font-family="Times New Roman,serif" font-size="7.00">&#45;16</text>
</g>
<!-- &#45;17 -->
<g id="node17" class="node">
<title>&#45;17</title>
<polygon fill="lightgray" stroke="black" points="591,-265.91 565,-265.91 565,-249.91 591,-249.91 591,-265.91"/>
<text text-anchor="middle" x="578" y="-256.31" font-family="Times New Roman,serif" font-size="7.00">&#45;17</text>
</g>
<!-- &#45;18 -->
<g id="node18" class="node">
<title>&#45;18</title>
<polygon fill="lightgray" stroke="black" points="635,-265.91 609,-265.91 609,-249.91 635,-249.91 635,-265.91"/>
<text text-anchor="middle" x="622" y="-256.31" font-family="Times New Roman,serif" font-size="7.00">&#45;18</text>
</g>
<!-- &#45;19 -->
<g id="node19" class="node">
<title>&#45;19</title>
<polygon fill="lightgray" stroke="black" points="370,-92.08 344,-92.08 344,-76.08 370,-76.08 370,-92.08"/>
<text text-anchor="middle" x="357" y="-82.48" font-family="Times New Roman,serif" font-size="7.00">&#45;19</text>
</g>
<!-- &#45;19&#45;&gt;2 -->
<g id="edge10" class="edge">
<title>&#45;19&#45;&gt;2</title>
<path fill="none" stroke="red" stroke-width="0.18" d="M352.46,-76.07C346.26,-66.5 334.91,-48.97 325.97,-35.16"/>
<polygon fill="red" stroke="red" stroke-width="0.18" points="328.89,-33.24 320.52,-26.75 323.02,-37.05 328.89,-33.24"/>
</g>
<!-- &#45;20 -->
<g id="node20" class="node">
<title>&#45;20</title>
<polygon fill="lightgray" stroke="black" points="679,-265.91 653,-265.91 653,-249.91 679,-249.91 679,-265.91"/>
<text text-anchor="middle" x="666" y="-256.31" font-family="Times New Roman,serif" font-size="7.00">&#45;20</text>
</g>
<!-- &#45;21 -->
<g id="node21" class="node">
<title>&#45;21</title>
<polygon fill="lightgray" stroke="black" points="723,-265.91 697,-265.91 697,-249.91 723,-249.91 723,-265.91"/>
<text text-anchor="middle" x="710" y="-256.31" font-family="Times New Roman,serif" font-size="7.00">&#45;21</text>
</g>
<!-- &#45;22 -->
<g id="node22" class="node">
<title>&#45;22</title>
<polygon fill="lightgray" stroke="black" points="215,-178.99 189,-178.99 189,-162.99 215,-162.99 215,-178.99"/>
<text text-anchor="middle" x="202" y="-169.39" font-family="Times New Roman,serif" font-size="7.00">&#45;22</text>
</g>
<!-- &#45;22&#45;&gt;178 -->
<g id="edge6" class="edge">
<title>&#45;22&#45;&gt;178</title>
<path fill="none" stroke="green" stroke-width="0.11" stroke-dasharray="1,5" d="M200.12,-162.76C197.31,-151.89 191.84,-130.79 187.31,-113.32"/>
<polygon fill="green" stroke="green" stroke-width="0.11" points="190.68,-112.36 184.79,-103.55 183.91,-114.11 190.68,-112.36"/>
</g>
<!-- &#45;23 -->
<g id="node23" class="node">
<title>&#45;23</title>
<polygon fill="lightgray" stroke="black" points="767,-265.91 741,-265.91 741,-249.91 767,-249.91 767,-265.91"/>
<text text-anchor="middle" x="754" y="-256.31" font-family="Times New Roman,serif" font-size="7.00">&#45;23</text>
</g>
<!-- &#45;24 -->
<g id="node24" class="node">
<title>&#45;24</title>
<polygon fill="lightgray" stroke="black" points="811,-265.91 785,-265.91 785,-249.91 811,-249.91 811,-265.91"/>
<text text-anchor="middle" x="798" y="-256.31" font-family="Times New Roman,serif" font-size="7.00">&#45;24</text>
</g>
<!-- &#45;25 -->
<g id="node25" class="node">
<title>&#45;25</title>
<polygon fill="lightgray" stroke="black" points="855,-265.91 829,-265.91 829,-249.91 855,-249.91 855,-265.91"/>
<text text-anchor="middle" x="842" y="-256.31" font-family="Times New Roman,serif" font-size="7.00">&#45;25</text>
</g>
<!-- &#45;26 -->
<g id="node26" class="node">
<title>&#45;26</title>
<polygon fill="lightgray" stroke="black" points="899,-265.91 873,-265.91 873,-249.91 899,-249.91 899,-265.91"/>
<text text-anchor="middle" x="886" y="-256.31" font-family="Times New Roman,serif" font-size="7.00">&#45;26</text>
</g>
<!-- &#45;27 -->
<g id="node27" class="node">
<title>&#45;27</title>
<polygon fill="lightgray" stroke="black" points="943,-265.91 917,-265.91 917,-249.91 943,-249.91 943,-265.91"/>
<text text-anchor="middle" x="930" y="-256.31" font-family="Times New Roman,serif" font-size="7.00">&#45;27</text>
</g>
<!-- &#45;28 -->
<g id="node28" class="node">
<title>&#45;28</title>
<polygon fill="lightgray" stroke="black" points="414,-92.08 388,-92.08 388,-76.08 414,-76.08 414,-92.08"/>
<text text-anchor="middle" x="401" y="-82.48" font-family="Times New Roman,serif" font-size="7.00">&#45;28</text>
</g>
<!-- &#45;28&#45;&gt;2 -->
<g id="edge12" class="edge">
<title>&#45;28&#45;&gt;2</title>
<path fill="none" stroke="red" stroke-width="0.2" d="M392.96,-75.99C388.84,-72.41 383.71,-68.04 379,-64.28 363.76,-52.12 346.01,-38.96 332.75,-29.32"/>
<polygon fill="red" stroke="red" stroke-width="0.2" points="334.54,-26.29 324.39,-23.26 330.44,-31.96 334.54,-26.29"/>
</g>
<!-- &#45;29 -->
<g id="node29" class="node">
<title>&#45;29</title>
<polygon fill="lightgray" stroke="black" points="987,-265.91 961,-265.91 961,-249.91 987,-249.91 987,-265.91"/>
<text text-anchor="middle" x="974" y="-256.31" font-family="Times New Roman,serif" font-size="7.00">&#45;29</text>
</g>
<!-- &#45;30 -->
<g id="node30" class="node">
<title>&#45;30</title>
<polygon fill="lightgray" stroke="black" points="1031,-265.91 1005,-265.91 1005,-249.91 1031,-249.91 1031,-265.91"/>
<text text-anchor="middle" x="1018" y="-256.31" font-family="Times New Roman,serif" font-size="7.00">&#45;30</text>
</g>
<!-- &#45;31 -->
<g id="node31" class="node">
<title>&#45;31</title>
<polygon fill="lightgray" stroke="black" points="1075,-265.91 1049,-265.91 1049,-249.91 1075,-249.91 1075,-265.91"/>
<text text-anchor="middle" x="1062" y="-256.31" font-family="Times New Roman,serif" font-size="7.00">&#45;31</text>
</g>
<!-- &#45;32 -->
<g id="node32" class="node">
<title>&#45;32</title>
<polygon fill="lightgray" stroke="black" points="1119,-265.91 1093,-265.91 1093,-249.91 1119,-249.91 1119,-265.91"/>
<text text-anchor="middle" x="1106" y="-256.31" font-family="Times New Roman,serif" font-size="7.00">&#45;32</text>
</g>
<!-- &#45;33 -->
<g id="node33" class="node">
<title>&#45;33</title>
<polygon fill="lightgray" stroke="black" points="1163,-265.91 1137,-265.91 1137,-249.91 1163,-249.91 1163,-265.91"/>
<text text-anchor="middle" x="1150" y="-256.31" font-family="Times New Roman,serif" font-size="7.00">&#45;33</text>
</g>
<!-- &#45;34 -->
<g id="node34" class="node">
<title>&#45;34</title>
<polygon fill="lightgray" stroke="black" points="1207,-265.91 1181,-265.91 1181,-249.91 1207,-249.91 1207,-265.91"/>
<text text-anchor="middle" x="1194" y="-256.31" font-family="Times New Roman,serif" font-size="7.00">&#45;34</text>
</g>
<!-- &#45;35 -->
<g id="node35" class="node">
<title>&#45;35</title>
<polygon fill="lightgray" stroke="black" points="1251,-265.91 1225,-265.91 1225,-249.91 1251,-249.91 1251,-265.91"/>
<text text-anchor="middle" x="1238" y="-256.31" font-family="Times New Roman,serif" font-size="7.00">&#45;35</text>
</g>
<!-- &#45;36 -->
<g id="node36" class="node">
<title>&#45;36</title>
<polygon fill="lightgray" stroke="black" points="1295,-265.91 1269,-265.91 1269,-249.91 1295,-249.91 1295,-265.91"/>
<text text-anchor="middle" x="1282" y="-256.31" font-family="Times New Roman,serif" font-size="7.00">&#45;36</text>
</g>
<!-- &#45;37 -->
<g id="node37" class="node">
<title>&#45;37</title>
<polygon fill="lightgray" stroke="black" points="1339,-265.91 1313,-265.91 1313,-249.91 1339,-249.91 1339,-265.91"/>
<text text-anchor="middle" x="1326" y="-256.31" font-family="Times New Roman,serif" font-size="7.00">&#45;37</text>
</g>
<!-- &#45;38 -->
<g id="node38" class="node">
<title>&#45;38</title>
<polygon fill="lightgray" stroke="black" points="1383,-265.91 1357,-265.91 1357,-249.91 1383,-249.91 1383,-265.91"/>
<text text-anchor="middle" x="1370" y="-256.31" font-family="Times New Roman,serif" font-size="7.00">&#45;38</text>
</g>
<!-- A XOR B -->
<g id="node39" class="node">
<title>A XOR B</title>
<ellipse fill="lightblue" stroke="black" cx="264" cy="-170.99" rx="31.23" ry="31.23"/>
<text text-anchor="middle" x="264" y="-169.39" font-family="Times New Roman,serif" font-size="7.00">A XOR B</text>
</g>
<!-- A XOR B&#45;&gt;178 -->
<g id="edge13" class="edge">
<title>A XOR B&#45;&gt;178</title>
<path fill="none" stroke="red" stroke-width="0.33" d="M242.37,-148.13C229.57,-135.19 213.43,-118.88 200.78,-106.09"/>
<polygon fill="red" stroke="red" stroke-width="0.33" points="202.94,-103.3 193.42,-98.65 197.96,-108.22 202.94,-103.3"/>
</g>
<!-- 1&#45;&gt;178 -->
<g id="edge8" class="edge">
<title>1&#45;&gt;178</title>
<path fill="none" stroke="red" stroke-width="0.38" d="M123.23,-159.24C132.95,-146.55 149.39,-125.07 162.08,-108.49"/>
<polygon fill="red" stroke="red" stroke-width="0.38" points="165.02,-110.4 168.32,-100.34 159.47,-106.15 165.02,-110.4"/>
</g>
<!-- 613 -->
<g id="node42" class="node">
<title>613</title>
<ellipse fill="white" stroke="black" cx="140" cy="-257.91" rx="19.6" ry="19.6"/>
<text text-anchor="middle" x="140" y="-256.31" font-family="Times New Roman,serif" font-size="7.00">613</text>
</g>
<!-- 613&#45;&gt;1 -->
<g id="edge5" class="edge">
<title>613&#45;&gt;1</title>
<path fill="none" stroke="red" stroke-width="0.39" d="M134.58,-238.48C130.78,-225.58 125.68,-208.26 121.63,-194.53"/>
<polygon fill="red" stroke="red" stroke-width="0.39" points="124.97,-193.47 118.79,-184.87 118.26,-195.45 124.97,-193.47"/>
</g>
<!-- 178&#45;&gt;2 -->
<g id="edge2" class="edge">
<title>178&#45;&gt;2</title>
<path fill="none" stroke="green" stroke-width="0.45" d="M196.02,-72.15C200.18,-69.47 204.7,-66.68 209,-64.28 236.56,-48.93 269.71,-33.81 291.06,-24.49"/>
<polygon fill="green" stroke="green" stroke-width="0.45" points="292.45,-27.7 300.24,-20.51 289.67,-21.27 292.45,-27.7"/>
</g>
<!-- 955 -->
<g id="node44" class="node">
<title>955</title>
<ellipse fill="white" stroke="black" cx="452" cy="-84.08" rx="19.6" ry="19.6"/>
<text text-anchor="middle" x="452" y="-82.48" font-family="Times New Roman,serif" font-size="7.00">955</text>
</g>
<!-- 955&#45;&gt;2 -->
<g id="edge9" class="edge">
<title>955&#45;&gt;2</title>
<path fill="none" stroke="red" stroke-width="0.47" d="M436.01,-72.09C431.85,-69.41 427.32,-66.63 423,-64.28 393.51,-48.27 357.78,-33.03 335.22,-23.88"/>
<polygon fill="red" stroke="red" stroke-width="0.47" points="336.43,-20.59 325.84,-20.12 333.83,-27.09 336.43,-20.59"/>
</g>
</g>
</svg>
