<?xml version="1.0" encoding="UTF-8" standalone="no"?>
<!DOCTYPE svg PUBLIC "-//W3C//DTD SVG 1.1//EN"
 "http://www.w3.org/Graphics/SVG/1.1/DTD/svg11.dtd">
<!-- Generated by graphviz version 2.46.0 (20210118.1747)
 -->
<!-- Pages: 1 -->
<svg width="1652pt" height="303pt"
 viewBox="0.00 0.00 1651.61 302.68" xmlns="http://www.w3.org/2000/svg" xmlns:xlink="http://www.w3.org/1999/xlink">
<g id="graph0" class="graph" transform="scale(1 1) rotate(0) translate(4 298.68)">
<polygon fill="white" stroke="transparent" points="-4,4 -4,-298.68 1647.61,-298.68 1647.61,4 -4,4"/>
<!-- A -->
<g id="node1" class="node">
<title>A</title>
<polygon fill="lightgray" stroke="black" points="386.5,-271.56 364.5,-271.56 364.5,-255.56 386.5,-255.56 386.5,-271.56"/>
<text text-anchor="middle" x="375.5" y="-261.96" font-family="Times New Roman,serif" font-size="7.00">A</text>
</g>
<!-- 1319 -->
<g id="node43" class="node">
<title>1319</title>
<ellipse fill="white" stroke="black" cx="328.5" cy="-173.82" rx="22.76" ry="22.76"/>
<text text-anchor="middle" x="328.5" y="-172.22" font-family="Times New Roman,serif" font-size="7.00">1319</text>
</g>
<!-- A&#45;&gt;1319 -->
<g id="edge11" class="edge">
<title>A&#45;&gt;1319</title>
<path fill="none" stroke="red" stroke-width="0.35" d="M371.65,-255.38C365.58,-244.04 353.43,-221.37 343.57,-202.96"/>
<polygon fill="red" stroke="red" stroke-width="0.35" points="346.62,-201.23 338.81,-194.07 340.45,-204.54 346.62,-201.23"/>
</g>
<!-- 624 -->
<g id="node44" class="node">
<title>624</title>
<ellipse fill="white" stroke="black" cx="419.5" cy="-95.4" rx="19.6" ry="19.6"/>
<text text-anchor="middle" x="419.5" y="-93.8" font-family="Times New Roman,serif" font-size="7.00">624</text>
</g>
<!-- A&#45;&gt;624 -->
<g id="edge4" class="edge">
<title>A&#45;&gt;624</title>
<path fill="none" stroke="red" stroke-width="0.12" d="M376.56,-255.43C379.3,-237.62 387.18,-189.85 398.5,-151.2 401.2,-141.96 404.77,-132.08 408.2,-123.29"/>
<polygon fill="red" stroke="red" stroke-width="0.12" points="411.48,-124.5 411.95,-113.92 404.98,-121.9 411.48,-124.5"/>
</g>
<!-- B -->
<g id="node2" class="node">
<title>B</title>
<polygon fill="lightgray" stroke="black" points="496,-271.56 475,-271.56 475,-255.56 496,-255.56 496,-271.56"/>
<text text-anchor="middle" x="485.5" y="-261.96" font-family="Times New Roman,serif" font-size="7.00">B</text>
</g>
<!-- &#45;3 -->
<g id="node3" class="node">
<title>&#45;3</title>
<polygon fill="lightgray" stroke="black" points="607,-271.56 584,-271.56 584,-255.56 607,-255.56 607,-271.56"/>
<text text-anchor="middle" x="595.5" y="-261.96" font-family="Times New Roman,serif" font-size="7.00">&#45;3</text>
</g>
<!-- 1 -->
<g id="node40" class="node">
<title>1</title>
<ellipse fill="lightblue" stroke="black" cx="595.5" cy="-173.82" rx="14.29" ry="14.29"/>
<text text-anchor="middle" x="595.5" y="-172.22" font-family="Times New Roman,serif" font-size="7.00">1</text>
</g>
<!-- &#45;3&#45;&gt;1 -->
<g id="edge1" class="edge">
<title>&#45;3&#45;&gt;1</title>
<path fill="none" stroke="green" stroke-width="0.56" d="M595.5,-255.38C595.5,-243.01 595.5,-217.16 595.5,-198.06"/>
<polygon fill="green" stroke="green" stroke-width="0.56" points="599,-198.01 595.5,-188.01 592,-198.01 599,-198.01"/>
</g>
<!-- &#45;4 -->
<g id="node4" class="node">
<title>&#45;4</title>
<polygon fill="lightgray" stroke="black" points="648,-271.56 625,-271.56 625,-255.56 648,-255.56 648,-271.56"/>
<text text-anchor="middle" x="636.5" y="-261.96" font-family="Times New Roman,serif" font-size="7.00">&#45;4</text>
</g>
<!-- &#45;5 -->
<g id="node5" class="node">
<title>&#45;5</title>
<polygon fill="lightgray" stroke="black" points="689,-271.56 666,-271.56 666,-255.56 689,-255.56 689,-271.56"/>
<text text-anchor="middle" x="677.5" y="-261.96" font-family="Times New Roman,serif" font-size="7.00">&#45;5</text>
</g>
<!-- &#45;6 -->
<g id="node6" class="node">
<title>&#45;6</title>
<polygon fill="lightgray" stroke="black" points="23,-181.82 0,-181.82 0,-165.82 23,-165.82 23,-181.82"/>
<text text-anchor="middle" x="11.5" y="-172.22" font-family="Times New Roman,serif" font-size="7.00">&#45;6</text>
</g>
<!-- 178 -->
<g id="node45" class="node">
<title>178</title>
<ellipse fill="white" stroke="black" cx="164.5" cy="-95.4" rx="19.6" ry="19.6"/>
<text text-anchor="middle" x="164.5" y="-93.8" font-family="Times New Roman,serif" font-size="7.00">178</text>
</g>
<!-- &#45;6&#45;&gt;178 -->
<g id="edge19" class="edge">
<title>&#45;6&#45;&gt;178</title>
<path fill="none" stroke="green" stroke-width="0.41" d="M17.14,-165.66C21.05,-161.05 26.61,-155.2 32.5,-151.2 64.89,-129.19 107.52,-113.49 135.45,-104.68"/>
<polygon fill="green" stroke="green" stroke-width="0.41" points="136.84,-107.92 145.38,-101.65 134.79,-101.22 136.84,-107.92"/>
</g>
<!-- &#45;7 -->
<g id="node7" class="node">
<title>&#45;7</title>
<polygon fill="lightgray" stroke="black" points="431,-181.82 408,-181.82 408,-165.82 431,-165.82 431,-181.82"/>
<text text-anchor="middle" x="419.5" y="-172.22" font-family="Times New Roman,serif" font-size="7.00">&#45;7</text>
</g>
<!-- &#45;7&#45;&gt;624 -->
<g id="edge18" class="edge">
<title>&#45;7&#45;&gt;624</title>
<path fill="none" stroke="green" stroke-width="0.11" d="M419.5,-165.77C419.5,-156.61 419.5,-140.06 419.5,-125.43"/>
<polygon fill="green" stroke="green" stroke-width="0.11" points="423,-125.24 419.5,-115.24 416,-125.24 423,-125.24"/>
</g>
<!-- &#45;8 -->
<g id="node8" class="node">
<title>&#45;8</title>
<polygon fill="lightgray" stroke="black" points="730,-271.56 707,-271.56 707,-255.56 730,-255.56 730,-271.56"/>
<text text-anchor="middle" x="718.5" y="-261.96" font-family="Times New Roman,serif" font-size="7.00">&#45;8</text>
</g>
<!-- &#45;9 -->
<g id="node9" class="node">
<title>&#45;9</title>
<polygon fill="lightgray" stroke="black" points="771,-271.56 748,-271.56 748,-255.56 771,-255.56 771,-271.56"/>
<text text-anchor="middle" x="759.5" y="-261.96" font-family="Times New Roman,serif" font-size="7.00">&#45;9</text>
</g>
<!-- &#45;10 -->
<g id="node10" class="node">
<title>&#45;10</title>
<polygon fill="lightgray" stroke="black" points="815.5,-271.56 789.5,-271.56 789.5,-255.56 815.5,-255.56 815.5,-271.56"/>
<text text-anchor="middle" x="802.5" y="-261.96" font-family="Times New Roman,serif" font-size="7.00">&#45;10</text>
</g>
<!-- 2 -->
<g id="node41" class="node">
<title>2</title>
<ellipse fill="lightblue" stroke="black" cx="824.5" cy="-173.82" rx="14.29" ry="14.29"/>
<text text-anchor="middle" x="824.5" y="-172.22" font-family="Times New Roman,serif" font-size="7.00">2</text>
</g>
<!-- &#45;10&#45;&gt;2 -->
<g id="edge15" class="edge">
<title>&#45;10&#45;&gt;2</title>
<path fill="none" stroke="green" stroke-width="0.61" d="M804.3,-255.38C807.43,-242.88 814.02,-216.63 818.82,-197.48"/>
<polygon fill="green" stroke="green" stroke-width="0.61" points="822.23,-198.25 821.27,-187.7 815.44,-196.55 822.23,-198.25"/>
</g>
<!-- &#45;11 -->
<g id="node11" class="node">
<title>&#45;11</title>
<polygon fill="lightgray" stroke="black" points="903.5,-271.56 877.5,-271.56 877.5,-255.56 903.5,-255.56 903.5,-271.56"/>
<text text-anchor="middle" x="890.5" y="-261.96" font-family="Times New Roman,serif" font-size="7.00">&#45;11</text>
</g>
<!-- &#45;12 -->
<g id="node12" class="node">
<title>&#45;12</title>
<polygon fill="lightgray" stroke="black" points="947.5,-271.56 921.5,-271.56 921.5,-255.56 947.5,-255.56 947.5,-271.56"/>
<text text-anchor="middle" x="934.5" y="-261.96" font-family="Times New Roman,serif" font-size="7.00">&#45;12</text>
</g>
<!-- &#45;13 -->
<g id="node13" class="node">
<title>&#45;13</title>
<polygon fill="lightgray" stroke="black" points="859.5,-271.56 833.5,-271.56 833.5,-255.56 859.5,-255.56 859.5,-271.56"/>
<text text-anchor="middle" x="846.5" y="-261.96" font-family="Times New Roman,serif" font-size="7.00">&#45;13</text>
</g>
<!-- &#45;13&#45;&gt;2 -->
<g id="edge2" class="edge">
<title>&#45;13&#45;&gt;2</title>
<path fill="none" stroke="red" stroke-width="1.3" d="M844.7,-255.38C841.57,-242.88 834.98,-216.63 830.18,-197.48"/>
<polygon fill="red" stroke="red" stroke-width="1.3" points="833.56,-196.55 827.73,-187.7 826.77,-198.25 833.56,-196.55"/>
</g>
<!-- &#45;14 -->
<g id="node14" class="node">
<title>&#45;14</title>
<polygon fill="lightgray" stroke="black" points="67.5,-181.82 41.5,-181.82 41.5,-165.82 67.5,-165.82 67.5,-181.82"/>
<text text-anchor="middle" x="54.5" y="-172.22" font-family="Times New Roman,serif" font-size="7.00">&#45;14</text>
</g>
<!-- &#45;14&#45;&gt;178 -->
<g id="edge16" class="edge">
<title>&#45;14&#45;&gt;178</title>
<path fill="none" stroke="green" stroke-width="0.11" d="M61.07,-165.59C65.27,-161.18 70.94,-155.57 76.5,-151.2 96.13,-135.74 120.34,-120.94 138.4,-110.62"/>
<polygon fill="green" stroke="green" stroke-width="0.11" points="140.23,-113.61 147.22,-105.65 136.79,-107.51 140.23,-113.61"/>
</g>
<!-- &#45;15 -->
<g id="node15" class="node">
<title>&#45;15</title>
<polygon fill="lightgray" stroke="black" points="111.5,-181.82 85.5,-181.82 85.5,-165.82 111.5,-165.82 111.5,-181.82"/>
<text text-anchor="middle" x="98.5" y="-172.22" font-family="Times New Roman,serif" font-size="7.00">&#45;15</text>
</g>
<!-- &#45;15&#45;&gt;178 -->
<g id="edge5" class="edge">
<title>&#45;15&#45;&gt;178</title>
<path fill="none" stroke="green" stroke-width="0.34" stroke-dasharray="1,5" d="M104.59,-165.77C113.72,-155.2 131.36,-134.78 145.14,-118.82"/>
<polygon fill="green" stroke="green" stroke-width="0.34" points="148.04,-120.81 151.93,-110.95 142.75,-116.23 148.04,-120.81"/>
</g>
<!-- &#45;16 -->
<g id="node16" class="node">
<title>&#45;16</title>
<polygon fill="lightgray" stroke="black" points="991.5,-271.56 965.5,-271.56 965.5,-255.56 991.5,-255.56 991.5,-271.56"/>
<text text-anchor="middle" x="978.5" y="-261.96" font-family="Times New Roman,serif" font-size="7.00">&#45;16</text>
</g>
<!-- &#45;17 -->
<g id="node17" class="node">
<title>&#45;17</title>
<polygon fill="lightgray" stroke="black" points="1035.5,-271.56 1009.5,-271.56 1009.5,-255.56 1035.5,-255.56 1035.5,-271.56"/>
<text text-anchor="middle" x="1022.5" y="-261.96" font-family="Times New Roman,serif" font-size="7.00">&#45;17</text>
</g>
<!-- &#45;18 -->
<g id="node18" class="node">
<title>&#45;18</title>
<polygon fill="lightgray" stroke="black" points="475.5,-181.82 449.5,-181.82 449.5,-165.82 475.5,-165.82 475.5,-181.82"/>
<text text-anchor="middle" x="462.5" y="-172.22" font-family="Times New Roman,serif" font-size="7.00">&#45;18</text>
</g>
<!-- &#45;18&#45;&gt;624 -->
<g id="edge17" class="edge">
<title>&#45;18&#45;&gt;624</title>
<path fill="none" stroke="green" stroke-width="0.28" d="M458.53,-165.77C452.99,-155.92 442.63,-137.51 433.98,-122.13"/>
<polygon fill="green" stroke="green" stroke-width="0.28" points="436.82,-120.05 428.87,-113.05 430.72,-123.48 436.82,-120.05"/>
</g>
<!-- &#45;19 -->
<g id="node19" class="node">
<title>&#45;19</title>
<polygon fill="lightgray" stroke="black" points="1079.5,-271.56 1053.5,-271.56 1053.5,-255.56 1079.5,-255.56 1079.5,-271.56"/>
<text text-anchor="middle" x="1066.5" y="-261.96" font-family="Times New Roman,serif" font-size="7.00">&#45;19</text>
</g>
<!-- &#45;20 -->
<g id="node20" class="node">
<title>&#45;20</title>
<polygon fill="lightgray" stroke="black" points="155.5,-181.82 129.5,-181.82 129.5,-165.82 155.5,-165.82 155.5,-181.82"/>
<text text-anchor="middle" x="142.5" y="-172.22" font-family="Times New Roman,serif" font-size="7.00">&#45;20</text>
</g>
<!-- &#45;20&#45;&gt;178 -->
<g id="edge10" class="edge">
<title>&#45;20&#45;&gt;178</title>
<path fill="none" stroke="red" stroke-width="0.61" d="M144.53,-165.77C147.23,-156.4 152.15,-139.3 156.43,-124.43"/>
<polygon fill="red" stroke="red" stroke-width="0.61" points="159.86,-125.18 159.26,-114.61 153.13,-123.25 159.86,-125.18"/>
</g>
<!-- &#45;21 -->
<g id="node21" class="node">
<title>&#45;21</title>
<polygon fill="lightgray" stroke="black" points="519.5,-181.82 493.5,-181.82 493.5,-165.82 519.5,-165.82 519.5,-181.82"/>
<text text-anchor="middle" x="506.5" y="-172.22" font-family="Times New Roman,serif" font-size="7.00">&#45;21</text>
</g>
<!-- &#45;21&#45;&gt;624 -->
<g id="edge9" class="edge">
<title>&#45;21&#45;&gt;624</title>
<path fill="none" stroke="green" stroke-width="0.69" d="M499.3,-165.47C495.07,-161.22 489.57,-155.81 484.5,-151.2 470.8,-138.72 454.91,-125.31 442.27,-114.87"/>
<polygon fill="green" stroke="green" stroke-width="0.69" points="444.44,-112.13 434.49,-108.49 440,-117.54 444.44,-112.13"/>
</g>
<!-- &#45;22 -->
<g id="node22" class="node">
<title>&#45;22</title>
<polygon fill="lightgray" stroke="black" points="199.5,-181.82 173.5,-181.82 173.5,-165.82 199.5,-165.82 199.5,-181.82"/>
<text text-anchor="middle" x="186.5" y="-172.22" font-family="Times New Roman,serif" font-size="7.00">&#45;22</text>
</g>
<!-- &#45;22&#45;&gt;178 -->
<g id="edge21" class="edge">
<title>&#45;22&#45;&gt;178</title>
<path fill="none" stroke="red" stroke-width="0.26" d="M184.47,-165.77C181.77,-156.4 176.85,-139.3 172.57,-124.43"/>
<polygon fill="red" stroke="red" stroke-width="0.26" points="175.87,-123.25 169.74,-114.61 169.14,-125.18 175.87,-123.25"/>
</g>
<!-- &#45;23 -->
<g id="node23" class="node">
<title>&#45;23</title>
<polygon fill="lightgray" stroke="black" points="1123.5,-271.56 1097.5,-271.56 1097.5,-255.56 1123.5,-255.56 1123.5,-271.56"/>
<text text-anchor="middle" x="1110.5" y="-261.96" font-family="Times New Roman,serif" font-size="7.00">&#45;23</text>
</g>
<!-- &#45;24 -->
<g id="node24" class="node">
<title>&#45;24</title>
<polygon fill="lightgray" stroke="black" points="1167.5,-271.56 1141.5,-271.56 1141.5,-255.56 1167.5,-255.56 1167.5,-271.56"/>
<text text-anchor="middle" x="1154.5" y="-261.96" font-family="Times New Roman,serif" font-size="7.00">&#45;24</text>
</g>
<!-- &#45;25 -->
<g id="node25" class="node">
<title>&#45;25</title>
<polygon fill="lightgray" stroke="black" points="243.5,-181.82 217.5,-181.82 217.5,-165.82 243.5,-165.82 243.5,-181.82"/>
<text text-anchor="middle" x="230.5" y="-172.22" font-family="Times New Roman,serif" font-size="7.00">&#45;25</text>
</g>
<!-- &#45;25&#45;&gt;178 -->
<g id="edge6" class="edge">
<title>&#45;25&#45;&gt;178</title>
<path fill="none" stroke="red" stroke-width="0.32" d="M224.41,-165.77C215.28,-155.2 197.64,-134.78 183.86,-118.82"/>
<polygon fill="red" stroke="red" stroke-width="0.32" points="186.25,-116.23 177.07,-110.95 180.96,-120.81 186.25,-116.23"/>
</g>
<!-- &#45;26 -->
<g id="node26" class="node">
<title>&#45;26</title>
<polygon fill="lightgray" stroke="black" points="1211.5,-271.56 1185.5,-271.56 1185.5,-255.56 1211.5,-255.56 1211.5,-271.56"/>
<text text-anchor="middle" x="1198.5" y="-261.96" font-family="Times New Roman,serif" font-size="7.00">&#45;26</text>
</g>
<!-- &#45;27 -->
<g id="node27" class="node">
<title>&#45;27</title>
<polygon fill="lightgray" stroke="black" points="1255.5,-271.56 1229.5,-271.56 1229.5,-255.56 1255.5,-255.56 1255.5,-271.56"/>
<text text-anchor="middle" x="1242.5" y="-261.96" font-family="Times New Roman,serif" font-size="7.00">&#45;27</text>
</g>
<!-- &#45;28 -->
<g id="node28" class="node">
<title>&#45;28</title>
<polygon fill="lightgray" stroke="black" points="299.5,-271.56 273.5,-271.56 273.5,-255.56 299.5,-255.56 299.5,-271.56"/>
<text text-anchor="middle" x="286.5" y="-261.96" font-family="Times New Roman,serif" font-size="7.00">&#45;28</text>
</g>
<!-- &#45;28&#45;&gt;1319 -->
<g id="edge13" class="edge">
<title>&#45;28&#45;&gt;1319</title>
<path fill="none" stroke="green" stroke-width="0.64" d="M289.94,-255.38C295.31,-244.16 305.99,-221.85 314.75,-203.55"/>
<polygon fill="green" stroke="green" stroke-width="0.64" points="317.96,-204.96 319.12,-194.43 311.64,-201.94 317.96,-204.96"/>
</g>
<!-- &#45;29 -->
<g id="node29" class="node">
<title>&#45;29</title>
<polygon fill="lightgray" stroke="black" points="1299.5,-271.56 1273.5,-271.56 1273.5,-255.56 1299.5,-255.56 1299.5,-271.56"/>
<text text-anchor="middle" x="1286.5" y="-261.96" font-family="Times New Roman,serif" font-size="7.00">&#45;29</text>
</g>
<!-- &#45;30 -->
<g id="node30" class="node">
<title>&#45;30</title>
<polygon fill="lightgray" stroke="black" points="1343.5,-271.56 1317.5,-271.56 1317.5,-255.56 1343.5,-255.56 1343.5,-271.56"/>
<text text-anchor="middle" x="1330.5" y="-261.96" font-family="Times New Roman,serif" font-size="7.00">&#45;30</text>
</g>
<!-- &#45;31 -->
<g id="node31" class="node">
<title>&#45;31</title>
<polygon fill="lightgray" stroke="black" points="1387.5,-271.56 1361.5,-271.56 1361.5,-255.56 1387.5,-255.56 1387.5,-271.56"/>
<text text-anchor="middle" x="1374.5" y="-261.96" font-family="Times New Roman,serif" font-size="7.00">&#45;31</text>
</g>
<!-- &#45;32 -->
<g id="node32" class="node">
<title>&#45;32</title>
<polygon fill="lightgray" stroke="black" points="563.5,-181.82 537.5,-181.82 537.5,-165.82 563.5,-165.82 563.5,-181.82"/>
<text text-anchor="middle" x="550.5" y="-172.22" font-family="Times New Roman,serif" font-size="7.00">&#45;32</text>
</g>
<!-- &#45;32&#45;&gt;624 -->
<g id="edge7" class="edge">
<title>&#45;32&#45;&gt;624</title>
<path fill="none" stroke="red" stroke-width="0.34" d="M544.43,-165.82C540.26,-161.28 534.42,-155.44 528.5,-151.2 502.85,-132.83 470.14,-117.28 447.28,-107.49"/>
<polygon fill="red" stroke="red" stroke-width="0.34" points="448.41,-104.17 437.83,-103.54 445.7,-110.63 448.41,-104.17"/>
</g>
<!-- &#45;33 -->
<g id="node33" class="node">
<title>&#45;33</title>
<polygon fill="lightgray" stroke="black" points="1431.5,-271.56 1405.5,-271.56 1405.5,-255.56 1431.5,-255.56 1431.5,-271.56"/>
<text text-anchor="middle" x="1418.5" y="-261.96" font-family="Times New Roman,serif" font-size="7.00">&#45;33</text>
</g>
<!-- &#45;34 -->
<g id="node34" class="node">
<title>&#45;34</title>
<polygon fill="lightgray" stroke="black" points="343.5,-271.56 317.5,-271.56 317.5,-255.56 343.5,-255.56 343.5,-271.56"/>
<text text-anchor="middle" x="330.5" y="-261.96" font-family="Times New Roman,serif" font-size="7.00">&#45;34</text>
</g>
<!-- &#45;34&#45;&gt;1319 -->
<g id="edge14" class="edge">
<title>&#45;34&#45;&gt;1319</title>
<path fill="none" stroke="red" stroke-width="0.23" d="M330.34,-255.38C330.1,-244.88 329.64,-224.65 329.24,-207.1"/>
<polygon fill="red" stroke="red" stroke-width="0.23" points="332.72,-206.54 329,-196.62 325.73,-206.7 332.72,-206.54"/>
</g>
<!-- &#45;35 -->
<g id="node35" class="node">
<title>&#45;35</title>
<polygon fill="lightgray" stroke="black" points="1475.5,-271.56 1449.5,-271.56 1449.5,-255.56 1475.5,-255.56 1475.5,-271.56"/>
<text text-anchor="middle" x="1462.5" y="-261.96" font-family="Times New Roman,serif" font-size="7.00">&#45;35</text>
</g>
<!-- &#45;36 -->
<g id="node36" class="node">
<title>&#45;36</title>
<polygon fill="lightgray" stroke="black" points="1519.5,-271.56 1493.5,-271.56 1493.5,-255.56 1519.5,-255.56 1519.5,-271.56"/>
<text text-anchor="middle" x="1506.5" y="-261.96" font-family="Times New Roman,serif" font-size="7.00">&#45;36</text>
</g>
<!-- &#45;37 -->
<g id="node37" class="node">
<title>&#45;37</title>
<polygon fill="lightgray" stroke="black" points="287.5,-181.82 261.5,-181.82 261.5,-165.82 287.5,-165.82 287.5,-181.82"/>
<text text-anchor="middle" x="274.5" y="-172.22" font-family="Times New Roman,serif" font-size="7.00">&#45;37</text>
</g>
<!-- &#45;37&#45;&gt;178 -->
<g id="edge20" class="edge">
<title>&#45;37&#45;&gt;178</title>
<path fill="none" stroke="red" stroke-width="0.39" d="M267.93,-165.59C263.73,-161.18 258.06,-155.57 252.5,-151.2 232.87,-135.74 208.66,-120.94 190.6,-110.62"/>
<polygon fill="red" stroke="red" stroke-width="0.39" points="192.21,-107.51 181.78,-105.65 188.77,-113.61 192.21,-107.51"/>
</g>
<!-- &#45;38 -->
<g id="node38" class="node">
<title>&#45;38</title>
<polygon fill="lightgray" stroke="black" points="1563.5,-271.56 1537.5,-271.56 1537.5,-255.56 1563.5,-255.56 1563.5,-271.56"/>
<text text-anchor="middle" x="1550.5" y="-261.96" font-family="Times New Roman,serif" font-size="7.00">&#45;38</text>
</g>
<!-- A XOR B -->
<g id="node39" class="node">
<title>A XOR B</title>
<ellipse fill="lightblue" stroke="black" cx="1612.5" cy="-263.56" rx="31.23" ry="31.23"/>
<text text-anchor="middle" x="1612.5" y="-261.96" font-family="Times New Roman,serif" font-size="7.00">A XOR B</text>
</g>
<!-- 551 -->
<g id="node42" class="node">
<title>551</title>
<ellipse fill="white" stroke="black" cx="280.5" cy="-19.8" rx="19.6" ry="19.6"/>
<text text-anchor="middle" x="280.5" y="-18.2" font-family="Times New Roman,serif" font-size="7.00">551</text>
</g>
<!-- 1319&#45;&gt;624 -->
<g id="edge12" class="edge">
<title>1319&#45;&gt;624</title>
<path fill="none" stroke="green" stroke-width="0.37" d="M345.62,-158.45C360.08,-146.3 380.93,-128.79 396.79,-115.47"/>
<polygon fill="green" stroke="green" stroke-width="0.37" points="399.16,-118.05 404.57,-108.94 394.66,-112.69 399.16,-118.05"/>
</g>
<!-- 624&#45;&gt;551 -->
<g id="edge3" class="edge">
<title>624&#45;&gt;551</title>
<path fill="none" stroke="green" stroke-width="0.15" d="M402.18,-85.22C378.22,-72.54 334.77,-49.53 306.8,-34.72"/>
<polygon fill="green" stroke="green" stroke-width="0.15" points="308.08,-31.44 297.61,-29.86 304.8,-37.63 308.08,-31.44"/>
</g>
<!-- 178&#45;&gt;551 -->
<g id="edge8" class="edge">
<title>178&#45;&gt;551</title>
<path fill="none" stroke="green" stroke-width="0.4" d="M181.12,-83.85C200.5,-71.56 232.75,-51.1 255.23,-36.83"/>
<polygon fill="green" stroke="green" stroke-width="0.4" points="257.34,-39.64 263.91,-31.32 253.59,-33.73 257.34,-39.64"/>
</g>
</g>
</svg>
