<?xml version="1.0" encoding="UTF-8" standalone="no"?>
<!DOCTYPE svg PUBLIC "-//W3C//DTD SVG 1.1//EN"
 "http://www.w3.org/Graphics/SVG/1.1/DTD/svg11.dtd">
<!-- Generated by graphviz version 2.46.0 (20210118.1747)
 -->
<!-- Pages: 1 -->
<svg width="1280pt" height="378pt"
 viewBox="0.00 0.00 1280.11 378.27" xmlns="http://www.w3.org/2000/svg" xmlns:xlink="http://www.w3.org/1999/xlink">
<g id="graph0" class="graph" transform="scale(1 1) rotate(0) translate(4 374.27)">
<polygon fill="white" stroke="transparent" points="-4,4 -4,-374.27 1276.11,-374.27 1276.11,4 -4,4"/>
<!-- A -->
<g id="node1" class="node">
<title>A</title>
<polygon fill="lightgray" stroke="black" points="114,-347.16 92,-347.16 92,-331.16 114,-331.16 114,-347.16"/>
<text text-anchor="middle" x="103" y="-337.56" font-family="Times New Roman,serif" font-size="7.00">A</text>
</g>
<!-- 1319 -->
<g id="node43" class="node">
<title>1319</title>
<ellipse fill="white" stroke="black" cx="54" cy="-249.42" rx="22.76" ry="22.76"/>
<text text-anchor="middle" x="54" y="-247.82" font-family="Times New Roman,serif" font-size="7.00">1319</text>
</g>
<!-- A&#45;&gt;1319 -->
<g id="edge13" class="edge">
<title>A&#45;&gt;1319</title>
<path fill="none" stroke="red" stroke-width="0.51" d="M98.99,-330.98C92.65,-319.64 79.99,-296.97 69.71,-278.56"/>
<polygon fill="red" stroke="red" stroke-width="0.51" points="72.68,-276.69 64.75,-269.67 66.57,-280.1 72.68,-276.69"/>
</g>
<!-- 624 -->
<g id="node44" class="node">
<title>624</title>
<ellipse fill="white" stroke="black" cx="146" cy="-170.99" rx="19.6" ry="19.6"/>
<text text-anchor="middle" x="146" y="-169.39" font-family="Times New Roman,serif" font-size="7.00">624</text>
</g>
<!-- A&#45;&gt;624 -->
<g id="edge5" class="edge">
<title>A&#45;&gt;624</title>
<path fill="none" stroke="green" stroke-width="0.22" d="M103.85,-331.01C106.09,-313.17 112.75,-265.32 124,-226.79 126.71,-217.5 130.42,-207.6 134.02,-198.82"/>
<polygon fill="green" stroke="green" stroke-width="0.22" points="137.3,-200.03 137.97,-189.45 130.86,-197.3 137.3,-200.03"/>
</g>
<!-- B -->
<g id="node2" class="node">
<title>B</title>
<polygon fill="lightgray" stroke="black" points="153.5,-347.16 132.5,-347.16 132.5,-331.16 153.5,-331.16 153.5,-347.16"/>
<text text-anchor="middle" x="143" y="-337.56" font-family="Times New Roman,serif" font-size="7.00">B</text>
</g>
<!-- &#45;3 -->
<g id="node3" class="node">
<title>&#45;3</title>
<polygon fill="lightgray" stroke="black" points="341.5,-178.99 318.5,-178.99 318.5,-162.99 341.5,-162.99 341.5,-178.99"/>
<text text-anchor="middle" x="330" y="-169.39" font-family="Times New Roman,serif" font-size="7.00">&#45;3</text>
</g>
<!-- 1 -->
<g id="node40" class="node">
<title>1</title>
<ellipse fill="lightblue" stroke="black" cx="330" cy="-95.4" rx="14.29" ry="14.29"/>
<text text-anchor="middle" x="330" y="-93.8" font-family="Times New Roman,serif" font-size="7.00">1</text>
</g>
<!-- &#45;3&#45;&gt;1 -->
<g id="edge1" class="edge">
<title>&#45;3&#45;&gt;1</title>
<path fill="none" stroke="green" stroke-width="0.45" d="M330,-162.94C330,-153.09 330,-134.77 330,-119.84"/>
<polygon fill="green" stroke="green" stroke-width="0.45" points="333.5,-119.74 330,-109.74 326.5,-119.74 333.5,-119.74"/>
</g>
<!-- &#45;4 -->
<g id="node4" class="node">
<title>&#45;4</title>
<polygon fill="lightgray" stroke="black" points="194.5,-347.16 171.5,-347.16 171.5,-331.16 194.5,-331.16 194.5,-347.16"/>
<text text-anchor="middle" x="183" y="-337.56" font-family="Times New Roman,serif" font-size="7.00">&#45;4</text>
</g>
<!-- &#45;5 -->
<g id="node5" class="node">
<title>&#45;5</title>
<polygon fill="lightgray" stroke="black" points="235.5,-347.16 212.5,-347.16 212.5,-331.16 235.5,-331.16 235.5,-347.16"/>
<text text-anchor="middle" x="224" y="-337.56" font-family="Times New Roman,serif" font-size="7.00">&#45;5</text>
</g>
<!-- &#45;6 -->
<g id="node6" class="node">
<title>&#45;6</title>
<polygon fill="lightgray" stroke="black" points="276.5,-347.16 253.5,-347.16 253.5,-331.16 276.5,-331.16 276.5,-347.16"/>
<text text-anchor="middle" x="265" y="-337.56" font-family="Times New Roman,serif" font-size="7.00">&#45;6</text>
</g>
<!-- &#45;7 -->
<g id="node7" class="node">
<title>&#45;7</title>
<polygon fill="lightgray" stroke="black" points="317.5,-347.16 294.5,-347.16 294.5,-331.16 317.5,-331.16 317.5,-347.16"/>
<text text-anchor="middle" x="306" y="-337.56" font-family="Times New Roman,serif" font-size="7.00">&#45;7</text>
</g>
<!-- &#45;8 -->
<g id="node8" class="node">
<title>&#45;8</title>
<polygon fill="lightgray" stroke="black" points="358.5,-347.16 335.5,-347.16 335.5,-331.16 358.5,-331.16 358.5,-347.16"/>
<text text-anchor="middle" x="347" y="-337.56" font-family="Times New Roman,serif" font-size="7.00">&#45;8</text>
</g>
<!-- &#45;9 -->
<g id="node9" class="node">
<title>&#45;9</title>
<polygon fill="lightgray" stroke="black" points="399.5,-347.16 376.5,-347.16 376.5,-331.16 399.5,-331.16 399.5,-347.16"/>
<text text-anchor="middle" x="388" y="-337.56" font-family="Times New Roman,serif" font-size="7.00">&#45;9</text>
</g>
<!-- &#45;10 -->
<g id="node10" class="node">
<title>&#45;10</title>
<polygon fill="lightgray" stroke="black" points="432,-103.4 406,-103.4 406,-87.4 432,-87.4 432,-103.4"/>
<text text-anchor="middle" x="419" y="-93.8" font-family="Times New Roman,serif" font-size="7.00">&#45;10</text>
</g>
<!-- 2 -->
<g id="node41" class="node">
<title>2</title>
<ellipse fill="lightblue" stroke="black" cx="419" cy="-19.8" rx="14.29" ry="14.29"/>
<text text-anchor="middle" x="419" y="-18.2" font-family="Times New Roman,serif" font-size="7.00">2</text>
</g>
<!-- &#45;10&#45;&gt;2 -->
<g id="edge17" class="edge">
<title>&#45;10&#45;&gt;2</title>
<path fill="none" stroke="green" stroke-width="0.15" d="M419,-87.34C419,-77.5 419,-59.17 419,-44.24"/>
<polygon fill="green" stroke="green" stroke-width="0.15" points="422.5,-44.14 419,-34.14 415.5,-44.14 422.5,-44.14"/>
</g>
<!-- &#45;11 -->
<g id="node11" class="node">
<title>&#45;11</title>
<polygon fill="lightgray" stroke="black" points="444,-347.16 418,-347.16 418,-331.16 444,-331.16 444,-347.16"/>
<text text-anchor="middle" x="431" y="-337.56" font-family="Times New Roman,serif" font-size="7.00">&#45;11</text>
</g>
<!-- &#45;12 -->
<g id="node12" class="node">
<title>&#45;12</title>
<polygon fill="lightgray" stroke="black" points="488,-347.16 462,-347.16 462,-331.16 488,-331.16 488,-347.16"/>
<text text-anchor="middle" x="475" y="-337.56" font-family="Times New Roman,serif" font-size="7.00">&#45;12</text>
</g>
<!-- &#45;13 -->
<g id="node13" class="node">
<title>&#45;13</title>
<polygon fill="lightgray" stroke="black" points="476,-103.4 450,-103.4 450,-87.4 476,-87.4 476,-103.4"/>
<text text-anchor="middle" x="463" y="-93.8" font-family="Times New Roman,serif" font-size="7.00">&#45;13</text>
</g>
<!-- &#45;13&#45;&gt;2 -->
<g id="edge2" class="edge">
<title>&#45;13&#45;&gt;2</title>
<path fill="none" stroke="red" stroke-width="1.3" d="M458.78,-87.34C452.48,-76.79 440.35,-56.51 431.13,-41.1"/>
<polygon fill="red" stroke="red" stroke-width="1.3" points="433.99,-39.05 425.85,-32.26 427.98,-42.64 433.99,-39.05"/>
</g>
<!-- &#45;14 -->
<g id="node14" class="node">
<title>&#45;14</title>
<polygon fill="lightgray" stroke="black" points="210,-103.4 184,-103.4 184,-87.4 210,-87.4 210,-103.4"/>
<text text-anchor="middle" x="197" y="-93.8" font-family="Times New Roman,serif" font-size="7.00">&#45;14</text>
</g>
<!-- 178 -->
<g id="node45" class="node">
<title>178</title>
<ellipse fill="white" stroke="black" cx="241" cy="-19.8" rx="19.6" ry="19.6"/>
<text text-anchor="middle" x="241" y="-18.2" font-family="Times New Roman,serif" font-size="7.00">178</text>
</g>
<!-- &#45;14&#45;&gt;178 -->
<g id="edge18" class="edge">
<title>&#45;14&#45;&gt;178</title>
<path fill="none" stroke="green" stroke-width="0.64" d="M201.22,-87.34C206.88,-77.87 217.24,-60.53 225.97,-45.93"/>
<polygon fill="green" stroke="green" stroke-width="0.64" points="229.01,-47.67 231.14,-37.29 223,-44.08 229.01,-47.67"/>
</g>
<!-- &#45;15 -->
<g id="node15" class="node">
<title>&#45;15</title>
<polygon fill="lightgray" stroke="black" points="254,-103.4 228,-103.4 228,-87.4 254,-87.4 254,-103.4"/>
<text text-anchor="middle" x="241" y="-93.8" font-family="Times New Roman,serif" font-size="7.00">&#45;15</text>
</g>
<!-- &#45;15&#45;&gt;178 -->
<g id="edge6" class="edge">
<title>&#45;15&#45;&gt;178</title>
<path fill="none" stroke="green" stroke-width="0.42" stroke-dasharray="1,5" d="M241,-87.34C241,-78.68 241,-63.46 241,-49.76"/>
<polygon fill="green" stroke="green" stroke-width="0.42" points="244.5,-49.71 241,-39.71 237.5,-49.71 244.5,-49.71"/>
</g>
<!-- &#45;16 -->
<g id="node16" class="node">
<title>&#45;16</title>
<polygon fill="lightgray" stroke="black" points="532,-347.16 506,-347.16 506,-331.16 532,-331.16 532,-347.16"/>
<text text-anchor="middle" x="519" y="-337.56" font-family="Times New Roman,serif" font-size="7.00">&#45;16</text>
</g>
<!-- &#45;17 -->
<g id="node17" class="node">
<title>&#45;17</title>
<polygon fill="lightgray" stroke="black" points="576,-347.16 550,-347.16 550,-331.16 576,-331.16 576,-347.16"/>
<text text-anchor="middle" x="563" y="-337.56" font-family="Times New Roman,serif" font-size="7.00">&#45;17</text>
</g>
<!-- &#45;18 -->
<g id="node18" class="node">
<title>&#45;18</title>
<polygon fill="lightgray" stroke="black" points="159,-257.42 133,-257.42 133,-241.42 159,-241.42 159,-257.42"/>
<text text-anchor="middle" x="146" y="-247.82" font-family="Times New Roman,serif" font-size="7.00">&#45;18</text>
</g>
<!-- &#45;18&#45;&gt;624 -->
<g id="edge19" class="edge">
<title>&#45;18&#45;&gt;624</title>
<path fill="none" stroke="green" stroke-width="0.8" d="M146,-241.37C146,-232.21 146,-215.66 146,-201.03"/>
<polygon fill="green" stroke="green" stroke-width="0.8" points="149.5,-200.84 146,-190.84 142.5,-200.84 149.5,-200.84"/>
</g>
<!-- &#45;19 -->
<g id="node19" class="node">
<title>&#45;19</title>
<polygon fill="lightgray" stroke="black" points="620,-347.16 594,-347.16 594,-331.16 620,-331.16 620,-347.16"/>
<text text-anchor="middle" x="607" y="-337.56" font-family="Times New Roman,serif" font-size="7.00">&#45;19</text>
</g>
<!-- &#45;20 -->
<g id="node20" class="node">
<title>&#45;20</title>
<polygon fill="lightgray" stroke="black" points="298,-103.4 272,-103.4 272,-87.4 298,-87.4 298,-103.4"/>
<text text-anchor="middle" x="285" y="-93.8" font-family="Times New Roman,serif" font-size="7.00">&#45;20</text>
</g>
<!-- &#45;20&#45;&gt;178 -->
<g id="edge12" class="edge">
<title>&#45;20&#45;&gt;178</title>
<path fill="none" stroke="green" stroke-width="0.86" d="M280.78,-87.34C275.12,-77.87 264.76,-60.53 256.03,-45.93"/>
<polygon fill="green" stroke="green" stroke-width="0.86" points="259,-44.08 250.86,-37.29 252.99,-47.67 259,-44.08"/>
</g>
<!-- &#45;21 -->
<g id="node21" class="node">
<title>&#45;21</title>
<polygon fill="lightgray" stroke="black" points="203,-257.42 177,-257.42 177,-241.42 203,-241.42 203,-257.42"/>
<text text-anchor="middle" x="190" y="-247.82" font-family="Times New Roman,serif" font-size="7.00">&#45;21</text>
</g>
<!-- &#45;21&#45;&gt;624 -->
<g id="edge11" class="edge">
<title>&#45;21&#45;&gt;624</title>
<path fill="none" stroke="red" stroke-width="0.38" stroke-dasharray="1,5" d="M185.94,-241.37C180.27,-231.51 169.67,-213.11 160.82,-197.73"/>
<polygon fill="red" stroke="red" stroke-width="0.38" points="163.61,-195.57 155.59,-188.65 157.54,-199.06 163.61,-195.57"/>
</g>
<!-- &#45;22 -->
<g id="node22" class="node">
<title>&#45;22</title>
<polygon fill="lightgray" stroke="black" points="664,-347.16 638,-347.16 638,-331.16 664,-331.16 664,-347.16"/>
<text text-anchor="middle" x="651" y="-337.56" font-family="Times New Roman,serif" font-size="7.00">&#45;22</text>
</g>
<!-- &#45;23 -->
<g id="node23" class="node">
<title>&#45;23</title>
<polygon fill="lightgray" stroke="black" points="708,-347.16 682,-347.16 682,-331.16 708,-331.16 708,-347.16"/>
<text text-anchor="middle" x="695" y="-337.56" font-family="Times New Roman,serif" font-size="7.00">&#45;23</text>
</g>
<!-- &#45;24 -->
<g id="node24" class="node">
<title>&#45;24</title>
<polygon fill="lightgray" stroke="black" points="752,-347.16 726,-347.16 726,-331.16 752,-331.16 752,-347.16"/>
<text text-anchor="middle" x="739" y="-337.56" font-family="Times New Roman,serif" font-size="7.00">&#45;24</text>
</g>
<!-- &#45;25 -->
<g id="node25" class="node">
<title>&#45;25</title>
<polygon fill="lightgray" stroke="black" points="388,-103.4 362,-103.4 362,-87.4 388,-87.4 388,-103.4"/>
<text text-anchor="middle" x="375" y="-93.8" font-family="Times New Roman,serif" font-size="7.00">&#45;25</text>
</g>
<!-- &#45;25&#45;&gt;2 -->
<g id="edge20" class="edge">
<title>&#45;25&#45;&gt;2</title>
<path fill="none" stroke="red" stroke-width="0.21" d="M379.22,-87.34C385.52,-76.79 397.65,-56.51 406.87,-41.1"/>
<polygon fill="red" stroke="red" stroke-width="0.21" points="410.02,-42.64 412.15,-32.26 404.01,-39.05 410.02,-42.64"/>
</g>
<!-- &#45;25&#45;&gt;178 -->
<g id="edge7" class="edge">
<title>&#45;25&#45;&gt;178</title>
<path fill="none" stroke="red" stroke-width="0.33" d="M367.64,-87.28C363.53,-83.54 358.21,-79.02 353,-75.6 325.77,-57.71 291.85,-41.92 268.51,-31.94"/>
<polygon fill="red" stroke="red" stroke-width="0.33" points="269.78,-28.68 259.21,-28.03 267.07,-35.13 269.78,-28.68"/>
</g>
<!-- &#45;26 -->
<g id="node26" class="node">
<title>&#45;26</title>
<polygon fill="lightgray" stroke="black" points="796,-347.16 770,-347.16 770,-331.16 796,-331.16 796,-347.16"/>
<text text-anchor="middle" x="783" y="-337.56" font-family="Times New Roman,serif" font-size="7.00">&#45;26</text>
</g>
<!-- &#45;27 -->
<g id="node27" class="node">
<title>&#45;27</title>
<polygon fill="lightgray" stroke="black" points="840,-347.16 814,-347.16 814,-331.16 840,-331.16 840,-347.16"/>
<text text-anchor="middle" x="827" y="-337.56" font-family="Times New Roman,serif" font-size="7.00">&#45;27</text>
</g>
<!-- &#45;28 -->
<g id="node28" class="node">
<title>&#45;28</title>
<polygon fill="lightgray" stroke="black" points="26,-347.16 0,-347.16 0,-331.16 26,-331.16 26,-347.16"/>
<text text-anchor="middle" x="13" y="-337.56" font-family="Times New Roman,serif" font-size="7.00">&#45;28</text>
</g>
<!-- &#45;28&#45;&gt;1319 -->
<g id="edge15" class="edge">
<title>&#45;28&#45;&gt;1319</title>
<path fill="none" stroke="green" stroke-width="0.75" d="M16.36,-330.98C21.57,-319.83 31.89,-297.73 40.42,-279.49"/>
<polygon fill="green" stroke="green" stroke-width="0.75" points="43.61,-280.93 44.67,-270.39 37.27,-277.96 43.61,-280.93"/>
</g>
<!-- &#45;29 -->
<g id="node29" class="node">
<title>&#45;29</title>
<polygon fill="lightgray" stroke="black" points="884,-347.16 858,-347.16 858,-331.16 884,-331.16 884,-347.16"/>
<text text-anchor="middle" x="871" y="-337.56" font-family="Times New Roman,serif" font-size="7.00">&#45;29</text>
</g>
<!-- &#45;30 -->
<g id="node30" class="node">
<title>&#45;30</title>
<polygon fill="lightgray" stroke="black" points="928,-347.16 902,-347.16 902,-331.16 928,-331.16 928,-347.16"/>
<text text-anchor="middle" x="915" y="-337.56" font-family="Times New Roman,serif" font-size="7.00">&#45;30</text>
</g>
<!-- &#45;31 -->
<g id="node31" class="node">
<title>&#45;31</title>
<polygon fill="lightgray" stroke="black" points="972,-347.16 946,-347.16 946,-331.16 972,-331.16 972,-347.16"/>
<text text-anchor="middle" x="959" y="-337.56" font-family="Times New Roman,serif" font-size="7.00">&#45;31</text>
</g>
<!-- &#45;32 -->
<g id="node32" class="node">
<title>&#45;32</title>
<polygon fill="lightgray" stroke="black" points="247,-257.42 221,-257.42 221,-241.42 247,-241.42 247,-257.42"/>
<text text-anchor="middle" x="234" y="-247.82" font-family="Times New Roman,serif" font-size="7.00">&#45;32</text>
</g>
<!-- &#45;32&#45;&gt;624 -->
<g id="edge8" class="edge">
<title>&#45;32&#45;&gt;624</title>
<path fill="none" stroke="red" stroke-width="0.21" d="M226.81,-241.06C222.59,-236.8 217.09,-231.39 212,-226.79 198.13,-214.26 182,-200.85 169.15,-190.43"/>
<polygon fill="red" stroke="red" stroke-width="0.21" points="171.23,-187.6 161.25,-184.05 166.83,-193.05 171.23,-187.6"/>
</g>
<!-- &#45;33 -->
<g id="node33" class="node">
<title>&#45;33</title>
<polygon fill="lightgray" stroke="black" points="1016,-347.16 990,-347.16 990,-331.16 1016,-331.16 1016,-347.16"/>
<text text-anchor="middle" x="1003" y="-337.56" font-family="Times New Roman,serif" font-size="7.00">&#45;33</text>
</g>
<!-- &#45;34 -->
<g id="node34" class="node">
<title>&#45;34</title>
<polygon fill="lightgray" stroke="black" points="70,-347.16 44,-347.16 44,-331.16 70,-331.16 70,-347.16"/>
<text text-anchor="middle" x="57" y="-337.56" font-family="Times New Roman,serif" font-size="7.00">&#45;34</text>
</g>
<!-- &#45;34&#45;&gt;1319 -->
<g id="edge16" class="edge">
<title>&#45;34&#45;&gt;1319</title>
<path fill="none" stroke="red" stroke-width="0.69" d="M56.75,-330.98C56.4,-320.47 55.7,-300.25 55.1,-282.7"/>
<polygon fill="red" stroke="red" stroke-width="0.69" points="58.59,-282.1 54.75,-272.22 51.59,-282.33 58.59,-282.1"/>
</g>
<!-- &#45;35 -->
<g id="node35" class="node">
<title>&#45;35</title>
<polygon fill="lightgray" stroke="black" points="1060,-347.16 1034,-347.16 1034,-331.16 1060,-331.16 1060,-347.16"/>
<text text-anchor="middle" x="1047" y="-337.56" font-family="Times New Roman,serif" font-size="7.00">&#45;35</text>
</g>
<!-- &#45;36 -->
<g id="node36" class="node">
<title>&#45;36</title>
<polygon fill="lightgray" stroke="black" points="1104,-347.16 1078,-347.16 1078,-331.16 1104,-331.16 1104,-347.16"/>
<text text-anchor="middle" x="1091" y="-337.56" font-family="Times New Roman,serif" font-size="7.00">&#45;36</text>
</g>
<!-- &#45;37 -->
<g id="node37" class="node">
<title>&#45;37</title>
<polygon fill="lightgray" stroke="black" points="1148,-347.16 1122,-347.16 1122,-331.16 1148,-331.16 1148,-347.16"/>
<text text-anchor="middle" x="1135" y="-337.56" font-family="Times New Roman,serif" font-size="7.00">&#45;37</text>
</g>
<!-- &#45;38 -->
<g id="node38" class="node">
<title>&#45;38</title>
<polygon fill="lightgray" stroke="black" points="1192,-347.16 1166,-347.16 1166,-331.16 1192,-331.16 1192,-347.16"/>
<text text-anchor="middle" x="1179" y="-337.56" font-family="Times New Roman,serif" font-size="7.00">&#45;38</text>
</g>
<!-- A XOR B -->
<g id="node39" class="node">
<title>A XOR B</title>
<ellipse fill="lightblue" stroke="black" cx="1241" cy="-339.16" rx="31.23" ry="31.23"/>
<text text-anchor="middle" x="1241" y="-337.56" font-family="Times New Roman,serif" font-size="7.00">A XOR B</text>
</g>
<!-- 1&#45;&gt;178 -->
<g id="edge3" class="edge">
<title>1&#45;&gt;178</title>
<path fill="none" stroke="red" stroke-width="0.29" stroke-dasharray="1,5" d="M319.44,-85.67C305.79,-74.37 281.63,-54.4 263.72,-39.59"/>
<polygon fill="red" stroke="red" stroke-width="0.29" points="265.93,-36.87 255.99,-33.2 261.47,-42.27 265.93,-36.87"/>
</g>
<!-- 551 -->
<g id="node42" class="node">
<title>551</title>
<ellipse fill="white" stroke="black" cx="146" cy="-95.4" rx="19.6" ry="19.6"/>
<text text-anchor="middle" x="146" y="-93.8" font-family="Times New Roman,serif" font-size="7.00">551</text>
</g>
<!-- 551&#45;&gt;178 -->
<g id="edge21" class="edge">
<title>551&#45;&gt;178</title>
<path fill="none" stroke="red" stroke-width="0.3" d="M158.86,-80.21C173.5,-67.57 197.25,-49.13 215.58,-36.15"/>
<polygon fill="red" stroke="red" stroke-width="0.3" points="217.84,-38.84 224.07,-30.27 213.86,-33.08 217.84,-38.84"/>
</g>
<!-- 1319&#45;&gt;624 -->
<g id="edge14" class="edge">
<title>1319&#45;&gt;624</title>
<path fill="none" stroke="green" stroke-width="0.36" d="M71.3,-234.05C86.02,-221.82 107.26,-204.18 123.33,-190.83"/>
<polygon fill="green" stroke="green" stroke-width="0.36" points="125.75,-193.37 131.2,-184.29 121.27,-187.99 125.75,-193.37"/>
</g>
<!-- 624&#45;&gt;551 -->
<g id="edge4" class="edge">
<title>624&#45;&gt;551</title>
<path fill="none" stroke="green" stroke-width="0.4" d="M146,-151.04C146,-143.23 146,-134 146,-125.37"/>
<polygon fill="green" stroke="green" stroke-width="0.4" points="149.5,-125.29 146,-115.29 142.5,-125.29 149.5,-125.29"/>
</g>
<!-- 178&#45;&gt;551 -->
<g id="edge9" class="edge">
<title>178&#45;&gt;551</title>
<path fill="none" stroke="red" stroke-width="0.24" stroke-dasharray="1,5" d="M228.17,-34.96C213.59,-47.55 189.95,-65.91 171.65,-78.89"/>
<polygon fill="red" stroke="red" stroke-width="0.24" points="169.37,-76.2 163.15,-84.78 173.36,-81.95 169.37,-76.2"/>
</g>
<!-- 178&#45;&gt;178 -->
<g id="edge10" class="edge">
<title>178&#45;&gt;178</title>
<path fill="none" stroke="green" stroke-width="0.12" d="M256.53,-32.18C267.69,-36.21 278.8,-32.08 278.8,-19.8 278.8,-11.35 273.55,-6.76 266.64,-6.03"/>
<polygon fill="green" stroke="green" stroke-width="0.12" points="265.96,-2.59 256.53,-7.42 266.91,-9.52 265.96,-2.59"/>
</g>
</g>
</svg>
