<?xml version="1.0" encoding="UTF-8" standalone="no"?>
<!DOCTYPE svg PUBLIC "-//W3C//DTD SVG 1.1//EN"
 "http://www.w3.org/Graphics/SVG/1.1/DTD/svg11.dtd">
<!-- Generated by graphviz version 2.46.0 (20210118.1747)
 -->
<!-- Pages: 1 -->
<svg width="1544pt" height="286pt"
 viewBox="0.00 0.00 1544.00 285.71" xmlns="http://www.w3.org/2000/svg" xmlns:xlink="http://www.w3.org/1999/xlink">
<g id="graph0" class="graph" transform="scale(1 1) rotate(0) translate(4 281.71)">
<polygon fill="white" stroke="transparent" points="-4,4 -4,-281.71 1540,-281.71 1540,4 -4,4"/>
<!-- A -->
<g id="node1" class="node">
<title>A</title>
<polygon fill="lightgray" stroke="black" points="22,-254.59 0,-254.59 0,-238.59 22,-238.59 22,-254.59"/>
<text text-anchor="middle" x="11" y="-244.99" font-family="Times New Roman,serif" font-size="7.00">A</text>
</g>
<!-- B -->
<g id="node2" class="node">
<title>B</title>
<polygon fill="lightgray" stroke="black" points="61.5,-254.59 40.5,-254.59 40.5,-238.59 61.5,-238.59 61.5,-254.59"/>
<text text-anchor="middle" x="51" y="-244.99" font-family="Times New Roman,serif" font-size="7.00">B</text>
</g>
<!-- &#45;3 -->
<g id="node3" class="node">
<title>&#45;3</title>
<polygon fill="lightgray" stroke="black" points="73.5,-167.68 50.5,-167.68 50.5,-151.68 73.5,-151.68 73.5,-167.68"/>
<text text-anchor="middle" x="62" y="-158.08" font-family="Times New Roman,serif" font-size="7.00">&#45;3</text>
</g>
<!-- 1 -->
<g id="node40" class="node">
<title>1</title>
<ellipse fill="lightblue" stroke="black" cx="63" cy="-84.08" rx="14.29" ry="14.29"/>
<text text-anchor="middle" x="63" y="-82.48" font-family="Times New Roman,serif" font-size="7.00">1</text>
</g>
<!-- &#45;3&#45;&gt;1 -->
<g id="edge1" class="edge">
<title>&#45;3&#45;&gt;1</title>
<path fill="none" stroke="green" stroke-width="2.22" d="M62.1,-151.62C62.23,-141.78 62.48,-123.46 62.68,-108.53"/>
<polygon fill="green" stroke="green" stroke-width="2.22" points="66.18,-108.47 62.82,-98.42 59.18,-108.38 66.18,-108.47"/>
</g>
<!-- &#45;4 -->
<g id="node4" class="node">
<title>&#45;4</title>
<polygon fill="lightgray" stroke="black" points="183.5,-254.59 160.5,-254.59 160.5,-238.59 183.5,-238.59 183.5,-254.59"/>
<text text-anchor="middle" x="172" y="-244.99" font-family="Times New Roman,serif" font-size="7.00">&#45;4</text>
</g>
<!-- &#45;5 -->
<g id="node5" class="node">
<title>&#45;5</title>
<polygon fill="lightgray" stroke="black" points="224.5,-254.59 201.5,-254.59 201.5,-238.59 224.5,-238.59 224.5,-254.59"/>
<text text-anchor="middle" x="213" y="-244.99" font-family="Times New Roman,serif" font-size="7.00">&#45;5</text>
</g>
<!-- &#45;6 -->
<g id="node6" class="node">
<title>&#45;6</title>
<polygon fill="lightgray" stroke="black" points="265.5,-254.59 242.5,-254.59 242.5,-238.59 265.5,-238.59 265.5,-254.59"/>
<text text-anchor="middle" x="254" y="-244.99" font-family="Times New Roman,serif" font-size="7.00">&#45;6</text>
</g>
<!-- &#45;7 -->
<g id="node7" class="node">
<title>&#45;7</title>
<polygon fill="lightgray" stroke="black" points="306.5,-254.59 283.5,-254.59 283.5,-238.59 306.5,-238.59 306.5,-254.59"/>
<text text-anchor="middle" x="295" y="-244.99" font-family="Times New Roman,serif" font-size="7.00">&#45;7</text>
</g>
<!-- &#45;8 -->
<g id="node8" class="node">
<title>&#45;8</title>
<polygon fill="lightgray" stroke="black" points="171.5,-167.68 148.5,-167.68 148.5,-151.68 171.5,-151.68 171.5,-167.68"/>
<text text-anchor="middle" x="160" y="-158.08" font-family="Times New Roman,serif" font-size="7.00">&#45;8</text>
</g>
<!-- 178 -->
<g id="node43" class="node">
<title>178</title>
<ellipse fill="white" stroke="black" cx="160" cy="-84.08" rx="19.6" ry="19.6"/>
<text text-anchor="middle" x="160" y="-82.48" font-family="Times New Roman,serif" font-size="7.00">178</text>
</g>
<!-- &#45;8&#45;&gt;178 -->
<g id="edge4" class="edge">
<title>&#45;8&#45;&gt;178</title>
<path fill="none" stroke="green" stroke-width="0.2" d="M160,-151.62C160,-142.97 160,-127.75 160,-114.05"/>
<polygon fill="green" stroke="green" stroke-width="0.2" points="163.5,-114 160,-104 156.5,-114 163.5,-114"/>
</g>
<!-- &#45;9 -->
<g id="node9" class="node">
<title>&#45;9</title>
<polygon fill="lightgray" stroke="black" points="347.5,-254.59 324.5,-254.59 324.5,-238.59 347.5,-238.59 347.5,-254.59"/>
<text text-anchor="middle" x="336" y="-244.99" font-family="Times New Roman,serif" font-size="7.00">&#45;9</text>
</g>
<!-- &#45;10 -->
<g id="node10" class="node">
<title>&#45;10</title>
<polygon fill="lightgray" stroke="black" points="392,-254.59 366,-254.59 366,-238.59 392,-238.59 392,-254.59"/>
<text text-anchor="middle" x="379" y="-244.99" font-family="Times New Roman,serif" font-size="7.00">&#45;10</text>
</g>
<!-- &#45;11 -->
<g id="node11" class="node">
<title>&#45;11</title>
<polygon fill="lightgray" stroke="black" points="436,-254.59 410,-254.59 410,-238.59 436,-238.59 436,-254.59"/>
<text text-anchor="middle" x="423" y="-244.99" font-family="Times New Roman,serif" font-size="7.00">&#45;11</text>
</g>
<!-- &#45;12 -->
<g id="node12" class="node">
<title>&#45;12</title>
<polygon fill="lightgray" stroke="black" points="480,-254.59 454,-254.59 454,-238.59 480,-238.59 480,-254.59"/>
<text text-anchor="middle" x="467" y="-244.99" font-family="Times New Roman,serif" font-size="7.00">&#45;12</text>
</g>
<!-- &#45;13 -->
<g id="node13" class="node">
<title>&#45;13</title>
<polygon fill="lightgray" stroke="black" points="122,-92.08 96,-92.08 96,-76.08 122,-76.08 122,-92.08"/>
<text text-anchor="middle" x="109" y="-82.48" font-family="Times New Roman,serif" font-size="7.00">&#45;13</text>
</g>
<!-- 2 -->
<g id="node41" class="node">
<title>2</title>
<ellipse fill="lightblue" stroke="black" cx="134" cy="-14.14" rx="14.29" ry="14.29"/>
<text text-anchor="middle" x="134" y="-12.54" font-family="Times New Roman,serif" font-size="7.00">2</text>
</g>
<!-- &#45;13&#45;&gt;2 -->
<g id="edge3" class="edge">
<title>&#45;13&#45;&gt;2</title>
<path fill="none" stroke="red" stroke-width="0.56" d="M111.58,-76.07C114.92,-66.99 120.9,-50.75 125.84,-37.31"/>
<polygon fill="red" stroke="red" stroke-width="0.56" points="129.19,-38.35 129.36,-27.75 122.62,-35.93 129.19,-38.35"/>
</g>
<!-- &#45;14 -->
<g id="node14" class="node">
<title>&#45;14</title>
<polygon fill="lightgray" stroke="black" points="524,-254.59 498,-254.59 498,-238.59 524,-238.59 524,-254.59"/>
<text text-anchor="middle" x="511" y="-244.99" font-family="Times New Roman,serif" font-size="7.00">&#45;14</text>
</g>
<!-- &#45;15 -->
<g id="node15" class="node">
<title>&#45;15</title>
<polygon fill="lightgray" stroke="black" points="568,-254.59 542,-254.59 542,-238.59 568,-238.59 568,-254.59"/>
<text text-anchor="middle" x="555" y="-244.99" font-family="Times New Roman,serif" font-size="7.00">&#45;15</text>
</g>
<!-- &#45;16 -->
<g id="node16" class="node">
<title>&#45;16</title>
<polygon fill="lightgray" stroke="black" points="612,-254.59 586,-254.59 586,-238.59 612,-238.59 612,-254.59"/>
<text text-anchor="middle" x="599" y="-244.99" font-family="Times New Roman,serif" font-size="7.00">&#45;16</text>
</g>
<!-- &#45;17 -->
<g id="node17" class="node">
<title>&#45;17</title>
<polygon fill="lightgray" stroke="black" points="656,-254.59 630,-254.59 630,-238.59 656,-238.59 656,-254.59"/>
<text text-anchor="middle" x="643" y="-244.99" font-family="Times New Roman,serif" font-size="7.00">&#45;17</text>
</g>
<!-- &#45;18 -->
<g id="node18" class="node">
<title>&#45;18</title>
<polygon fill="lightgray" stroke="black" points="700,-254.59 674,-254.59 674,-238.59 700,-238.59 700,-254.59"/>
<text text-anchor="middle" x="687" y="-244.99" font-family="Times New Roman,serif" font-size="7.00">&#45;18</text>
</g>
<!-- &#45;19 -->
<g id="node19" class="node">
<title>&#45;19</title>
<polygon fill="lightgray" stroke="black" points="744,-254.59 718,-254.59 718,-238.59 744,-238.59 744,-254.59"/>
<text text-anchor="middle" x="731" y="-244.99" font-family="Times New Roman,serif" font-size="7.00">&#45;19</text>
</g>
<!-- &#45;20 -->
<g id="node20" class="node">
<title>&#45;20</title>
<polygon fill="lightgray" stroke="black" points="788,-254.59 762,-254.59 762,-238.59 788,-238.59 788,-254.59"/>
<text text-anchor="middle" x="775" y="-244.99" font-family="Times New Roman,serif" font-size="7.00">&#45;20</text>
</g>
<!-- &#45;21 -->
<g id="node21" class="node">
<title>&#45;21</title>
<polygon fill="lightgray" stroke="black" points="832,-254.59 806,-254.59 806,-238.59 832,-238.59 832,-254.59"/>
<text text-anchor="middle" x="819" y="-244.99" font-family="Times New Roman,serif" font-size="7.00">&#45;21</text>
</g>
<!-- &#45;22 -->
<g id="node22" class="node">
<title>&#45;22</title>
<polygon fill="lightgray" stroke="black" points="216,-167.68 190,-167.68 190,-151.68 216,-151.68 216,-167.68"/>
<text text-anchor="middle" x="203" y="-158.08" font-family="Times New Roman,serif" font-size="7.00">&#45;22</text>
</g>
<!-- &#45;22&#45;&gt;178 -->
<g id="edge7" class="edge">
<title>&#45;22&#45;&gt;178</title>
<path fill="none" stroke="red" stroke-width="0.14" stroke-dasharray="1,5" d="M198.88,-151.62C193.34,-142.15 183.22,-124.82 174.69,-110.22"/>
<polygon fill="red" stroke="red" stroke-width="0.14" points="177.7,-108.44 169.64,-101.58 171.66,-111.98 177.7,-108.44"/>
</g>
<!-- &#45;23 -->
<g id="node23" class="node">
<title>&#45;23</title>
<polygon fill="lightgray" stroke="black" points="876,-254.59 850,-254.59 850,-238.59 876,-238.59 876,-254.59"/>
<text text-anchor="middle" x="863" y="-244.99" font-family="Times New Roman,serif" font-size="7.00">&#45;23</text>
</g>
<!-- &#45;24 -->
<g id="node24" class="node">
<title>&#45;24</title>
<polygon fill="lightgray" stroke="black" points="920,-254.59 894,-254.59 894,-238.59 920,-238.59 920,-254.59"/>
<text text-anchor="middle" x="907" y="-244.99" font-family="Times New Roman,serif" font-size="7.00">&#45;24</text>
</g>
<!-- &#45;25 -->
<g id="node25" class="node">
<title>&#45;25</title>
<polygon fill="lightgray" stroke="black" points="964,-254.59 938,-254.59 938,-238.59 964,-238.59 964,-254.59"/>
<text text-anchor="middle" x="951" y="-244.99" font-family="Times New Roman,serif" font-size="7.00">&#45;25</text>
</g>
<!-- &#45;26 -->
<g id="node26" class="node">
<title>&#45;26</title>
<polygon fill="lightgray" stroke="black" points="1008,-254.59 982,-254.59 982,-238.59 1008,-238.59 1008,-254.59"/>
<text text-anchor="middle" x="995" y="-244.99" font-family="Times New Roman,serif" font-size="7.00">&#45;26</text>
</g>
<!-- &#45;27 -->
<g id="node27" class="node">
<title>&#45;27</title>
<polygon fill="lightgray" stroke="black" points="1052,-254.59 1026,-254.59 1026,-238.59 1052,-238.59 1052,-254.59"/>
<text text-anchor="middle" x="1039" y="-244.99" font-family="Times New Roman,serif" font-size="7.00">&#45;27</text>
</g>
<!-- &#45;28 -->
<g id="node28" class="node">
<title>&#45;28</title>
<polygon fill="lightgray" stroke="black" points="1096,-254.59 1070,-254.59 1070,-238.59 1096,-238.59 1096,-254.59"/>
<text text-anchor="middle" x="1083" y="-244.99" font-family="Times New Roman,serif" font-size="7.00">&#45;28</text>
</g>
<!-- &#45;29 -->
<g id="node29" class="node">
<title>&#45;29</title>
<polygon fill="lightgray" stroke="black" points="1140,-254.59 1114,-254.59 1114,-238.59 1140,-238.59 1140,-254.59"/>
<text text-anchor="middle" x="1127" y="-244.99" font-family="Times New Roman,serif" font-size="7.00">&#45;29</text>
</g>
<!-- &#45;30 -->
<g id="node30" class="node">
<title>&#45;30</title>
<polygon fill="lightgray" stroke="black" points="1184,-254.59 1158,-254.59 1158,-238.59 1184,-238.59 1184,-254.59"/>
<text text-anchor="middle" x="1171" y="-244.99" font-family="Times New Roman,serif" font-size="7.00">&#45;30</text>
</g>
<!-- &#45;31 -->
<g id="node31" class="node">
<title>&#45;31</title>
<polygon fill="lightgray" stroke="black" points="1228,-254.59 1202,-254.59 1202,-238.59 1228,-238.59 1228,-254.59"/>
<text text-anchor="middle" x="1215" y="-244.99" font-family="Times New Roman,serif" font-size="7.00">&#45;31</text>
</g>
<!-- &#45;32 -->
<g id="node32" class="node">
<title>&#45;32</title>
<polygon fill="lightgray" stroke="black" points="1272,-254.59 1246,-254.59 1246,-238.59 1272,-238.59 1272,-254.59"/>
<text text-anchor="middle" x="1259" y="-244.99" font-family="Times New Roman,serif" font-size="7.00">&#45;32</text>
</g>
<!-- &#45;33 -->
<g id="node33" class="node">
<title>&#45;33</title>
<polygon fill="lightgray" stroke="black" points="1316,-254.59 1290,-254.59 1290,-238.59 1316,-238.59 1316,-254.59"/>
<text text-anchor="middle" x="1303" y="-244.99" font-family="Times New Roman,serif" font-size="7.00">&#45;33</text>
</g>
<!-- &#45;34 -->
<g id="node34" class="node">
<title>&#45;34</title>
<polygon fill="lightgray" stroke="black" points="1360,-254.59 1334,-254.59 1334,-238.59 1360,-238.59 1360,-254.59"/>
<text text-anchor="middle" x="1347" y="-244.99" font-family="Times New Roman,serif" font-size="7.00">&#45;34</text>
</g>
<!-- &#45;35 -->
<g id="node35" class="node">
<title>&#45;35</title>
<polygon fill="lightgray" stroke="black" points="1404,-254.59 1378,-254.59 1378,-238.59 1404,-238.59 1404,-254.59"/>
<text text-anchor="middle" x="1391" y="-244.99" font-family="Times New Roman,serif" font-size="7.00">&#45;35</text>
</g>
<!-- &#45;36 -->
<g id="node36" class="node">
<title>&#45;36</title>
<polygon fill="lightgray" stroke="black" points="1448,-254.59 1422,-254.59 1422,-238.59 1448,-238.59 1448,-254.59"/>
<text text-anchor="middle" x="1435" y="-244.99" font-family="Times New Roman,serif" font-size="7.00">&#45;36</text>
</g>
<!-- &#45;37 -->
<g id="node37" class="node">
<title>&#45;37</title>
<polygon fill="lightgray" stroke="black" points="1492,-254.59 1466,-254.59 1466,-238.59 1492,-238.59 1492,-254.59"/>
<text text-anchor="middle" x="1479" y="-244.99" font-family="Times New Roman,serif" font-size="7.00">&#45;37</text>
</g>
<!-- &#45;38 -->
<g id="node38" class="node">
<title>&#45;38</title>
<polygon fill="lightgray" stroke="black" points="1536,-254.59 1510,-254.59 1510,-238.59 1536,-238.59 1536,-254.59"/>
<text text-anchor="middle" x="1523" y="-244.99" font-family="Times New Roman,serif" font-size="7.00">&#45;38</text>
</g>
<!-- A XOR B -->
<g id="node39" class="node">
<title>A XOR B</title>
<ellipse fill="lightblue" stroke="black" cx="111" cy="-246.59" rx="31.23" ry="31.23"/>
<text text-anchor="middle" x="111" y="-244.99" font-family="Times New Roman,serif" font-size="7.00">A XOR B</text>
</g>
<!-- 613 -->
<g id="node42" class="node">
<title>613</title>
<ellipse fill="white" stroke="black" cx="111" cy="-159.68" rx="19.6" ry="19.6"/>
<text text-anchor="middle" x="111" y="-158.08" font-family="Times New Roman,serif" font-size="7.00">613</text>
</g>
<!-- A XOR B&#45;&gt;613 -->
<g id="edge8" class="edge">
<title>A XOR B&#45;&gt;613</title>
<path fill="none" stroke="red" stroke-width="0.46" d="M111,-215.42C111,-207.04 111,-197.96 111,-189.65"/>
<polygon fill="red" stroke="red" stroke-width="0.46" points="114.5,-189.65 111,-179.65 107.5,-189.65 114.5,-189.65"/>
</g>
<!-- 613&#45;&gt;1 -->
<g id="edge6" class="edge">
<title>613&#45;&gt;1</title>
<path fill="none" stroke="green" stroke-width="0.47" d="M100.58,-142.71C93.29,-131.53 83.5,-116.51 75.74,-104.62"/>
<polygon fill="green" stroke="green" stroke-width="0.47" points="78.67,-102.7 70.28,-96.24 72.81,-106.53 78.67,-102.7"/>
</g>
<!-- 613&#45;&gt;178 -->
<g id="edge5" class="edge">
<title>613&#45;&gt;178</title>
<path fill="none" stroke="red" stroke-width="0.15" d="M121.63,-142.71C128.12,-132.97 136.54,-120.33 143.83,-109.36"/>
<polygon fill="red" stroke="red" stroke-width="0.15" points="146.76,-111.29 149.39,-101.02 140.93,-107.41 146.76,-111.29"/>
</g>
<!-- 178&#45;&gt;2 -->
<g id="edge2" class="edge">
<title>178&#45;&gt;2</title>
<path fill="none" stroke="green" stroke-width="0.92" d="M153.17,-65.23C149.89,-56.66 145.93,-46.31 142.46,-37.25"/>
<polygon fill="green" stroke="green" stroke-width="0.92" points="145.66,-35.82 138.82,-27.73 139.12,-38.32 145.66,-35.82"/>
</g>
</g>
</svg>
