<?xml version="1.0" encoding="UTF-8" standalone="no"?>
<!DOCTYPE svg PUBLIC "-//W3C//DTD SVG 1.1//EN"
 "http://www.w3.org/Graphics/SVG/1.1/DTD/svg11.dtd">
<!-- Generated by graphviz version 2.46.0 (20210118.1747)
 -->
<!-- Pages: 1 -->
<svg width="1771pt" height="210pt"
 viewBox="0.00 0.00 1771.11 210.11" xmlns="http://www.w3.org/2000/svg" xmlns:xlink="http://www.w3.org/1999/xlink">
<g id="graph0" class="graph" transform="scale(1 1) rotate(0) translate(4 206.11)">
<polygon fill="white" stroke="transparent" points="-4,4 -4,-206.11 1767.11,-206.11 1767.11,4 -4,4"/>
<!-- A -->
<g id="node1" class="node">
<title>A</title>
<polygon fill="lightgray" stroke="black" points="22,-178.99 0,-178.99 0,-162.99 22,-162.99 22,-178.99"/>
<text text-anchor="middle" x="11" y="-169.39" font-family="Times New Roman,serif" font-size="7.00">A</text>
</g>
<!-- B -->
<g id="node2" class="node">
<title>B</title>
<polygon fill="lightgray" stroke="black" points="61.5,-178.99 40.5,-178.99 40.5,-162.99 61.5,-162.99 61.5,-178.99"/>
<text text-anchor="middle" x="51" y="-169.39" font-family="Times New Roman,serif" font-size="7.00">B</text>
</g>
<!-- &#45;3 -->
<g id="node3" class="node">
<title>&#45;3</title>
<polygon fill="lightgray" stroke="black" points="102.5,-178.99 79.5,-178.99 79.5,-162.99 102.5,-162.99 102.5,-178.99"/>
<text text-anchor="middle" x="91" y="-169.39" font-family="Times New Roman,serif" font-size="7.00">&#45;3</text>
</g>
<!-- 1 -->
<g id="node40" class="node">
<title>1</title>
<ellipse fill="lightblue" stroke="black" cx="91" cy="-84.08" rx="14.29" ry="14.29"/>
<text text-anchor="middle" x="91" y="-82.48" font-family="Times New Roman,serif" font-size="7.00">1</text>
</g>
<!-- &#45;3&#45;&gt;1 -->
<g id="edge1" class="edge">
<title>&#45;3&#45;&gt;1</title>
<path fill="none" stroke="green" stroke-width="0.62" d="M91,-162.76C91,-150.88 91,-126.75 91,-108.52"/>
<polygon fill="green" stroke="green" stroke-width="0.62" points="94.5,-108.34 91,-98.34 87.5,-108.34 94.5,-108.34"/>
</g>
<!-- &#45;4 -->
<g id="node4" class="node">
<title>&#45;4</title>
<polygon fill="lightgray" stroke="black" points="143.5,-178.99 120.5,-178.99 120.5,-162.99 143.5,-162.99 143.5,-178.99"/>
<text text-anchor="middle" x="132" y="-169.39" font-family="Times New Roman,serif" font-size="7.00">&#45;4</text>
</g>
<!-- &#45;5 -->
<g id="node5" class="node">
<title>&#45;5</title>
<polygon fill="lightgray" stroke="black" points="184.5,-178.99 161.5,-178.99 161.5,-162.99 184.5,-162.99 184.5,-178.99"/>
<text text-anchor="middle" x="173" y="-169.39" font-family="Times New Roman,serif" font-size="7.00">&#45;5</text>
</g>
<!-- &#45;6 -->
<g id="node6" class="node">
<title>&#45;6</title>
<polygon fill="lightgray" stroke="black" points="225.5,-178.99 202.5,-178.99 202.5,-162.99 225.5,-162.99 225.5,-178.99"/>
<text text-anchor="middle" x="214" y="-169.39" font-family="Times New Roman,serif" font-size="7.00">&#45;6</text>
</g>
<!-- &#45;7 -->
<g id="node7" class="node">
<title>&#45;7</title>
<polygon fill="lightgray" stroke="black" points="266.5,-178.99 243.5,-178.99 243.5,-162.99 266.5,-162.99 266.5,-178.99"/>
<text text-anchor="middle" x="255" y="-169.39" font-family="Times New Roman,serif" font-size="7.00">&#45;7</text>
</g>
<!-- &#45;8 -->
<g id="node8" class="node">
<title>&#45;8</title>
<polygon fill="lightgray" stroke="black" points="307.5,-178.99 284.5,-178.99 284.5,-162.99 307.5,-162.99 307.5,-178.99"/>
<text text-anchor="middle" x="296" y="-169.39" font-family="Times New Roman,serif" font-size="7.00">&#45;8</text>
</g>
<!-- 178 -->
<g id="node44" class="node">
<title>178</title>
<ellipse fill="white" stroke="black" cx="320" cy="-84.08" rx="19.6" ry="19.6"/>
<text text-anchor="middle" x="320" y="-82.48" font-family="Times New Roman,serif" font-size="7.00">178</text>
</g>
<!-- &#45;8&#45;&gt;178 -->
<g id="edge4" class="edge">
<title>&#45;8&#45;&gt;178</title>
<path fill="none" stroke="red" stroke-width="0.56" d="M298.05,-162.76C301.14,-151.83 307.16,-130.53 312.11,-112.99"/>
<polygon fill="red" stroke="red" stroke-width="0.56" points="315.52,-113.79 314.88,-103.21 308.79,-111.88 315.52,-113.79"/>
</g>
<!-- &#45;9 -->
<g id="node9" class="node">
<title>&#45;9</title>
<polygon fill="lightgray" stroke="black" points="494.5,-178.99 471.5,-178.99 471.5,-162.99 494.5,-162.99 494.5,-178.99"/>
<text text-anchor="middle" x="483" y="-169.39" font-family="Times New Roman,serif" font-size="7.00">&#45;9</text>
</g>
<!-- &#45;10 -->
<g id="node10" class="node">
<title>&#45;10</title>
<polygon fill="lightgray" stroke="black" points="539,-178.99 513,-178.99 513,-162.99 539,-162.99 539,-178.99"/>
<text text-anchor="middle" x="526" y="-169.39" font-family="Times New Roman,serif" font-size="7.00">&#45;10</text>
</g>
<!-- &#45;11 -->
<g id="node11" class="node">
<title>&#45;11</title>
<polygon fill="lightgray" stroke="black" points="583,-178.99 557,-178.99 557,-162.99 583,-162.99 583,-178.99"/>
<text text-anchor="middle" x="570" y="-169.39" font-family="Times New Roman,serif" font-size="7.00">&#45;11</text>
</g>
<!-- &#45;12 -->
<g id="node12" class="node">
<title>&#45;12</title>
<polygon fill="lightgray" stroke="black" points="627,-178.99 601,-178.99 601,-162.99 627,-162.99 627,-178.99"/>
<text text-anchor="middle" x="614" y="-169.39" font-family="Times New Roman,serif" font-size="7.00">&#45;12</text>
</g>
<!-- &#45;13 -->
<g id="node13" class="node">
<title>&#45;13</title>
<polygon fill="lightgray" stroke="black" points="384,-92.08 358,-92.08 358,-76.08 384,-76.08 384,-92.08"/>
<text text-anchor="middle" x="371" y="-82.48" font-family="Times New Roman,serif" font-size="7.00">&#45;13</text>
</g>
<!-- 2 -->
<g id="node41" class="node">
<title>2</title>
<ellipse fill="lightblue" stroke="black" cx="391" cy="-14.14" rx="14.29" ry="14.29"/>
<text text-anchor="middle" x="391" y="-12.54" font-family="Times New Roman,serif" font-size="7.00">2</text>
</g>
<!-- &#45;13&#45;&gt;2 -->
<g id="edge3" class="edge">
<title>&#45;13&#45;&gt;2</title>
<path fill="none" stroke="red" stroke-width="0.26" d="M373.07,-76.07C375.7,-67.13 380.37,-51.25 384.29,-37.95"/>
<polygon fill="red" stroke="red" stroke-width="0.26" points="387.75,-38.59 387.21,-28.01 381.03,-36.61 387.75,-38.59"/>
</g>
<!-- &#45;14 -->
<g id="node14" class="node">
<title>&#45;14</title>
<polygon fill="lightgray" stroke="black" points="671,-178.99 645,-178.99 645,-162.99 671,-162.99 671,-178.99"/>
<text text-anchor="middle" x="658" y="-169.39" font-family="Times New Roman,serif" font-size="7.00">&#45;14</text>
</g>
<!-- &#45;15 -->
<g id="node15" class="node">
<title>&#45;15</title>
<polygon fill="lightgray" stroke="black" points="715,-178.99 689,-178.99 689,-162.99 715,-162.99 715,-178.99"/>
<text text-anchor="middle" x="702" y="-169.39" font-family="Times New Roman,serif" font-size="7.00">&#45;15</text>
</g>
<!-- &#45;16 -->
<g id="node16" class="node">
<title>&#45;16</title>
<polygon fill="lightgray" stroke="black" points="759,-178.99 733,-178.99 733,-162.99 759,-162.99 759,-178.99"/>
<text text-anchor="middle" x="746" y="-169.39" font-family="Times New Roman,serif" font-size="7.00">&#45;16</text>
</g>
<!-- &#45;17 -->
<g id="node17" class="node">
<title>&#45;17</title>
<polygon fill="lightgray" stroke="black" points="803,-178.99 777,-178.99 777,-162.99 803,-162.99 803,-178.99"/>
<text text-anchor="middle" x="790" y="-169.39" font-family="Times New Roman,serif" font-size="7.00">&#45;17</text>
</g>
<!-- &#45;18 -->
<g id="node18" class="node">
<title>&#45;18</title>
<polygon fill="lightgray" stroke="black" points="847,-178.99 821,-178.99 821,-162.99 847,-162.99 847,-178.99"/>
<text text-anchor="middle" x="834" y="-169.39" font-family="Times New Roman,serif" font-size="7.00">&#45;18</text>
</g>
<!-- &#45;19 -->
<g id="node19" class="node">
<title>&#45;19</title>
<polygon fill="lightgray" stroke="black" points="891,-178.99 865,-178.99 865,-162.99 891,-162.99 891,-178.99"/>
<text text-anchor="middle" x="878" y="-169.39" font-family="Times New Roman,serif" font-size="7.00">&#45;19</text>
</g>
<!-- &#45;20 -->
<g id="node20" class="node">
<title>&#45;20</title>
<polygon fill="lightgray" stroke="black" points="935,-178.99 909,-178.99 909,-162.99 935,-162.99 935,-178.99"/>
<text text-anchor="middle" x="922" y="-169.39" font-family="Times New Roman,serif" font-size="7.00">&#45;20</text>
</g>
<!-- &#45;21 -->
<g id="node21" class="node">
<title>&#45;21</title>
<polygon fill="lightgray" stroke="black" points="979,-178.99 953,-178.99 953,-162.99 979,-162.99 979,-178.99"/>
<text text-anchor="middle" x="966" y="-169.39" font-family="Times New Roman,serif" font-size="7.00">&#45;21</text>
</g>
<!-- &#45;22 -->
<g id="node22" class="node">
<title>&#45;22</title>
<polygon fill="lightgray" stroke="black" points="1023,-178.99 997,-178.99 997,-162.99 1023,-162.99 1023,-178.99"/>
<text text-anchor="middle" x="1010" y="-169.39" font-family="Times New Roman,serif" font-size="7.00">&#45;22</text>
</g>
<!-- &#45;23 -->
<g id="node23" class="node">
<title>&#45;23</title>
<polygon fill="lightgray" stroke="black" points="1067,-178.99 1041,-178.99 1041,-162.99 1067,-162.99 1067,-178.99"/>
<text text-anchor="middle" x="1054" y="-169.39" font-family="Times New Roman,serif" font-size="7.00">&#45;23</text>
</g>
<!-- &#45;24 -->
<g id="node24" class="node">
<title>&#45;24</title>
<polygon fill="lightgray" stroke="black" points="1111,-178.99 1085,-178.99 1085,-162.99 1111,-162.99 1111,-178.99"/>
<text text-anchor="middle" x="1098" y="-169.39" font-family="Times New Roman,serif" font-size="7.00">&#45;24</text>
</g>
<!-- &#45;25 -->
<g id="node25" class="node">
<title>&#45;25</title>
<polygon fill="lightgray" stroke="black" points="1155,-178.99 1129,-178.99 1129,-162.99 1155,-162.99 1155,-178.99"/>
<text text-anchor="middle" x="1142" y="-169.39" font-family="Times New Roman,serif" font-size="7.00">&#45;25</text>
</g>
<!-- &#45;26 -->
<g id="node26" class="node">
<title>&#45;26</title>
<polygon fill="lightgray" stroke="black" points="1199,-178.99 1173,-178.99 1173,-162.99 1199,-162.99 1199,-178.99"/>
<text text-anchor="middle" x="1186" y="-169.39" font-family="Times New Roman,serif" font-size="7.00">&#45;26</text>
</g>
<!-- &#45;27 -->
<g id="node27" class="node">
<title>&#45;27</title>
<polygon fill="lightgray" stroke="black" points="1243,-178.99 1217,-178.99 1217,-162.99 1243,-162.99 1243,-178.99"/>
<text text-anchor="middle" x="1230" y="-169.39" font-family="Times New Roman,serif" font-size="7.00">&#45;27</text>
</g>
<!-- &#45;28 -->
<g id="node28" class="node">
<title>&#45;28</title>
<polygon fill="lightgray" stroke="black" points="1287,-178.99 1261,-178.99 1261,-162.99 1287,-162.99 1287,-178.99"/>
<text text-anchor="middle" x="1274" y="-169.39" font-family="Times New Roman,serif" font-size="7.00">&#45;28</text>
</g>
<!-- &#45;29 -->
<g id="node29" class="node">
<title>&#45;29</title>
<polygon fill="lightgray" stroke="black" points="1331,-178.99 1305,-178.99 1305,-162.99 1331,-162.99 1331,-178.99"/>
<text text-anchor="middle" x="1318" y="-169.39" font-family="Times New Roman,serif" font-size="7.00">&#45;29</text>
</g>
<!-- &#45;30 -->
<g id="node30" class="node">
<title>&#45;30</title>
<polygon fill="lightgray" stroke="black" points="1375,-178.99 1349,-178.99 1349,-162.99 1375,-162.99 1375,-178.99"/>
<text text-anchor="middle" x="1362" y="-169.39" font-family="Times New Roman,serif" font-size="7.00">&#45;30</text>
</g>
<!-- &#45;31 -->
<g id="node31" class="node">
<title>&#45;31</title>
<polygon fill="lightgray" stroke="black" points="1419,-178.99 1393,-178.99 1393,-162.99 1419,-162.99 1419,-178.99"/>
<text text-anchor="middle" x="1406" y="-169.39" font-family="Times New Roman,serif" font-size="7.00">&#45;31</text>
</g>
<!-- &#45;32 -->
<g id="node32" class="node">
<title>&#45;32</title>
<polygon fill="lightgray" stroke="black" points="1463,-178.99 1437,-178.99 1437,-162.99 1463,-162.99 1463,-178.99"/>
<text text-anchor="middle" x="1450" y="-169.39" font-family="Times New Roman,serif" font-size="7.00">&#45;32</text>
</g>
<!-- &#45;33 -->
<g id="node33" class="node">
<title>&#45;33</title>
<polygon fill="lightgray" stroke="black" points="1507,-178.99 1481,-178.99 1481,-162.99 1507,-162.99 1507,-178.99"/>
<text text-anchor="middle" x="1494" y="-169.39" font-family="Times New Roman,serif" font-size="7.00">&#45;33</text>
</g>
<!-- &#45;34 -->
<g id="node34" class="node">
<title>&#45;34</title>
<polygon fill="lightgray" stroke="black" points="453,-178.99 427,-178.99 427,-162.99 453,-162.99 453,-178.99"/>
<text text-anchor="middle" x="440" y="-169.39" font-family="Times New Roman,serif" font-size="7.00">&#45;34</text>
</g>
<!-- &#45;34&#45;&gt;2 -->
<g id="edge6" class="edge">
<title>&#45;34&#45;&gt;2</title>
<path fill="none" stroke="red" stroke-width="0.22" stroke-dasharray="1,5" d="M437.77,-162.94C430.84,-141.06 409.53,-73.7 398.22,-37.96"/>
<polygon fill="red" stroke="red" stroke-width="0.22" points="401.41,-36.45 395.06,-27.97 394.74,-38.56 401.41,-36.45"/>
</g>
<!-- 716 -->
<g id="node43" class="node">
<title>716</title>
<ellipse fill="white" stroke="black" cx="460" cy="-84.08" rx="19.6" ry="19.6"/>
<text text-anchor="middle" x="460" y="-82.48" font-family="Times New Roman,serif" font-size="7.00">716</text>
</g>
<!-- &#45;34&#45;&gt;716 -->
<g id="edge7" class="edge">
<title>&#45;34&#45;&gt;716</title>
<path fill="none" stroke="green" stroke-width="0.52" d="M441.71,-162.76C444.26,-151.89 449.23,-130.79 453.35,-113.32"/>
<polygon fill="green" stroke="green" stroke-width="0.52" points="456.76,-114.09 455.65,-103.55 449.95,-112.48 456.76,-114.09"/>
</g>
<!-- &#45;35 -->
<g id="node35" class="node">
<title>&#45;35</title>
<polygon fill="lightgray" stroke="black" points="1551,-178.99 1525,-178.99 1525,-162.99 1551,-162.99 1551,-178.99"/>
<text text-anchor="middle" x="1538" y="-169.39" font-family="Times New Roman,serif" font-size="7.00">&#45;35</text>
</g>
<!-- &#45;36 -->
<g id="node36" class="node">
<title>&#45;36</title>
<polygon fill="lightgray" stroke="black" points="1595,-178.99 1569,-178.99 1569,-162.99 1595,-162.99 1595,-178.99"/>
<text text-anchor="middle" x="1582" y="-169.39" font-family="Times New Roman,serif" font-size="7.00">&#45;36</text>
</g>
<!-- &#45;37 -->
<g id="node37" class="node">
<title>&#45;37</title>
<polygon fill="lightgray" stroke="black" points="1639,-178.99 1613,-178.99 1613,-162.99 1639,-162.99 1639,-178.99"/>
<text text-anchor="middle" x="1626" y="-169.39" font-family="Times New Roman,serif" font-size="7.00">&#45;37</text>
</g>
<!-- &#45;38 -->
<g id="node38" class="node">
<title>&#45;38</title>
<polygon fill="lightgray" stroke="black" points="1683,-178.99 1657,-178.99 1657,-162.99 1683,-162.99 1683,-178.99"/>
<text text-anchor="middle" x="1670" y="-169.39" font-family="Times New Roman,serif" font-size="7.00">&#45;38</text>
</g>
<!-- A XOR B -->
<g id="node39" class="node">
<title>A XOR B</title>
<ellipse fill="lightblue" stroke="black" cx="1732" cy="-170.99" rx="31.23" ry="31.23"/>
<text text-anchor="middle" x="1732" y="-169.39" font-family="Times New Roman,serif" font-size="7.00">A XOR B</text>
</g>
<!-- 613 -->
<g id="node42" class="node">
<title>613</title>
<ellipse fill="white" stroke="black" cx="345" cy="-170.99" rx="19.6" ry="19.6"/>
<text text-anchor="middle" x="345" y="-169.39" font-family="Times New Roman,serif" font-size="7.00">613</text>
</g>
<!-- 613&#45;&gt;178 -->
<g id="edge5" class="edge">
<title>613&#45;&gt;178</title>
<path fill="none" stroke="green" stroke-width="0.27" d="M339.58,-151.57C336.24,-140.26 331.91,-125.54 328.17,-112.84"/>
<polygon fill="green" stroke="green" stroke-width="0.27" points="331.51,-111.78 325.33,-103.18 324.8,-113.76 331.51,-111.78"/>
</g>
<!-- 716&#45;&gt;2 -->
<g id="edge8" class="edge">
<title>716&#45;&gt;2</title>
<path fill="none" stroke="red" stroke-width="0.1" d="M446.37,-69.66C435.28,-58.75 419.6,-43.3 407.75,-31.64"/>
<polygon fill="red" stroke="red" stroke-width="0.1" points="410.19,-29.12 400.61,-24.6 405.28,-34.11 410.19,-29.12"/>
</g>
<!-- 178&#45;&gt;2 -->
<g id="edge2" class="edge">
<title>178&#45;&gt;2</title>
<path fill="none" stroke="green" stroke-width="0.96" d="M334.03,-69.66C345.43,-58.75 361.57,-43.3 373.76,-31.64"/>
<polygon fill="green" stroke="green" stroke-width="0.96" points="376.31,-34.04 381.11,-24.6 371.47,-28.99 376.31,-34.04"/>
</g>
</g>
</svg>
