<?xml version="1.0" encoding="UTF-8" standalone="no"?>
<!DOCTYPE svg PUBLIC "-//W3C//DTD SVG 1.1//EN"
 "http://www.w3.org/Graphics/SVG/1.1/DTD/svg11.dtd">
<!-- Generated by graphviz version 2.46.0 (20210118.1747)
 -->
<!-- Pages: 1 -->
<svg width="1650pt" height="187pt"
 viewBox="0.00 0.00 1650.00 186.51" xmlns="http://www.w3.org/2000/svg" xmlns:xlink="http://www.w3.org/1999/xlink">
<g id="graph0" class="graph" transform="scale(1 1) rotate(0) translate(4 182.51)">
<polygon fill="white" stroke="transparent" points="-4,4 -4,-182.51 1646,-182.51 1646,4 -4,4"/>
<!-- A -->
<g id="node1" class="node">
<title>A</title>
<polygon fill="lightgray" stroke="black" points="22,-178.51 0,-178.51 0,-162.51 22,-162.51 22,-178.51"/>
<text text-anchor="middle" x="11" y="-168.91" font-family="Times New Roman,serif" font-size="7.00">A</text>
</g>
<!-- B -->
<g id="node2" class="node">
<title>B</title>
<polygon fill="lightgray" stroke="black" points="61.5,-178.51 40.5,-178.51 40.5,-162.51 61.5,-162.51 61.5,-178.51"/>
<text text-anchor="middle" x="51" y="-168.91" font-family="Times New Roman,serif" font-size="7.00">B</text>
</g>
<!-- &#45;3 -->
<g id="node3" class="node">
<title>&#45;3</title>
<polygon fill="lightgray" stroke="black" points="102.5,-178.51 79.5,-178.51 79.5,-162.51 102.5,-162.51 102.5,-178.51"/>
<text text-anchor="middle" x="91" y="-168.91" font-family="Times New Roman,serif" font-size="7.00">&#45;3</text>
</g>
<!-- 1 -->
<g id="node40" class="node">
<title>1</title>
<ellipse fill="lightblue" stroke="black" cx="67" cy="-14.14" rx="14.29" ry="14.29"/>
<text text-anchor="middle" x="67" y="-12.54" font-family="Times New Roman,serif" font-size="7.00">1</text>
</g>
<!-- &#45;3&#45;&gt;1 -->
<g id="edge1" class="edge">
<title>&#45;3&#45;&gt;1</title>
<path fill="none" stroke="green" stroke-width="2.49" d="M84.13,-162.31C77,-154.31 66.32,-140.63 62,-126.51 52.96,-96.95 57.15,-60.93 61.57,-38.01"/>
<polygon fill="green" stroke="green" stroke-width="2.49" points="65.01,-38.69 63.64,-28.19 58.16,-37.25 65.01,-38.69"/>
</g>
<!-- 898 -->
<g id="node42" class="node">
<title>898</title>
<ellipse fill="white" stroke="black" cx="91" cy="-95.4" rx="19.6" ry="19.6"/>
<text text-anchor="middle" x="91" y="-93.8" font-family="Times New Roman,serif" font-size="7.00">898</text>
</g>
<!-- &#45;3&#45;&gt;898 -->
<g id="edge8" class="edge">
<title>&#45;3&#45;&gt;898</title>
<path fill="none" stroke="red" stroke-width="0.18" d="M91,-162.5C91,-154.04 91,-139.27 91,-125.84"/>
<polygon fill="red" stroke="red" stroke-width="0.18" points="94.5,-125.5 91,-115.5 87.5,-125.5 94.5,-125.5"/>
</g>
<!-- 178 -->
<g id="node44" class="node">
<title>178</title>
<ellipse fill="white" stroke="black" cx="149" cy="-95.4" rx="19.6" ry="19.6"/>
<text text-anchor="middle" x="149" y="-93.8" font-family="Times New Roman,serif" font-size="7.00">178</text>
</g>
<!-- &#45;3&#45;&gt;178 -->
<g id="edge6" class="edge">
<title>&#45;3&#45;&gt;178</title>
<path fill="none" stroke="green" stroke-width="0.32" d="M96.56,-162.5C104.41,-152.61 119.09,-134.1 130.93,-119.17"/>
<polygon fill="green" stroke="green" stroke-width="0.32" points="133.68,-121.34 137.15,-111.33 128.2,-116.99 133.68,-121.34"/>
</g>
<!-- &#45;4 -->
<g id="node4" class="node">
<title>&#45;4</title>
<polygon fill="lightgray" stroke="black" points="203.5,-178.51 180.5,-178.51 180.5,-162.51 203.5,-162.51 203.5,-178.51"/>
<text text-anchor="middle" x="192" y="-168.91" font-family="Times New Roman,serif" font-size="7.00">&#45;4</text>
</g>
<!-- &#45;5 -->
<g id="node5" class="node">
<title>&#45;5</title>
<polygon fill="lightgray" stroke="black" points="244.5,-178.51 221.5,-178.51 221.5,-162.51 244.5,-162.51 244.5,-178.51"/>
<text text-anchor="middle" x="233" y="-168.91" font-family="Times New Roman,serif" font-size="7.00">&#45;5</text>
</g>
<!-- A XOR B -->
<g id="node39" class="node">
<title>A XOR B</title>
<ellipse fill="lightblue" stroke="black" cx="233" cy="-95.4" rx="31.23" ry="31.23"/>
<text text-anchor="middle" x="233" y="-93.8" font-family="Times New Roman,serif" font-size="7.00">A XOR B</text>
</g>
<!-- &#45;5&#45;&gt;A XOR B -->
<g id="edge11" class="edge">
<title>&#45;5&#45;&gt;A XOR B</title>
<path fill="none" stroke="red" stroke-width="0.14" d="M233,-162.5C233,-156.28 233,-146.65 233,-136.65"/>
<polygon fill="red" stroke="red" stroke-width="0.14" points="236.5,-136.64 233,-126.64 229.5,-136.64 236.5,-136.64"/>
</g>
<!-- &#45;6 -->
<g id="node6" class="node">
<title>&#45;6</title>
<polygon fill="lightgray" stroke="black" points="285.5,-178.51 262.5,-178.51 262.5,-162.51 285.5,-162.51 285.5,-178.51"/>
<text text-anchor="middle" x="274" y="-168.91" font-family="Times New Roman,serif" font-size="7.00">&#45;6</text>
</g>
<!-- 527 -->
<g id="node43" class="node">
<title>527</title>
<ellipse fill="white" stroke="black" cx="317" cy="-95.4" rx="19.6" ry="19.6"/>
<text text-anchor="middle" x="317" y="-93.8" font-family="Times New Roman,serif" font-size="7.00">527</text>
</g>
<!-- &#45;6&#45;&gt;527 -->
<g id="edge5" class="edge">
<title>&#45;6&#45;&gt;527</title>
<path fill="none" stroke="red" stroke-width="0.14" d="M278.12,-162.5C283.61,-153.18 293.59,-136.19 302.07,-121.78"/>
<polygon fill="red" stroke="red" stroke-width="0.14" points="305.31,-123.17 307.36,-112.78 299.28,-119.63 305.31,-123.17"/>
</g>
<!-- &#45;7 -->
<g id="node7" class="node">
<title>&#45;7</title>
<polygon fill="lightgray" stroke="black" points="415.5,-178.51 392.5,-178.51 392.5,-162.51 415.5,-162.51 415.5,-178.51"/>
<text text-anchor="middle" x="404" y="-168.91" font-family="Times New Roman,serif" font-size="7.00">&#45;7</text>
</g>
<!-- &#45;8 -->
<g id="node8" class="node">
<title>&#45;8</title>
<polygon fill="lightgray" stroke="black" points="456.5,-178.51 433.5,-178.51 433.5,-162.51 456.5,-162.51 456.5,-178.51"/>
<text text-anchor="middle" x="445" y="-168.91" font-family="Times New Roman,serif" font-size="7.00">&#45;8</text>
</g>
<!-- &#45;9 -->
<g id="node9" class="node">
<title>&#45;9</title>
<polygon fill="lightgray" stroke="black" points="497.5,-178.51 474.5,-178.51 474.5,-162.51 497.5,-162.51 497.5,-178.51"/>
<text text-anchor="middle" x="486" y="-168.91" font-family="Times New Roman,serif" font-size="7.00">&#45;9</text>
</g>
<!-- &#45;10 -->
<g id="node10" class="node">
<title>&#45;10</title>
<polygon fill="lightgray" stroke="black" points="542,-178.51 516,-178.51 516,-162.51 542,-162.51 542,-178.51"/>
<text text-anchor="middle" x="529" y="-168.91" font-family="Times New Roman,serif" font-size="7.00">&#45;10</text>
</g>
<!-- 2 -->
<g id="node41" class="node">
<title>2</title>
<ellipse fill="lightblue" stroke="black" cx="551" cy="-95.4" rx="14.29" ry="14.29"/>
<text text-anchor="middle" x="551" y="-93.8" font-family="Times New Roman,serif" font-size="7.00">2</text>
</g>
<!-- &#45;10&#45;&gt;2 -->
<g id="edge2" class="edge">
<title>&#45;10&#45;&gt;2</title>
<path fill="none" stroke="red" stroke-width="0.81" d="M531.11,-162.5C534.12,-152.51 539.77,-133.73 544.28,-118.73"/>
<polygon fill="red" stroke="red" stroke-width="0.81" points="547.65,-119.69 547.18,-109.11 540.94,-117.67 547.65,-119.69"/>
</g>
<!-- &#45;11 -->
<g id="node11" class="node">
<title>&#45;11</title>
<polygon fill="lightgray" stroke="black" points="630,-178.51 604,-178.51 604,-162.51 630,-162.51 630,-178.51"/>
<text text-anchor="middle" x="617" y="-168.91" font-family="Times New Roman,serif" font-size="7.00">&#45;11</text>
</g>
<!-- &#45;12 -->
<g id="node12" class="node">
<title>&#45;12</title>
<polygon fill="lightgray" stroke="black" points="674,-178.51 648,-178.51 648,-162.51 674,-162.51 674,-178.51"/>
<text text-anchor="middle" x="661" y="-168.91" font-family="Times New Roman,serif" font-size="7.00">&#45;12</text>
</g>
<!-- &#45;13 -->
<g id="node13" class="node">
<title>&#45;13</title>
<polygon fill="lightgray" stroke="black" points="586,-178.51 560,-178.51 560,-162.51 586,-162.51 586,-178.51"/>
<text text-anchor="middle" x="573" y="-168.91" font-family="Times New Roman,serif" font-size="7.00">&#45;13</text>
</g>
<!-- &#45;13&#45;&gt;2 -->
<g id="edge3" class="edge">
<title>&#45;13&#45;&gt;2</title>
<path fill="none" stroke="red" stroke-width="0.34" d="M570.89,-162.5C567.88,-152.51 562.23,-133.73 557.72,-118.73"/>
<polygon fill="red" stroke="red" stroke-width="0.34" points="561.06,-117.67 554.82,-109.11 554.35,-119.69 561.06,-117.67"/>
</g>
<!-- &#45;14 -->
<g id="node14" class="node">
<title>&#45;14</title>
<polygon fill="lightgray" stroke="black" points="718,-178.51 692,-178.51 692,-162.51 718,-162.51 718,-178.51"/>
<text text-anchor="middle" x="705" y="-168.91" font-family="Times New Roman,serif" font-size="7.00">&#45;14</text>
</g>
<!-- &#45;15 -->
<g id="node15" class="node">
<title>&#45;15</title>
<polygon fill="lightgray" stroke="black" points="762,-178.51 736,-178.51 736,-162.51 762,-162.51 762,-178.51"/>
<text text-anchor="middle" x="749" y="-168.91" font-family="Times New Roman,serif" font-size="7.00">&#45;15</text>
</g>
<!-- &#45;16 -->
<g id="node16" class="node">
<title>&#45;16</title>
<polygon fill="lightgray" stroke="black" points="806,-178.51 780,-178.51 780,-162.51 806,-162.51 806,-178.51"/>
<text text-anchor="middle" x="793" y="-168.91" font-family="Times New Roman,serif" font-size="7.00">&#45;16</text>
</g>
<!-- &#45;17 -->
<g id="node17" class="node">
<title>&#45;17</title>
<polygon fill="lightgray" stroke="black" points="850,-178.51 824,-178.51 824,-162.51 850,-162.51 850,-178.51"/>
<text text-anchor="middle" x="837" y="-168.91" font-family="Times New Roman,serif" font-size="7.00">&#45;17</text>
</g>
<!-- &#45;18 -->
<g id="node18" class="node">
<title>&#45;18</title>
<polygon fill="lightgray" stroke="black" points="894,-178.51 868,-178.51 868,-162.51 894,-162.51 894,-178.51"/>
<text text-anchor="middle" x="881" y="-168.91" font-family="Times New Roman,serif" font-size="7.00">&#45;18</text>
</g>
<!-- &#45;19 -->
<g id="node19" class="node">
<title>&#45;19</title>
<polygon fill="lightgray" stroke="black" points="938,-178.51 912,-178.51 912,-162.51 938,-162.51 938,-178.51"/>
<text text-anchor="middle" x="925" y="-168.91" font-family="Times New Roman,serif" font-size="7.00">&#45;19</text>
</g>
<!-- &#45;20 -->
<g id="node20" class="node">
<title>&#45;20</title>
<polygon fill="lightgray" stroke="black" points="982,-178.51 956,-178.51 956,-162.51 982,-162.51 982,-178.51"/>
<text text-anchor="middle" x="969" y="-168.91" font-family="Times New Roman,serif" font-size="7.00">&#45;20</text>
</g>
<!-- &#45;21 -->
<g id="node21" class="node">
<title>&#45;21</title>
<polygon fill="lightgray" stroke="black" points="1026,-178.51 1000,-178.51 1000,-162.51 1026,-162.51 1026,-178.51"/>
<text text-anchor="middle" x="1013" y="-168.91" font-family="Times New Roman,serif" font-size="7.00">&#45;21</text>
</g>
<!-- &#45;22 -->
<g id="node22" class="node">
<title>&#45;22</title>
<polygon fill="lightgray" stroke="black" points="1070,-178.51 1044,-178.51 1044,-162.51 1070,-162.51 1070,-178.51"/>
<text text-anchor="middle" x="1057" y="-168.91" font-family="Times New Roman,serif" font-size="7.00">&#45;22</text>
</g>
<!-- &#45;23 -->
<g id="node23" class="node">
<title>&#45;23</title>
<polygon fill="lightgray" stroke="black" points="1114,-178.51 1088,-178.51 1088,-162.51 1114,-162.51 1114,-178.51"/>
<text text-anchor="middle" x="1101" y="-168.91" font-family="Times New Roman,serif" font-size="7.00">&#45;23</text>
</g>
<!-- &#45;24 -->
<g id="node24" class="node">
<title>&#45;24</title>
<polygon fill="lightgray" stroke="black" points="1158,-178.51 1132,-178.51 1132,-162.51 1158,-162.51 1158,-178.51"/>
<text text-anchor="middle" x="1145" y="-168.91" font-family="Times New Roman,serif" font-size="7.00">&#45;24</text>
</g>
<!-- &#45;25 -->
<g id="node25" class="node">
<title>&#45;25</title>
<polygon fill="lightgray" stroke="black" points="1202,-178.51 1176,-178.51 1176,-162.51 1202,-162.51 1202,-178.51"/>
<text text-anchor="middle" x="1189" y="-168.91" font-family="Times New Roman,serif" font-size="7.00">&#45;25</text>
</g>
<!-- &#45;26 -->
<g id="node26" class="node">
<title>&#45;26</title>
<polygon fill="lightgray" stroke="black" points="1246,-178.51 1220,-178.51 1220,-162.51 1246,-162.51 1246,-178.51"/>
<text text-anchor="middle" x="1233" y="-168.91" font-family="Times New Roman,serif" font-size="7.00">&#45;26</text>
</g>
<!-- &#45;27 -->
<g id="node27" class="node">
<title>&#45;27</title>
<polygon fill="lightgray" stroke="black" points="1290,-178.51 1264,-178.51 1264,-162.51 1290,-162.51 1290,-178.51"/>
<text text-anchor="middle" x="1277" y="-168.91" font-family="Times New Roman,serif" font-size="7.00">&#45;27</text>
</g>
<!-- &#45;28 -->
<g id="node28" class="node">
<title>&#45;28</title>
<polygon fill="lightgray" stroke="black" points="330,-178.51 304,-178.51 304,-162.51 330,-162.51 330,-178.51"/>
<text text-anchor="middle" x="317" y="-168.91" font-family="Times New Roman,serif" font-size="7.00">&#45;28</text>
</g>
<!-- &#45;28&#45;&gt;527 -->
<g id="edge10" class="edge">
<title>&#45;28&#45;&gt;527</title>
<path fill="none" stroke="red" stroke-width="0.39" d="M317,-162.5C317,-154.04 317,-139.27 317,-125.84"/>
<polygon fill="red" stroke="red" stroke-width="0.39" points="320.5,-125.5 317,-115.5 313.5,-125.5 320.5,-125.5"/>
</g>
<!-- &#45;29 -->
<g id="node29" class="node">
<title>&#45;29</title>
<polygon fill="lightgray" stroke="black" points="1334,-178.51 1308,-178.51 1308,-162.51 1334,-162.51 1334,-178.51"/>
<text text-anchor="middle" x="1321" y="-168.91" font-family="Times New Roman,serif" font-size="7.00">&#45;29</text>
</g>
<!-- &#45;30 -->
<g id="node30" class="node">
<title>&#45;30</title>
<polygon fill="lightgray" stroke="black" points="1378,-178.51 1352,-178.51 1352,-162.51 1378,-162.51 1378,-178.51"/>
<text text-anchor="middle" x="1365" y="-168.91" font-family="Times New Roman,serif" font-size="7.00">&#45;30</text>
</g>
<!-- &#45;31 -->
<g id="node31" class="node">
<title>&#45;31</title>
<polygon fill="lightgray" stroke="black" points="1422,-178.51 1396,-178.51 1396,-162.51 1422,-162.51 1422,-178.51"/>
<text text-anchor="middle" x="1409" y="-168.91" font-family="Times New Roman,serif" font-size="7.00">&#45;31</text>
</g>
<!-- &#45;32 -->
<g id="node32" class="node">
<title>&#45;32</title>
<polygon fill="lightgray" stroke="black" points="162,-178.51 136,-178.51 136,-162.51 162,-162.51 162,-178.51"/>
<text text-anchor="middle" x="149" y="-168.91" font-family="Times New Roman,serif" font-size="7.00">&#45;32</text>
</g>
<!-- &#45;32&#45;&gt;178 -->
<g id="edge4" class="edge">
<title>&#45;32&#45;&gt;178</title>
<path fill="none" stroke="green" stroke-width="0.34" d="M149,-162.5C149,-154.04 149,-139.27 149,-125.84"/>
<polygon fill="green" stroke="green" stroke-width="0.34" points="152.5,-125.5 149,-115.5 145.5,-125.5 152.5,-125.5"/>
</g>
<!-- &#45;33 -->
<g id="node33" class="node">
<title>&#45;33</title>
<polygon fill="lightgray" stroke="black" points="1466,-178.51 1440,-178.51 1440,-162.51 1466,-162.51 1466,-178.51"/>
<text text-anchor="middle" x="1453" y="-168.91" font-family="Times New Roman,serif" font-size="7.00">&#45;33</text>
</g>
<!-- &#45;34 -->
<g id="node34" class="node">
<title>&#45;34</title>
<polygon fill="lightgray" stroke="black" points="1510,-178.51 1484,-178.51 1484,-162.51 1510,-162.51 1510,-178.51"/>
<text text-anchor="middle" x="1497" y="-168.91" font-family="Times New Roman,serif" font-size="7.00">&#45;34</text>
</g>
<!-- &#45;35 -->
<g id="node35" class="node">
<title>&#45;35</title>
<polygon fill="lightgray" stroke="black" points="1554,-178.51 1528,-178.51 1528,-162.51 1554,-162.51 1554,-178.51"/>
<text text-anchor="middle" x="1541" y="-168.91" font-family="Times New Roman,serif" font-size="7.00">&#45;35</text>
</g>
<!-- &#45;36 -->
<g id="node36" class="node">
<title>&#45;36</title>
<polygon fill="lightgray" stroke="black" points="1598,-178.51 1572,-178.51 1572,-162.51 1598,-162.51 1598,-178.51"/>
<text text-anchor="middle" x="1585" y="-168.91" font-family="Times New Roman,serif" font-size="7.00">&#45;36</text>
</g>
<!-- &#45;37 -->
<g id="node37" class="node">
<title>&#45;37</title>
<polygon fill="lightgray" stroke="black" points="374,-178.51 348,-178.51 348,-162.51 374,-162.51 374,-178.51"/>
<text text-anchor="middle" x="361" y="-168.91" font-family="Times New Roman,serif" font-size="7.00">&#45;37</text>
</g>
<!-- &#45;37&#45;&gt;527 -->
<g id="edge7" class="edge">
<title>&#45;37&#45;&gt;527</title>
<path fill="none" stroke="green" stroke-width="0.76" d="M356.78,-162.5C351.12,-153.09 340.76,-135.87 332.03,-121.37"/>
<polygon fill="green" stroke="green" stroke-width="0.76" points="335.02,-119.54 326.86,-112.78 329.02,-123.15 335.02,-119.54"/>
</g>
<!-- &#45;38 -->
<g id="node38" class="node">
<title>&#45;38</title>
<polygon fill="lightgray" stroke="black" points="1642,-178.51 1616,-178.51 1616,-162.51 1642,-162.51 1642,-178.51"/>
<text text-anchor="middle" x="1629" y="-168.91" font-family="Times New Roman,serif" font-size="7.00">&#45;38</text>
</g>
<!-- 898&#45;&gt;1 -->
<g id="edge9" class="edge">
<title>898&#45;&gt;1</title>
<path fill="none" stroke="green" stroke-width="0.2" d="M85.43,-76.02C82.01,-64.7 77.59,-50.1 73.93,-38.03"/>
<polygon fill="green" stroke="green" stroke-width="0.2" points="77.21,-36.79 70.96,-28.23 70.51,-38.81 77.21,-36.79"/>
</g>
</g>
</svg>
