<?xml version="1.0" encoding="UTF-8" standalone="no"?>
<!DOCTYPE svg PUBLIC "-//W3C//DTD SVG 1.1//EN"
 "http://www.w3.org/Graphics/SVG/1.1/DTD/svg11.dtd">
<!-- Generated by graphviz version 2.46.0 (20210118.1747)
 -->
<!-- Pages: 1 -->
<svg width="1714pt" height="210pt"
 viewBox="0.00 0.00 1714.00 210.11" xmlns="http://www.w3.org/2000/svg" xmlns:xlink="http://www.w3.org/1999/xlink">
<g id="graph0" class="graph" transform="scale(1 1) rotate(0) translate(4 206.11)">
<polygon fill="white" stroke="transparent" points="-4,4 -4,-206.11 1710,-206.11 1710,4 -4,4"/>
<!-- A -->
<g id="node1" class="node">
<title>A</title>
<polygon fill="lightgray" stroke="black" points="22,-178.99 0,-178.99 0,-162.99 22,-162.99 22,-178.99"/>
<text text-anchor="middle" x="11" y="-169.39" font-family="Times New Roman,serif" font-size="7.00">A</text>
</g>
<!-- B -->
<g id="node2" class="node">
<title>B</title>
<polygon fill="lightgray" stroke="black" points="61.5,-178.99 40.5,-178.99 40.5,-162.99 61.5,-162.99 61.5,-178.99"/>
<text text-anchor="middle" x="51" y="-169.39" font-family="Times New Roman,serif" font-size="7.00">B</text>
</g>
<!-- &#45;3 -->
<g id="node3" class="node">
<title>&#45;3</title>
<polygon fill="lightgray" stroke="black" points="102.5,-178.99 79.5,-178.99 79.5,-162.99 102.5,-162.99 102.5,-178.99"/>
<text text-anchor="middle" x="91" y="-169.39" font-family="Times New Roman,serif" font-size="7.00">&#45;3</text>
</g>
<!-- 1 -->
<g id="node40" class="node">
<title>1</title>
<ellipse fill="lightblue" stroke="black" cx="115" cy="-14.14" rx="14.29" ry="14.29"/>
<text text-anchor="middle" x="115" y="-12.54" font-family="Times New Roman,serif" font-size="7.00">1</text>
</g>
<!-- &#45;3&#45;&gt;1 -->
<g id="edge2" class="edge">
<title>&#45;3&#45;&gt;1</title>
<path fill="none" stroke="green" stroke-width="0.88" d="M92.09,-162.94C95.47,-141.17 105.82,-74.36 111.38,-38.49"/>
<polygon fill="green" stroke="green" stroke-width="0.88" points="114.87,-38.85 112.94,-28.43 107.95,-37.78 114.87,-38.85"/>
</g>
<!-- 286 -->
<g id="node42" class="node">
<title>286</title>
<ellipse fill="white" stroke="black" cx="139" cy="-84.08" rx="19.6" ry="19.6"/>
<text text-anchor="middle" x="139" y="-82.48" font-family="Times New Roman,serif" font-size="7.00">286</text>
</g>
<!-- &#45;3&#45;&gt;286 -->
<g id="edge3" class="edge">
<title>&#45;3&#45;&gt;286</title>
<path fill="none" stroke="green" stroke-width="0.18" d="M95.09,-162.76C101.54,-151.35 114.37,-128.65 124.51,-110.72"/>
<polygon fill="green" stroke="green" stroke-width="0.18" points="127.64,-112.29 129.51,-101.86 121.55,-108.85 127.64,-112.29"/>
</g>
<!-- &#45;4 -->
<g id="node4" class="node">
<title>&#45;4</title>
<polygon fill="lightgray" stroke="black" points="224.5,-178.99 201.5,-178.99 201.5,-162.99 224.5,-162.99 224.5,-178.99"/>
<text text-anchor="middle" x="213" y="-169.39" font-family="Times New Roman,serif" font-size="7.00">&#45;4</text>
</g>
<!-- &#45;5 -->
<g id="node5" class="node">
<title>&#45;5</title>
<polygon fill="lightgray" stroke="black" points="265.5,-178.99 242.5,-178.99 242.5,-162.99 265.5,-162.99 265.5,-178.99"/>
<text text-anchor="middle" x="254" y="-169.39" font-family="Times New Roman,serif" font-size="7.00">&#45;5</text>
</g>
<!-- &#45;6 -->
<g id="node6" class="node">
<title>&#45;6</title>
<polygon fill="lightgray" stroke="black" points="306.5,-178.99 283.5,-178.99 283.5,-162.99 306.5,-162.99 306.5,-178.99"/>
<text text-anchor="middle" x="295" y="-169.39" font-family="Times New Roman,serif" font-size="7.00">&#45;6</text>
</g>
<!-- &#45;7 -->
<g id="node7" class="node">
<title>&#45;7</title>
<polygon fill="lightgray" stroke="black" points="347.5,-178.99 324.5,-178.99 324.5,-162.99 347.5,-162.99 347.5,-178.99"/>
<text text-anchor="middle" x="336" y="-169.39" font-family="Times New Roman,serif" font-size="7.00">&#45;7</text>
</g>
<!-- &#45;8 -->
<g id="node8" class="node">
<title>&#45;8</title>
<polygon fill="lightgray" stroke="black" points="388.5,-178.99 365.5,-178.99 365.5,-162.99 388.5,-162.99 388.5,-178.99"/>
<text text-anchor="middle" x="377" y="-169.39" font-family="Times New Roman,serif" font-size="7.00">&#45;8</text>
</g>
<!-- &#45;9 -->
<g id="node9" class="node">
<title>&#45;9</title>
<polygon fill="lightgray" stroke="black" points="429.5,-178.99 406.5,-178.99 406.5,-162.99 429.5,-162.99 429.5,-178.99"/>
<text text-anchor="middle" x="418" y="-169.39" font-family="Times New Roman,serif" font-size="7.00">&#45;9</text>
</g>
<!-- &#45;10 -->
<g id="node10" class="node">
<title>&#45;10</title>
<polygon fill="lightgray" stroke="black" points="474,-178.99 448,-178.99 448,-162.99 474,-162.99 474,-178.99"/>
<text text-anchor="middle" x="461" y="-169.39" font-family="Times New Roman,serif" font-size="7.00">&#45;10</text>
</g>
<!-- &#45;11 -->
<g id="node11" class="node">
<title>&#45;11</title>
<polygon fill="lightgray" stroke="black" points="518,-178.99 492,-178.99 492,-162.99 518,-162.99 518,-178.99"/>
<text text-anchor="middle" x="505" y="-169.39" font-family="Times New Roman,serif" font-size="7.00">&#45;11</text>
</g>
<!-- &#45;12 -->
<g id="node12" class="node">
<title>&#45;12</title>
<polygon fill="lightgray" stroke="black" points="562,-178.99 536,-178.99 536,-162.99 562,-162.99 562,-178.99"/>
<text text-anchor="middle" x="549" y="-169.39" font-family="Times New Roman,serif" font-size="7.00">&#45;12</text>
</g>
<!-- &#45;13 -->
<g id="node13" class="node">
<title>&#45;13</title>
<polygon fill="lightgray" stroke="black" points="606,-178.99 580,-178.99 580,-162.99 606,-162.99 606,-178.99"/>
<text text-anchor="middle" x="593" y="-169.39" font-family="Times New Roman,serif" font-size="7.00">&#45;13</text>
</g>
<!-- &#45;14 -->
<g id="node14" class="node">
<title>&#45;14</title>
<polygon fill="lightgray" stroke="black" points="650,-178.99 624,-178.99 624,-162.99 650,-162.99 650,-178.99"/>
<text text-anchor="middle" x="637" y="-169.39" font-family="Times New Roman,serif" font-size="7.00">&#45;14</text>
</g>
<!-- &#45;15 -->
<g id="node15" class="node">
<title>&#45;15</title>
<polygon fill="lightgray" stroke="black" points="694,-178.99 668,-178.99 668,-162.99 694,-162.99 694,-178.99"/>
<text text-anchor="middle" x="681" y="-169.39" font-family="Times New Roman,serif" font-size="7.00">&#45;15</text>
</g>
<!-- &#45;16 -->
<g id="node16" class="node">
<title>&#45;16</title>
<polygon fill="lightgray" stroke="black" points="738,-178.99 712,-178.99 712,-162.99 738,-162.99 738,-178.99"/>
<text text-anchor="middle" x="725" y="-169.39" font-family="Times New Roman,serif" font-size="7.00">&#45;16</text>
</g>
<!-- 2 -->
<g id="node41" class="node">
<title>2</title>
<ellipse fill="lightblue" stroke="black" cx="725" cy="-84.08" rx="14.29" ry="14.29"/>
<text text-anchor="middle" x="725" y="-82.48" font-family="Times New Roman,serif" font-size="7.00">2</text>
</g>
<!-- &#45;16&#45;&gt;2 -->
<g id="edge1" class="edge">
<title>&#45;16&#45;&gt;2</title>
<path fill="none" stroke="red" stroke-width="0.71" d="M725,-162.76C725,-150.88 725,-126.75 725,-108.52"/>
<polygon fill="red" stroke="red" stroke-width="0.71" points="728.5,-108.34 725,-98.34 721.5,-108.34 728.5,-108.34"/>
</g>
<!-- &#45;17 -->
<g id="node17" class="node">
<title>&#45;17</title>
<polygon fill="lightgray" stroke="black" points="782,-178.99 756,-178.99 756,-162.99 782,-162.99 782,-178.99"/>
<text text-anchor="middle" x="769" y="-169.39" font-family="Times New Roman,serif" font-size="7.00">&#45;17</text>
</g>
<!-- &#45;18 -->
<g id="node18" class="node">
<title>&#45;18</title>
<polygon fill="lightgray" stroke="black" points="826,-178.99 800,-178.99 800,-162.99 826,-162.99 826,-178.99"/>
<text text-anchor="middle" x="813" y="-169.39" font-family="Times New Roman,serif" font-size="7.00">&#45;18</text>
</g>
<!-- &#45;19 -->
<g id="node19" class="node">
<title>&#45;19</title>
<polygon fill="lightgray" stroke="black" points="870,-178.99 844,-178.99 844,-162.99 870,-162.99 870,-178.99"/>
<text text-anchor="middle" x="857" y="-169.39" font-family="Times New Roman,serif" font-size="7.00">&#45;19</text>
</g>
<!-- &#45;20 -->
<g id="node20" class="node">
<title>&#45;20</title>
<polygon fill="lightgray" stroke="black" points="914,-178.99 888,-178.99 888,-162.99 914,-162.99 914,-178.99"/>
<text text-anchor="middle" x="901" y="-169.39" font-family="Times New Roman,serif" font-size="7.00">&#45;20</text>
</g>
<!-- &#45;21 -->
<g id="node21" class="node">
<title>&#45;21</title>
<polygon fill="lightgray" stroke="black" points="958,-178.99 932,-178.99 932,-162.99 958,-162.99 958,-178.99"/>
<text text-anchor="middle" x="945" y="-169.39" font-family="Times New Roman,serif" font-size="7.00">&#45;21</text>
</g>
<!-- &#45;22 -->
<g id="node22" class="node">
<title>&#45;22</title>
<polygon fill="lightgray" stroke="black" points="1002,-178.99 976,-178.99 976,-162.99 1002,-162.99 1002,-178.99"/>
<text text-anchor="middle" x="989" y="-169.39" font-family="Times New Roman,serif" font-size="7.00">&#45;22</text>
</g>
<!-- &#45;23 -->
<g id="node23" class="node">
<title>&#45;23</title>
<polygon fill="lightgray" stroke="black" points="1046,-178.99 1020,-178.99 1020,-162.99 1046,-162.99 1046,-178.99"/>
<text text-anchor="middle" x="1033" y="-169.39" font-family="Times New Roman,serif" font-size="7.00">&#45;23</text>
</g>
<!-- &#45;24 -->
<g id="node24" class="node">
<title>&#45;24</title>
<polygon fill="lightgray" stroke="black" points="1090,-178.99 1064,-178.99 1064,-162.99 1090,-162.99 1090,-178.99"/>
<text text-anchor="middle" x="1077" y="-169.39" font-family="Times New Roman,serif" font-size="7.00">&#45;24</text>
</g>
<!-- &#45;25 -->
<g id="node25" class="node">
<title>&#45;25</title>
<polygon fill="lightgray" stroke="black" points="1134,-178.99 1108,-178.99 1108,-162.99 1134,-162.99 1134,-178.99"/>
<text text-anchor="middle" x="1121" y="-169.39" font-family="Times New Roman,serif" font-size="7.00">&#45;25</text>
</g>
<!-- &#45;26 -->
<g id="node26" class="node">
<title>&#45;26</title>
<polygon fill="lightgray" stroke="black" points="1178,-178.99 1152,-178.99 1152,-162.99 1178,-162.99 1178,-178.99"/>
<text text-anchor="middle" x="1165" y="-169.39" font-family="Times New Roman,serif" font-size="7.00">&#45;26</text>
</g>
<!-- &#45;27 -->
<g id="node27" class="node">
<title>&#45;27</title>
<polygon fill="lightgray" stroke="black" points="1222,-178.99 1196,-178.99 1196,-162.99 1222,-162.99 1222,-178.99"/>
<text text-anchor="middle" x="1209" y="-169.39" font-family="Times New Roman,serif" font-size="7.00">&#45;27</text>
</g>
<!-- &#45;28 -->
<g id="node28" class="node">
<title>&#45;28</title>
<polygon fill="lightgray" stroke="black" points="1266,-178.99 1240,-178.99 1240,-162.99 1266,-162.99 1266,-178.99"/>
<text text-anchor="middle" x="1253" y="-169.39" font-family="Times New Roman,serif" font-size="7.00">&#45;28</text>
</g>
<!-- &#45;29 -->
<g id="node29" class="node">
<title>&#45;29</title>
<polygon fill="lightgray" stroke="black" points="1310,-178.99 1284,-178.99 1284,-162.99 1310,-162.99 1310,-178.99"/>
<text text-anchor="middle" x="1297" y="-169.39" font-family="Times New Roman,serif" font-size="7.00">&#45;29</text>
</g>
<!-- &#45;30 -->
<g id="node30" class="node">
<title>&#45;30</title>
<polygon fill="lightgray" stroke="black" points="1354,-178.99 1328,-178.99 1328,-162.99 1354,-162.99 1354,-178.99"/>
<text text-anchor="middle" x="1341" y="-169.39" font-family="Times New Roman,serif" font-size="7.00">&#45;30</text>
</g>
<!-- &#45;31 -->
<g id="node31" class="node">
<title>&#45;31</title>
<polygon fill="lightgray" stroke="black" points="1398,-178.99 1372,-178.99 1372,-162.99 1398,-162.99 1398,-178.99"/>
<text text-anchor="middle" x="1385" y="-169.39" font-family="Times New Roman,serif" font-size="7.00">&#45;31</text>
</g>
<!-- &#45;32 -->
<g id="node32" class="node">
<title>&#45;32</title>
<polygon fill="lightgray" stroke="black" points="1442,-178.99 1416,-178.99 1416,-162.99 1442,-162.99 1442,-178.99"/>
<text text-anchor="middle" x="1429" y="-169.39" font-family="Times New Roman,serif" font-size="7.00">&#45;32</text>
</g>
<!-- &#45;33 -->
<g id="node33" class="node">
<title>&#45;33</title>
<polygon fill="lightgray" stroke="black" points="1486,-178.99 1460,-178.99 1460,-162.99 1486,-162.99 1486,-178.99"/>
<text text-anchor="middle" x="1473" y="-169.39" font-family="Times New Roman,serif" font-size="7.00">&#45;33</text>
</g>
<!-- &#45;34 -->
<g id="node34" class="node">
<title>&#45;34</title>
<polygon fill="lightgray" stroke="black" points="1530,-178.99 1504,-178.99 1504,-162.99 1530,-162.99 1530,-178.99"/>
<text text-anchor="middle" x="1517" y="-169.39" font-family="Times New Roman,serif" font-size="7.00">&#45;34</text>
</g>
<!-- &#45;35 -->
<g id="node35" class="node">
<title>&#45;35</title>
<polygon fill="lightgray" stroke="black" points="1574,-178.99 1548,-178.99 1548,-162.99 1574,-162.99 1574,-178.99"/>
<text text-anchor="middle" x="1561" y="-169.39" font-family="Times New Roman,serif" font-size="7.00">&#45;35</text>
</g>
<!-- &#45;36 -->
<g id="node36" class="node">
<title>&#45;36</title>
<polygon fill="lightgray" stroke="black" points="1618,-178.99 1592,-178.99 1592,-162.99 1618,-162.99 1618,-178.99"/>
<text text-anchor="middle" x="1605" y="-169.39" font-family="Times New Roman,serif" font-size="7.00">&#45;36</text>
</g>
<!-- &#45;37 -->
<g id="node37" class="node">
<title>&#45;37</title>
<polygon fill="lightgray" stroke="black" points="1662,-178.99 1636,-178.99 1636,-162.99 1662,-162.99 1662,-178.99"/>
<text text-anchor="middle" x="1649" y="-169.39" font-family="Times New Roman,serif" font-size="7.00">&#45;37</text>
</g>
<!-- &#45;38 -->
<g id="node38" class="node">
<title>&#45;38</title>
<polygon fill="lightgray" stroke="black" points="1706,-178.99 1680,-178.99 1680,-162.99 1706,-162.99 1706,-178.99"/>
<text text-anchor="middle" x="1693" y="-169.39" font-family="Times New Roman,serif" font-size="7.00">&#45;38</text>
</g>
<!-- A XOR B -->
<g id="node39" class="node">
<title>A XOR B</title>
<ellipse fill="lightblue" stroke="black" cx="152" cy="-170.99" rx="31.23" ry="31.23"/>
<text text-anchor="middle" x="152" y="-169.39" font-family="Times New Roman,serif" font-size="7.00">A XOR B</text>
</g>
<!-- A XOR B&#45;&gt;286 -->
<g id="edge5" class="edge">
<title>A XOR B&#45;&gt;286</title>
<path fill="none" stroke="green" stroke-width="0.49" d="M147.38,-139.82C146.09,-131.37 144.69,-122.22 143.4,-113.85"/>
<polygon fill="green" stroke="green" stroke-width="0.49" points="146.84,-113.15 141.87,-103.8 139.92,-114.21 146.84,-113.15"/>
</g>
<!-- 286&#45;&gt;1 -->
<g id="edge4" class="edge">
<title>286&#45;&gt;1</title>
<path fill="none" stroke="green" stroke-width="1.54" d="M132.69,-65.23C129.67,-56.66 126.01,-46.31 122.81,-37.25"/>
<polygon fill="green" stroke="green" stroke-width="1.54" points="126.08,-35.99 119.45,-27.73 119.48,-38.32 126.08,-35.99"/>
</g>
</g>
</svg>
